%TF.GenerationSoftware,KiCad,Pcbnew,8.0.0*%
%TF.CreationDate,2024-09-22T13:18:53-04:00*%
%TF.ProjectId,MiniCarrierBoard,4d696e69-4361-4727-9269-6572426f6172,rev?*%
%TF.SameCoordinates,Original*%
%TF.FileFunction,Paste,Top*%
%TF.FilePolarity,Positive*%
%FSLAX46Y46*%
G04 Gerber Fmt 4.6, Leading zero omitted, Abs format (unit mm)*
G04 Created by KiCad (PCBNEW 8.0.0) date 2024-09-22 13:18:53*
%MOMM*%
%LPD*%
G01*
G04 APERTURE LIST*
G04 Aperture macros list*
%AMRoundRect*
0 Rectangle with rounded corners*
0 $1 Rounding radius*
0 $2 $3 $4 $5 $6 $7 $8 $9 X,Y pos of 4 corners*
0 Add a 4 corners polygon primitive as box body*
4,1,4,$2,$3,$4,$5,$6,$7,$8,$9,$2,$3,0*
0 Add four circle primitives for the rounded corners*
1,1,$1+$1,$2,$3*
1,1,$1+$1,$4,$5*
1,1,$1+$1,$6,$7*
1,1,$1+$1,$8,$9*
0 Add four rect primitives between the rounded corners*
20,1,$1+$1,$2,$3,$4,$5,0*
20,1,$1+$1,$4,$5,$6,$7,0*
20,1,$1+$1,$6,$7,$8,$9,0*
20,1,$1+$1,$8,$9,$2,$3,0*%
G04 Aperture macros list end*
%ADD10RoundRect,0.160000X-0.160000X0.197500X-0.160000X-0.197500X0.160000X-0.197500X0.160000X0.197500X0*%
%ADD11RoundRect,0.155000X-0.155000X0.212500X-0.155000X-0.212500X0.155000X-0.212500X0.155000X0.212500X0*%
%ADD12RoundRect,0.125000X-0.537500X-0.125000X0.537500X-0.125000X0.537500X0.125000X-0.537500X0.125000X0*%
%ADD13R,1.850000X0.500000*%
%ADD14RoundRect,0.160000X0.160000X-0.197500X0.160000X0.197500X-0.160000X0.197500X-0.160000X-0.197500X0*%
%ADD15RoundRect,0.155000X0.155000X-0.212500X0.155000X0.212500X-0.155000X0.212500X-0.155000X-0.212500X0*%
%ADD16RoundRect,0.250000X0.337500X0.475000X-0.337500X0.475000X-0.337500X-0.475000X0.337500X-0.475000X0*%
%ADD17RoundRect,0.250000X0.400000X0.625000X-0.400000X0.625000X-0.400000X-0.625000X0.400000X-0.625000X0*%
%ADD18RoundRect,0.150000X-0.512500X-0.150000X0.512500X-0.150000X0.512500X0.150000X-0.512500X0.150000X0*%
%ADD19RoundRect,0.150000X0.825000X0.150000X-0.825000X0.150000X-0.825000X-0.150000X0.825000X-0.150000X0*%
%ADD20RoundRect,0.160000X0.197500X0.160000X-0.197500X0.160000X-0.197500X-0.160000X0.197500X-0.160000X0*%
G04 APERTURE END LIST*
D10*
%TO.C,R7*%
X94000000Y-95602500D03*
X94000000Y-96797500D03*
%TD*%
D11*
%TO.C,C2*%
X105200000Y-93432500D03*
X105200000Y-94567500D03*
%TD*%
D12*
%TO.C,U3*%
X95725000Y-92025000D03*
X95725000Y-92675000D03*
X95725000Y-93325000D03*
X95725000Y-93975000D03*
X98000000Y-93975000D03*
X98000000Y-93325000D03*
X98000000Y-92675000D03*
X98000000Y-92025000D03*
%TD*%
D13*
%TO.C,J1*%
X115525000Y-95100000D03*
X112475000Y-95100000D03*
X115525000Y-96100000D03*
X112475000Y-96100000D03*
X115525000Y-97100000D03*
X112475000Y-97100000D03*
X115525000Y-98100000D03*
X112475000Y-98100000D03*
X115525000Y-99100000D03*
X112475000Y-99100000D03*
X115525000Y-100100000D03*
X112475000Y-100100000D03*
X115525000Y-101100000D03*
X112475000Y-101100000D03*
X115525000Y-102100000D03*
X112475000Y-102100000D03*
X115525000Y-103100000D03*
X112475000Y-103100000D03*
X115525000Y-104100000D03*
X112475000Y-104100000D03*
X115525000Y-105100000D03*
X112475000Y-105100000D03*
X115525000Y-106100000D03*
X112475000Y-106100000D03*
%TD*%
D14*
%TO.C,R4*%
X110400000Y-96597500D03*
X110400000Y-95402500D03*
%TD*%
D15*
%TO.C,C10*%
X95800000Y-98967500D03*
X95800000Y-97832500D03*
%TD*%
D16*
%TO.C,C5*%
X91037500Y-90100000D03*
X88962500Y-90100000D03*
%TD*%
D11*
%TO.C,C1*%
X100000000Y-93007500D03*
X100000000Y-94142500D03*
%TD*%
D17*
%TO.C,R11*%
X97750000Y-90100000D03*
X94650000Y-90100000D03*
%TD*%
D14*
%TO.C,R9*%
X96000000Y-96797500D03*
X96000000Y-95602500D03*
%TD*%
%TO.C,R5*%
X103100000Y-110397500D03*
X103100000Y-109202500D03*
%TD*%
%TO.C,R10*%
X96800000Y-98997500D03*
X96800000Y-97802500D03*
%TD*%
D11*
%TO.C,C6*%
X111502500Y-109222500D03*
X111502500Y-110357500D03*
%TD*%
D15*
%TO.C,C9*%
X95000000Y-96767500D03*
X95000000Y-95632500D03*
%TD*%
%TO.C,C3*%
X94262500Y-94167500D03*
X94262500Y-93032500D03*
%TD*%
D10*
%TO.C,R8*%
X94800000Y-97802500D03*
X94800000Y-98997500D03*
%TD*%
D18*
%TO.C,U2*%
X101462500Y-93225000D03*
X101462500Y-94175000D03*
X101462500Y-95125000D03*
X103737500Y-95125000D03*
X103737500Y-93225000D03*
%TD*%
D19*
%TO.C,U1*%
X109775000Y-111705000D03*
X109775000Y-110435000D03*
X109775000Y-109165000D03*
X109775000Y-107895000D03*
X104825000Y-107895000D03*
X104825000Y-109165000D03*
X104825000Y-110435000D03*
X104825000Y-111705000D03*
%TD*%
D20*
%TO.C,R6*%
X103097500Y-111600000D03*
X101902500Y-111600000D03*
%TD*%
D13*
%TO.C,J2*%
X92025000Y-94100000D03*
X88975000Y-94100000D03*
X92025000Y-95100000D03*
X88975000Y-95100000D03*
X92025000Y-96100000D03*
X88975000Y-96100000D03*
X92025000Y-97100000D03*
X88975000Y-97100000D03*
X92025000Y-98100000D03*
X88975000Y-98100000D03*
X92025000Y-99100000D03*
X88975000Y-99100000D03*
X92025000Y-100100000D03*
X88975000Y-100100000D03*
X92025000Y-101100000D03*
X88975000Y-101100000D03*
X92025000Y-102100000D03*
X88975000Y-102100000D03*
X92025000Y-103100000D03*
X88975000Y-103100000D03*
X92025000Y-104100000D03*
X88975000Y-104100000D03*
X92025000Y-105100000D03*
X88975000Y-105100000D03*
X92025000Y-106100000D03*
X88975000Y-106100000D03*
X92025000Y-107100000D03*
X88975000Y-107100000D03*
%TD*%
D10*
%TO.C,R3*%
X109000000Y-96602500D03*
X109000000Y-97797500D03*
%TD*%
M02*
