%TF.GenerationSoftware,KiCad,Pcbnew,8.0.0*%
%TF.CreationDate,2024-09-22T13:18:53-04:00*%
%TF.ProjectId,MiniCarrierBoard,4d696e69-4361-4727-9269-6572426f6172,rev?*%
%TF.SameCoordinates,Original*%
%TF.FileFunction,Copper,L1,Top*%
%TF.FilePolarity,Positive*%
%FSLAX46Y46*%
G04 Gerber Fmt 4.6, Leading zero omitted, Abs format (unit mm)*
G04 Created by KiCad (PCBNEW 8.0.0) date 2024-09-22 13:18:53*
%MOMM*%
%LPD*%
G01*
G04 APERTURE LIST*
G04 Aperture macros list*
%AMRoundRect*
0 Rectangle with rounded corners*
0 $1 Rounding radius*
0 $2 $3 $4 $5 $6 $7 $8 $9 X,Y pos of 4 corners*
0 Add a 4 corners polygon primitive as box body*
4,1,4,$2,$3,$4,$5,$6,$7,$8,$9,$2,$3,0*
0 Add four circle primitives for the rounded corners*
1,1,$1+$1,$2,$3*
1,1,$1+$1,$4,$5*
1,1,$1+$1,$6,$7*
1,1,$1+$1,$8,$9*
0 Add four rect primitives between the rounded corners*
20,1,$1+$1,$2,$3,$4,$5,0*
20,1,$1+$1,$4,$5,$6,$7,0*
20,1,$1+$1,$6,$7,$8,$9,0*
20,1,$1+$1,$8,$9,$2,$3,0*%
G04 Aperture macros list end*
%TA.AperFunction,SMDPad,CuDef*%
%ADD10RoundRect,0.160000X-0.160000X0.197500X-0.160000X-0.197500X0.160000X-0.197500X0.160000X0.197500X0*%
%TD*%
%TA.AperFunction,ComponentPad*%
%ADD11C,3.500000*%
%TD*%
%TA.AperFunction,SMDPad,CuDef*%
%ADD12C,1.000000*%
%TD*%
%TA.AperFunction,SMDPad,CuDef*%
%ADD13RoundRect,0.155000X-0.155000X0.212500X-0.155000X-0.212500X0.155000X-0.212500X0.155000X0.212500X0*%
%TD*%
%TA.AperFunction,SMDPad,CuDef*%
%ADD14RoundRect,0.125000X-0.537500X-0.125000X0.537500X-0.125000X0.537500X0.125000X-0.537500X0.125000X0*%
%TD*%
%TA.AperFunction,SMDPad,CuDef*%
%ADD15R,1.850000X0.500000*%
%TD*%
%TA.AperFunction,SMDPad,CuDef*%
%ADD16RoundRect,0.160000X0.160000X-0.197500X0.160000X0.197500X-0.160000X0.197500X-0.160000X-0.197500X0*%
%TD*%
%TA.AperFunction,SMDPad,CuDef*%
%ADD17RoundRect,0.155000X0.155000X-0.212500X0.155000X0.212500X-0.155000X0.212500X-0.155000X-0.212500X0*%
%TD*%
%TA.AperFunction,SMDPad,CuDef*%
%ADD18RoundRect,0.250000X0.337500X0.475000X-0.337500X0.475000X-0.337500X-0.475000X0.337500X-0.475000X0*%
%TD*%
%TA.AperFunction,SMDPad,CuDef*%
%ADD19RoundRect,0.250000X0.400000X0.625000X-0.400000X0.625000X-0.400000X-0.625000X0.400000X-0.625000X0*%
%TD*%
%TA.AperFunction,SMDPad,CuDef*%
%ADD20RoundRect,0.150000X-0.512500X-0.150000X0.512500X-0.150000X0.512500X0.150000X-0.512500X0.150000X0*%
%TD*%
%TA.AperFunction,SMDPad,CuDef*%
%ADD21RoundRect,0.150000X0.825000X0.150000X-0.825000X0.150000X-0.825000X-0.150000X0.825000X-0.150000X0*%
%TD*%
%TA.AperFunction,SMDPad,CuDef*%
%ADD22RoundRect,0.160000X0.197500X0.160000X-0.197500X0.160000X-0.197500X-0.160000X0.197500X-0.160000X0*%
%TD*%
%TA.AperFunction,ViaPad*%
%ADD23C,0.450000*%
%TD*%
%TA.AperFunction,ViaPad*%
%ADD24C,1.000000*%
%TD*%
%TA.AperFunction,Conductor*%
%ADD25C,0.800000*%
%TD*%
%TA.AperFunction,Conductor*%
%ADD26C,0.200000*%
%TD*%
%TA.AperFunction,Conductor*%
%ADD27C,0.500000*%
%TD*%
%TA.AperFunction,Conductor*%
%ADD28C,0.300000*%
%TD*%
G04 APERTURE END LIST*
D10*
%TO.P,R7,1*%
%TO.N,Net-(J6-Pin_3)*%
X94000000Y-95602500D03*
%TO.P,R7,2*%
%TO.N,PC0{slash}ADC1_IN10*%
X94000000Y-96797500D03*
%TD*%
D11*
%TO.P,H2,1,1*%
%TO.N,GND*%
X83900000Y-100600000D03*
%TD*%
D12*
%TO.P,TP4,1,1*%
%TO.N,+3V3*%
X107600000Y-93100000D03*
%TD*%
D13*
%TO.P,C2,1*%
%TO.N,+3V3*%
X105200000Y-93432500D03*
%TO.P,C2,2*%
%TO.N,GND*%
X105200000Y-94567500D03*
%TD*%
D14*
%TO.P,U3,1,IN+*%
%TO.N,Net-(J6-Pin_1)*%
X95725000Y-92025000D03*
%TO.P,U3,2,IN-*%
%TO.N,+5V*%
X95725000Y-92675000D03*
%TO.P,U3,3,GND*%
%TO.N,GND*%
X95725000Y-93325000D03*
%TO.P,U3,4,VS*%
%TO.N,+3V3*%
X95725000Y-93975000D03*
%TO.P,U3,5,SCL*%
%TO.N,PB8{slash}I2C1_SCL*%
X98000000Y-93975000D03*
%TO.P,U3,6,SDA*%
%TO.N,PB9{slash}I2C1_SDA*%
X98000000Y-93325000D03*
%TO.P,U3,7,A0*%
%TO.N,GND*%
X98000000Y-92675000D03*
%TO.P,U3,8,A1*%
X98000000Y-92025000D03*
%TD*%
D15*
%TO.P,J1,1,Pin_1*%
%TO.N,PB7{slash}TIM4_CH2*%
X115525000Y-95100000D03*
%TO.P,J1,2,Pin_2*%
%TO.N,PB8{slash}I2C1_SCL*%
X112475000Y-95100000D03*
%TO.P,J1,3,Pin_3*%
%TO.N,GND*%
X115525000Y-96100000D03*
%TO.P,J1,4,Pin_4*%
%TO.N,/BOOT0*%
X112475000Y-96100000D03*
%TO.P,J1,5,Pin_5*%
%TO.N,GND*%
X115525000Y-97100000D03*
%TO.P,J1,6,Pin_6*%
%TO.N,PB9{slash}I2C1_SDA*%
X112475000Y-97100000D03*
%TO.P,J1,7,Pin_7*%
%TO.N,PB14{slash}SPI2_MISO*%
X115525000Y-98100000D03*
%TO.P,J1,8,Pin_8*%
%TO.N,GND*%
X112475000Y-98100000D03*
%TO.P,J1,9,Pin_9*%
X115525000Y-99100000D03*
%TO.P,J1,10,Pin_10*%
%TO.N,PB6{slash}CAN2_TX*%
X112475000Y-99100000D03*
%TO.P,J1,11,Pin_11*%
%TO.N,/BOOT1*%
X115525000Y-100100000D03*
%TO.P,J1,12,Pin_12*%
%TO.N,SWO*%
X112475000Y-100100000D03*
%TO.P,J1,13,Pin_13*%
%TO.N,SWCLK*%
X115525000Y-101100000D03*
%TO.P,J1,14,Pin_14*%
%TO.N,PA15{slash}TIM2_CH1*%
X112475000Y-101100000D03*
%TO.P,J1,15,Pin_15*%
%TO.N,PA10{slash}USART1_RX*%
X115525000Y-102100000D03*
%TO.P,J1,16,Pin_16*%
%TO.N,SWDIO*%
X112475000Y-102100000D03*
%TO.P,J1,17,Pin_17*%
%TO.N,GND*%
X115525000Y-103100000D03*
%TO.P,J1,18,Pin_18*%
%TO.N,PC7{slash}USART6_RX*%
X112475000Y-103100000D03*
%TO.P,J1,19,Pin_19*%
%TO.N,PA9{slash}USART1_TX*%
X115525000Y-104100000D03*
%TO.P,J1,20,Pin_20*%
%TO.N,GND*%
X112475000Y-104100000D03*
%TO.P,J1,21,Pin_21*%
%TO.N,PA8{slash}TIM1_CH1*%
X115525000Y-105100000D03*
%TO.P,J1,22,Pin_22*%
%TO.N,PC6{slash}USART6_TX*%
X112475000Y-105100000D03*
%TO.P,J1,23,Pin_23*%
%TO.N,PB12{slash}CAN2_RX*%
X115525000Y-106100000D03*
%TO.P,J1,24,Pin_24*%
%TO.N,PB15{slash}SPI2_MOSI*%
X112475000Y-106100000D03*
%TD*%
D16*
%TO.P,R4,1*%
%TO.N,+3V3*%
X110400000Y-96597500D03*
%TO.P,R4,2*%
%TO.N,PB8{slash}I2C1_SCL*%
X110400000Y-95402500D03*
%TD*%
D17*
%TO.P,C10,1*%
%TO.N,PC2{slash}ADC1_IN12*%
X95800000Y-98967500D03*
%TO.P,C10,2*%
%TO.N,GND*%
X95800000Y-97832500D03*
%TD*%
D12*
%TO.P,TP1,1,1*%
%TO.N,+5V*%
X100800000Y-90000000D03*
%TD*%
%TO.P,TP2,1,1*%
%TO.N,GND*%
X90000000Y-111200000D03*
%TD*%
D18*
%TO.P,C5,1*%
%TO.N,Net-(J6-Pin_1)*%
X91037500Y-90100000D03*
%TO.P,C5,2*%
%TO.N,GND*%
X88962500Y-90100000D03*
%TD*%
D11*
%TO.P,H1,1,1*%
%TO.N,unconnected-(H1-Pad1)*%
X120600000Y-100600000D03*
%TD*%
D13*
%TO.P,C1,1*%
%TO.N,+5V*%
X100000000Y-93007500D03*
%TO.P,C1,2*%
%TO.N,GND*%
X100000000Y-94142500D03*
%TD*%
D19*
%TO.P,R11,1*%
%TO.N,+5V*%
X97750000Y-90100000D03*
%TO.P,R11,2*%
%TO.N,Net-(J6-Pin_1)*%
X94650000Y-90100000D03*
%TD*%
D12*
%TO.P,TP3,1,1*%
%TO.N,GND*%
X115400000Y-111200000D03*
%TD*%
D16*
%TO.P,R9,1*%
%TO.N,PC0{slash}ADC1_IN10*%
X96000000Y-96797500D03*
%TO.P,R9,2*%
%TO.N,GND*%
X96000000Y-95602500D03*
%TD*%
%TO.P,R5,1*%
%TO.N,Net-(J5-Pin_15)*%
X103100000Y-110397500D03*
%TO.P,R5,2*%
%TO.N,Net-(J5-Pin_14)*%
X103100000Y-109202500D03*
%TD*%
%TO.P,R10,1*%
%TO.N,PC2{slash}ADC1_IN12*%
X96800000Y-98997500D03*
%TO.P,R10,2*%
%TO.N,GND*%
X96800000Y-97802500D03*
%TD*%
D13*
%TO.P,C6,1*%
%TO.N,+5V*%
X111502500Y-109222500D03*
%TO.P,C6,2*%
%TO.N,GND*%
X111502500Y-110357500D03*
%TD*%
D17*
%TO.P,C9,1*%
%TO.N,PC0{slash}ADC1_IN10*%
X95000000Y-96767500D03*
%TO.P,C9,2*%
%TO.N,GND*%
X95000000Y-95632500D03*
%TD*%
%TO.P,C3,1*%
%TO.N,+3V3*%
X94262500Y-94167500D03*
%TO.P,C3,2*%
%TO.N,GND*%
X94262500Y-93032500D03*
%TD*%
D10*
%TO.P,R8,1*%
%TO.N,Net-(J6-Pin_4)*%
X94800000Y-97802500D03*
%TO.P,R8,2*%
%TO.N,PC2{slash}ADC1_IN12*%
X94800000Y-98997500D03*
%TD*%
D20*
%TO.P,U2,1,IN*%
%TO.N,+5V*%
X101462500Y-93225000D03*
%TO.P,U2,2,GND*%
%TO.N,GND*%
X101462500Y-94175000D03*
%TO.P,U2,3,EN*%
%TO.N,+5V*%
X101462500Y-95125000D03*
%TO.P,U2,4,NC*%
%TO.N,unconnected-(U2-NC-Pad4)*%
X103737500Y-95125000D03*
%TO.P,U2,5,OUT*%
%TO.N,+3V3*%
X103737500Y-93225000D03*
%TD*%
D21*
%TO.P,U1,1,TXD*%
%TO.N,PB6{slash}CAN2_TX*%
X109775000Y-111705000D03*
%TO.P,U1,2,VSS*%
%TO.N,GND*%
X109775000Y-110435000D03*
%TO.P,U1,3,VDD*%
%TO.N,+5V*%
X109775000Y-109165000D03*
%TO.P,U1,4,RXD*%
%TO.N,PB12{slash}CAN2_RX*%
X109775000Y-107895000D03*
%TO.P,U1,5,Vref*%
%TO.N,unconnected-(U1-Vref-Pad5)*%
X104825000Y-107895000D03*
%TO.P,U1,6,CANL*%
%TO.N,Net-(J5-Pin_14)*%
X104825000Y-109165000D03*
%TO.P,U1,7,CANH*%
%TO.N,Net-(J5-Pin_15)*%
X104825000Y-110435000D03*
%TO.P,U1,8,Rs*%
%TO.N,Net-(U1-Rs)*%
X104825000Y-111705000D03*
%TD*%
D22*
%TO.P,R6,1*%
%TO.N,Net-(U1-Rs)*%
X103097500Y-111600000D03*
%TO.P,R6,2*%
%TO.N,GND*%
X101902500Y-111600000D03*
%TD*%
D15*
%TO.P,J2,1,Pin_1*%
%TO.N,GND*%
X92025000Y-94100000D03*
%TO.P,J2,2,Pin_2*%
%TO.N,+5V*%
X88975000Y-94100000D03*
%TO.P,J2,3,Pin_3*%
%TO.N,PA2{slash}USART2_TX*%
X92025000Y-95100000D03*
%TO.P,J2,4,Pin_4*%
%TO.N,GND*%
X88975000Y-95100000D03*
%TO.P,J2,5,Pin_5*%
%TO.N,PC0{slash}ADC1_IN10*%
X92025000Y-96100000D03*
%TO.P,J2,6,Pin_6*%
%TO.N,NRST*%
X88975000Y-96100000D03*
%TO.P,J2,7,Pin_7*%
%TO.N,PC2{slash}ADC1_IN12*%
X92025000Y-97100000D03*
%TO.P,J2,8,Pin_8*%
%TO.N,/PC1*%
X88975000Y-97100000D03*
%TO.P,J2,9,Pin_9*%
%TO.N,PA0{slash}UART4_TX{slash}TIM5_CH1*%
X92025000Y-98100000D03*
%TO.P,J2,10,Pin_10*%
%TO.N,PA3{slash}USART2_RX*%
X88975000Y-98100000D03*
%TO.P,J2,11,Pin_11*%
%TO.N,PA1{slash}UART4_RX{slash}TIM5_CH2*%
X92025000Y-99100000D03*
%TO.P,J2,12,Pin_12*%
%TO.N,GND*%
X88975000Y-99100000D03*
%TO.P,J2,13,Pin_13*%
%TO.N,PA4{slash}ADC1_IN4{slash}DAC_OUT1*%
X92025000Y-100100000D03*
%TO.P,J2,14,Pin_14*%
%TO.N,unconnected-(J2-Pin_14-Pad14)*%
X88975000Y-100100000D03*
%TO.P,J2,15,Pin_15*%
%TO.N,GND*%
X92025000Y-101100000D03*
%TO.P,J2,16,Pin_16*%
%TO.N,PA6{slash}TIM3_CH1{slash}ADC1_IN6*%
X88975000Y-101100000D03*
%TO.P,J2,17,Pin_17*%
%TO.N,PC4{slash}ADC1_IN14*%
X92025000Y-102100000D03*
%TO.P,J2,18,Pin_18*%
%TO.N,PA7{slash}ADC1_IN7*%
X88975000Y-102100000D03*
%TO.P,J2,19,Pin_19*%
%TO.N,PB0{slash}TIM3_CH3{slash}ADC1_IN8*%
X92025000Y-103100000D03*
%TO.P,J2,20,Pin_20*%
%TO.N,PC3{slash}ADC1_IN13*%
X88975000Y-103100000D03*
%TO.P,J2,21,Pin_21*%
%TO.N,GND*%
X92025000Y-104100000D03*
%TO.P,J2,22,Pin_22*%
%TO.N,PB1{slash}TIM3_CH4{slash}ADC1_IN9*%
X88975000Y-104100000D03*
%TO.P,J2,23,Pin_23*%
%TO.N,PB10{slash}USART3_TX*%
X92025000Y-105100000D03*
%TO.P,J2,24,Pin_24*%
%TO.N,GND*%
X88975000Y-105100000D03*
%TO.P,J2,25,Pin_25*%
%TO.N,PB11{slash}USART3_RX*%
X92025000Y-106100000D03*
%TO.P,J2,26,Pin_26*%
%TO.N,USB_D-*%
X88975000Y-106100000D03*
%TO.P,J2,27,Pin_27*%
%TO.N,PB13{slash}SPI2_SCK*%
X92025000Y-107100000D03*
%TO.P,J2,28,Pin_28*%
%TO.N,USB_D+*%
X88975000Y-107100000D03*
%TD*%
D10*
%TO.P,R3,1*%
%TO.N,+3V3*%
X109000000Y-96602500D03*
%TO.P,R3,2*%
%TO.N,PB9{slash}I2C1_SDA*%
X109000000Y-97797500D03*
%TD*%
D23*
%TO.N,+5V*%
X88400000Y-93600000D03*
X115800000Y-91200000D03*
X116600000Y-91200000D03*
X97750000Y-90100000D03*
X117200000Y-91200000D03*
X89200000Y-93600000D03*
X86400000Y-101200000D03*
X96800000Y-90200000D03*
X96800000Y-89400000D03*
X118000000Y-91200000D03*
%TO.N,USB_D+*%
X90100000Y-107150000D03*
%TO.N,USB_D-*%
X89500000Y-106100000D03*
%TO.N,GND*%
X97750000Y-97725000D03*
X114400000Y-102750003D03*
X90800000Y-111200000D03*
X90396045Y-103776632D03*
X116870730Y-102500000D03*
X114400000Y-97100000D03*
X95459621Y-105140379D03*
X88700000Y-91100000D03*
X101859621Y-102925000D03*
X101365838Y-94023374D03*
X105841405Y-103703512D03*
X92025000Y-101100000D03*
X98800000Y-109725000D03*
X93271232Y-93928768D03*
X114400000Y-99100000D03*
X116025000Y-103100000D03*
X98200000Y-98949997D03*
X102200000Y-104650003D03*
X90325002Y-95936193D03*
X90325002Y-97100000D03*
X108298812Y-107820414D03*
X90600000Y-97600000D03*
X111502500Y-111000000D03*
X108528885Y-109875000D03*
X90645866Y-98178394D03*
X109775000Y-110435000D03*
X105700000Y-94567500D03*
X94262500Y-93032500D03*
X92862620Y-109627475D03*
X116200000Y-111200000D03*
X99600000Y-107500003D03*
X104350000Y-94350000D03*
X101900000Y-94200000D03*
X99600000Y-106199997D03*
X100406588Y-94549088D03*
X107800000Y-98575000D03*
X116200000Y-108000000D03*
X113749997Y-104100000D03*
X90000000Y-109650000D03*
X95800000Y-97832502D03*
X116875002Y-105000000D03*
X104800000Y-95600000D03*
X100540379Y-106059621D03*
X89300000Y-91100000D03*
X102600000Y-95675000D03*
X105600000Y-105000003D03*
X99186905Y-111575000D03*
X88475000Y-95100000D03*
X90400000Y-105100000D03*
X100000000Y-94142500D03*
X87807420Y-105168602D03*
X95000000Y-95602500D03*
X114400000Y-95750003D03*
X99269094Y-97907530D03*
X109600000Y-106250003D03*
X90075001Y-99324999D03*
X108629141Y-102410842D03*
X101832420Y-100007698D03*
X116200000Y-106800000D03*
X99200000Y-102050003D03*
X113947463Y-97553904D03*
X90618258Y-96430793D03*
%TO.N,+3V3*%
X106400000Y-93400000D03*
X105000000Y-92600000D03*
X104200000Y-92600000D03*
X105800000Y-93400000D03*
X105800000Y-92600000D03*
X108400000Y-96600000D03*
X94262500Y-94167500D03*
X103400000Y-92600000D03*
X106400000Y-92600000D03*
X95725000Y-93999999D03*
%TO.N,PA6{slash}TIM3_CH1{slash}ADC1_IN6*%
X90410595Y-103126793D03*
%TO.N,NRST*%
X88975000Y-96100000D03*
%TO.N,SWO*%
X99800000Y-98282553D03*
%TO.N,SWDIO*%
X109200000Y-102100000D03*
%TO.N,SWCLK*%
X102200000Y-96200000D03*
%TO.N,PA8{slash}TIM1_CH1*%
X101600000Y-109400000D03*
%TO.N,PC4{slash}ADC1_IN14*%
X101000000Y-105600000D03*
%TO.N,PA2{slash}USART2_TX*%
X101209219Y-99822974D03*
%TO.N,PA15{slash}TIM2_CH1*%
X102200000Y-104000000D03*
%TO.N,PA10{slash}USART1_RX*%
X114400000Y-102100000D03*
%TO.N,PB9{slash}I2C1_SDA*%
X112475000Y-97100000D03*
%TO.N,PC6{slash}USART6_TX*%
X105600000Y-104350000D03*
%TO.N,PB13{slash}SPI2_SCK*%
X109600000Y-105600000D03*
%TO.N,PB15{slash}SPI2_MOSI*%
X112475000Y-106100000D03*
%TO.N,PB8{slash}I2C1_SCL*%
X112475000Y-95100000D03*
%TO.N,PB7{slash}TIM4_CH2*%
X114400000Y-95100000D03*
%TO.N,PC7{slash}USART6_RX*%
X105600000Y-103100000D03*
%TO.N,PB14{slash}SPI2_MISO*%
X114300000Y-98100000D03*
%TO.N,PA9{slash}USART1_TX*%
X114400000Y-104100000D03*
%TO.N,PA3{slash}USART2_RX*%
X90057841Y-98455396D03*
%TO.N,PA1{slash}UART4_RX{slash}TIM5_CH2*%
X99200000Y-101400000D03*
%TO.N,PB1{slash}TIM3_CH4{slash}ADC1_IN9*%
X90242351Y-104469405D03*
%TO.N,PB11{slash}USART3_RX*%
X99804471Y-108117007D03*
%TO.N,PB10{slash}USART3_TX*%
X99800000Y-106850000D03*
%TO.N,PA7{slash}ADC1_IN7*%
X93500000Y-109500000D03*
%TO.N,PA0{slash}UART4_TX{slash}TIM5_CH1*%
X98200000Y-99600000D03*
%TO.N,PB0{slash}TIM3_CH3{slash}ADC1_IN8*%
X95000000Y-105600000D03*
%TO.N,/PC1*%
X87600000Y-97100000D03*
D24*
%TO.N,unconnected-(J14-MountPin-PadMP)_0*%
X94400000Y-101625000D03*
D23*
%TO.N,PA4{slash}ADC1_IN4{slash}DAC_OUT1*%
X101400000Y-102400000D03*
%TO.N,PB6{slash}CAN2_TX*%
X109700000Y-111160000D03*
X107400000Y-99100000D03*
%TO.N,PC3{slash}ADC1_IN13*%
X87200000Y-105400000D03*
%TO.N,Net-(J6-Pin_1)*%
X92400000Y-89400000D03*
X92000000Y-89800000D03*
X92400000Y-90200000D03*
X92400000Y-91000000D03*
X92000000Y-90600000D03*
%TO.N,Net-(J5-Pin_15)*%
X108274187Y-109269796D03*
%TO.N,Net-(J5-Pin_14)*%
X108304995Y-108470387D03*
%TO.N,Net-(J6-Pin_4)*%
X94800000Y-97802500D03*
%TO.N,Net-(J6-Pin_3)*%
X94000000Y-95602500D03*
%TD*%
D25*
%TO.N,+5V*%
X116935000Y-109165000D02*
X109775000Y-109165000D01*
D26*
X86400000Y-94700000D02*
X87000000Y-94100000D01*
D25*
X118000000Y-91200000D02*
X118000000Y-108100000D01*
D27*
X101462500Y-93225000D02*
X100217500Y-93225000D01*
X109775000Y-109165000D02*
X111445000Y-109165000D01*
D26*
X102425000Y-93425000D02*
X102225000Y-93225000D01*
X87000000Y-94100000D02*
X88475000Y-94100000D01*
X102425000Y-94975000D02*
X102425000Y-93425000D01*
D25*
X118000000Y-108100000D02*
X116935000Y-109165000D01*
D26*
X86400000Y-101200000D02*
X86400000Y-94700000D01*
D27*
X111445000Y-109165000D02*
X111502500Y-109222500D01*
D26*
X102275000Y-95125000D02*
X102425000Y-94975000D01*
X101462500Y-95125000D02*
X102275000Y-95125000D01*
D27*
X100217500Y-93225000D02*
X100000000Y-93007500D01*
D26*
X102225000Y-93225000D02*
X101462500Y-93225000D01*
%TO.N,USB_D+*%
X90100000Y-107150000D02*
X90050000Y-107100000D01*
X90050000Y-107100000D02*
X88975000Y-107100000D01*
%TO.N,USB_D-*%
X88975000Y-106100000D02*
X89500000Y-106100000D01*
D28*
%TO.N,GND*%
X90400000Y-105100000D02*
X88975000Y-105100000D01*
D26*
X96571814Y-93325000D02*
X95725000Y-93325000D01*
D28*
X89850002Y-99100000D02*
X88475000Y-99100000D01*
X113401367Y-98100000D02*
X112475000Y-98100000D01*
X94262500Y-93032500D02*
X94555000Y-93325000D01*
D27*
X100000000Y-94142500D02*
X100032500Y-94175000D01*
X109775000Y-110435000D02*
X111425000Y-110435000D01*
D28*
X114749997Y-96100000D02*
X116225000Y-96100000D01*
D27*
X100032500Y-94175000D02*
X101462500Y-94175000D01*
X111425000Y-110435000D02*
X111502500Y-110357500D01*
D26*
X98000000Y-92675000D02*
X97221814Y-92675000D01*
X101462500Y-94120036D02*
X101365838Y-94023374D01*
D28*
X113749997Y-104100000D02*
X112475000Y-104100000D01*
D26*
X95230000Y-95632500D02*
X95200000Y-95602500D01*
D28*
X90719413Y-104100000D02*
X92025000Y-104100000D01*
X87876022Y-105100000D02*
X87807420Y-105168602D01*
D26*
X96000000Y-95632500D02*
X95030000Y-95632500D01*
D27*
X111502500Y-111000000D02*
X111502500Y-110357500D01*
D28*
X114400000Y-99100000D02*
X115525000Y-99100000D01*
D27*
X90000000Y-111200000D02*
X90800000Y-111200000D01*
D28*
X115525000Y-96100000D02*
X114749997Y-96100000D01*
D26*
X101462500Y-94175000D02*
X101462500Y-94120036D01*
D27*
X115400000Y-111200000D02*
X116200000Y-111200000D01*
X93100000Y-94100000D02*
X91525000Y-94100000D01*
D26*
X95830000Y-97802500D02*
X95800000Y-97832500D01*
D28*
X114400000Y-95750003D02*
X114749997Y-96100000D01*
X94555000Y-93325000D02*
X95725000Y-93325000D01*
D27*
X105700000Y-94567500D02*
X105200000Y-94567500D01*
D26*
X100000000Y-94142500D02*
X100406588Y-94549088D01*
D28*
X114749997Y-103100000D02*
X114400000Y-102750003D01*
X90075001Y-99324999D02*
X89850002Y-99100000D01*
D26*
X97221814Y-92675000D02*
X96571814Y-93325000D01*
D28*
X109775000Y-110435000D02*
X109691620Y-110435000D01*
X114400000Y-97100000D02*
X115525000Y-97100000D01*
X113947463Y-97553904D02*
X113401367Y-98100000D01*
D26*
X101462500Y-94175000D02*
X101875000Y-94175000D01*
X96800000Y-97802500D02*
X95830000Y-97802500D01*
D28*
X90396045Y-103776632D02*
X90719413Y-104100000D01*
X88975000Y-105100000D02*
X87876022Y-105100000D01*
D26*
X98000000Y-92025000D02*
X98000000Y-92675000D01*
D28*
X115525000Y-103100000D02*
X114749997Y-103100000D01*
D27*
X93271232Y-93928768D02*
X93100000Y-94100000D01*
D26*
X99211905Y-111600000D02*
X101902500Y-111600000D01*
X101875000Y-94175000D02*
X101900000Y-94200000D01*
X99186905Y-111575000D02*
X99211905Y-111600000D01*
D27*
%TO.N,+3V3*%
X108400000Y-96600000D02*
X110397500Y-96600000D01*
X110397500Y-96600000D02*
X110400000Y-96597500D01*
X107600000Y-93100000D02*
X105532500Y-93100000D01*
D28*
X94455000Y-93975000D02*
X94262500Y-94167500D01*
X95725000Y-93975000D02*
X94455000Y-93975000D01*
D27*
X105532500Y-93100000D02*
X105200000Y-93432500D01*
D26*
%TO.N,PA6{slash}TIM3_CH1{slash}ADC1_IN6*%
X90150000Y-101100000D02*
X88275000Y-101100000D01*
X90410595Y-103126793D02*
X90410595Y-101360595D01*
X90410595Y-101360595D02*
X90150000Y-101100000D01*
%TO.N,NRST*%
X88975000Y-96100000D02*
X88475000Y-96100000D01*
%TO.N,SWO*%
X103600000Y-100100000D02*
X112975000Y-100100000D01*
X99800000Y-98282553D02*
X100317447Y-98800000D01*
X100317447Y-98800000D02*
X102300000Y-98800000D01*
X102300000Y-98800000D02*
X103600000Y-100100000D01*
%TO.N,SWDIO*%
X109200000Y-102100000D02*
X112975000Y-102100000D01*
%TO.N,SWCLK*%
X116387500Y-94000000D02*
X117000000Y-94612500D01*
X108300000Y-94000000D02*
X116387500Y-94000000D01*
X102200000Y-96200000D02*
X106100000Y-96200000D01*
X116700000Y-101100000D02*
X116025000Y-101100000D01*
X117000000Y-100800000D02*
X116700000Y-101100000D01*
X106100000Y-96200000D02*
X108300000Y-94000000D01*
X117000000Y-94612500D02*
X117000000Y-100800000D01*
%TO.N,PA8{slash}TIM1_CH1*%
X114000000Y-106700000D02*
X114000000Y-105400000D01*
X114300000Y-105100000D02*
X116025000Y-105100000D01*
X114000000Y-105400000D02*
X114300000Y-105100000D01*
X104000000Y-107000000D02*
X113700000Y-107000000D01*
X113700000Y-107000000D02*
X114000000Y-106700000D01*
X101600000Y-109400000D02*
X104000000Y-107000000D01*
%TO.N,PC4{slash}ADC1_IN14*%
X101000000Y-105600000D02*
X99600000Y-104200000D01*
X99600000Y-104200000D02*
X94800000Y-104200000D01*
X94800000Y-104200000D02*
X92700000Y-102100000D01*
X92700000Y-102100000D02*
X91525000Y-102100000D01*
%TO.N,PA2{slash}USART2_TX*%
X98400000Y-97000000D02*
X96620000Y-95220000D01*
X96620000Y-95210028D02*
X96309972Y-94900000D01*
X98400000Y-98200000D02*
X98400000Y-97000000D01*
X96309972Y-94900000D02*
X93400000Y-94900000D01*
X100022974Y-99822974D02*
X98400000Y-98200000D01*
X96620000Y-95220000D02*
X96620000Y-95210028D01*
X93200000Y-95100000D02*
X91525000Y-95100000D01*
X101209219Y-99822974D02*
X100022974Y-99822974D01*
X93400000Y-94900000D02*
X93200000Y-95100000D01*
%TO.N,PA15{slash}TIM2_CH1*%
X103000000Y-104000000D02*
X105900000Y-101100000D01*
X102200000Y-104000000D02*
X103000000Y-104000000D01*
X105900000Y-101100000D02*
X112975000Y-101100000D01*
%TO.N,PA10{slash}USART1_RX*%
X114400000Y-102100000D02*
X116025000Y-102100000D01*
%TO.N,PB9{slash}I2C1_SDA*%
X96862500Y-94262500D02*
X96862500Y-93600000D01*
X112475000Y-97100000D02*
X111300000Y-97100000D01*
X110400000Y-98000000D02*
X100600000Y-98000000D01*
X112475000Y-97100000D02*
X112000000Y-97100000D01*
X111300000Y-97100000D02*
X110400000Y-98000000D01*
X97137500Y-93325000D02*
X98000000Y-93325000D01*
X100600000Y-98000000D02*
X96862500Y-94262500D01*
X96862500Y-93600000D02*
X97137500Y-93325000D01*
%TO.N,PC6{slash}USART6_TX*%
X111350000Y-105100000D02*
X112975000Y-105100000D01*
X105600000Y-104350000D02*
X110600000Y-104350000D01*
X110600000Y-104350000D02*
X111350000Y-105100000D01*
%TO.N,PB13{slash}SPI2_SCK*%
X100200000Y-109200000D02*
X103800000Y-105600000D01*
X92700000Y-107100000D02*
X94800000Y-109200000D01*
D27*
X92424999Y-107103296D02*
X92421703Y-107100000D01*
D26*
X92025000Y-107100000D02*
X92700000Y-107100000D01*
D27*
X92421703Y-107100000D02*
X91325000Y-107100000D01*
D26*
X94800000Y-109200000D02*
X100200000Y-109200000D01*
X103800000Y-105600000D02*
X109600000Y-105600000D01*
%TO.N,PB8{slash}I2C1_SCL*%
X98000000Y-93975000D02*
X98000000Y-94037500D01*
X101225000Y-97200000D02*
X98000000Y-93975000D01*
X106700000Y-97200000D02*
X101225000Y-97200000D01*
X112475000Y-95100000D02*
X108800000Y-95100000D01*
X108800000Y-95100000D02*
X106700000Y-97200000D01*
%TO.N,PB7{slash}TIM4_CH2*%
X114400000Y-95100000D02*
X115525000Y-95100000D01*
%TO.N,PC7{slash}USART6_RX*%
X112946231Y-103071231D02*
X112975000Y-103100000D01*
X105600000Y-103100000D02*
X105628769Y-103071231D01*
X105628769Y-103071231D02*
X112946231Y-103071231D01*
%TO.N,PB14{slash}SPI2_MISO*%
X114300000Y-98100000D02*
X115525000Y-98100000D01*
%TO.N,PA9{slash}USART1_TX*%
X114400000Y-104100000D02*
X116025000Y-104100000D01*
%TO.N,PA3{slash}USART2_RX*%
X90057841Y-98455396D02*
X89702445Y-98100000D01*
X89702445Y-98100000D02*
X88975000Y-98100000D01*
%TO.N,PA1{slash}UART4_RX{slash}TIM5_CH2*%
X95200000Y-101293629D02*
X93006371Y-99100000D01*
X95300000Y-101400000D02*
X95200000Y-101300000D01*
X95200000Y-101300000D02*
X95200000Y-101293629D01*
X93006371Y-99100000D02*
X91525000Y-99100000D01*
X99200000Y-101400000D02*
X95300000Y-101400000D01*
%TO.N,PB1{slash}TIM3_CH4{slash}ADC1_IN9*%
X89872946Y-104100000D02*
X88275000Y-104100000D01*
X90242351Y-104469405D02*
X89872946Y-104100000D01*
%TO.N,PB11{slash}USART3_RX*%
X99804471Y-108117007D02*
X99790979Y-108103515D01*
X95103515Y-108103515D02*
X93100000Y-106100000D01*
X93100000Y-106100000D02*
X91525000Y-106100000D01*
X99790979Y-108103515D02*
X95103515Y-108103515D01*
%TO.N,PB10{slash}USART3_TX*%
X95050000Y-106850000D02*
X93300000Y-105100000D01*
X93300000Y-105100000D02*
X91525000Y-105100000D01*
X99800000Y-106850000D02*
X95050000Y-106850000D01*
%TO.N,PA7{slash}ADC1_IN7*%
X92800000Y-108800000D02*
X87800000Y-108800000D01*
X86400000Y-103200000D02*
X87500000Y-102100000D01*
X86400000Y-107400000D02*
X86400000Y-103200000D01*
X93500000Y-109500000D02*
X92800000Y-108800000D01*
X87800000Y-108800000D02*
X86400000Y-107400000D01*
X87500000Y-102100000D02*
X88475000Y-102100000D01*
%TO.N,PA0{slash}UART4_TX{slash}TIM5_CH1*%
X94180000Y-99380000D02*
X94180000Y-99389972D01*
X94990028Y-100200000D02*
X97600000Y-100200000D01*
X97600000Y-100200000D02*
X98200000Y-99600000D01*
X94180000Y-99389972D02*
X94990028Y-100200000D01*
X92900000Y-98100000D02*
X94180000Y-99380000D01*
X92025000Y-98100000D02*
X92900000Y-98100000D01*
%TO.N,PC0{slash}ADC1_IN10*%
X94032500Y-96800000D02*
X94000000Y-96767500D01*
X95030000Y-96767500D02*
X95000000Y-96797500D01*
X96000000Y-96767500D02*
X95030000Y-96767500D01*
X93302500Y-96100000D02*
X94000000Y-96797500D01*
X91525000Y-96100000D02*
X93302500Y-96100000D01*
X94000000Y-96797500D02*
X94030000Y-96767500D01*
D27*
X94000000Y-96797500D02*
X95000000Y-96797500D01*
D26*
X91227500Y-95997500D02*
X91227500Y-96002500D01*
%TO.N,PB0{slash}TIM3_CH3{slash}ADC1_IN8*%
X92800000Y-103100000D02*
X91525000Y-103100000D01*
X93400000Y-104000000D02*
X93400000Y-103700000D01*
X93400000Y-103700000D02*
X92800000Y-103100000D01*
X95000000Y-105600000D02*
X93400000Y-104000000D01*
%TO.N,/PC1*%
X87600000Y-97100000D02*
X88475000Y-97100000D01*
%TO.N,PA4{slash}ADC1_IN4{slash}DAC_OUT1*%
X93400000Y-101800000D02*
X93400000Y-100400000D01*
X94400000Y-102800000D02*
X93400000Y-101800000D01*
X92300000Y-100100000D02*
X91525000Y-100100000D01*
X101400000Y-102400000D02*
X101000000Y-102800000D01*
X101000000Y-102800000D02*
X94400000Y-102800000D01*
X93100000Y-100100000D02*
X92025000Y-100100000D01*
X93400000Y-100400000D02*
X93100000Y-100100000D01*
%TO.N,PC2{slash}ADC1_IN12*%
X92025000Y-97100000D02*
X92902500Y-97100000D01*
X95800000Y-98967500D02*
X96770000Y-98967500D01*
X92902500Y-97100000D02*
X94800000Y-98997500D01*
D27*
X95800000Y-98967500D02*
X95770000Y-98997500D01*
X95770000Y-98997500D02*
X94800000Y-98997500D01*
D26*
X96770000Y-98967500D02*
X96800000Y-98997500D01*
%TO.N,PB6{slash}CAN2_TX*%
X107400000Y-99100000D02*
X112975000Y-99100000D01*
X109775000Y-111235000D02*
X109775000Y-111705000D01*
X109700000Y-111160000D02*
X109775000Y-111235000D01*
%TO.N,PB12{slash}CAN2_RX*%
X115105000Y-107895000D02*
X110675000Y-107895000D01*
X115525000Y-106100000D02*
X115525000Y-107475000D01*
X115525000Y-107475000D02*
X115105000Y-107895000D01*
%TO.N,PC3{slash}ADC1_IN13*%
X87200000Y-103600000D02*
X87700000Y-103100000D01*
X87700000Y-103100000D02*
X88975000Y-103100000D01*
X87200000Y-105400000D02*
X87200000Y-103600000D01*
%TO.N,Net-(J5-Pin_15)*%
X104787500Y-110397500D02*
X104825000Y-110435000D01*
X108274187Y-109269796D02*
X107543983Y-110000000D01*
X106500000Y-110000000D02*
X106065000Y-110435000D01*
X103100000Y-110397500D02*
X104787500Y-110397500D01*
X107543983Y-110000000D02*
X106500000Y-110000000D01*
X106065000Y-110435000D02*
X104825000Y-110435000D01*
%TO.N,Net-(J5-Pin_14)*%
X108304995Y-108470387D02*
X107175382Y-109600000D01*
X103137500Y-109165000D02*
X104825000Y-109165000D01*
X106065000Y-109165000D02*
X104825000Y-109165000D01*
X103100000Y-109202500D02*
X103137500Y-109165000D01*
X106500000Y-109600000D02*
X106065000Y-109165000D01*
X107175382Y-109600000D02*
X106500000Y-109600000D01*
%TO.N,Net-(U1-Rs)*%
X103202500Y-111705000D02*
X103097500Y-111600000D01*
X104825000Y-111705000D02*
X103202500Y-111705000D01*
%TO.N,Net-(J6-Pin_3)*%
X94202500Y-95605000D02*
X94200000Y-95602500D01*
%TD*%
%TA.AperFunction,Conductor*%
%TO.N,+5V*%
G36*
X89943039Y-93219685D02*
G01*
X89988794Y-93272489D01*
X90000000Y-93324000D01*
X90000000Y-94276000D01*
X89980315Y-94343039D01*
X89927511Y-94388794D01*
X89876000Y-94400000D01*
X88124000Y-94400000D01*
X88056961Y-94380315D01*
X88011206Y-94327511D01*
X88000000Y-94276000D01*
X88000000Y-93324000D01*
X88019685Y-93256961D01*
X88072489Y-93211206D01*
X88124000Y-93200000D01*
X89876000Y-93200000D01*
X89943039Y-93219685D01*
G37*
%TD.AperFunction*%
%TD*%
%TA.AperFunction,Conductor*%
%TO.N,+3V3*%
G36*
X106619381Y-92208527D02*
G01*
X106665136Y-92261331D01*
X106676342Y-92312842D01*
X106676342Y-93764842D01*
X106656657Y-93831881D01*
X106603853Y-93877636D01*
X106552342Y-93888842D01*
X103200342Y-93888842D01*
X103133303Y-93869157D01*
X103087548Y-93816353D01*
X103076342Y-93764842D01*
X103076342Y-92312842D01*
X103096027Y-92245803D01*
X103148831Y-92200048D01*
X103200342Y-92188842D01*
X106552342Y-92188842D01*
X106619381Y-92208527D01*
G37*
%TD.AperFunction*%
%TD*%
%TA.AperFunction,Conductor*%
%TO.N,+5V*%
G36*
X117606061Y-89001097D02*
G01*
X117616051Y-89002080D01*
X117743824Y-89014665D01*
X117767652Y-89019404D01*
X117894277Y-89057815D01*
X117916725Y-89067114D01*
X118024085Y-89124500D01*
X118033406Y-89129482D01*
X118053616Y-89142986D01*
X118155891Y-89226920D01*
X118173079Y-89244108D01*
X118257012Y-89346381D01*
X118270517Y-89366593D01*
X118332883Y-89483271D01*
X118342186Y-89505728D01*
X118380593Y-89632338D01*
X118385335Y-89656180D01*
X118398903Y-89793938D01*
X118399500Y-89806092D01*
X118399500Y-92276000D01*
X118379815Y-92343039D01*
X118327011Y-92388794D01*
X118275500Y-92400000D01*
X117651362Y-92400000D01*
X117584323Y-92380315D01*
X117563681Y-92363681D01*
X116800000Y-91600000D01*
X102600000Y-91600000D01*
X102599999Y-91600000D01*
X102200000Y-91999999D01*
X102200000Y-93376000D01*
X102180315Y-93443039D01*
X102127511Y-93488794D01*
X102076000Y-93500000D01*
X100843301Y-93500000D01*
X100829236Y-93499200D01*
X100788067Y-93494500D01*
X100788065Y-93494500D01*
X99724000Y-93494500D01*
X99656961Y-93474815D01*
X99611206Y-93422011D01*
X99600000Y-93370500D01*
X99600000Y-92000000D01*
X99200000Y-91600000D01*
X98691836Y-91600000D01*
X98639434Y-91588383D01*
X98623045Y-91580741D01*
X98623042Y-91580740D01*
X98623041Y-91580740D01*
X98575639Y-91574500D01*
X97424367Y-91574500D01*
X97409339Y-91576478D01*
X97376955Y-91580741D01*
X97376953Y-91580742D01*
X97376951Y-91580742D01*
X97335653Y-91600000D01*
X96500000Y-91600000D01*
X96500000Y-89124500D01*
X96519685Y-89057461D01*
X96572489Y-89011706D01*
X96624000Y-89000500D01*
X117560118Y-89000500D01*
X117593908Y-89000500D01*
X117606061Y-89001097D01*
G37*
%TD.AperFunction*%
%TD*%
%TA.AperFunction,Conductor*%
%TO.N,Net-(J6-Pin_1)*%
G36*
X95843039Y-89020185D02*
G01*
X95888794Y-89072989D01*
X95900000Y-89124500D01*
X95900000Y-92076000D01*
X95880315Y-92143039D01*
X95827511Y-92188794D01*
X95776000Y-92200000D01*
X90324000Y-92200000D01*
X90256961Y-92180315D01*
X90211206Y-92127511D01*
X90200000Y-92076000D01*
X90200000Y-89124500D01*
X90219685Y-89057461D01*
X90272489Y-89011706D01*
X90324000Y-89000500D01*
X95776000Y-89000500D01*
X95843039Y-89020185D01*
G37*
%TD.AperFunction*%
%TD*%
%TA.AperFunction,Conductor*%
%TO.N,GND*%
G36*
X89543039Y-89319685D02*
G01*
X89588794Y-89372489D01*
X89600000Y-89424000D01*
X89600000Y-91276000D01*
X89580315Y-91343039D01*
X89527511Y-91388794D01*
X89476000Y-91400000D01*
X88324000Y-91400000D01*
X88256961Y-91380315D01*
X88211206Y-91327511D01*
X88200000Y-91276000D01*
X88200000Y-89424000D01*
X88219685Y-89356961D01*
X88272489Y-89311206D01*
X88324000Y-89300000D01*
X89476000Y-89300000D01*
X89543039Y-89319685D01*
G37*
%TD.AperFunction*%
%TD*%
%TA.AperFunction,Conductor*%
%TO.N,GND*%
G36*
X100842527Y-93712600D02*
G01*
X100848607Y-93715573D01*
X100916739Y-93725500D01*
X102000500Y-93725500D01*
X102067539Y-93745185D01*
X102113294Y-93797989D01*
X102124500Y-93849500D01*
X102124500Y-94500500D01*
X102104815Y-94567539D01*
X102052011Y-94613294D01*
X102000500Y-94624500D01*
X100916739Y-94624500D01*
X100848608Y-94634426D01*
X100743514Y-94685803D01*
X100660802Y-94768515D01*
X100630521Y-94830459D01*
X100583394Y-94882042D01*
X100519120Y-94900000D01*
X99724000Y-94900000D01*
X99656961Y-94880315D01*
X99611206Y-94827511D01*
X99600000Y-94776000D01*
X99600000Y-93824000D01*
X99619685Y-93756961D01*
X99672489Y-93711206D01*
X99724000Y-93700000D01*
X100788065Y-93700000D01*
X100842527Y-93712600D01*
G37*
%TD.AperFunction*%
%TD*%
%TA.AperFunction,Conductor*%
%TO.N,+5V*%
G36*
X97272920Y-91629253D02*
G01*
X97191753Y-91710420D01*
X97143240Y-91814456D01*
X97137000Y-91861859D01*
X97137000Y-92188132D01*
X97137001Y-92188138D01*
X97143241Y-92235545D01*
X97143242Y-92235547D01*
X97143243Y-92235552D01*
X97145859Y-92241161D01*
X97156351Y-92310238D01*
X97127831Y-92374022D01*
X97095478Y-92400952D01*
X97037304Y-92434539D01*
X97037301Y-92434541D01*
X96575200Y-92896641D01*
X96513877Y-92930126D01*
X96444185Y-92925142D01*
X96435115Y-92921342D01*
X96348044Y-92880740D01*
X96307814Y-92875444D01*
X96243918Y-92847177D01*
X96205447Y-92788852D01*
X96200000Y-92752505D01*
X96200000Y-92597493D01*
X96219685Y-92530454D01*
X96272489Y-92484699D01*
X96307812Y-92474554D01*
X96348045Y-92469259D01*
X96452079Y-92420747D01*
X96533247Y-92339579D01*
X96581759Y-92235545D01*
X96588000Y-92188139D01*
X96587999Y-91861862D01*
X96581759Y-91814455D01*
X96533247Y-91710421D01*
X96533246Y-91710420D01*
X96533246Y-91710419D01*
X96527025Y-91701535D01*
X96529024Y-91700134D01*
X96502834Y-91652170D01*
X96500000Y-91625812D01*
X96500000Y-91600000D01*
X97335654Y-91600000D01*
X97272920Y-91629253D01*
G37*
%TD.AperFunction*%
%TD*%
M02*
