M48
; DRILL file {KiCad 8.0.0} date 2024-09-22T13:18:51-0400
; FORMAT={-:-/ absolute / inch / decimal}
; #@! TF.CreationDate,2024-09-22T13:18:51-04:00
; #@! TF.GenerationSoftware,Kicad,Pcbnew,8.0.0
; #@! TF.FileFunction,Plated,1,4,PTH
FMAT,2
INCH
; #@! TA.AperFunction,Plated,PTH,ViaDrill
T1C0.0118
; #@! TA.AperFunction,Plated,PTH,ViaDrill
T2C0.0354
; #@! TA.AperFunction,Plated,PTH,ComponentDrill
T3C0.0866
%
G90
G05
T1
X3.4016Y-3.9843
X3.4331Y-4.1496
X3.4488Y-3.8228
X3.457Y-4.1405
X3.4803Y-3.685
X3.4833Y-3.7441
X3.4921Y-3.5866
X3.503Y-3.7835
X3.5118Y-3.685
X3.5157Y-3.5866
X3.5236Y-4.1772
X3.5433Y-4.3169
X3.5456Y-3.8762
X3.5463Y-3.9104
X3.5472Y-4.2185
X3.5528Y-4.113
X3.5561Y-3.777
X3.5561Y-3.8228
X3.5589Y-4.0857
X3.5591Y-4.1378
X3.5595Y-4.0601
X3.5669Y-3.8425
X3.5676Y-3.7965
X3.5687Y-3.8653
X3.5748Y-4.378
X3.622Y-3.5354
X3.622Y-3.5669
X3.623Y-3.9803
X3.6378Y-3.5197
X3.6378Y-3.5512
X3.6378Y-3.5827
X3.656Y-4.316
X3.6721Y-3.698
X3.6811Y-4.311
X3.7008Y-3.7639
X3.7111Y-3.6627
X3.7111Y-3.7074
X3.7323Y-3.8505
X3.7402Y-3.7639
X3.7402Y-4.1575
X3.7583Y-4.1394
X3.7687Y-3.7008
X3.7717Y-3.8517
X3.811Y-3.5197
X3.811Y-3.5512
X3.8484Y-3.5472
X3.8484Y-3.8474
X3.8661Y-3.8957
X3.8661Y-3.9213
X3.8898Y-4.3199
X3.905Y-4.3927
X3.9055Y-3.9921
X3.9055Y-4.0177
X3.9082Y-3.8546
X3.9213Y-4.1811
X3.9213Y-4.2323
X3.9291Y-3.8694
X3.9291Y-4.2067
X3.9293Y-4.2566
X3.937Y-3.7064
X3.953Y-3.7224
X3.9583Y-4.1756
X3.9764Y-4.1575
X3.9846Y-3.93
X3.9908Y-3.7017
X3.9921Y-4.0315
X4.0Y-4.3071
X4.0092Y-3.9373
X4.0102Y-4.0522
X4.0118Y-3.7087
X4.0236Y-3.7874
X4.0236Y-4.0945
X4.0236Y-4.1201
X4.0394Y-3.7667
X4.0709Y-3.6457
X4.1024Y-3.6457
X4.1083Y-3.7146
X4.126Y-3.7638
X4.1339Y-3.6457
X4.1575Y-4.0591
X4.1575Y-4.1083
X4.1575Y-4.1339
X4.1614Y-3.7231
X4.1654Y-3.6457
X4.1654Y-3.6772
X4.167Y-4.0828
X4.189Y-3.6457
X4.189Y-3.6772
X4.2283Y-3.9016
X4.2441Y-3.8809
X4.2628Y-4.302
X4.2637Y-4.2449
X4.264Y-4.2705
X4.2677Y-3.8031
X4.2728Y-4.3258
X4.2767Y-4.0319
X4.2992Y-4.0197
X4.315Y-4.1575
X4.315Y-4.1831
X4.3189Y-4.3764
X4.3219Y-4.3478
X4.3899Y-4.3701
X4.4281Y-3.7441
X4.4281Y-3.8228
X4.4281Y-4.1772
X4.4783Y-4.0984
X4.4861Y-3.8407
X4.5Y-3.8622
X4.5039Y-3.7441
X4.5039Y-3.7697
X4.5039Y-3.8228
X4.5039Y-3.9016
X4.5039Y-4.0197
X4.5039Y-4.0453
X4.5039Y-4.0984
X4.5591Y-3.5906
X4.5679Y-4.0591
X4.5748Y-4.2047
X4.5748Y-4.252
X4.5748Y-4.378
X4.5906Y-3.5906
X4.6012Y-4.0354
X4.6014Y-4.1339
X4.6142Y-3.5906
X4.6457Y-3.5906
T2
X3.7165Y-4.001
T3
X3.3031Y-3.9606
X4.748Y-3.9606
M30
