%TF.GenerationSoftware,KiCad,Pcbnew,8.0.0*%
%TF.CreationDate,2024-09-22T13:18:53-04:00*%
%TF.ProjectId,MiniCarrierBoard,4d696e69-4361-4727-9269-6572426f6172,rev?*%
%TF.SameCoordinates,Original*%
%TF.FileFunction,Copper,L2,Inr*%
%TF.FilePolarity,Positive*%
%FSLAX46Y46*%
G04 Gerber Fmt 4.6, Leading zero omitted, Abs format (unit mm)*
G04 Created by KiCad (PCBNEW 8.0.0) date 2024-09-22 13:18:53*
%MOMM*%
%LPD*%
G01*
G04 APERTURE LIST*
%TA.AperFunction,ComponentPad*%
%ADD10C,3.500000*%
%TD*%
%TA.AperFunction,ViaPad*%
%ADD11C,0.450000*%
%TD*%
%TA.AperFunction,ViaPad*%
%ADD12C,1.000000*%
%TD*%
G04 APERTURE END LIST*
D10*
%TO.N,GND*%
%TO.C,H2*%
X83900000Y-100600000D03*
%TD*%
%TO.N,unconnected-(H1-Pad1)*%
%TO.C,H1*%
X120600000Y-100600000D03*
%TD*%
D11*
%TO.N,+5V*%
X88400000Y-93600000D03*
X115800000Y-91200000D03*
X116600000Y-91200000D03*
X97750000Y-90100000D03*
X117200000Y-91200000D03*
X89200000Y-93600000D03*
X86400000Y-101200000D03*
X96800000Y-90200000D03*
X96800000Y-89400000D03*
X118000000Y-91200000D03*
%TO.N,USB_D+*%
X90100000Y-107150000D03*
%TO.N,USB_D-*%
X89500000Y-106100000D03*
%TO.N,GND*%
X97750000Y-97725000D03*
X114400000Y-102750003D03*
X90800000Y-111200000D03*
X90396045Y-103776632D03*
X116870730Y-102500000D03*
X114400000Y-97100000D03*
X95459621Y-105140379D03*
X88700000Y-91100000D03*
X101859621Y-102925000D03*
X101365838Y-94023374D03*
X105841405Y-103703512D03*
X92025000Y-101100000D03*
X98800000Y-109725000D03*
X93271232Y-93928768D03*
X114400000Y-99100000D03*
X116025000Y-103100000D03*
X98200000Y-98949997D03*
X102200000Y-104650003D03*
X90325002Y-95936193D03*
X90325002Y-97100000D03*
X108298812Y-107820414D03*
X90600000Y-97600000D03*
X111502500Y-111000000D03*
X108528885Y-109875000D03*
X90645866Y-98178394D03*
X109775000Y-110435000D03*
X105700000Y-94567500D03*
X94262500Y-93032500D03*
X92862620Y-109627475D03*
X116200000Y-111200000D03*
X99600000Y-107500003D03*
X104350000Y-94350000D03*
X101900000Y-94200000D03*
X99600000Y-106199997D03*
X100406588Y-94549088D03*
X107800000Y-98575000D03*
X116200000Y-108000000D03*
X113749997Y-104100000D03*
X90000000Y-109650000D03*
X95800000Y-97832502D03*
X116875002Y-105000000D03*
X104800000Y-95600000D03*
X100540379Y-106059621D03*
X89300000Y-91100000D03*
X102600000Y-95675000D03*
X105600000Y-105000003D03*
X99186905Y-111575000D03*
X88475000Y-95100000D03*
X90400000Y-105100000D03*
X100000000Y-94142500D03*
X87807420Y-105168602D03*
X95000000Y-95602500D03*
X114400000Y-95750003D03*
X99269094Y-97907530D03*
X109600000Y-106250003D03*
X90075001Y-99324999D03*
X108629141Y-102410842D03*
X101832420Y-100007698D03*
X116200000Y-106800000D03*
X99200000Y-102050003D03*
X113947463Y-97553904D03*
X90618258Y-96430793D03*
%TO.N,+3V3*%
X106400000Y-93400000D03*
X105000000Y-92600000D03*
X104200000Y-92600000D03*
X105800000Y-93400000D03*
X105800000Y-92600000D03*
X108400000Y-96600000D03*
X94262500Y-94167500D03*
X103400000Y-92600000D03*
X106400000Y-92600000D03*
X95725000Y-93999999D03*
%TO.N,PA6{slash}TIM3_CH1{slash}ADC1_IN6*%
X90410595Y-103126793D03*
%TO.N,NRST*%
X88975000Y-96100000D03*
%TO.N,SWO*%
X99800000Y-98282553D03*
%TO.N,SWDIO*%
X109200000Y-102100000D03*
%TO.N,SWCLK*%
X102200000Y-96200000D03*
%TO.N,PA8{slash}TIM1_CH1*%
X101600000Y-109400000D03*
%TO.N,PC4{slash}ADC1_IN14*%
X101000000Y-105600000D03*
%TO.N,PA2{slash}USART2_TX*%
X101209219Y-99822974D03*
%TO.N,PA15{slash}TIM2_CH1*%
X102200000Y-104000000D03*
%TO.N,PA10{slash}USART1_RX*%
X114400000Y-102100000D03*
%TO.N,PB9{slash}I2C1_SDA*%
X112475000Y-97100000D03*
%TO.N,PC6{slash}USART6_TX*%
X105600000Y-104350000D03*
%TO.N,PB13{slash}SPI2_SCK*%
X109600000Y-105600000D03*
%TO.N,PB15{slash}SPI2_MOSI*%
X112475000Y-106100000D03*
%TO.N,PB8{slash}I2C1_SCL*%
X112475000Y-95100000D03*
%TO.N,PB7{slash}TIM4_CH2*%
X114400000Y-95100000D03*
%TO.N,PC7{slash}USART6_RX*%
X105600000Y-103100000D03*
%TO.N,PB14{slash}SPI2_MISO*%
X114300000Y-98100000D03*
%TO.N,PA9{slash}USART1_TX*%
X114400000Y-104100000D03*
%TO.N,PA3{slash}USART2_RX*%
X90057841Y-98455396D03*
%TO.N,PA1{slash}UART4_RX{slash}TIM5_CH2*%
X99200000Y-101400000D03*
%TO.N,PB1{slash}TIM3_CH4{slash}ADC1_IN9*%
X90242351Y-104469405D03*
%TO.N,PB11{slash}USART3_RX*%
X99804471Y-108117007D03*
%TO.N,PB10{slash}USART3_TX*%
X99800000Y-106850000D03*
%TO.N,PA7{slash}ADC1_IN7*%
X93500000Y-109500000D03*
%TO.N,PA0{slash}UART4_TX{slash}TIM5_CH1*%
X98200000Y-99600000D03*
%TO.N,PB0{slash}TIM3_CH3{slash}ADC1_IN8*%
X95000000Y-105600000D03*
%TO.N,/PC1*%
X87600000Y-97100000D03*
D12*
%TO.N,unconnected-(J14-MountPin-PadMP)_0*%
X94400000Y-101625000D03*
D11*
%TO.N,PA4{slash}ADC1_IN4{slash}DAC_OUT1*%
X101400000Y-102400000D03*
%TO.N,PB6{slash}CAN2_TX*%
X109700000Y-111160000D03*
X107400000Y-99100000D03*
%TO.N,PC3{slash}ADC1_IN13*%
X87200000Y-105400000D03*
%TO.N,Net-(J6-Pin_1)*%
X92400000Y-89400000D03*
X92000000Y-89800000D03*
X92400000Y-90200000D03*
X92400000Y-91000000D03*
X92000000Y-90600000D03*
%TO.N,Net-(J5-Pin_15)*%
X108274187Y-109269796D03*
%TO.N,Net-(J5-Pin_14)*%
X108304995Y-108470387D03*
%TO.N,Net-(J6-Pin_4)*%
X94800000Y-97802500D03*
%TO.N,Net-(J6-Pin_3)*%
X94000000Y-95602500D03*
%TD*%
%TA.AperFunction,Conductor*%
%TO.N,GND*%
G36*
X91990695Y-89020185D02*
G01*
X92036450Y-89072989D01*
X92046394Y-89142147D01*
X92034141Y-89180792D01*
X92010639Y-89226920D01*
X91990280Y-89266876D01*
X91987500Y-89284427D01*
X91957569Y-89347561D01*
X91898257Y-89384491D01*
X91884427Y-89387500D01*
X91866876Y-89390280D01*
X91866874Y-89390280D01*
X91866874Y-89390281D01*
X91746780Y-89451472D01*
X91746779Y-89451473D01*
X91746774Y-89451476D01*
X91651476Y-89546774D01*
X91651473Y-89546778D01*
X91590279Y-89666878D01*
X91569196Y-89799997D01*
X91569196Y-89800002D01*
X91590279Y-89933121D01*
X91590280Y-89933124D01*
X91590281Y-89933126D01*
X91623077Y-89997491D01*
X91651473Y-90053221D01*
X91651476Y-90053225D01*
X91710570Y-90112319D01*
X91744055Y-90173642D01*
X91739071Y-90243334D01*
X91710570Y-90287681D01*
X91651476Y-90346774D01*
X91651473Y-90346778D01*
X91590279Y-90466878D01*
X91569196Y-90599997D01*
X91569196Y-90600002D01*
X91590279Y-90733121D01*
X91590280Y-90733124D01*
X91590281Y-90733126D01*
X91651472Y-90853220D01*
X91651473Y-90853221D01*
X91651476Y-90853225D01*
X91746774Y-90948523D01*
X91746778Y-90948526D01*
X91746780Y-90948528D01*
X91866874Y-91009719D01*
X91884424Y-91012498D01*
X91947558Y-91042427D01*
X91984490Y-91101738D01*
X91987500Y-91115573D01*
X91990279Y-91133123D01*
X91990281Y-91133126D01*
X92051472Y-91253220D01*
X92051474Y-91253222D01*
X92051476Y-91253225D01*
X92146774Y-91348523D01*
X92146778Y-91348526D01*
X92146780Y-91348528D01*
X92266874Y-91409719D01*
X92266876Y-91409719D01*
X92266878Y-91409720D01*
X92399998Y-91430804D01*
X92400000Y-91430804D01*
X92400002Y-91430804D01*
X92533121Y-91409720D01*
X92533121Y-91409719D01*
X92533126Y-91409719D01*
X92653220Y-91348528D01*
X92748528Y-91253220D01*
X92809719Y-91133126D01*
X92812499Y-91115573D01*
X92830804Y-91000002D01*
X92830804Y-90999997D01*
X92809720Y-90866878D01*
X92809719Y-90866876D01*
X92809719Y-90866874D01*
X92748528Y-90746780D01*
X92748526Y-90746778D01*
X92748523Y-90746774D01*
X92689430Y-90687681D01*
X92655945Y-90626358D01*
X92660929Y-90556666D01*
X92689430Y-90512319D01*
X92748523Y-90453225D01*
X92748528Y-90453220D01*
X92809719Y-90333126D01*
X92811908Y-90319304D01*
X92830804Y-90200002D01*
X92830804Y-90199997D01*
X92809720Y-90066878D01*
X92809719Y-90066876D01*
X92809719Y-90066874D01*
X92748528Y-89946780D01*
X92748526Y-89946778D01*
X92748523Y-89946774D01*
X92689430Y-89887681D01*
X92655945Y-89826358D01*
X92660929Y-89756666D01*
X92689430Y-89712319D01*
X92748523Y-89653225D01*
X92748528Y-89653220D01*
X92809719Y-89533126D01*
X92811975Y-89518882D01*
X92830804Y-89400002D01*
X92830804Y-89399997D01*
X92809720Y-89266878D01*
X92809719Y-89266876D01*
X92809719Y-89266874D01*
X92765858Y-89180793D01*
X92752963Y-89112125D01*
X92779240Y-89047385D01*
X92836346Y-89007128D01*
X92876344Y-89000500D01*
X96323656Y-89000500D01*
X96390695Y-89020185D01*
X96436450Y-89072989D01*
X96446394Y-89142147D01*
X96434141Y-89180792D01*
X96410639Y-89226920D01*
X96390279Y-89266878D01*
X96369196Y-89399997D01*
X96369196Y-89400002D01*
X96390279Y-89533121D01*
X96390280Y-89533124D01*
X96390281Y-89533126D01*
X96446787Y-89644025D01*
X96451473Y-89653221D01*
X96451476Y-89653225D01*
X96510570Y-89712319D01*
X96544055Y-89773642D01*
X96539071Y-89843334D01*
X96510570Y-89887681D01*
X96451476Y-89946774D01*
X96451473Y-89946778D01*
X96390279Y-90066878D01*
X96369196Y-90199997D01*
X96369196Y-90200002D01*
X96390279Y-90333121D01*
X96390280Y-90333124D01*
X96390281Y-90333126D01*
X96451471Y-90453218D01*
X96451473Y-90453221D01*
X96451476Y-90453225D01*
X96546774Y-90548523D01*
X96546778Y-90548526D01*
X96546780Y-90548528D01*
X96666874Y-90609719D01*
X96666876Y-90609719D01*
X96666878Y-90609720D01*
X96799998Y-90630804D01*
X96800000Y-90630804D01*
X96800002Y-90630804D01*
X96933121Y-90609720D01*
X96933121Y-90609719D01*
X96933126Y-90609719D01*
X97053220Y-90548528D01*
X97148528Y-90453220D01*
X97190880Y-90370098D01*
X97238853Y-90319304D01*
X97306674Y-90302508D01*
X97372809Y-90325045D01*
X97394480Y-90346410D01*
X97394571Y-90346320D01*
X97496774Y-90448523D01*
X97496778Y-90448526D01*
X97496780Y-90448528D01*
X97616874Y-90509719D01*
X97616876Y-90509719D01*
X97616878Y-90509720D01*
X97749998Y-90530804D01*
X97750000Y-90530804D01*
X97750002Y-90530804D01*
X97883121Y-90509720D01*
X97883121Y-90509719D01*
X97883126Y-90509719D01*
X98003220Y-90448528D01*
X98098528Y-90353220D01*
X98159719Y-90233126D01*
X98159720Y-90233121D01*
X98180804Y-90100002D01*
X98180804Y-90099997D01*
X98159720Y-89966878D01*
X98159719Y-89966876D01*
X98159719Y-89966874D01*
X98098528Y-89846780D01*
X98098526Y-89846778D01*
X98098523Y-89846774D01*
X98003225Y-89751476D01*
X98003221Y-89751473D01*
X98003220Y-89751472D01*
X97883126Y-89690281D01*
X97883124Y-89690280D01*
X97883121Y-89690279D01*
X97750002Y-89669196D01*
X97749998Y-89669196D01*
X97616878Y-89690279D01*
X97496778Y-89751473D01*
X97496774Y-89751476D01*
X97401476Y-89846774D01*
X97401471Y-89846781D01*
X97359119Y-89929901D01*
X97311145Y-89980696D01*
X97243323Y-89997491D01*
X97177189Y-89974953D01*
X97155519Y-89953589D01*
X97155429Y-89953680D01*
X97089430Y-89887681D01*
X97055945Y-89826358D01*
X97060929Y-89756666D01*
X97089430Y-89712319D01*
X97148523Y-89653225D01*
X97148528Y-89653220D01*
X97209719Y-89533126D01*
X97211975Y-89518882D01*
X97230804Y-89400002D01*
X97230804Y-89399997D01*
X97209720Y-89266878D01*
X97209719Y-89266876D01*
X97209719Y-89266874D01*
X97165858Y-89180793D01*
X97152963Y-89112125D01*
X97179240Y-89047385D01*
X97236346Y-89007128D01*
X97276344Y-89000500D01*
X117560118Y-89000500D01*
X117593908Y-89000500D01*
X117606061Y-89001097D01*
X117616051Y-89002080D01*
X117743824Y-89014665D01*
X117767652Y-89019404D01*
X117894277Y-89057815D01*
X117916725Y-89067114D01*
X118000933Y-89112125D01*
X118033406Y-89129482D01*
X118053616Y-89142986D01*
X118099687Y-89180795D01*
X118155891Y-89226920D01*
X118173079Y-89244108D01*
X118257012Y-89346381D01*
X118270517Y-89366593D01*
X118332883Y-89483271D01*
X118342186Y-89505728D01*
X118380593Y-89632338D01*
X118385335Y-89656180D01*
X118398903Y-89793938D01*
X118399500Y-89806092D01*
X118399500Y-90723656D01*
X118379815Y-90790695D01*
X118327011Y-90836450D01*
X118257853Y-90846394D01*
X118219207Y-90834141D01*
X118133126Y-90790281D01*
X118133124Y-90790280D01*
X118133121Y-90790279D01*
X118000002Y-90769196D01*
X117999998Y-90769196D01*
X117866878Y-90790279D01*
X117866874Y-90790280D01*
X117866874Y-90790281D01*
X117786811Y-90831075D01*
X117746778Y-90851473D01*
X117746774Y-90851476D01*
X117687681Y-90910570D01*
X117626358Y-90944055D01*
X117556666Y-90939071D01*
X117512319Y-90910570D01*
X117453225Y-90851476D01*
X117453221Y-90851473D01*
X117453220Y-90851472D01*
X117333126Y-90790281D01*
X117333124Y-90790280D01*
X117333121Y-90790279D01*
X117200002Y-90769196D01*
X117199998Y-90769196D01*
X117066876Y-90790279D01*
X116956294Y-90846624D01*
X116887625Y-90859520D01*
X116843706Y-90846624D01*
X116733123Y-90790279D01*
X116600002Y-90769196D01*
X116599998Y-90769196D01*
X116466878Y-90790279D01*
X116466874Y-90790280D01*
X116466874Y-90790281D01*
X116386811Y-90831075D01*
X116346778Y-90851473D01*
X116346774Y-90851476D01*
X116287681Y-90910570D01*
X116226358Y-90944055D01*
X116156666Y-90939071D01*
X116112319Y-90910570D01*
X116053225Y-90851476D01*
X116053221Y-90851473D01*
X116053220Y-90851472D01*
X115933126Y-90790281D01*
X115933124Y-90790280D01*
X115933121Y-90790279D01*
X115800002Y-90769196D01*
X115799998Y-90769196D01*
X115666878Y-90790279D01*
X115666874Y-90790280D01*
X115666874Y-90790281D01*
X115586811Y-90831075D01*
X115546778Y-90851473D01*
X115546774Y-90851476D01*
X115451476Y-90946774D01*
X115451473Y-90946778D01*
X115390279Y-91066878D01*
X115369196Y-91199997D01*
X115369196Y-91200002D01*
X115390279Y-91333121D01*
X115390280Y-91333124D01*
X115390281Y-91333126D01*
X115451472Y-91453220D01*
X115451473Y-91453221D01*
X115451476Y-91453225D01*
X115546774Y-91548523D01*
X115546778Y-91548526D01*
X115546780Y-91548528D01*
X115666874Y-91609719D01*
X115666876Y-91609719D01*
X115666878Y-91609720D01*
X115799998Y-91630804D01*
X115800000Y-91630804D01*
X115800002Y-91630804D01*
X115933121Y-91609720D01*
X115933121Y-91609719D01*
X115933126Y-91609719D01*
X116053220Y-91548528D01*
X116061269Y-91540479D01*
X116112319Y-91489430D01*
X116173642Y-91455945D01*
X116243334Y-91460929D01*
X116287681Y-91489430D01*
X116346774Y-91548523D01*
X116346778Y-91548526D01*
X116346780Y-91548528D01*
X116466874Y-91609719D01*
X116466876Y-91609719D01*
X116466878Y-91609720D01*
X116599998Y-91630804D01*
X116600000Y-91630804D01*
X116600002Y-91630804D01*
X116733121Y-91609720D01*
X116733121Y-91609719D01*
X116733126Y-91609719D01*
X116843708Y-91553374D01*
X116912374Y-91540479D01*
X116956289Y-91553373D01*
X117066874Y-91609719D01*
X117066876Y-91609719D01*
X117066878Y-91609720D01*
X117199998Y-91630804D01*
X117200000Y-91630804D01*
X117200002Y-91630804D01*
X117333121Y-91609720D01*
X117333121Y-91609719D01*
X117333126Y-91609719D01*
X117453220Y-91548528D01*
X117461269Y-91540479D01*
X117512319Y-91489430D01*
X117573642Y-91455945D01*
X117643334Y-91460929D01*
X117687681Y-91489430D01*
X117746774Y-91548523D01*
X117746778Y-91548526D01*
X117746780Y-91548528D01*
X117866874Y-91609719D01*
X117866876Y-91609719D01*
X117866878Y-91609720D01*
X117999998Y-91630804D01*
X118000000Y-91630804D01*
X118000002Y-91630804D01*
X118066563Y-91620261D01*
X118133126Y-91609719D01*
X118219206Y-91565858D01*
X118287874Y-91552962D01*
X118352614Y-91579238D01*
X118392872Y-91636344D01*
X118399500Y-91676343D01*
X118399500Y-97694486D01*
X118429059Y-97881118D01*
X118487454Y-98060836D01*
X118510911Y-98106872D01*
X118573240Y-98229199D01*
X118684310Y-98382073D01*
X118817927Y-98515690D01*
X118970801Y-98626760D01*
X119050347Y-98667290D01*
X119139163Y-98712545D01*
X119139165Y-98712545D01*
X119139168Y-98712547D01*
X119235497Y-98743846D01*
X119318881Y-98770940D01*
X119416756Y-98786442D01*
X119479891Y-98816371D01*
X119516822Y-98875683D01*
X119515824Y-98945545D01*
X119477214Y-99003778D01*
X119471668Y-99008182D01*
X119319439Y-99122138D01*
X119319421Y-99122154D01*
X119122154Y-99319421D01*
X119122138Y-99319439D01*
X118954945Y-99542784D01*
X118954940Y-99542792D01*
X118821233Y-99787657D01*
X118821231Y-99787661D01*
X118761232Y-99948526D01*
X118730545Y-100030804D01*
X118723727Y-100049083D01*
X118664422Y-100321700D01*
X118644518Y-100599998D01*
X118644518Y-100600001D01*
X118664422Y-100878299D01*
X118723727Y-101150916D01*
X118723729Y-101150923D01*
X118766976Y-101266874D01*
X118821231Y-101412338D01*
X118821233Y-101412342D01*
X118954940Y-101657207D01*
X118954945Y-101657215D01*
X119122138Y-101880560D01*
X119122154Y-101880578D01*
X119319421Y-102077845D01*
X119319439Y-102077861D01*
X119471668Y-102191817D01*
X119513540Y-102247750D01*
X119518524Y-102317442D01*
X119485040Y-102378765D01*
X119423717Y-102412250D01*
X119416757Y-102413557D01*
X119318880Y-102429060D01*
X119139163Y-102487454D01*
X118970800Y-102573240D01*
X118883579Y-102636610D01*
X118817927Y-102684310D01*
X118817925Y-102684312D01*
X118817924Y-102684312D01*
X118684312Y-102817924D01*
X118684312Y-102817925D01*
X118684310Y-102817927D01*
X118643885Y-102873567D01*
X118573240Y-102970800D01*
X118487454Y-103139163D01*
X118429059Y-103318881D01*
X118399500Y-103505513D01*
X118399500Y-111393907D01*
X118398903Y-111406061D01*
X118385335Y-111543819D01*
X118380593Y-111567661D01*
X118342186Y-111694271D01*
X118332883Y-111716728D01*
X118270517Y-111833406D01*
X118257012Y-111853618D01*
X118173079Y-111955891D01*
X118155891Y-111973079D01*
X118053618Y-112057012D01*
X118033406Y-112070517D01*
X117916728Y-112132883D01*
X117894271Y-112142186D01*
X117767661Y-112180593D01*
X117743819Y-112185335D01*
X117606062Y-112198903D01*
X117593908Y-112199500D01*
X86906092Y-112199500D01*
X86893938Y-112198903D01*
X86756180Y-112185335D01*
X86732340Y-112180593D01*
X86605728Y-112142186D01*
X86583271Y-112132883D01*
X86466593Y-112070517D01*
X86446381Y-112057012D01*
X86344108Y-111973079D01*
X86326920Y-111955891D01*
X86242986Y-111853616D01*
X86229482Y-111833406D01*
X86167116Y-111716728D01*
X86157815Y-111694277D01*
X86119404Y-111567652D01*
X86114665Y-111543824D01*
X86101097Y-111406060D01*
X86100500Y-111393907D01*
X86100500Y-111160002D01*
X109269196Y-111160002D01*
X109290279Y-111293121D01*
X109290280Y-111293124D01*
X109290281Y-111293126D01*
X109351472Y-111413220D01*
X109351473Y-111413221D01*
X109351476Y-111413225D01*
X109446774Y-111508523D01*
X109446778Y-111508526D01*
X109446780Y-111508528D01*
X109566874Y-111569719D01*
X109566876Y-111569719D01*
X109566878Y-111569720D01*
X109699998Y-111590804D01*
X109700000Y-111590804D01*
X109700002Y-111590804D01*
X109833121Y-111569720D01*
X109833121Y-111569719D01*
X109833126Y-111569719D01*
X109953220Y-111508528D01*
X110048528Y-111413220D01*
X110109719Y-111293126D01*
X110130804Y-111160000D01*
X110109719Y-111026874D01*
X110048528Y-110906780D01*
X110048526Y-110906778D01*
X110048523Y-110906774D01*
X109953225Y-110811476D01*
X109953221Y-110811473D01*
X109953220Y-110811472D01*
X109833126Y-110750281D01*
X109833124Y-110750280D01*
X109833121Y-110750279D01*
X109700002Y-110729196D01*
X109699998Y-110729196D01*
X109566878Y-110750279D01*
X109446778Y-110811473D01*
X109446774Y-110811476D01*
X109351476Y-110906774D01*
X109351473Y-110906778D01*
X109290279Y-111026878D01*
X109269196Y-111159997D01*
X109269196Y-111160002D01*
X86100500Y-111160002D01*
X86100500Y-109500002D01*
X93069196Y-109500002D01*
X93090279Y-109633121D01*
X93090280Y-109633124D01*
X93090281Y-109633126D01*
X93151472Y-109753220D01*
X93151473Y-109753221D01*
X93151476Y-109753225D01*
X93246774Y-109848523D01*
X93246778Y-109848526D01*
X93246780Y-109848528D01*
X93366874Y-109909719D01*
X93366876Y-109909719D01*
X93366878Y-109909720D01*
X93499998Y-109930804D01*
X93500000Y-109930804D01*
X93500002Y-109930804D01*
X93633121Y-109909720D01*
X93633121Y-109909719D01*
X93633126Y-109909719D01*
X93753220Y-109848528D01*
X93848528Y-109753220D01*
X93909719Y-109633126D01*
X93909720Y-109633121D01*
X93930804Y-109500002D01*
X93930804Y-109499997D01*
X93914966Y-109400002D01*
X101169196Y-109400002D01*
X101190279Y-109533121D01*
X101190280Y-109533124D01*
X101190281Y-109533126D01*
X101241234Y-109633126D01*
X101251473Y-109653221D01*
X101251476Y-109653225D01*
X101346774Y-109748523D01*
X101346778Y-109748526D01*
X101346780Y-109748528D01*
X101466874Y-109809719D01*
X101466876Y-109809719D01*
X101466878Y-109809720D01*
X101599998Y-109830804D01*
X101600000Y-109830804D01*
X101600002Y-109830804D01*
X101733121Y-109809720D01*
X101733121Y-109809719D01*
X101733126Y-109809719D01*
X101853220Y-109748528D01*
X101948528Y-109653220D01*
X102009719Y-109533126D01*
X102009720Y-109533121D01*
X102030804Y-109400002D01*
X102030804Y-109399997D01*
X102010182Y-109269798D01*
X107843383Y-109269798D01*
X107864466Y-109402917D01*
X107864467Y-109402920D01*
X107864468Y-109402922D01*
X107913932Y-109500000D01*
X107925660Y-109523017D01*
X107925663Y-109523021D01*
X108020961Y-109618319D01*
X108020965Y-109618322D01*
X108020967Y-109618324D01*
X108141061Y-109679515D01*
X108141063Y-109679515D01*
X108141065Y-109679516D01*
X108274185Y-109700600D01*
X108274187Y-109700600D01*
X108274189Y-109700600D01*
X108407308Y-109679516D01*
X108407308Y-109679515D01*
X108407313Y-109679515D01*
X108527407Y-109618324D01*
X108622715Y-109523016D01*
X108683906Y-109402922D01*
X108683907Y-109402917D01*
X108704991Y-109269798D01*
X108704991Y-109269793D01*
X108683907Y-109136674D01*
X108683906Y-109136672D01*
X108683906Y-109136670D01*
X108622715Y-109016576D01*
X108622713Y-109016574D01*
X108622710Y-109016570D01*
X108579316Y-108973176D01*
X108545831Y-108911853D01*
X108550815Y-108842161D01*
X108579314Y-108797815D01*
X108653523Y-108723607D01*
X108714714Y-108603513D01*
X108714715Y-108603508D01*
X108735799Y-108470389D01*
X108735799Y-108470384D01*
X108714715Y-108337265D01*
X108714714Y-108337263D01*
X108714714Y-108337261D01*
X108653523Y-108217167D01*
X108653521Y-108217165D01*
X108653518Y-108217161D01*
X108558220Y-108121863D01*
X108558216Y-108121860D01*
X108558215Y-108121859D01*
X108438121Y-108060668D01*
X108438119Y-108060667D01*
X108438116Y-108060666D01*
X108304997Y-108039583D01*
X108304993Y-108039583D01*
X108171873Y-108060666D01*
X108051773Y-108121860D01*
X108051769Y-108121863D01*
X107956471Y-108217161D01*
X107956468Y-108217165D01*
X107895274Y-108337265D01*
X107874191Y-108470384D01*
X107874191Y-108470389D01*
X107895274Y-108603508D01*
X107895275Y-108603511D01*
X107895276Y-108603513D01*
X107956467Y-108723607D01*
X107956468Y-108723608D01*
X107956471Y-108723612D01*
X107999865Y-108767006D01*
X108033350Y-108828329D01*
X108028366Y-108898021D01*
X107999866Y-108942368D01*
X107925660Y-109016574D01*
X107864466Y-109136674D01*
X107843383Y-109269793D01*
X107843383Y-109269798D01*
X102010182Y-109269798D01*
X102009720Y-109266878D01*
X102009719Y-109266876D01*
X102009719Y-109266874D01*
X101948528Y-109146780D01*
X101948526Y-109146778D01*
X101948523Y-109146774D01*
X101853225Y-109051476D01*
X101853221Y-109051473D01*
X101853220Y-109051472D01*
X101733126Y-108990281D01*
X101733124Y-108990280D01*
X101733121Y-108990279D01*
X101600002Y-108969196D01*
X101599998Y-108969196D01*
X101466878Y-108990279D01*
X101346778Y-109051473D01*
X101346774Y-109051476D01*
X101251476Y-109146774D01*
X101251473Y-109146778D01*
X101190279Y-109266878D01*
X101169196Y-109399997D01*
X101169196Y-109400002D01*
X93914966Y-109400002D01*
X93909720Y-109366878D01*
X93909719Y-109366876D01*
X93909719Y-109366874D01*
X93848528Y-109246780D01*
X93848526Y-109246778D01*
X93848523Y-109246774D01*
X93753225Y-109151476D01*
X93753221Y-109151473D01*
X93753220Y-109151472D01*
X93633126Y-109090281D01*
X93633124Y-109090280D01*
X93633121Y-109090279D01*
X93500002Y-109069196D01*
X93499998Y-109069196D01*
X93366878Y-109090279D01*
X93246778Y-109151473D01*
X93246774Y-109151476D01*
X93151476Y-109246774D01*
X93151473Y-109246778D01*
X93090279Y-109366878D01*
X93069196Y-109499997D01*
X93069196Y-109500002D01*
X86100500Y-109500002D01*
X86100500Y-108117009D01*
X99373667Y-108117009D01*
X99394750Y-108250128D01*
X99394751Y-108250131D01*
X99394752Y-108250133D01*
X99455943Y-108370227D01*
X99455944Y-108370228D01*
X99455947Y-108370232D01*
X99551245Y-108465530D01*
X99551249Y-108465533D01*
X99551251Y-108465535D01*
X99671345Y-108526726D01*
X99671347Y-108526726D01*
X99671349Y-108526727D01*
X99804469Y-108547811D01*
X99804471Y-108547811D01*
X99804473Y-108547811D01*
X99937592Y-108526727D01*
X99937592Y-108526726D01*
X99937597Y-108526726D01*
X100057691Y-108465535D01*
X100152999Y-108370227D01*
X100214190Y-108250133D01*
X100214191Y-108250128D01*
X100235275Y-108117009D01*
X100235275Y-108117004D01*
X100214191Y-107983885D01*
X100214190Y-107983883D01*
X100214190Y-107983881D01*
X100152999Y-107863787D01*
X100152997Y-107863785D01*
X100152994Y-107863781D01*
X100057696Y-107768483D01*
X100057692Y-107768480D01*
X100057691Y-107768479D01*
X99937597Y-107707288D01*
X99937595Y-107707287D01*
X99937592Y-107707286D01*
X99804473Y-107686203D01*
X99804469Y-107686203D01*
X99671349Y-107707286D01*
X99551249Y-107768480D01*
X99551245Y-107768483D01*
X99455947Y-107863781D01*
X99455944Y-107863785D01*
X99394750Y-107983885D01*
X99373667Y-108117004D01*
X99373667Y-108117009D01*
X86100500Y-108117009D01*
X86100500Y-107150002D01*
X89669196Y-107150002D01*
X89690279Y-107283121D01*
X89690280Y-107283124D01*
X89690281Y-107283126D01*
X89751472Y-107403220D01*
X89751473Y-107403221D01*
X89751476Y-107403225D01*
X89846774Y-107498523D01*
X89846778Y-107498526D01*
X89846780Y-107498528D01*
X89966874Y-107559719D01*
X89966876Y-107559719D01*
X89966878Y-107559720D01*
X90099998Y-107580804D01*
X90100000Y-107580804D01*
X90100002Y-107580804D01*
X90233121Y-107559720D01*
X90233121Y-107559719D01*
X90233126Y-107559719D01*
X90353220Y-107498528D01*
X90448528Y-107403220D01*
X90509719Y-107283126D01*
X90513426Y-107259720D01*
X90530804Y-107150002D01*
X90530804Y-107149997D01*
X90509720Y-107016878D01*
X90509719Y-107016876D01*
X90509719Y-107016874D01*
X90448528Y-106896780D01*
X90448526Y-106896778D01*
X90448523Y-106896774D01*
X90401751Y-106850002D01*
X99369196Y-106850002D01*
X99390279Y-106983121D01*
X99390280Y-106983124D01*
X99390281Y-106983126D01*
X99407479Y-107016878D01*
X99451473Y-107103221D01*
X99451476Y-107103225D01*
X99546774Y-107198523D01*
X99546778Y-107198526D01*
X99546780Y-107198528D01*
X99666874Y-107259719D01*
X99666876Y-107259719D01*
X99666878Y-107259720D01*
X99799998Y-107280804D01*
X99800000Y-107280804D01*
X99800002Y-107280804D01*
X99933121Y-107259720D01*
X99933121Y-107259719D01*
X99933126Y-107259719D01*
X100053220Y-107198528D01*
X100148528Y-107103220D01*
X100209719Y-106983126D01*
X100230804Y-106850000D01*
X100223118Y-106801473D01*
X100209720Y-106716878D01*
X100209719Y-106716876D01*
X100209719Y-106716874D01*
X100148528Y-106596780D01*
X100148526Y-106596778D01*
X100148523Y-106596774D01*
X100053225Y-106501476D01*
X100053221Y-106501473D01*
X100053220Y-106501472D01*
X99933126Y-106440281D01*
X99933124Y-106440280D01*
X99933121Y-106440279D01*
X99800002Y-106419196D01*
X99799998Y-106419196D01*
X99666878Y-106440279D01*
X99546778Y-106501473D01*
X99546774Y-106501476D01*
X99451476Y-106596774D01*
X99451473Y-106596778D01*
X99390279Y-106716878D01*
X99369196Y-106849997D01*
X99369196Y-106850002D01*
X90401751Y-106850002D01*
X90353225Y-106801476D01*
X90353221Y-106801473D01*
X90353220Y-106801472D01*
X90233126Y-106740281D01*
X90233124Y-106740280D01*
X90233121Y-106740279D01*
X90100002Y-106719196D01*
X90099998Y-106719196D01*
X89966878Y-106740279D01*
X89846778Y-106801473D01*
X89846774Y-106801476D01*
X89751476Y-106896774D01*
X89751473Y-106896778D01*
X89751472Y-106896780D01*
X89707477Y-106983126D01*
X89690279Y-107016878D01*
X89669196Y-107149997D01*
X89669196Y-107150002D01*
X86100500Y-107150002D01*
X86100500Y-106100002D01*
X89069196Y-106100002D01*
X89090279Y-106233121D01*
X89090280Y-106233124D01*
X89090281Y-106233126D01*
X89151472Y-106353220D01*
X89151473Y-106353221D01*
X89151476Y-106353225D01*
X89246774Y-106448523D01*
X89246778Y-106448526D01*
X89246780Y-106448528D01*
X89366874Y-106509719D01*
X89366876Y-106509719D01*
X89366878Y-106509720D01*
X89499998Y-106530804D01*
X89500000Y-106530804D01*
X89500002Y-106530804D01*
X89633121Y-106509720D01*
X89633121Y-106509719D01*
X89633126Y-106509719D01*
X89753220Y-106448528D01*
X89848528Y-106353220D01*
X89909719Y-106233126D01*
X89930804Y-106100002D01*
X112044196Y-106100002D01*
X112065279Y-106233121D01*
X112065280Y-106233124D01*
X112065281Y-106233126D01*
X112126472Y-106353220D01*
X112126473Y-106353221D01*
X112126476Y-106353225D01*
X112221774Y-106448523D01*
X112221778Y-106448526D01*
X112221780Y-106448528D01*
X112341874Y-106509719D01*
X112341876Y-106509719D01*
X112341878Y-106509720D01*
X112474998Y-106530804D01*
X112475000Y-106530804D01*
X112475002Y-106530804D01*
X112608121Y-106509720D01*
X112608121Y-106509719D01*
X112608126Y-106509719D01*
X112728220Y-106448528D01*
X112823528Y-106353220D01*
X112884719Y-106233126D01*
X112905804Y-106100000D01*
X112894844Y-106030804D01*
X112884720Y-105966878D01*
X112884719Y-105966876D01*
X112884719Y-105966874D01*
X112823528Y-105846780D01*
X112823526Y-105846778D01*
X112823523Y-105846774D01*
X112728225Y-105751476D01*
X112728221Y-105751473D01*
X112728220Y-105751472D01*
X112608126Y-105690281D01*
X112608124Y-105690280D01*
X112608121Y-105690279D01*
X112475002Y-105669196D01*
X112474998Y-105669196D01*
X112341878Y-105690279D01*
X112221778Y-105751473D01*
X112221774Y-105751476D01*
X112126476Y-105846774D01*
X112126473Y-105846778D01*
X112065279Y-105966878D01*
X112044196Y-106099997D01*
X112044196Y-106100002D01*
X89930804Y-106100002D01*
X89930804Y-106100000D01*
X89919844Y-106030804D01*
X89909720Y-105966878D01*
X89909719Y-105966876D01*
X89909719Y-105966874D01*
X89848528Y-105846780D01*
X89848526Y-105846778D01*
X89848523Y-105846774D01*
X89753225Y-105751476D01*
X89753221Y-105751473D01*
X89753220Y-105751472D01*
X89633126Y-105690281D01*
X89633124Y-105690280D01*
X89633121Y-105690279D01*
X89500002Y-105669196D01*
X89499998Y-105669196D01*
X89366878Y-105690279D01*
X89246778Y-105751473D01*
X89246774Y-105751476D01*
X89151476Y-105846774D01*
X89151473Y-105846778D01*
X89090279Y-105966878D01*
X89069196Y-106099997D01*
X89069196Y-106100002D01*
X86100500Y-106100002D01*
X86100500Y-105400002D01*
X86769196Y-105400002D01*
X86790279Y-105533121D01*
X86790280Y-105533124D01*
X86790281Y-105533126D01*
X86851472Y-105653220D01*
X86851473Y-105653221D01*
X86851476Y-105653225D01*
X86946774Y-105748523D01*
X86946778Y-105748526D01*
X86946780Y-105748528D01*
X87066874Y-105809719D01*
X87066876Y-105809719D01*
X87066878Y-105809720D01*
X87199998Y-105830804D01*
X87200000Y-105830804D01*
X87200002Y-105830804D01*
X87333121Y-105809720D01*
X87333121Y-105809719D01*
X87333126Y-105809719D01*
X87453220Y-105748528D01*
X87548528Y-105653220D01*
X87575644Y-105600002D01*
X94569196Y-105600002D01*
X94590279Y-105733121D01*
X94590280Y-105733124D01*
X94590281Y-105733126D01*
X94648188Y-105846774D01*
X94651473Y-105853221D01*
X94651476Y-105853225D01*
X94746774Y-105948523D01*
X94746778Y-105948526D01*
X94746780Y-105948528D01*
X94866874Y-106009719D01*
X94866876Y-106009719D01*
X94866878Y-106009720D01*
X94999998Y-106030804D01*
X95000000Y-106030804D01*
X95000002Y-106030804D01*
X95133121Y-106009720D01*
X95133121Y-106009719D01*
X95133126Y-106009719D01*
X95253220Y-105948528D01*
X95348528Y-105853220D01*
X95409719Y-105733126D01*
X95416505Y-105690281D01*
X95430804Y-105600002D01*
X100569196Y-105600002D01*
X100590279Y-105733121D01*
X100590280Y-105733124D01*
X100590281Y-105733126D01*
X100648188Y-105846774D01*
X100651473Y-105853221D01*
X100651476Y-105853225D01*
X100746774Y-105948523D01*
X100746778Y-105948526D01*
X100746780Y-105948528D01*
X100866874Y-106009719D01*
X100866876Y-106009719D01*
X100866878Y-106009720D01*
X100999998Y-106030804D01*
X101000000Y-106030804D01*
X101000002Y-106030804D01*
X101133121Y-106009720D01*
X101133121Y-106009719D01*
X101133126Y-106009719D01*
X101253220Y-105948528D01*
X101348528Y-105853220D01*
X101409719Y-105733126D01*
X101416505Y-105690281D01*
X101430804Y-105600002D01*
X109169196Y-105600002D01*
X109190279Y-105733121D01*
X109190280Y-105733124D01*
X109190281Y-105733126D01*
X109248188Y-105846774D01*
X109251473Y-105853221D01*
X109251476Y-105853225D01*
X109346774Y-105948523D01*
X109346778Y-105948526D01*
X109346780Y-105948528D01*
X109466874Y-106009719D01*
X109466876Y-106009719D01*
X109466878Y-106009720D01*
X109599998Y-106030804D01*
X109600000Y-106030804D01*
X109600002Y-106030804D01*
X109733121Y-106009720D01*
X109733121Y-106009719D01*
X109733126Y-106009719D01*
X109853220Y-105948528D01*
X109948528Y-105853220D01*
X110009719Y-105733126D01*
X110016505Y-105690281D01*
X110030804Y-105600002D01*
X110030804Y-105599997D01*
X110009720Y-105466878D01*
X110009719Y-105466876D01*
X110009719Y-105466874D01*
X109948528Y-105346780D01*
X109948526Y-105346778D01*
X109948523Y-105346774D01*
X109853225Y-105251476D01*
X109853221Y-105251473D01*
X109853220Y-105251472D01*
X109733126Y-105190281D01*
X109733124Y-105190280D01*
X109733121Y-105190279D01*
X109600002Y-105169196D01*
X109599998Y-105169196D01*
X109466878Y-105190279D01*
X109346778Y-105251473D01*
X109346774Y-105251476D01*
X109251476Y-105346774D01*
X109251473Y-105346778D01*
X109190279Y-105466878D01*
X109169196Y-105599997D01*
X109169196Y-105600002D01*
X101430804Y-105600002D01*
X101430804Y-105599997D01*
X101409720Y-105466878D01*
X101409719Y-105466876D01*
X101409719Y-105466874D01*
X101348528Y-105346780D01*
X101348526Y-105346778D01*
X101348523Y-105346774D01*
X101253225Y-105251476D01*
X101253221Y-105251473D01*
X101253220Y-105251472D01*
X101133126Y-105190281D01*
X101133124Y-105190280D01*
X101133121Y-105190279D01*
X101000002Y-105169196D01*
X100999998Y-105169196D01*
X100866878Y-105190279D01*
X100746778Y-105251473D01*
X100746774Y-105251476D01*
X100651476Y-105346774D01*
X100651473Y-105346778D01*
X100590279Y-105466878D01*
X100569196Y-105599997D01*
X100569196Y-105600002D01*
X95430804Y-105600002D01*
X95430804Y-105599997D01*
X95409720Y-105466878D01*
X95409719Y-105466876D01*
X95409719Y-105466874D01*
X95348528Y-105346780D01*
X95348526Y-105346778D01*
X95348523Y-105346774D01*
X95253225Y-105251476D01*
X95253221Y-105251473D01*
X95253220Y-105251472D01*
X95133126Y-105190281D01*
X95133124Y-105190280D01*
X95133121Y-105190279D01*
X95000002Y-105169196D01*
X94999998Y-105169196D01*
X94866878Y-105190279D01*
X94746778Y-105251473D01*
X94746774Y-105251476D01*
X94651476Y-105346774D01*
X94651473Y-105346778D01*
X94590279Y-105466878D01*
X94569196Y-105599997D01*
X94569196Y-105600002D01*
X87575644Y-105600002D01*
X87609719Y-105533126D01*
X87620212Y-105466878D01*
X87630804Y-105400002D01*
X87630804Y-105399997D01*
X87609720Y-105266878D01*
X87609719Y-105266876D01*
X87609719Y-105266874D01*
X87548528Y-105146780D01*
X87548526Y-105146778D01*
X87548523Y-105146774D01*
X87453225Y-105051476D01*
X87453221Y-105051473D01*
X87453220Y-105051472D01*
X87333126Y-104990281D01*
X87333124Y-104990280D01*
X87333121Y-104990279D01*
X87200002Y-104969196D01*
X87199998Y-104969196D01*
X87066878Y-104990279D01*
X86946778Y-105051473D01*
X86946774Y-105051476D01*
X86851476Y-105146774D01*
X86851473Y-105146778D01*
X86790279Y-105266878D01*
X86769196Y-105399997D01*
X86769196Y-105400002D01*
X86100500Y-105400002D01*
X86100500Y-104469407D01*
X89811547Y-104469407D01*
X89832630Y-104602526D01*
X89832631Y-104602529D01*
X89832632Y-104602531D01*
X89881544Y-104698526D01*
X89893824Y-104722626D01*
X89893827Y-104722630D01*
X89989125Y-104817928D01*
X89989129Y-104817931D01*
X89989131Y-104817933D01*
X90109225Y-104879124D01*
X90109227Y-104879124D01*
X90109229Y-104879125D01*
X90242349Y-104900209D01*
X90242351Y-104900209D01*
X90242353Y-104900209D01*
X90375472Y-104879125D01*
X90375472Y-104879124D01*
X90375477Y-104879124D01*
X90495571Y-104817933D01*
X90590879Y-104722625D01*
X90652070Y-104602531D01*
X90652071Y-104602526D01*
X90673155Y-104469407D01*
X90673155Y-104469402D01*
X90652071Y-104336283D01*
X90652070Y-104336281D01*
X90652070Y-104336279D01*
X90590879Y-104216185D01*
X90590877Y-104216183D01*
X90590874Y-104216179D01*
X90495576Y-104120881D01*
X90495572Y-104120878D01*
X90495571Y-104120877D01*
X90375477Y-104059686D01*
X90375475Y-104059685D01*
X90375472Y-104059684D01*
X90242353Y-104038601D01*
X90242349Y-104038601D01*
X90109229Y-104059684D01*
X89989129Y-104120878D01*
X89989125Y-104120881D01*
X89893827Y-104216179D01*
X89893824Y-104216183D01*
X89832630Y-104336283D01*
X89811547Y-104469402D01*
X89811547Y-104469407D01*
X86100500Y-104469407D01*
X86100500Y-104000002D01*
X101769196Y-104000002D01*
X101790279Y-104133121D01*
X101790280Y-104133124D01*
X101790281Y-104133126D01*
X101841234Y-104233126D01*
X101851473Y-104253221D01*
X101851476Y-104253225D01*
X101946774Y-104348523D01*
X101946778Y-104348526D01*
X101946780Y-104348528D01*
X102066874Y-104409719D01*
X102066876Y-104409719D01*
X102066878Y-104409720D01*
X102199998Y-104430804D01*
X102200000Y-104430804D01*
X102200002Y-104430804D01*
X102333121Y-104409720D01*
X102333121Y-104409719D01*
X102333126Y-104409719D01*
X102450327Y-104350002D01*
X105169196Y-104350002D01*
X105190279Y-104483121D01*
X105190280Y-104483124D01*
X105190281Y-104483126D01*
X105251121Y-104602531D01*
X105251473Y-104603221D01*
X105251476Y-104603225D01*
X105346774Y-104698523D01*
X105346778Y-104698526D01*
X105346780Y-104698528D01*
X105466874Y-104759719D01*
X105466876Y-104759719D01*
X105466878Y-104759720D01*
X105599998Y-104780804D01*
X105600000Y-104780804D01*
X105600002Y-104780804D01*
X105733121Y-104759720D01*
X105733121Y-104759719D01*
X105733126Y-104759719D01*
X105853220Y-104698528D01*
X105948528Y-104603220D01*
X106009719Y-104483126D01*
X106018006Y-104430804D01*
X106030804Y-104350002D01*
X106030804Y-104349997D01*
X106009720Y-104216878D01*
X106009719Y-104216876D01*
X106009719Y-104216874D01*
X105950170Y-104100002D01*
X113969196Y-104100002D01*
X113990279Y-104233121D01*
X113990280Y-104233124D01*
X113990281Y-104233126D01*
X114051472Y-104353220D01*
X114051473Y-104353221D01*
X114051476Y-104353225D01*
X114146774Y-104448523D01*
X114146778Y-104448526D01*
X114146780Y-104448528D01*
X114266874Y-104509719D01*
X114266876Y-104509719D01*
X114266878Y-104509720D01*
X114399998Y-104530804D01*
X114400000Y-104530804D01*
X114400002Y-104530804D01*
X114533121Y-104509720D01*
X114533121Y-104509719D01*
X114533126Y-104509719D01*
X114653220Y-104448528D01*
X114748528Y-104353220D01*
X114809719Y-104233126D01*
X114809720Y-104233121D01*
X114830804Y-104100002D01*
X114830804Y-104099997D01*
X114809720Y-103966878D01*
X114809719Y-103966876D01*
X114809719Y-103966874D01*
X114748528Y-103846780D01*
X114748526Y-103846778D01*
X114748523Y-103846774D01*
X114653225Y-103751476D01*
X114653221Y-103751473D01*
X114653220Y-103751472D01*
X114533126Y-103690281D01*
X114533124Y-103690280D01*
X114533121Y-103690279D01*
X114400002Y-103669196D01*
X114399998Y-103669196D01*
X114266878Y-103690279D01*
X114146778Y-103751473D01*
X114146774Y-103751476D01*
X114051476Y-103846774D01*
X114051473Y-103846778D01*
X113990279Y-103966878D01*
X113969196Y-104099997D01*
X113969196Y-104100002D01*
X105950170Y-104100002D01*
X105948528Y-104096780D01*
X105948526Y-104096778D01*
X105948523Y-104096774D01*
X105853225Y-104001476D01*
X105853221Y-104001473D01*
X105853220Y-104001472D01*
X105733126Y-103940281D01*
X105733124Y-103940280D01*
X105733121Y-103940279D01*
X105600002Y-103919196D01*
X105599998Y-103919196D01*
X105466878Y-103940279D01*
X105466874Y-103940280D01*
X105466874Y-103940281D01*
X105386811Y-103981075D01*
X105346778Y-104001473D01*
X105346774Y-104001476D01*
X105251476Y-104096774D01*
X105251473Y-104096778D01*
X105190279Y-104216878D01*
X105169196Y-104349997D01*
X105169196Y-104350002D01*
X102450327Y-104350002D01*
X102453220Y-104348528D01*
X102548528Y-104253220D01*
X102609719Y-104133126D01*
X102609720Y-104133121D01*
X102630804Y-104000002D01*
X102630804Y-103999997D01*
X102609720Y-103866878D01*
X102609719Y-103866876D01*
X102609719Y-103866874D01*
X102548528Y-103746780D01*
X102548526Y-103746778D01*
X102548523Y-103746774D01*
X102453225Y-103651476D01*
X102453221Y-103651473D01*
X102453220Y-103651472D01*
X102333126Y-103590281D01*
X102333124Y-103590280D01*
X102333121Y-103590279D01*
X102200002Y-103569196D01*
X102199998Y-103569196D01*
X102066878Y-103590279D01*
X101946778Y-103651473D01*
X101946774Y-103651476D01*
X101851476Y-103746774D01*
X101851473Y-103746778D01*
X101790279Y-103866878D01*
X101769196Y-103999997D01*
X101769196Y-104000002D01*
X86100500Y-104000002D01*
X86100500Y-103505513D01*
X86070940Y-103318881D01*
X86012545Y-103139163D01*
X86006243Y-103126795D01*
X89979791Y-103126795D01*
X90000874Y-103259914D01*
X90000875Y-103259917D01*
X90000876Y-103259919D01*
X90048416Y-103353221D01*
X90062068Y-103380014D01*
X90062071Y-103380018D01*
X90157369Y-103475316D01*
X90157373Y-103475319D01*
X90157375Y-103475321D01*
X90277469Y-103536512D01*
X90277471Y-103536512D01*
X90277473Y-103536513D01*
X90410593Y-103557597D01*
X90410595Y-103557597D01*
X90410597Y-103557597D01*
X90543716Y-103536513D01*
X90543716Y-103536512D01*
X90543721Y-103536512D01*
X90663815Y-103475321D01*
X90759123Y-103380013D01*
X90820314Y-103259919D01*
X90824558Y-103233126D01*
X90841399Y-103126795D01*
X90841399Y-103126790D01*
X90837156Y-103100002D01*
X105169196Y-103100002D01*
X105190279Y-103233121D01*
X105190280Y-103233124D01*
X105190281Y-103233126D01*
X105233976Y-103318882D01*
X105251473Y-103353221D01*
X105251476Y-103353225D01*
X105346774Y-103448523D01*
X105346778Y-103448526D01*
X105346780Y-103448528D01*
X105466874Y-103509719D01*
X105466876Y-103509719D01*
X105466878Y-103509720D01*
X105599998Y-103530804D01*
X105600000Y-103530804D01*
X105600002Y-103530804D01*
X105733121Y-103509720D01*
X105733121Y-103509719D01*
X105733126Y-103509719D01*
X105853220Y-103448528D01*
X105948528Y-103353220D01*
X106009719Y-103233126D01*
X106021963Y-103155822D01*
X106030804Y-103100002D01*
X106030804Y-103099997D01*
X106009720Y-102966878D01*
X106009719Y-102966876D01*
X106009719Y-102966874D01*
X105948528Y-102846780D01*
X105948526Y-102846778D01*
X105948523Y-102846774D01*
X105853225Y-102751476D01*
X105853221Y-102751473D01*
X105853220Y-102751472D01*
X105733126Y-102690281D01*
X105733124Y-102690280D01*
X105733121Y-102690279D01*
X105600002Y-102669196D01*
X105599998Y-102669196D01*
X105466878Y-102690279D01*
X105346778Y-102751473D01*
X105346774Y-102751476D01*
X105251476Y-102846774D01*
X105251473Y-102846778D01*
X105190279Y-102966878D01*
X105169196Y-103099997D01*
X105169196Y-103100002D01*
X90837156Y-103100002D01*
X90820315Y-102993671D01*
X90820314Y-102993669D01*
X90820314Y-102993667D01*
X90759123Y-102873573D01*
X90759121Y-102873571D01*
X90759118Y-102873567D01*
X90663820Y-102778269D01*
X90663816Y-102778266D01*
X90663815Y-102778265D01*
X90543721Y-102717074D01*
X90543719Y-102717073D01*
X90543716Y-102717072D01*
X90410597Y-102695989D01*
X90410593Y-102695989D01*
X90277473Y-102717072D01*
X90157373Y-102778266D01*
X90157369Y-102778269D01*
X90062071Y-102873567D01*
X90062068Y-102873571D01*
X90000874Y-102993671D01*
X89979791Y-103126790D01*
X89979791Y-103126795D01*
X86006243Y-103126795D01*
X85959302Y-103034668D01*
X85926760Y-102970801D01*
X85815690Y-102817927D01*
X85682073Y-102684310D01*
X85529199Y-102573240D01*
X85360836Y-102487454D01*
X85181118Y-102429059D01*
X84997656Y-102400002D01*
X100969196Y-102400002D01*
X100990279Y-102533121D01*
X100990280Y-102533124D01*
X100990281Y-102533126D01*
X101013046Y-102577804D01*
X101051473Y-102653221D01*
X101051476Y-102653225D01*
X101146774Y-102748523D01*
X101146778Y-102748526D01*
X101146780Y-102748528D01*
X101266874Y-102809719D01*
X101266876Y-102809719D01*
X101266878Y-102809720D01*
X101399998Y-102830804D01*
X101400000Y-102830804D01*
X101400002Y-102830804D01*
X101533121Y-102809720D01*
X101533121Y-102809719D01*
X101533126Y-102809719D01*
X101653220Y-102748528D01*
X101748528Y-102653220D01*
X101809719Y-102533126D01*
X101813426Y-102509720D01*
X101830804Y-102400002D01*
X101830804Y-102399997D01*
X101809720Y-102266878D01*
X101809719Y-102266876D01*
X101809719Y-102266874D01*
X101748528Y-102146780D01*
X101748526Y-102146778D01*
X101748523Y-102146774D01*
X101701751Y-102100002D01*
X108769196Y-102100002D01*
X108790279Y-102233121D01*
X108790280Y-102233124D01*
X108790281Y-102233126D01*
X108851472Y-102353220D01*
X108851473Y-102353221D01*
X108851476Y-102353225D01*
X108946774Y-102448523D01*
X108946778Y-102448526D01*
X108946780Y-102448528D01*
X109066874Y-102509719D01*
X109066876Y-102509719D01*
X109066878Y-102509720D01*
X109199998Y-102530804D01*
X109200000Y-102530804D01*
X109200002Y-102530804D01*
X109333121Y-102509720D01*
X109333121Y-102509719D01*
X109333126Y-102509719D01*
X109453220Y-102448528D01*
X109548528Y-102353220D01*
X109609719Y-102233126D01*
X109609720Y-102233121D01*
X109630804Y-102100002D01*
X113969196Y-102100002D01*
X113990279Y-102233121D01*
X113990280Y-102233124D01*
X113990281Y-102233126D01*
X114051472Y-102353220D01*
X114051473Y-102353221D01*
X114051476Y-102353225D01*
X114146774Y-102448523D01*
X114146778Y-102448526D01*
X114146780Y-102448528D01*
X114266874Y-102509719D01*
X114266876Y-102509719D01*
X114266878Y-102509720D01*
X114399998Y-102530804D01*
X114400000Y-102530804D01*
X114400002Y-102530804D01*
X114533121Y-102509720D01*
X114533121Y-102509719D01*
X114533126Y-102509719D01*
X114653220Y-102448528D01*
X114748528Y-102353220D01*
X114809719Y-102233126D01*
X114809720Y-102233121D01*
X114830804Y-102100002D01*
X114830804Y-102099997D01*
X114809720Y-101966878D01*
X114809719Y-101966876D01*
X114809719Y-101966874D01*
X114748528Y-101846780D01*
X114748526Y-101846778D01*
X114748523Y-101846774D01*
X114653225Y-101751476D01*
X114653221Y-101751473D01*
X114653220Y-101751472D01*
X114533126Y-101690281D01*
X114533124Y-101690280D01*
X114533121Y-101690279D01*
X114400002Y-101669196D01*
X114399998Y-101669196D01*
X114266878Y-101690279D01*
X114146778Y-101751473D01*
X114146774Y-101751476D01*
X114051476Y-101846774D01*
X114051473Y-101846778D01*
X113990279Y-101966878D01*
X113969196Y-102099997D01*
X113969196Y-102100002D01*
X109630804Y-102100002D01*
X109630804Y-102099997D01*
X109609720Y-101966878D01*
X109609719Y-101966876D01*
X109609719Y-101966874D01*
X109548528Y-101846780D01*
X109548526Y-101846778D01*
X109548523Y-101846774D01*
X109453225Y-101751476D01*
X109453221Y-101751473D01*
X109453220Y-101751472D01*
X109333126Y-101690281D01*
X109333124Y-101690280D01*
X109333121Y-101690279D01*
X109200002Y-101669196D01*
X109199998Y-101669196D01*
X109066878Y-101690279D01*
X108946778Y-101751473D01*
X108946774Y-101751476D01*
X108851476Y-101846774D01*
X108851473Y-101846778D01*
X108790279Y-101966878D01*
X108769196Y-102099997D01*
X108769196Y-102100002D01*
X101701751Y-102100002D01*
X101653225Y-102051476D01*
X101653221Y-102051473D01*
X101653220Y-102051472D01*
X101533126Y-101990281D01*
X101533124Y-101990280D01*
X101533121Y-101990279D01*
X101400002Y-101969196D01*
X101399998Y-101969196D01*
X101266878Y-101990279D01*
X101146778Y-102051473D01*
X101146774Y-102051476D01*
X101051476Y-102146774D01*
X101051473Y-102146778D01*
X101051472Y-102146780D01*
X101007477Y-102233126D01*
X100990279Y-102266878D01*
X100969196Y-102399997D01*
X100969196Y-102400002D01*
X84997656Y-102400002D01*
X84994486Y-102399500D01*
X84994481Y-102399500D01*
X84939882Y-102399500D01*
X83904428Y-102399500D01*
X83895582Y-102399184D01*
X83652748Y-102381816D01*
X83635236Y-102379298D01*
X83401692Y-102328494D01*
X83384716Y-102323510D01*
X83160767Y-102239981D01*
X83144674Y-102232631D01*
X82987446Y-102146778D01*
X82934901Y-102118086D01*
X82920018Y-102108522D01*
X82899188Y-102092929D01*
X82728674Y-101965283D01*
X82715304Y-101953697D01*
X82546302Y-101784695D01*
X82534716Y-101771325D01*
X82519854Y-101751472D01*
X82391473Y-101579976D01*
X82381915Y-101565102D01*
X82267365Y-101355319D01*
X82260021Y-101339239D01*
X82208088Y-101200002D01*
X85969196Y-101200002D01*
X85990279Y-101333121D01*
X85990280Y-101333124D01*
X85990281Y-101333126D01*
X86030642Y-101412338D01*
X86051473Y-101453221D01*
X86051476Y-101453225D01*
X86146774Y-101548523D01*
X86146778Y-101548526D01*
X86146780Y-101548528D01*
X86266874Y-101609719D01*
X86266876Y-101609719D01*
X86266878Y-101609720D01*
X86399998Y-101630804D01*
X86400000Y-101630804D01*
X86400002Y-101630804D01*
X86436647Y-101625000D01*
X93694355Y-101625000D01*
X93714859Y-101793869D01*
X93714860Y-101793874D01*
X93775182Y-101952931D01*
X93837475Y-102043177D01*
X93871817Y-102092929D01*
X93977505Y-102186560D01*
X93999150Y-102205736D01*
X94149773Y-102284789D01*
X94149775Y-102284790D01*
X94314944Y-102325500D01*
X94485056Y-102325500D01*
X94650225Y-102284790D01*
X94729692Y-102243081D01*
X94800849Y-102205736D01*
X94800850Y-102205734D01*
X94800852Y-102205734D01*
X94928183Y-102092929D01*
X95024818Y-101952930D01*
X95085140Y-101793872D01*
X95105645Y-101625000D01*
X95085140Y-101456128D01*
X95068532Y-101412337D01*
X95063854Y-101400002D01*
X98769196Y-101400002D01*
X98790279Y-101533121D01*
X98790280Y-101533124D01*
X98790281Y-101533126D01*
X98851472Y-101653220D01*
X98851473Y-101653221D01*
X98851476Y-101653225D01*
X98946774Y-101748523D01*
X98946778Y-101748526D01*
X98946780Y-101748528D01*
X99066874Y-101809719D01*
X99066876Y-101809719D01*
X99066878Y-101809720D01*
X99199998Y-101830804D01*
X99200000Y-101830804D01*
X99200002Y-101830804D01*
X99333121Y-101809720D01*
X99333121Y-101809719D01*
X99333126Y-101809719D01*
X99453220Y-101748528D01*
X99548528Y-101653220D01*
X99609719Y-101533126D01*
X99621914Y-101456130D01*
X99630804Y-101400002D01*
X99630804Y-101399997D01*
X99609720Y-101266878D01*
X99609719Y-101266876D01*
X99609719Y-101266874D01*
X99548528Y-101146780D01*
X99548526Y-101146778D01*
X99548523Y-101146774D01*
X99453225Y-101051476D01*
X99453221Y-101051473D01*
X99453220Y-101051472D01*
X99333126Y-100990281D01*
X99333124Y-100990280D01*
X99333121Y-100990279D01*
X99200002Y-100969196D01*
X99199998Y-100969196D01*
X99066878Y-100990279D01*
X98946778Y-101051473D01*
X98946774Y-101051476D01*
X98851476Y-101146774D01*
X98851473Y-101146778D01*
X98790279Y-101266878D01*
X98769196Y-101399997D01*
X98769196Y-101400002D01*
X95063854Y-101400002D01*
X95038490Y-101333121D01*
X95024818Y-101297070D01*
X94928183Y-101157071D01*
X94826371Y-101066874D01*
X94800849Y-101044263D01*
X94650226Y-100965210D01*
X94485056Y-100924500D01*
X94314944Y-100924500D01*
X94149773Y-100965210D01*
X93999150Y-101044263D01*
X93871816Y-101157072D01*
X93775182Y-101297068D01*
X93714860Y-101456125D01*
X93714859Y-101456130D01*
X93694355Y-101625000D01*
X86436647Y-101625000D01*
X86533121Y-101609720D01*
X86533121Y-101609719D01*
X86533126Y-101609719D01*
X86653220Y-101548528D01*
X86748528Y-101453220D01*
X86809719Y-101333126D01*
X86820212Y-101266878D01*
X86830804Y-101200002D01*
X86830804Y-101199997D01*
X86809720Y-101066878D01*
X86809719Y-101066876D01*
X86809719Y-101066874D01*
X86748528Y-100946780D01*
X86748526Y-100946778D01*
X86748523Y-100946774D01*
X86653225Y-100851476D01*
X86653221Y-100851473D01*
X86653220Y-100851472D01*
X86533126Y-100790281D01*
X86533124Y-100790280D01*
X86533121Y-100790279D01*
X86400002Y-100769196D01*
X86399998Y-100769196D01*
X86266878Y-100790279D01*
X86146778Y-100851473D01*
X86146774Y-100851476D01*
X86051476Y-100946774D01*
X86051473Y-100946778D01*
X85990279Y-101066878D01*
X85969196Y-101199997D01*
X85969196Y-101200002D01*
X82208088Y-101200002D01*
X82176486Y-101115275D01*
X82171507Y-101098316D01*
X82120700Y-100864757D01*
X82118183Y-100847251D01*
X82101132Y-100608836D01*
X82101132Y-100591163D01*
X82118183Y-100352741D01*
X82120699Y-100335244D01*
X82171508Y-100101679D01*
X82176485Y-100084728D01*
X82260023Y-99860754D01*
X82267362Y-99844685D01*
X82381919Y-99634890D01*
X82391469Y-99620029D01*
X82406461Y-99600002D01*
X97769196Y-99600002D01*
X97790279Y-99733121D01*
X97790280Y-99733124D01*
X97790281Y-99733126D01*
X97851472Y-99853220D01*
X97851473Y-99853221D01*
X97851476Y-99853225D01*
X97946774Y-99948523D01*
X97946778Y-99948526D01*
X97946780Y-99948528D01*
X98066874Y-100009719D01*
X98066876Y-100009719D01*
X98066878Y-100009720D01*
X98199998Y-100030804D01*
X98200000Y-100030804D01*
X98200002Y-100030804D01*
X98333121Y-100009720D01*
X98333121Y-100009719D01*
X98333126Y-100009719D01*
X98453220Y-99948528D01*
X98548528Y-99853220D01*
X98563938Y-99822976D01*
X100778415Y-99822976D01*
X100799498Y-99956095D01*
X100799499Y-99956098D01*
X100799500Y-99956100D01*
X100860691Y-100076194D01*
X100860692Y-100076195D01*
X100860695Y-100076199D01*
X100955993Y-100171497D01*
X100955997Y-100171500D01*
X100955999Y-100171502D01*
X101076093Y-100232693D01*
X101076095Y-100232693D01*
X101076097Y-100232694D01*
X101209217Y-100253778D01*
X101209219Y-100253778D01*
X101209221Y-100253778D01*
X101342340Y-100232694D01*
X101342340Y-100232693D01*
X101342345Y-100232693D01*
X101462439Y-100171502D01*
X101557747Y-100076194D01*
X101618938Y-99956100D01*
X101635232Y-99853225D01*
X101640023Y-99822976D01*
X101640023Y-99822971D01*
X101618939Y-99689852D01*
X101618938Y-99689850D01*
X101618938Y-99689848D01*
X101557747Y-99569754D01*
X101557745Y-99569752D01*
X101557742Y-99569748D01*
X101462444Y-99474450D01*
X101462440Y-99474447D01*
X101462439Y-99474446D01*
X101342345Y-99413255D01*
X101342343Y-99413254D01*
X101342340Y-99413253D01*
X101209221Y-99392170D01*
X101209217Y-99392170D01*
X101076097Y-99413253D01*
X100955997Y-99474447D01*
X100955993Y-99474450D01*
X100860695Y-99569748D01*
X100860692Y-99569752D01*
X100799498Y-99689852D01*
X100778415Y-99822971D01*
X100778415Y-99822976D01*
X98563938Y-99822976D01*
X98609719Y-99733126D01*
X98626899Y-99624655D01*
X98630804Y-99600002D01*
X98630804Y-99599997D01*
X98609720Y-99466878D01*
X98609719Y-99466876D01*
X98609719Y-99466874D01*
X98548528Y-99346780D01*
X98548526Y-99346778D01*
X98548523Y-99346774D01*
X98453225Y-99251476D01*
X98453221Y-99251473D01*
X98453220Y-99251472D01*
X98333126Y-99190281D01*
X98333124Y-99190280D01*
X98333121Y-99190279D01*
X98200002Y-99169196D01*
X98199998Y-99169196D01*
X98066878Y-99190279D01*
X97946778Y-99251473D01*
X97946774Y-99251476D01*
X97851476Y-99346774D01*
X97851473Y-99346778D01*
X97851472Y-99346780D01*
X97813361Y-99421578D01*
X97790279Y-99466878D01*
X97769196Y-99599997D01*
X97769196Y-99600002D01*
X82406461Y-99600002D01*
X82534723Y-99428665D01*
X82546295Y-99415311D01*
X82715311Y-99246295D01*
X82728665Y-99234723D01*
X82908630Y-99100002D01*
X106969196Y-99100002D01*
X106990279Y-99233121D01*
X106990280Y-99233124D01*
X106990281Y-99233126D01*
X107034260Y-99319439D01*
X107051473Y-99353221D01*
X107051476Y-99353225D01*
X107146774Y-99448523D01*
X107146778Y-99448526D01*
X107146780Y-99448528D01*
X107266874Y-99509719D01*
X107266876Y-99509719D01*
X107266878Y-99509720D01*
X107399998Y-99530804D01*
X107400000Y-99530804D01*
X107400002Y-99530804D01*
X107533121Y-99509720D01*
X107533121Y-99509719D01*
X107533126Y-99509719D01*
X107653220Y-99448528D01*
X107748528Y-99353220D01*
X107809719Y-99233126D01*
X107816505Y-99190281D01*
X107830804Y-99100002D01*
X107830804Y-99099997D01*
X107809720Y-98966878D01*
X107809719Y-98966876D01*
X107809719Y-98966874D01*
X107748528Y-98846780D01*
X107748526Y-98846778D01*
X107748523Y-98846774D01*
X107653225Y-98751476D01*
X107653221Y-98751473D01*
X107653220Y-98751472D01*
X107533126Y-98690281D01*
X107533124Y-98690280D01*
X107533121Y-98690279D01*
X107400002Y-98669196D01*
X107399998Y-98669196D01*
X107266878Y-98690279D01*
X107266874Y-98690280D01*
X107266874Y-98690281D01*
X107223175Y-98712547D01*
X107146778Y-98751473D01*
X107146774Y-98751476D01*
X107051476Y-98846774D01*
X107051473Y-98846778D01*
X106990279Y-98966878D01*
X106969196Y-99099997D01*
X106969196Y-99100002D01*
X82908630Y-99100002D01*
X82920029Y-99091469D01*
X82934890Y-99081919D01*
X83144685Y-98967362D01*
X83160754Y-98960023D01*
X83384728Y-98876485D01*
X83401679Y-98871508D01*
X83635244Y-98820699D01*
X83652741Y-98818183D01*
X83895582Y-98800816D01*
X83904428Y-98800500D01*
X84994486Y-98800500D01*
X85181118Y-98770940D01*
X85360832Y-98712547D01*
X85529199Y-98626760D01*
X85682073Y-98515690D01*
X85742365Y-98455398D01*
X89627037Y-98455398D01*
X89648120Y-98588517D01*
X89648121Y-98588520D01*
X89648122Y-98588522D01*
X89700986Y-98692273D01*
X89709314Y-98708617D01*
X89709317Y-98708621D01*
X89804615Y-98803919D01*
X89804619Y-98803922D01*
X89804621Y-98803924D01*
X89924715Y-98865115D01*
X89924717Y-98865115D01*
X89924719Y-98865116D01*
X90057839Y-98886200D01*
X90057841Y-98886200D01*
X90057843Y-98886200D01*
X90190962Y-98865116D01*
X90190962Y-98865115D01*
X90190967Y-98865115D01*
X90311061Y-98803924D01*
X90406369Y-98708616D01*
X90467560Y-98588522D01*
X90475914Y-98535778D01*
X90488645Y-98455398D01*
X90488645Y-98455393D01*
X90467561Y-98322274D01*
X90467560Y-98322272D01*
X90467560Y-98322270D01*
X90447324Y-98282555D01*
X99369196Y-98282555D01*
X99390279Y-98415674D01*
X99390280Y-98415677D01*
X99390281Y-98415679D01*
X99451472Y-98535773D01*
X99451473Y-98535774D01*
X99451476Y-98535778D01*
X99546774Y-98631076D01*
X99546778Y-98631079D01*
X99546780Y-98631081D01*
X99666874Y-98692272D01*
X99666876Y-98692272D01*
X99666878Y-98692273D01*
X99799998Y-98713357D01*
X99800000Y-98713357D01*
X99800002Y-98713357D01*
X99933121Y-98692273D01*
X99933121Y-98692272D01*
X99933126Y-98692272D01*
X100053220Y-98631081D01*
X100148528Y-98535773D01*
X100209719Y-98415679D01*
X100209720Y-98415674D01*
X100230804Y-98282555D01*
X100230804Y-98282550D01*
X100209720Y-98149431D01*
X100209719Y-98149429D01*
X100209719Y-98149427D01*
X100184536Y-98100002D01*
X113869196Y-98100002D01*
X113890279Y-98233121D01*
X113890280Y-98233124D01*
X113890281Y-98233126D01*
X113951472Y-98353220D01*
X113951473Y-98353221D01*
X113951476Y-98353225D01*
X114046774Y-98448523D01*
X114046778Y-98448526D01*
X114046780Y-98448528D01*
X114166874Y-98509719D01*
X114166876Y-98509719D01*
X114166878Y-98509720D01*
X114299998Y-98530804D01*
X114300000Y-98530804D01*
X114300002Y-98530804D01*
X114433121Y-98509720D01*
X114433121Y-98509719D01*
X114433126Y-98509719D01*
X114553220Y-98448528D01*
X114648528Y-98353220D01*
X114709719Y-98233126D01*
X114713030Y-98212220D01*
X114730804Y-98100002D01*
X114730804Y-98099997D01*
X114709720Y-97966878D01*
X114709719Y-97966876D01*
X114709719Y-97966874D01*
X114648528Y-97846780D01*
X114648526Y-97846778D01*
X114648523Y-97846774D01*
X114553225Y-97751476D01*
X114553221Y-97751473D01*
X114553220Y-97751472D01*
X114433126Y-97690281D01*
X114433124Y-97690280D01*
X114433121Y-97690279D01*
X114300002Y-97669196D01*
X114299998Y-97669196D01*
X114166878Y-97690279D01*
X114046778Y-97751473D01*
X114046774Y-97751476D01*
X113951476Y-97846774D01*
X113951473Y-97846778D01*
X113890279Y-97966878D01*
X113869196Y-98099997D01*
X113869196Y-98100002D01*
X100184536Y-98100002D01*
X100148528Y-98029333D01*
X100148526Y-98029331D01*
X100148523Y-98029327D01*
X100053225Y-97934029D01*
X100053221Y-97934026D01*
X100053220Y-97934025D01*
X99933126Y-97872834D01*
X99933124Y-97872833D01*
X99933121Y-97872832D01*
X99800002Y-97851749D01*
X99799998Y-97851749D01*
X99666878Y-97872832D01*
X99546778Y-97934026D01*
X99546774Y-97934029D01*
X99451476Y-98029327D01*
X99451473Y-98029331D01*
X99390279Y-98149431D01*
X99369196Y-98282550D01*
X99369196Y-98282555D01*
X90447324Y-98282555D01*
X90406369Y-98202176D01*
X90406367Y-98202174D01*
X90406364Y-98202170D01*
X90311066Y-98106872D01*
X90311062Y-98106869D01*
X90311061Y-98106868D01*
X90190967Y-98045677D01*
X90190965Y-98045676D01*
X90190962Y-98045675D01*
X90057843Y-98024592D01*
X90057839Y-98024592D01*
X89924719Y-98045675D01*
X89804619Y-98106869D01*
X89804615Y-98106872D01*
X89709317Y-98202170D01*
X89709314Y-98202174D01*
X89648120Y-98322274D01*
X89627037Y-98455393D01*
X89627037Y-98455398D01*
X85742365Y-98455398D01*
X85815690Y-98382073D01*
X85926760Y-98229199D01*
X86012547Y-98060832D01*
X86070940Y-97881118D01*
X86076379Y-97846778D01*
X86083392Y-97802502D01*
X94369196Y-97802502D01*
X94390279Y-97935621D01*
X94390280Y-97935624D01*
X94390281Y-97935626D01*
X94446354Y-98045675D01*
X94451473Y-98055721D01*
X94451476Y-98055725D01*
X94546774Y-98151023D01*
X94546778Y-98151026D01*
X94546780Y-98151028D01*
X94666874Y-98212219D01*
X94666876Y-98212219D01*
X94666878Y-98212220D01*
X94799998Y-98233304D01*
X94800000Y-98233304D01*
X94800002Y-98233304D01*
X94933121Y-98212220D01*
X94933121Y-98212219D01*
X94933126Y-98212219D01*
X95053220Y-98151028D01*
X95148528Y-98055720D01*
X95209719Y-97935626D01*
X95209972Y-97934029D01*
X95230804Y-97802502D01*
X95230804Y-97802497D01*
X95209720Y-97669378D01*
X95209719Y-97669376D01*
X95209719Y-97669374D01*
X95148528Y-97549280D01*
X95148526Y-97549278D01*
X95148523Y-97549274D01*
X95053225Y-97453976D01*
X95053221Y-97453973D01*
X95053220Y-97453972D01*
X94933126Y-97392781D01*
X94933124Y-97392780D01*
X94933121Y-97392779D01*
X94800002Y-97371696D01*
X94799998Y-97371696D01*
X94666878Y-97392779D01*
X94546778Y-97453973D01*
X94546774Y-97453976D01*
X94451476Y-97549274D01*
X94451473Y-97549278D01*
X94390279Y-97669378D01*
X94369196Y-97802497D01*
X94369196Y-97802502D01*
X86083392Y-97802502D01*
X86100500Y-97694486D01*
X86100500Y-97100002D01*
X87169196Y-97100002D01*
X87190279Y-97233121D01*
X87190280Y-97233124D01*
X87190281Y-97233126D01*
X87251472Y-97353220D01*
X87251473Y-97353221D01*
X87251476Y-97353225D01*
X87346774Y-97448523D01*
X87346778Y-97448526D01*
X87346780Y-97448528D01*
X87466874Y-97509719D01*
X87466876Y-97509719D01*
X87466878Y-97509720D01*
X87599998Y-97530804D01*
X87600000Y-97530804D01*
X87600002Y-97530804D01*
X87733121Y-97509720D01*
X87733121Y-97509719D01*
X87733126Y-97509719D01*
X87853220Y-97448528D01*
X87948528Y-97353220D01*
X88009719Y-97233126D01*
X88030804Y-97100002D01*
X112044196Y-97100002D01*
X112065279Y-97233121D01*
X112065280Y-97233124D01*
X112065281Y-97233126D01*
X112126472Y-97353220D01*
X112126473Y-97353221D01*
X112126476Y-97353225D01*
X112221774Y-97448523D01*
X112221778Y-97448526D01*
X112221780Y-97448528D01*
X112341874Y-97509719D01*
X112341876Y-97509719D01*
X112341878Y-97509720D01*
X112474998Y-97530804D01*
X112475000Y-97530804D01*
X112475002Y-97530804D01*
X112608121Y-97509720D01*
X112608121Y-97509719D01*
X112608126Y-97509719D01*
X112728220Y-97448528D01*
X112823528Y-97353220D01*
X112884719Y-97233126D01*
X112905804Y-97100000D01*
X112894844Y-97030804D01*
X112884720Y-96966878D01*
X112884719Y-96966876D01*
X112884719Y-96966874D01*
X112823528Y-96846780D01*
X112823526Y-96846778D01*
X112823523Y-96846774D01*
X112728225Y-96751476D01*
X112728221Y-96751473D01*
X112728220Y-96751472D01*
X112608126Y-96690281D01*
X112608124Y-96690280D01*
X112608121Y-96690279D01*
X112475002Y-96669196D01*
X112474998Y-96669196D01*
X112341878Y-96690279D01*
X112221778Y-96751473D01*
X112221774Y-96751476D01*
X112126476Y-96846774D01*
X112126473Y-96846778D01*
X112065279Y-96966878D01*
X112044196Y-97099997D01*
X112044196Y-97100002D01*
X88030804Y-97100002D01*
X88030804Y-97100000D01*
X88019844Y-97030804D01*
X88009720Y-96966878D01*
X88009719Y-96966876D01*
X88009719Y-96966874D01*
X87948528Y-96846780D01*
X87948526Y-96846778D01*
X87948523Y-96846774D01*
X87853225Y-96751476D01*
X87853221Y-96751473D01*
X87853220Y-96751472D01*
X87733126Y-96690281D01*
X87733124Y-96690280D01*
X87733121Y-96690279D01*
X87600002Y-96669196D01*
X87599998Y-96669196D01*
X87466878Y-96690279D01*
X87346778Y-96751473D01*
X87346774Y-96751476D01*
X87251476Y-96846774D01*
X87251473Y-96846778D01*
X87190279Y-96966878D01*
X87169196Y-97099997D01*
X87169196Y-97100002D01*
X86100500Y-97100002D01*
X86100500Y-96100002D01*
X88544196Y-96100002D01*
X88565279Y-96233121D01*
X88565280Y-96233124D01*
X88565281Y-96233126D01*
X88616234Y-96333126D01*
X88626473Y-96353221D01*
X88626476Y-96353225D01*
X88721774Y-96448523D01*
X88721778Y-96448526D01*
X88721780Y-96448528D01*
X88841874Y-96509719D01*
X88841876Y-96509719D01*
X88841878Y-96509720D01*
X88974998Y-96530804D01*
X88975000Y-96530804D01*
X88975002Y-96530804D01*
X89108121Y-96509720D01*
X89108121Y-96509719D01*
X89108126Y-96509719D01*
X89228220Y-96448528D01*
X89323528Y-96353220D01*
X89384719Y-96233126D01*
X89384720Y-96233121D01*
X89389966Y-96200002D01*
X101769196Y-96200002D01*
X101790279Y-96333121D01*
X101790280Y-96333124D01*
X101790281Y-96333126D01*
X101851472Y-96453220D01*
X101851473Y-96453221D01*
X101851476Y-96453225D01*
X101946774Y-96548523D01*
X101946778Y-96548526D01*
X101946780Y-96548528D01*
X102066874Y-96609719D01*
X102066876Y-96609719D01*
X102066878Y-96609720D01*
X102199998Y-96630804D01*
X102200000Y-96630804D01*
X102200002Y-96630804D01*
X102333121Y-96609720D01*
X102333121Y-96609719D01*
X102333126Y-96609719D01*
X102352197Y-96600002D01*
X107969196Y-96600002D01*
X107990279Y-96733121D01*
X107990280Y-96733124D01*
X107990281Y-96733126D01*
X107999631Y-96751476D01*
X108051473Y-96853221D01*
X108051476Y-96853225D01*
X108146774Y-96948523D01*
X108146778Y-96948526D01*
X108146780Y-96948528D01*
X108266874Y-97009719D01*
X108266876Y-97009719D01*
X108266878Y-97009720D01*
X108399998Y-97030804D01*
X108400000Y-97030804D01*
X108400002Y-97030804D01*
X108533121Y-97009720D01*
X108533121Y-97009719D01*
X108533126Y-97009719D01*
X108653220Y-96948528D01*
X108748528Y-96853220D01*
X108809719Y-96733126D01*
X108816505Y-96690281D01*
X108830804Y-96600002D01*
X108830804Y-96599997D01*
X108809720Y-96466878D01*
X108809719Y-96466876D01*
X108809719Y-96466874D01*
X108748528Y-96346780D01*
X108748526Y-96346778D01*
X108748523Y-96346774D01*
X108653225Y-96251476D01*
X108653221Y-96251473D01*
X108653220Y-96251472D01*
X108533126Y-96190281D01*
X108533124Y-96190280D01*
X108533121Y-96190279D01*
X108400002Y-96169196D01*
X108399998Y-96169196D01*
X108266878Y-96190279D01*
X108266874Y-96190280D01*
X108266874Y-96190281D01*
X108186811Y-96231075D01*
X108146778Y-96251473D01*
X108146774Y-96251476D01*
X108051476Y-96346774D01*
X108051473Y-96346778D01*
X107990279Y-96466878D01*
X107969196Y-96599997D01*
X107969196Y-96600002D01*
X102352197Y-96600002D01*
X102453220Y-96548528D01*
X102548528Y-96453220D01*
X102609719Y-96333126D01*
X102622652Y-96251472D01*
X102630804Y-96200002D01*
X102630804Y-96199997D01*
X102609720Y-96066878D01*
X102609719Y-96066876D01*
X102609719Y-96066874D01*
X102548528Y-95946780D01*
X102548526Y-95946778D01*
X102548523Y-95946774D01*
X102453225Y-95851476D01*
X102453221Y-95851473D01*
X102453220Y-95851472D01*
X102333126Y-95790281D01*
X102333124Y-95790280D01*
X102333121Y-95790279D01*
X102200002Y-95769196D01*
X102199998Y-95769196D01*
X102066878Y-95790279D01*
X101946778Y-95851473D01*
X101946774Y-95851476D01*
X101851476Y-95946774D01*
X101851473Y-95946778D01*
X101790279Y-96066878D01*
X101769196Y-96199997D01*
X101769196Y-96200002D01*
X89389966Y-96200002D01*
X89405804Y-96100002D01*
X89405804Y-96099997D01*
X89384720Y-95966878D01*
X89384719Y-95966876D01*
X89384719Y-95966874D01*
X89323528Y-95846780D01*
X89323526Y-95846778D01*
X89323523Y-95846774D01*
X89228225Y-95751476D01*
X89228221Y-95751473D01*
X89228220Y-95751472D01*
X89108126Y-95690281D01*
X89108124Y-95690280D01*
X89108121Y-95690279D01*
X88975002Y-95669196D01*
X88974998Y-95669196D01*
X88841878Y-95690279D01*
X88721778Y-95751473D01*
X88721774Y-95751476D01*
X88626476Y-95846774D01*
X88626473Y-95846778D01*
X88626472Y-95846780D01*
X88573358Y-95951023D01*
X88565279Y-95966878D01*
X88544196Y-96099997D01*
X88544196Y-96100002D01*
X86100500Y-96100002D01*
X86100500Y-95602502D01*
X93569196Y-95602502D01*
X93590279Y-95735621D01*
X93590280Y-95735624D01*
X93590281Y-95735626D01*
X93649310Y-95851476D01*
X93651473Y-95855721D01*
X93651476Y-95855725D01*
X93746774Y-95951023D01*
X93746778Y-95951026D01*
X93746780Y-95951028D01*
X93866874Y-96012219D01*
X93866876Y-96012219D01*
X93866878Y-96012220D01*
X93999998Y-96033304D01*
X94000000Y-96033304D01*
X94000002Y-96033304D01*
X94133121Y-96012220D01*
X94133121Y-96012219D01*
X94133126Y-96012219D01*
X94253220Y-95951028D01*
X94348528Y-95855720D01*
X94409719Y-95735626D01*
X94416901Y-95690279D01*
X94430804Y-95602502D01*
X94430804Y-95602497D01*
X94409720Y-95469378D01*
X94409719Y-95469376D01*
X94409719Y-95469374D01*
X94348528Y-95349280D01*
X94348526Y-95349278D01*
X94348523Y-95349274D01*
X94253225Y-95253976D01*
X94253221Y-95253973D01*
X94253220Y-95253972D01*
X94133126Y-95192781D01*
X94133124Y-95192780D01*
X94133121Y-95192779D01*
X94000002Y-95171696D01*
X93999998Y-95171696D01*
X93866878Y-95192779D01*
X93746778Y-95253973D01*
X93746774Y-95253976D01*
X93651476Y-95349274D01*
X93651473Y-95349278D01*
X93590279Y-95469378D01*
X93569196Y-95602497D01*
X93569196Y-95602502D01*
X86100500Y-95602502D01*
X86100500Y-95100002D01*
X112044196Y-95100002D01*
X112065279Y-95233121D01*
X112065280Y-95233124D01*
X112065281Y-95233126D01*
X112126472Y-95353220D01*
X112126473Y-95353221D01*
X112126476Y-95353225D01*
X112221774Y-95448523D01*
X112221778Y-95448526D01*
X112221780Y-95448528D01*
X112341874Y-95509719D01*
X112341876Y-95509719D01*
X112341878Y-95509720D01*
X112474998Y-95530804D01*
X112475000Y-95530804D01*
X112475002Y-95530804D01*
X112608121Y-95509720D01*
X112608121Y-95509719D01*
X112608126Y-95509719D01*
X112728220Y-95448528D01*
X112823528Y-95353220D01*
X112884719Y-95233126D01*
X112891109Y-95192781D01*
X112905804Y-95100002D01*
X113969196Y-95100002D01*
X113990279Y-95233121D01*
X113990280Y-95233124D01*
X113990281Y-95233126D01*
X114051472Y-95353220D01*
X114051473Y-95353221D01*
X114051476Y-95353225D01*
X114146774Y-95448523D01*
X114146778Y-95448526D01*
X114146780Y-95448528D01*
X114266874Y-95509719D01*
X114266876Y-95509719D01*
X114266878Y-95509720D01*
X114399998Y-95530804D01*
X114400000Y-95530804D01*
X114400002Y-95530804D01*
X114533121Y-95509720D01*
X114533121Y-95509719D01*
X114533126Y-95509719D01*
X114653220Y-95448528D01*
X114748528Y-95353220D01*
X114809719Y-95233126D01*
X114816109Y-95192781D01*
X114830804Y-95100002D01*
X114830804Y-95099997D01*
X114809720Y-94966878D01*
X114809719Y-94966876D01*
X114809719Y-94966874D01*
X114748528Y-94846780D01*
X114748526Y-94846778D01*
X114748523Y-94846774D01*
X114653225Y-94751476D01*
X114653221Y-94751473D01*
X114653220Y-94751472D01*
X114533126Y-94690281D01*
X114533124Y-94690280D01*
X114533121Y-94690279D01*
X114400002Y-94669196D01*
X114399998Y-94669196D01*
X114266878Y-94690279D01*
X114146778Y-94751473D01*
X114146774Y-94751476D01*
X114051476Y-94846774D01*
X114051473Y-94846778D01*
X113990279Y-94966878D01*
X113969196Y-95099997D01*
X113969196Y-95100002D01*
X112905804Y-95100002D01*
X112905804Y-95099997D01*
X112884720Y-94966878D01*
X112884719Y-94966876D01*
X112884719Y-94966874D01*
X112823528Y-94846780D01*
X112823526Y-94846778D01*
X112823523Y-94846774D01*
X112728225Y-94751476D01*
X112728221Y-94751473D01*
X112728220Y-94751472D01*
X112608126Y-94690281D01*
X112608124Y-94690280D01*
X112608121Y-94690279D01*
X112475002Y-94669196D01*
X112474998Y-94669196D01*
X112341878Y-94690279D01*
X112221778Y-94751473D01*
X112221774Y-94751476D01*
X112126476Y-94846774D01*
X112126473Y-94846778D01*
X112065279Y-94966878D01*
X112044196Y-95099997D01*
X112044196Y-95100002D01*
X86100500Y-95100002D01*
X86100500Y-94167502D01*
X93831696Y-94167502D01*
X93852779Y-94300621D01*
X93852780Y-94300624D01*
X93852781Y-94300626D01*
X93908367Y-94409719D01*
X93913973Y-94420721D01*
X93913976Y-94420725D01*
X94009274Y-94516023D01*
X94009278Y-94516026D01*
X94009280Y-94516028D01*
X94129374Y-94577219D01*
X94129376Y-94577219D01*
X94129378Y-94577220D01*
X94262498Y-94598304D01*
X94262500Y-94598304D01*
X94262502Y-94598304D01*
X94395621Y-94577220D01*
X94395621Y-94577219D01*
X94395626Y-94577219D01*
X94515720Y-94516028D01*
X94611028Y-94420720D01*
X94672219Y-94300626D01*
X94679727Y-94253224D01*
X94693304Y-94167502D01*
X94693304Y-94167497D01*
X94672220Y-94034378D01*
X94672219Y-94034376D01*
X94672219Y-94034374D01*
X94654705Y-94000001D01*
X95294196Y-94000001D01*
X95315279Y-94133120D01*
X95315280Y-94133123D01*
X95315281Y-94133125D01*
X95376472Y-94253219D01*
X95376473Y-94253220D01*
X95376476Y-94253224D01*
X95471774Y-94348522D01*
X95471778Y-94348525D01*
X95471780Y-94348527D01*
X95591874Y-94409718D01*
X95591876Y-94409718D01*
X95591878Y-94409719D01*
X95724998Y-94430803D01*
X95725000Y-94430803D01*
X95725002Y-94430803D01*
X95858121Y-94409719D01*
X95858121Y-94409718D01*
X95858126Y-94409718D01*
X95978220Y-94348527D01*
X96073528Y-94253219D01*
X96134719Y-94133125D01*
X96150925Y-94030804D01*
X96155804Y-94000001D01*
X96155804Y-93999996D01*
X96134720Y-93866877D01*
X96134719Y-93866875D01*
X96134719Y-93866873D01*
X96073528Y-93746779D01*
X96073526Y-93746777D01*
X96073523Y-93746773D01*
X95978225Y-93651475D01*
X95978221Y-93651472D01*
X95978220Y-93651471D01*
X95858126Y-93590280D01*
X95858124Y-93590279D01*
X95858121Y-93590278D01*
X95725002Y-93569195D01*
X95724998Y-93569195D01*
X95591878Y-93590278D01*
X95471778Y-93651472D01*
X95471774Y-93651475D01*
X95376476Y-93746773D01*
X95376473Y-93746777D01*
X95315279Y-93866877D01*
X95294196Y-93999996D01*
X95294196Y-94000001D01*
X94654705Y-94000001D01*
X94611028Y-93914280D01*
X94611026Y-93914278D01*
X94611023Y-93914274D01*
X94515725Y-93818976D01*
X94515721Y-93818973D01*
X94515720Y-93818972D01*
X94395626Y-93757781D01*
X94395624Y-93757780D01*
X94395621Y-93757779D01*
X94262502Y-93736696D01*
X94262498Y-93736696D01*
X94129378Y-93757779D01*
X94009278Y-93818973D01*
X94009274Y-93818976D01*
X93913976Y-93914274D01*
X93913973Y-93914278D01*
X93913972Y-93914280D01*
X93870298Y-93999996D01*
X93852779Y-94034378D01*
X93831696Y-94167497D01*
X93831696Y-94167502D01*
X86100500Y-94167502D01*
X86100500Y-93600002D01*
X87969196Y-93600002D01*
X87990279Y-93733121D01*
X87990280Y-93733124D01*
X87990281Y-93733126D01*
X88051472Y-93853220D01*
X88051473Y-93853221D01*
X88051476Y-93853225D01*
X88146774Y-93948523D01*
X88146778Y-93948526D01*
X88146780Y-93948528D01*
X88266874Y-94009719D01*
X88266876Y-94009719D01*
X88266878Y-94009720D01*
X88399998Y-94030804D01*
X88400000Y-94030804D01*
X88400002Y-94030804D01*
X88533121Y-94009720D01*
X88533121Y-94009719D01*
X88533126Y-94009719D01*
X88653220Y-93948528D01*
X88653225Y-93948523D01*
X88712319Y-93889430D01*
X88773642Y-93855945D01*
X88843334Y-93860929D01*
X88887681Y-93889430D01*
X88946774Y-93948523D01*
X88946778Y-93948526D01*
X88946780Y-93948528D01*
X89066874Y-94009719D01*
X89066876Y-94009719D01*
X89066878Y-94009720D01*
X89199998Y-94030804D01*
X89200000Y-94030804D01*
X89200002Y-94030804D01*
X89333121Y-94009720D01*
X89333121Y-94009719D01*
X89333126Y-94009719D01*
X89453220Y-93948528D01*
X89548528Y-93853220D01*
X89609719Y-93733126D01*
X89630804Y-93600000D01*
X89629264Y-93590278D01*
X89609720Y-93466878D01*
X89609719Y-93466876D01*
X89609719Y-93466874D01*
X89548528Y-93346780D01*
X89548526Y-93346778D01*
X89548523Y-93346774D01*
X89453225Y-93251476D01*
X89453221Y-93251473D01*
X89453220Y-93251472D01*
X89333126Y-93190281D01*
X89333124Y-93190280D01*
X89333121Y-93190279D01*
X89200002Y-93169196D01*
X89199998Y-93169196D01*
X89066878Y-93190279D01*
X88946778Y-93251473D01*
X88946774Y-93251476D01*
X88887681Y-93310570D01*
X88826358Y-93344055D01*
X88756666Y-93339071D01*
X88712319Y-93310570D01*
X88653225Y-93251476D01*
X88653221Y-93251473D01*
X88653220Y-93251472D01*
X88533126Y-93190281D01*
X88533124Y-93190280D01*
X88533121Y-93190279D01*
X88400002Y-93169196D01*
X88399998Y-93169196D01*
X88266878Y-93190279D01*
X88146778Y-93251473D01*
X88146774Y-93251476D01*
X88051476Y-93346774D01*
X88051473Y-93346778D01*
X87990279Y-93466878D01*
X87969196Y-93599997D01*
X87969196Y-93600002D01*
X86100500Y-93600002D01*
X86100500Y-92600002D01*
X102969196Y-92600002D01*
X102990279Y-92733121D01*
X102990280Y-92733124D01*
X102990281Y-92733126D01*
X103000000Y-92752200D01*
X103051473Y-92853221D01*
X103051476Y-92853225D01*
X103146774Y-92948523D01*
X103146778Y-92948526D01*
X103146780Y-92948528D01*
X103266874Y-93009719D01*
X103266876Y-93009719D01*
X103266878Y-93009720D01*
X103399998Y-93030804D01*
X103400000Y-93030804D01*
X103400002Y-93030804D01*
X103533121Y-93009720D01*
X103533121Y-93009719D01*
X103533126Y-93009719D01*
X103653220Y-92948528D01*
X103653225Y-92948523D01*
X103712319Y-92889430D01*
X103773642Y-92855945D01*
X103843334Y-92860929D01*
X103887681Y-92889430D01*
X103946774Y-92948523D01*
X103946778Y-92948526D01*
X103946780Y-92948528D01*
X104066874Y-93009719D01*
X104066876Y-93009719D01*
X104066878Y-93009720D01*
X104199998Y-93030804D01*
X104200000Y-93030804D01*
X104200002Y-93030804D01*
X104333121Y-93009720D01*
X104333121Y-93009719D01*
X104333126Y-93009719D01*
X104453220Y-92948528D01*
X104453225Y-92948523D01*
X104512319Y-92889430D01*
X104573642Y-92855945D01*
X104643334Y-92860929D01*
X104687681Y-92889430D01*
X104746774Y-92948523D01*
X104746778Y-92948526D01*
X104746780Y-92948528D01*
X104866874Y-93009719D01*
X104866876Y-93009719D01*
X104866878Y-93009720D01*
X104999998Y-93030804D01*
X105000000Y-93030804D01*
X105000002Y-93030804D01*
X105133121Y-93009720D01*
X105133121Y-93009719D01*
X105133126Y-93009719D01*
X105253220Y-92948528D01*
X105253225Y-92948523D01*
X105312319Y-92889430D01*
X105373642Y-92855945D01*
X105443334Y-92860929D01*
X105487681Y-92889430D01*
X105510570Y-92912319D01*
X105544055Y-92973642D01*
X105539071Y-93043334D01*
X105510570Y-93087681D01*
X105451476Y-93146774D01*
X105451473Y-93146778D01*
X105390279Y-93266878D01*
X105369196Y-93399997D01*
X105369196Y-93400002D01*
X105390279Y-93533121D01*
X105390280Y-93533124D01*
X105390281Y-93533126D01*
X105450583Y-93651475D01*
X105451473Y-93653221D01*
X105451476Y-93653225D01*
X105546774Y-93748523D01*
X105546778Y-93748526D01*
X105546780Y-93748528D01*
X105666874Y-93809719D01*
X105666876Y-93809719D01*
X105666878Y-93809720D01*
X105799998Y-93830804D01*
X105800000Y-93830804D01*
X105800002Y-93830804D01*
X105933121Y-93809720D01*
X105933121Y-93809719D01*
X105933126Y-93809719D01*
X106043708Y-93753374D01*
X106112374Y-93740479D01*
X106156289Y-93753373D01*
X106266874Y-93809719D01*
X106266876Y-93809719D01*
X106266878Y-93809720D01*
X106399998Y-93830804D01*
X106400000Y-93830804D01*
X106400002Y-93830804D01*
X106533121Y-93809720D01*
X106533121Y-93809719D01*
X106533126Y-93809719D01*
X106653220Y-93748528D01*
X106748528Y-93653220D01*
X106809719Y-93533126D01*
X106820212Y-93466878D01*
X106830804Y-93400002D01*
X106830804Y-93399997D01*
X106809720Y-93266878D01*
X106809719Y-93266876D01*
X106809719Y-93266874D01*
X106748528Y-93146780D01*
X106748526Y-93146778D01*
X106748523Y-93146774D01*
X106689430Y-93087681D01*
X106655945Y-93026358D01*
X106660929Y-92956666D01*
X106689430Y-92912319D01*
X106748523Y-92853225D01*
X106748528Y-92853220D01*
X106809719Y-92733126D01*
X106830804Y-92600000D01*
X106809719Y-92466874D01*
X106748528Y-92346780D01*
X106748526Y-92346778D01*
X106748523Y-92346774D01*
X106653225Y-92251476D01*
X106653221Y-92251473D01*
X106653220Y-92251472D01*
X106533126Y-92190281D01*
X106533124Y-92190280D01*
X106533121Y-92190279D01*
X106400002Y-92169196D01*
X106399998Y-92169196D01*
X106266876Y-92190279D01*
X106156294Y-92246624D01*
X106087625Y-92259520D01*
X106043706Y-92246624D01*
X105933123Y-92190279D01*
X105800002Y-92169196D01*
X105799998Y-92169196D01*
X105666878Y-92190279D01*
X105546778Y-92251473D01*
X105546774Y-92251476D01*
X105487681Y-92310570D01*
X105426358Y-92344055D01*
X105356666Y-92339071D01*
X105312319Y-92310570D01*
X105253225Y-92251476D01*
X105253221Y-92251473D01*
X105253220Y-92251472D01*
X105133126Y-92190281D01*
X105133124Y-92190280D01*
X105133121Y-92190279D01*
X105000002Y-92169196D01*
X104999998Y-92169196D01*
X104866878Y-92190279D01*
X104746778Y-92251473D01*
X104746774Y-92251476D01*
X104687681Y-92310570D01*
X104626358Y-92344055D01*
X104556666Y-92339071D01*
X104512319Y-92310570D01*
X104453225Y-92251476D01*
X104453221Y-92251473D01*
X104453220Y-92251472D01*
X104333126Y-92190281D01*
X104333124Y-92190280D01*
X104333121Y-92190279D01*
X104200002Y-92169196D01*
X104199998Y-92169196D01*
X104066878Y-92190279D01*
X103946778Y-92251473D01*
X103946774Y-92251476D01*
X103887681Y-92310570D01*
X103826358Y-92344055D01*
X103756666Y-92339071D01*
X103712319Y-92310570D01*
X103653225Y-92251476D01*
X103653221Y-92251473D01*
X103653220Y-92251472D01*
X103533126Y-92190281D01*
X103533124Y-92190280D01*
X103533121Y-92190279D01*
X103400002Y-92169196D01*
X103399998Y-92169196D01*
X103266878Y-92190279D01*
X103146778Y-92251473D01*
X103146774Y-92251476D01*
X103051476Y-92346774D01*
X103051473Y-92346778D01*
X102990279Y-92466878D01*
X102969196Y-92599997D01*
X102969196Y-92600002D01*
X86100500Y-92600002D01*
X86100500Y-89806092D01*
X86101097Y-89793939D01*
X86105279Y-89751473D01*
X86114665Y-89656173D01*
X86119403Y-89632349D01*
X86157816Y-89505719D01*
X86167113Y-89483278D01*
X86229485Y-89366587D01*
X86242982Y-89346387D01*
X86326924Y-89244103D01*
X86344103Y-89226924D01*
X86446387Y-89142982D01*
X86466587Y-89129485D01*
X86583278Y-89067113D01*
X86605719Y-89057816D01*
X86732349Y-89019403D01*
X86756173Y-89014665D01*
X86885170Y-89001960D01*
X86893939Y-89001097D01*
X86906092Y-89000500D01*
X86939882Y-89000500D01*
X91923656Y-89000500D01*
X91990695Y-89020185D01*
G37*
%TD.AperFunction*%
%TD*%
M02*
