%TF.GenerationSoftware,KiCad,Pcbnew,8.0.0*%
%TF.CreationDate,2024-09-22T13:18:54-04:00*%
%TF.ProjectId,MiniCarrierBoard,4d696e69-4361-4727-9269-6572426f6172,rev?*%
%TF.SameCoordinates,Original*%
%TF.FileFunction,Profile,NP*%
%FSLAX46Y46*%
G04 Gerber Fmt 4.6, Leading zero omitted, Abs format (unit mm)*
G04 Created by KiCad (PCBNEW 8.0.0) date 2024-09-22 13:18:54*
%MOMM*%
%LPD*%
G01*
G04 APERTURE LIST*
%TA.AperFunction,Profile*%
%ADD10C,0.050000*%
%TD*%
G04 APERTURE END LIST*
D10*
X117600000Y-88800000D02*
G75*
G02*
X118600000Y-89800000I0J-1000000D01*
G01*
X86900000Y-88800000D02*
X117600000Y-88800000D01*
X85900000Y-97600000D02*
X85900000Y-89800000D01*
X84900000Y-102600000D02*
G75*
G02*
X85900000Y-103600000I0J-1000000D01*
G01*
X83900000Y-102600000D02*
G75*
G02*
X83900000Y-98600000I0J2000000D01*
G01*
X86900000Y-112400000D02*
G75*
G02*
X85900000Y-111400000I0J1000000D01*
G01*
X118600000Y-97600000D02*
X118600000Y-89800000D01*
X118600000Y-103600000D02*
X118600000Y-111400000D01*
X85900000Y-97600000D02*
G75*
G02*
X84900000Y-98600000I-1000000J0D01*
G01*
X118600000Y-111400000D02*
G75*
G02*
X117600000Y-112400000I-1000000J0D01*
G01*
X120600000Y-98600000D02*
G75*
G02*
X120600000Y-102600000I0J-2000000D01*
G01*
X120600000Y-102600000D02*
X119600000Y-102600000D01*
X118600000Y-103600000D02*
G75*
G02*
X119600000Y-102600000I1000000J0D01*
G01*
X117600000Y-112400000D02*
X86900000Y-112400000D01*
X83900000Y-102600000D02*
X84900000Y-102600000D01*
X85900000Y-89800000D02*
G75*
G02*
X86900000Y-88800000I1000000J0D01*
G01*
X120600000Y-98600000D02*
X119600000Y-98600000D01*
X119600000Y-98600000D02*
G75*
G02*
X118600000Y-97600000I0J1000000D01*
G01*
X85900000Y-103600000D02*
X85900000Y-111400000D01*
X83900000Y-98600000D02*
X84900000Y-98600000D01*
M02*
