%TF.GenerationSoftware,KiCad,Pcbnew,8.0.0*%
%TF.CreationDate,2024-09-22T12:37:06-04:00*%
%TF.ProjectId,MainBoard,4d61696e-426f-4617-9264-2e6b69636164,rev?*%
%TF.SameCoordinates,Original*%
%TF.FileFunction,Copper,L6,Bot*%
%TF.FilePolarity,Positive*%
%FSLAX46Y46*%
G04 Gerber Fmt 4.6, Leading zero omitted, Abs format (unit mm)*
G04 Created by KiCad (PCBNEW 8.0.0) date 2024-09-22 12:37:06*
%MOMM*%
%LPD*%
G01*
G04 APERTURE LIST*
G04 Aperture macros list*
%AMRoundRect*
0 Rectangle with rounded corners*
0 $1 Rounding radius*
0 $2 $3 $4 $5 $6 $7 $8 $9 X,Y pos of 4 corners*
0 Add a 4 corners polygon primitive as box body*
4,1,4,$2,$3,$4,$5,$6,$7,$8,$9,$2,$3,0*
0 Add four circle primitives for the rounded corners*
1,1,$1+$1,$2,$3*
1,1,$1+$1,$4,$5*
1,1,$1+$1,$6,$7*
1,1,$1+$1,$8,$9*
0 Add four rect primitives between the rounded corners*
20,1,$1+$1,$2,$3,$4,$5,0*
20,1,$1+$1,$4,$5,$6,$7,0*
20,1,$1+$1,$6,$7,$8,$9,0*
20,1,$1+$1,$8,$9,$2,$3,0*%
G04 Aperture macros list end*
%TA.AperFunction,Conductor*%
%ADD10C,0.350000*%
%TD*%
%TA.AperFunction,ComponentPad*%
%ADD11C,1.000000*%
%TD*%
%TA.AperFunction,SMDPad,CuDef*%
%ADD12RoundRect,0.160000X-0.197500X-0.160000X0.197500X-0.160000X0.197500X0.160000X-0.197500X0.160000X0*%
%TD*%
%TA.AperFunction,SMDPad,CuDef*%
%ADD13RoundRect,0.160000X0.160000X-0.197500X0.160000X0.197500X-0.160000X0.197500X-0.160000X-0.197500X0*%
%TD*%
%TA.AperFunction,SMDPad,CuDef*%
%ADD14R,2.000000X0.500000*%
%TD*%
%TA.AperFunction,SMDPad,CuDef*%
%ADD15RoundRect,0.155000X0.212500X0.155000X-0.212500X0.155000X-0.212500X-0.155000X0.212500X-0.155000X0*%
%TD*%
%TA.AperFunction,SMDPad,CuDef*%
%ADD16RoundRect,0.160000X-0.160000X0.197500X-0.160000X-0.197500X0.160000X-0.197500X0.160000X0.197500X0*%
%TD*%
%TA.AperFunction,SMDPad,CuDef*%
%ADD17RoundRect,0.160000X0.197500X0.160000X-0.197500X0.160000X-0.197500X-0.160000X0.197500X-0.160000X0*%
%TD*%
%TA.AperFunction,SMDPad,CuDef*%
%ADD18RoundRect,0.155000X-0.212500X-0.155000X0.212500X-0.155000X0.212500X0.155000X-0.212500X0.155000X0*%
%TD*%
%TA.AperFunction,SMDPad,CuDef*%
%ADD19C,1.000000*%
%TD*%
%TA.AperFunction,SMDPad,CuDef*%
%ADD20RoundRect,0.062500X-0.237500X-0.062500X0.237500X-0.062500X0.237500X0.062500X-0.237500X0.062500X0*%
%TD*%
%TA.AperFunction,SMDPad,CuDef*%
%ADD21RoundRect,0.062500X-0.062500X-0.237500X0.062500X-0.237500X0.062500X0.237500X-0.062500X0.237500X0*%
%TD*%
%TA.AperFunction,SMDPad,CuDef*%
%ADD22RoundRect,0.068750X-0.068750X-0.231250X0.068750X-0.231250X0.068750X0.231250X-0.068750X0.231250X0*%
%TD*%
%TA.AperFunction,ViaPad*%
%ADD23C,0.450000*%
%TD*%
%TA.AperFunction,Conductor*%
%ADD24C,0.300000*%
%TD*%
%TA.AperFunction,Conductor*%
%ADD25C,0.156500*%
%TD*%
G04 APERTURE END LIST*
%TO.N,unconnected-(U3-INT1{slash}INT-Pad4)*%
D10*
X113975000Y-74600000D02*
G75*
G02*
X113625000Y-74600000I-175000J0D01*
G01*
X113625000Y-74600000D02*
G75*
G02*
X113975000Y-74600000I175000J0D01*
G01*
%TD*%
D11*
%TO.P,TP1,1,1*%
%TO.N,GND*%
X86000000Y-91600000D03*
%TD*%
D12*
%TO.P,R2,1*%
%TO.N,Net-(D1-K)*%
X86602500Y-74000000D03*
%TO.P,R2,2*%
%TO.N,GND*%
X87797500Y-74000000D03*
%TD*%
D13*
%TO.P,R7,1*%
%TO.N,+3V3*%
X98800000Y-86997500D03*
%TO.P,R7,2*%
%TO.N,/MCU/SDIO_CMD*%
X98800000Y-85802500D03*
%TD*%
D12*
%TO.P,R6,1*%
%TO.N,+3V3*%
X99802500Y-87000000D03*
%TO.P,R6,2*%
%TO.N,/MCU/SDIO_D3*%
X100997500Y-87000000D03*
%TD*%
D14*
%TO.P,J2,1,Pin_1*%
%TO.N,/Connectors/PB7*%
X113200000Y-77400000D03*
%TO.P,J2,2,Pin_2*%
%TO.N,/Connectors/PB8*%
X109900000Y-77400000D03*
%TO.P,J2,3,Pin_3*%
%TO.N,GND*%
X113200000Y-78400000D03*
%TO.P,J2,4,Pin_4*%
%TO.N,/Connectors/BOOT0*%
X109900000Y-78400000D03*
%TO.P,J2,5,Pin_5*%
%TO.N,GND*%
X113200000Y-79400000D03*
%TO.P,J2,6,Pin_6*%
%TO.N,/Connectors/PB9*%
X109900000Y-79400000D03*
%TO.P,J2,7,Pin_7*%
%TO.N,/Connectors/PB14*%
X113200000Y-80400000D03*
%TO.P,J2,8,Pin_8*%
%TO.N,GND*%
X109900000Y-80400000D03*
%TO.P,J2,9,Pin_9*%
X113200000Y-81400000D03*
%TO.P,J2,10,Pin_10*%
%TO.N,/Connectors/PB6*%
X109900000Y-81400000D03*
%TO.P,J2,11,Pin_11*%
%TO.N,/Connectors/PB2{slash}BOOT1*%
X113200000Y-82400000D03*
%TO.P,J2,12,Pin_12*%
%TO.N,/Connectors/SWO*%
X109900000Y-82400000D03*
%TO.P,J2,13,Pin_13*%
%TO.N,/Connectors/SWCLK*%
X113200000Y-83400000D03*
%TO.P,J2,14,Pin_14*%
%TO.N,/Connectors/PA15*%
X109900000Y-83400000D03*
%TO.P,J2,15,Pin_15*%
%TO.N,/Connectors/PA10*%
X113200000Y-84400000D03*
%TO.P,J2,16,Pin_16*%
%TO.N,/Connectors/SWDIO*%
X109900000Y-84400000D03*
%TO.P,J2,17,Pin_17*%
%TO.N,GND*%
X113200000Y-85400000D03*
%TO.P,J2,18,Pin_18*%
%TO.N,/Connectors/PC7*%
X109900000Y-85400000D03*
%TO.P,J2,19,Pin_19*%
%TO.N,/Connectors/PA9*%
X113200000Y-86400000D03*
%TO.P,J2,20,Pin_20*%
%TO.N,GND*%
X109900000Y-86400000D03*
%TO.P,J2,21,Pin_21*%
%TO.N,/Connectors/PA8*%
X113200000Y-87400000D03*
%TO.P,J2,22,Pin_22*%
%TO.N,/Connectors/PC6*%
X109900000Y-87400000D03*
%TO.P,J2,23,Pin_23*%
%TO.N,/Connectors/PB12*%
X113200000Y-88400000D03*
%TO.P,J2,24,Pin_24*%
%TO.N,/Connectors/PB15*%
X109900000Y-88400000D03*
%TD*%
D15*
%TO.P,C7,1*%
%TO.N,+3V3*%
X107167500Y-91500000D03*
%TO.P,C7,2*%
%TO.N,GND*%
X106032500Y-91500000D03*
%TD*%
D16*
%TO.P,R10,1*%
%TO.N,/Connectors/PB2{slash}BOOT1*%
X92400000Y-85602500D03*
%TO.P,R10,2*%
%TO.N,GND*%
X92400000Y-86797500D03*
%TD*%
D13*
%TO.P,R8,1*%
%TO.N,+3V3*%
X98600000Y-89997500D03*
%TO.P,R8,2*%
%TO.N,/MCU/SDIO_D0*%
X98600000Y-88802500D03*
%TD*%
D17*
%TO.P,R5,1*%
%TO.N,+3V3*%
X112195000Y-91600000D03*
%TO.P,R5,2*%
%TO.N,/MCU/SDIO_D2*%
X111000000Y-91600000D03*
%TD*%
D18*
%TO.P,C4,1*%
%TO.N,+3V3*%
X105072500Y-78093125D03*
%TO.P,C4,2*%
%TO.N,GND*%
X106207500Y-78093125D03*
%TD*%
D13*
%TO.P,R13,1*%
%TO.N,+3V3*%
X101800000Y-82397500D03*
%TO.P,R13,2*%
%TO.N,/IMU_BARO/MAG_CS*%
X101800000Y-81202500D03*
%TD*%
D12*
%TO.P,R11,1*%
%TO.N,+3V3*%
X106002500Y-75200000D03*
%TO.P,R11,2*%
%TO.N,/IMU_BARO/IMU_CS*%
X107197500Y-75200000D03*
%TD*%
D18*
%TO.P,C2,1*%
%TO.N,+3V3*%
X104072501Y-83293125D03*
%TO.P,C2,2*%
%TO.N,GND*%
X105207501Y-83293125D03*
%TD*%
D14*
%TO.P,J3,1,Pin_1*%
%TO.N,GND*%
X89700000Y-76400000D03*
%TO.P,J3,2,Pin_2*%
%TO.N,+5V*%
X86400000Y-76400000D03*
%TO.P,J3,3,Pin_3*%
%TO.N,/Connectors/PA2*%
X89700000Y-77400000D03*
%TO.P,J3,4,Pin_4*%
%TO.N,GND*%
X86400000Y-77400000D03*
%TO.P,J3,5,Pin_5*%
%TO.N,/Connectors/PC0*%
X89700000Y-78400000D03*
%TO.P,J3,6,Pin_6*%
%TO.N,/Connectors/NRST*%
X86400000Y-78400000D03*
%TO.P,J3,7,Pin_7*%
%TO.N,/Connectors/PC2*%
X89700000Y-79400000D03*
%TO.P,J3,8,Pin_8*%
%TO.N,/Connectors/PC1*%
X86400000Y-79400000D03*
%TO.P,J3,9,Pin_9*%
%TO.N,/Connectors/PA0*%
X89700000Y-80400000D03*
%TO.P,J3,10,Pin_10*%
%TO.N,/Connectors/PA3*%
X86400000Y-80400000D03*
%TO.P,J3,11,Pin_11*%
%TO.N,/Connectors/PA1*%
X89700000Y-81400000D03*
%TO.P,J3,12,Pin_12*%
%TO.N,GND*%
X86400000Y-81400000D03*
%TO.P,J3,13,Pin_13*%
%TO.N,/Connectors/PA4*%
X89700000Y-82400000D03*
%TO.P,J3,14,Pin_14*%
%TO.N,+3V3*%
X86400000Y-82400000D03*
%TO.P,J3,15,Pin_15*%
%TO.N,GND*%
X89700000Y-83400000D03*
%TO.P,J3,16,Pin_16*%
%TO.N,/Connectors/PA6*%
X86400000Y-83400000D03*
%TO.P,J3,17,Pin_17*%
%TO.N,/Connectors/PC4*%
X89700000Y-84400000D03*
%TO.P,J3,18,Pin_18*%
%TO.N,/Connectors/PA7*%
X86400000Y-84400000D03*
%TO.P,J3,19,Pin_19*%
%TO.N,/Connectors/PB0*%
X89700000Y-85400000D03*
%TO.P,J3,20,Pin_20*%
%TO.N,/Connectors/PC3*%
X86400000Y-85400000D03*
%TO.P,J3,21,Pin_21*%
%TO.N,GND*%
X89700000Y-86400000D03*
%TO.P,J3,22,Pin_22*%
%TO.N,/Connectors/PB1*%
X86400000Y-86400000D03*
%TO.P,J3,23,Pin_23*%
%TO.N,/Connectors/PB10*%
X89700000Y-87400000D03*
%TO.P,J3,24,Pin_24*%
%TO.N,GND*%
X86400000Y-87400000D03*
%TO.P,J3,25,Pin_25*%
%TO.N,/Connectors/PB11*%
X89700000Y-88400000D03*
%TO.P,J3,26,Pin_26*%
%TO.N,/Connectors/USB_D-*%
X86400000Y-88400000D03*
%TO.P,J3,27,Pin_27*%
%TO.N,/Connectors/PB13*%
X89700000Y-89400000D03*
%TO.P,J3,28,Pin_28*%
%TO.N,/Connectors/USB_D+*%
X86400000Y-89400000D03*
%TD*%
D19*
%TO.P,TP3,1,1*%
%TO.N,+3V3*%
X90800000Y-74200000D03*
%TD*%
D20*
%TO.P,U5,1,INT*%
%TO.N,unconnected-(U5-INT-Pad1)*%
X102850000Y-81403125D03*
%TO.P,U5,2,MS/CS*%
%TO.N,/IMU_BARO/MAG_CS*%
X102850000Y-80903125D03*
%TO.P,U5,3,SCL/SCLK*%
%TO.N,/IMU_BARO/SCK*%
X102850000Y-80403125D03*
%TO.P,U5,4,NC*%
%TO.N,GND*%
X102850000Y-79903125D03*
D21*
%TO.P,U5,5,SDA/MOSI*%
%TO.N,/IMU_BARO/MOSI*%
X103650000Y-79103125D03*
D22*
%TO.P,U5,6,MISO*%
%TO.N,/IMU_BARO/MISO*%
X104162500Y-79103125D03*
D21*
%TO.P,U5,7,INT/TRIG*%
%TO.N,unconnected-(U5-INT{slash}TRIG-Pad7)*%
X104650000Y-79103125D03*
%TO.P,U5,8,VDDIO*%
%TO.N,+3V3*%
X105150000Y-79103125D03*
D20*
%TO.P,U5,9,NC*%
%TO.N,GND*%
X105950000Y-79903125D03*
%TO.P,U5,10,NC*%
X105950000Y-80403125D03*
%TO.P,U5,11,A1*%
X105950000Y-80903125D03*
%TO.P,U5,12,A0*%
X105950000Y-81403125D03*
D21*
%TO.P,U5,13,VSS*%
X105150000Y-82203125D03*
%TO.P,U5,14,NC*%
X104650000Y-82203125D03*
%TO.P,U5,15,VDD*%
%TO.N,+3V3*%
X104150000Y-82203125D03*
%TO.P,U5,16,NC*%
%TO.N,GND*%
X103650000Y-82203125D03*
%TD*%
D23*
%TO.N,GND*%
X93989084Y-82249380D03*
X91925000Y-77853135D03*
X108800000Y-80550000D03*
X85625000Y-77075002D03*
X89700000Y-76400000D03*
X92216759Y-77371642D03*
X103200000Y-83000000D03*
X91346750Y-87899997D03*
X101764206Y-87297024D03*
X102783353Y-78405549D03*
X86338402Y-81075002D03*
X112200000Y-75664038D03*
X89168602Y-90882419D03*
X112051286Y-85251284D03*
X97487124Y-81959873D03*
X100892577Y-81567500D03*
X112105000Y-74100000D03*
X86866966Y-81275000D03*
X92167500Y-76400000D03*
X100349946Y-81442243D03*
X92330284Y-84350700D03*
X104857886Y-76604140D03*
X95033925Y-87856326D03*
X113137500Y-74000000D03*
X107432500Y-74000000D03*
X105657286Y-86105819D03*
X97003549Y-83967311D03*
X100800000Y-83800000D03*
X95640682Y-88159423D03*
X96957918Y-82700047D03*
X95188331Y-80921250D03*
X96248758Y-85994617D03*
X95196019Y-84059353D03*
X113420000Y-90600000D03*
X111377404Y-81177404D03*
X88168791Y-78354958D03*
X99400000Y-76450000D03*
X99467500Y-77800000D03*
X86175000Y-77075002D03*
X92459621Y-82659621D03*
X86200003Y-77600000D03*
X93461391Y-81222160D03*
X90000000Y-83724998D03*
X86730913Y-87199969D03*
X112349890Y-89287899D03*
X99345000Y-90046038D03*
X87805549Y-79783353D03*
X113369947Y-78918350D03*
X95860819Y-91975000D03*
X102975000Y-74600000D03*
X111349997Y-86400000D03*
X104216647Y-89503250D03*
X102439522Y-87195738D03*
X85625000Y-77600000D03*
X87200000Y-90233032D03*
X107605549Y-86383353D03*
X97800000Y-88255852D03*
X95400000Y-74032500D03*
X91855109Y-86706991D03*
X105797685Y-78521526D03*
X112582517Y-81395589D03*
X107294148Y-77794148D03*
X103394451Y-89616647D03*
X102300000Y-79500000D03*
X105330852Y-82780852D03*
X95130032Y-88423743D03*
X94616647Y-85394451D03*
X112105000Y-75100000D03*
X105441938Y-91618500D03*
X93800000Y-76232500D03*
X111540379Y-82940379D03*
X88367500Y-90400000D03*
X91459621Y-80859621D03*
X99467500Y-78800000D03*
X90400000Y-86400000D03*
X106125003Y-76400000D03*
X102100000Y-90200000D03*
X88400000Y-74000000D03*
X106965577Y-84857372D03*
X97538678Y-85906007D03*
X109800000Y-74400000D03*
%TO.N,+5V*%
X85800000Y-75232500D03*
X87600000Y-75250000D03*
X86400000Y-75250000D03*
X87024997Y-75250000D03*
%TO.N,+3V3*%
X87825002Y-89400000D03*
X89200000Y-75250000D03*
X98332500Y-78800000D03*
X105150000Y-78600000D03*
X105475000Y-74600000D03*
X100200000Y-80600000D03*
X97800000Y-79200000D03*
X107660000Y-91618500D03*
X108700000Y-74500000D03*
X113137500Y-75135000D03*
X100800000Y-74600000D03*
X111000000Y-75800000D03*
X97800000Y-78400000D03*
X92800000Y-74400000D03*
X97885504Y-86600000D03*
X89200000Y-74600000D03*
X104150000Y-82800000D03*
X113192630Y-75800000D03*
X86400000Y-82167500D03*
X98000000Y-90032500D03*
X89800000Y-74600000D03*
X98332500Y-77800000D03*
X88000000Y-88800000D03*
X92800000Y-75200000D03*
X93550000Y-74800000D03*
X111000000Y-74600000D03*
X89800000Y-75250000D03*
X100800000Y-80432500D03*
X112195000Y-91600000D03*
%TO.N,Net-(D1-K)*%
X86000000Y-74000000D03*
%TO.N,/IMU_BARO/BARO_CS*%
X101200000Y-75325000D03*
X101725000Y-78200000D03*
X96600000Y-80600000D03*
%TO.N,/Connectors/USB_D-*%
X85625000Y-88400000D03*
%TO.N,/Connectors/USB_D+*%
X85625000Y-89400000D03*
%TO.N,/IMU_BARO/MOSI*%
X104225000Y-76800000D03*
%TO.N,/IMU_BARO/IMU_CS*%
X95451172Y-81515740D03*
X111362501Y-78550002D03*
%TO.N,/IMU_BARO/SCK*%
X105475000Y-76400000D03*
X94600000Y-83800000D03*
%TO.N,/IMU_BARO/MISO*%
X103400000Y-78200000D03*
%TO.N,/MCU/SDIO_D3*%
X105193500Y-86606500D03*
X101000000Y-87000000D03*
%TO.N,/MCU/SDIO_D2*%
X102200000Y-87800000D03*
X107400000Y-87000000D03*
X110960000Y-91625000D03*
%TO.N,/MCU/SDIO_CMD*%
X98186315Y-85850602D03*
%TO.N,/MCU/SDIO_D0*%
X97200000Y-88000000D03*
X103988080Y-90132738D03*
%TO.N,/Connectors/PB11*%
X89124740Y-88447253D03*
%TO.N,/Connectors/PB10*%
X90000000Y-87400000D03*
%TO.N,/Connectors/PB2{slash}BOOT1*%
X112000000Y-82400000D03*
X91200000Y-85200000D03*
%TO.N,/Connectors/PB1*%
X85625000Y-86400000D03*
%TO.N,/Connectors/PB0*%
X89000000Y-85400000D03*
%TO.N,/Connectors/PC4*%
X90000000Y-84400000D03*
%TO.N,/Connectors/PA7*%
X86349749Y-84346750D03*
%TO.N,/Connectors/PA6*%
X86200000Y-83400000D03*
%TO.N,/Connectors/PA4*%
X90000000Y-82400000D03*
%TO.N,/Connectors/PA1*%
X89400000Y-81400000D03*
%TO.N,/Connectors/PA3*%
X87799700Y-80433330D03*
%TO.N,/Connectors/PA2*%
X88383243Y-77741351D03*
%TO.N,/Connectors/PA0*%
X91000000Y-80400000D03*
%TO.N,/Connectors/PC3*%
X92000000Y-82200000D03*
X86200000Y-85400000D03*
%TO.N,/Connectors/PC2*%
X92850000Y-81001470D03*
%TO.N,/Connectors/PC1*%
X87637631Y-79151088D03*
X94017509Y-81600000D03*
%TO.N,/Connectors/NRST*%
X93800000Y-77367500D03*
%TO.N,/Connectors/PC0*%
X94800000Y-80400000D03*
%TO.N,/Connectors/PB9*%
X98023659Y-81583230D03*
%TO.N,/Connectors/PB8*%
X97600000Y-82600000D03*
X105800011Y-79171524D03*
%TO.N,/Connectors/PB7*%
X109800000Y-75050003D03*
X96800000Y-83350001D03*
%TO.N,/Connectors/PB6*%
X97692272Y-84054232D03*
X108718143Y-81194828D03*
%TO.N,/Connectors/SWO*%
X107300000Y-84300000D03*
%TO.N,/Connectors/PA15*%
X96898350Y-86017737D03*
%TO.N,/Connectors/SWCLK*%
X112000000Y-83400000D03*
X103600000Y-89000000D03*
%TO.N,/Connectors/SWDIO*%
X99904133Y-89714567D03*
X109200000Y-84400000D03*
%TO.N,/Connectors/PA10*%
X111990867Y-84600000D03*
X95800000Y-88800000D03*
%TO.N,/Connectors/PA9*%
X94600000Y-88800000D03*
X112000000Y-86400000D03*
%TO.N,/Connectors/BOOT0*%
X100800000Y-82602500D03*
%TO.N,/Connectors/PA8*%
X94400000Y-88000000D03*
X111700000Y-89300000D03*
%TO.N,/Connectors/PC7*%
X94000000Y-85600000D03*
%TO.N,/Connectors/PC6*%
X91640453Y-87320133D03*
%TO.N,/Connectors/PB15*%
X91346750Y-88550000D03*
%TO.N,/Connectors/PB14*%
X92800000Y-84800000D03*
X111611215Y-80570909D03*
%TO.N,/Connectors/PB13*%
X90346750Y-89294692D03*
%TO.N,/Connectors/PB12*%
X89400000Y-90275000D03*
%TO.N,/IMU_BARO/MAG_CS*%
X97124122Y-80102877D03*
X102296875Y-80906375D03*
%TO.N,unconnected-(U3-INT1{slash}INT-Pad4)*%
X113872500Y-74002886D03*
%TD*%
D24*
%TO.N,+3V3*%
X89800000Y-74600000D02*
X90200000Y-74200000D01*
X90200000Y-74200000D02*
X90800000Y-74200000D01*
D25*
%TO.N,Net-(D1-K)*%
X86602500Y-74000000D02*
X86000000Y-74000000D01*
%TO.N,GND*%
X87797500Y-74000000D02*
X88400000Y-74000000D01*
X86200003Y-77599997D02*
X86400000Y-77400000D01*
X113200000Y-81400000D02*
X112586928Y-81400000D01*
X89675002Y-83400000D02*
X90000000Y-83724998D01*
X85625000Y-77600000D02*
X85825000Y-77400000D01*
D24*
X108950000Y-80400000D02*
X109900000Y-80400000D01*
X112051286Y-85251284D02*
X112200002Y-85400000D01*
D25*
X86530882Y-87400000D02*
X86730913Y-87199969D01*
X86200003Y-77600000D02*
X86200003Y-77599997D01*
X105154687Y-82203125D02*
X105950000Y-81407812D01*
X102703125Y-79903125D02*
X102850000Y-79903125D01*
D24*
X108800000Y-80550000D02*
X108950000Y-80400000D01*
D25*
X103650000Y-82203125D02*
X103650000Y-82550000D01*
X86200000Y-87400000D02*
X86530882Y-87400000D01*
D24*
X106207500Y-78093125D02*
X106207500Y-78112050D01*
X109900000Y-86400000D02*
X111349997Y-86400000D01*
D25*
X91945618Y-86797500D02*
X91855109Y-86706991D01*
X103650000Y-82550000D02*
X103200000Y-83000000D01*
X105150000Y-82203125D02*
X105154687Y-82203125D01*
X112586928Y-81400000D02*
X112582517Y-81395589D01*
D24*
X105560438Y-91500000D02*
X106032500Y-91500000D01*
X105441938Y-91618500D02*
X105560438Y-91500000D01*
D25*
X89500000Y-83400000D02*
X89675002Y-83400000D01*
X105950000Y-81403125D02*
X105950000Y-79940625D01*
X102300000Y-79500000D02*
X102703125Y-79903125D01*
X89700000Y-86400000D02*
X90400000Y-86400000D01*
D24*
X112200002Y-85400000D02*
X113200000Y-85400000D01*
D25*
X85825000Y-77400000D02*
X86400000Y-77400000D01*
X105950000Y-81407812D02*
X105950000Y-81403125D01*
X92400000Y-86797500D02*
X91945618Y-86797500D01*
%TO.N,+3V3*%
X98035000Y-89997500D02*
X98000000Y-90032500D01*
X102303250Y-83503250D02*
X101800000Y-83000000D01*
X104072501Y-83293125D02*
X103862376Y-83503250D01*
X98285504Y-87000000D02*
X99802500Y-87000000D01*
X101800000Y-83000000D02*
X101800000Y-82397500D01*
D24*
X107541500Y-91500000D02*
X107660000Y-91618500D01*
D25*
X98600000Y-89997500D02*
X98035000Y-89997500D01*
X97885504Y-86600000D02*
X98285504Y-87000000D01*
X105475000Y-74600000D02*
X105475000Y-74672500D01*
X105475000Y-74672500D02*
X106002500Y-75200000D01*
D24*
X105150000Y-78170625D02*
X105072500Y-78093125D01*
D25*
X103862376Y-83503250D02*
X102303250Y-83503250D01*
D24*
X107167500Y-91500000D02*
X107541500Y-91500000D01*
D25*
%TO.N,/IMU_BARO/BARO_CS*%
X98875000Y-75325000D02*
X101200000Y-75325000D01*
X96600000Y-77600000D02*
X98875000Y-75325000D01*
X96600000Y-80600000D02*
X96600000Y-77600000D01*
%TO.N,/Connectors/USB_D-*%
X86400000Y-88400000D02*
X85625000Y-88400000D01*
%TO.N,/Connectors/USB_D+*%
X86400000Y-89400000D02*
X85625000Y-89400000D01*
%TO.N,/IMU_BARO/MOSI*%
X102769226Y-79103125D02*
X103650000Y-79103125D01*
X104225000Y-76800000D02*
X103000000Y-76800000D01*
X102228250Y-77571750D02*
X102228250Y-78562149D01*
X102228250Y-78562149D02*
X102769226Y-79103125D01*
X103000000Y-76800000D02*
X102228250Y-77571750D01*
%TO.N,/IMU_BARO/IMU_CS*%
X111000000Y-76800000D02*
X108797500Y-76800000D01*
X108797500Y-76800000D02*
X105997500Y-74000000D01*
X111362501Y-78550002D02*
X111362501Y-77162501D01*
X111362501Y-77162501D02*
X111000000Y-76800000D01*
X98997500Y-74000000D02*
X95800000Y-77197500D01*
X95800000Y-81166912D02*
X95451172Y-81515740D01*
X95800000Y-77197500D02*
X95800000Y-81166912D01*
X105997500Y-74000000D02*
X98997500Y-74000000D01*
%TO.N,/IMU_BARO/SCK*%
X101000000Y-77100000D02*
X101000000Y-79600000D01*
X102850000Y-80403125D02*
X101803125Y-80403125D01*
X105075000Y-76000000D02*
X102100000Y-76000000D01*
X105475000Y-76400000D02*
X105075000Y-76000000D01*
X98800000Y-79600000D02*
X94600000Y-83800000D01*
X101803125Y-80403125D02*
X101000000Y-79600000D01*
X102100000Y-76000000D02*
X101000000Y-77100000D01*
X101000000Y-79600000D02*
X98800000Y-79600000D01*
%TO.N,/IMU_BARO/MISO*%
X103400000Y-78200000D02*
X103800000Y-78200000D01*
X103800000Y-78200000D02*
X104162500Y-78562500D01*
X104162500Y-78562500D02*
X104162500Y-79103125D01*
%TO.N,/MCU/SDIO_D3*%
X101393500Y-86606500D02*
X101000000Y-87000000D01*
X105193500Y-86606500D02*
X101393500Y-86606500D01*
%TO.N,/MCU/SDIO_D2*%
X106200000Y-87600000D02*
X106800000Y-87000000D01*
X102773481Y-87800000D02*
X102973481Y-87600000D01*
X102200000Y-87800000D02*
X102773481Y-87800000D01*
X102973481Y-87600000D02*
X106200000Y-87600000D01*
X106800000Y-87000000D02*
X107400000Y-87000000D01*
%TO.N,/MCU/SDIO_CMD*%
X98800000Y-85802500D02*
X98234417Y-85802500D01*
X98234417Y-85802500D02*
X98186315Y-85850602D01*
%TO.N,/MCU/SDIO_D0*%
X102938590Y-90132738D02*
X103988080Y-90132738D01*
X97200000Y-88000000D02*
X97200000Y-88505852D01*
X97496648Y-88802500D02*
X100402500Y-88802500D01*
X102405852Y-89600000D02*
X102938590Y-90132738D01*
X101200000Y-89600000D02*
X102405852Y-89600000D01*
X100402500Y-88802500D02*
X101200000Y-89600000D01*
X97200000Y-88505852D02*
X97496648Y-88802500D01*
%TO.N,/Connectors/PB11*%
X89171993Y-88400000D02*
X89124740Y-88447253D01*
X89700000Y-88400000D02*
X89171993Y-88400000D01*
%TO.N,/Connectors/PB2{slash}BOOT1*%
X91602500Y-85602500D02*
X92400000Y-85602500D01*
X113600000Y-82400000D02*
X112000000Y-82400000D01*
X91200000Y-85200000D02*
X91602500Y-85602500D01*
%TO.N,/Connectors/PB1*%
X86400000Y-86400000D02*
X85625000Y-86400000D01*
%TO.N,/Connectors/PB0*%
X89700000Y-85400000D02*
X89000000Y-85400000D01*
%TO.N,/Connectors/PA7*%
X86349749Y-84346750D02*
X86296499Y-84400000D01*
X86200000Y-84400000D02*
X86096750Y-84400000D01*
X86296499Y-84400000D02*
X86200000Y-84400000D01*
%TO.N,/Connectors/PA3*%
X87799700Y-80433330D02*
X87766370Y-80400000D01*
X87766370Y-80400000D02*
X86400000Y-80400000D01*
%TO.N,/Connectors/PA2*%
X88724594Y-77400000D02*
X88383243Y-77741351D01*
X89700000Y-77400000D02*
X88724594Y-77400000D01*
%TO.N,/Connectors/PA0*%
X91000000Y-80400000D02*
X89500000Y-80400000D01*
%TO.N,/Connectors/PC2*%
X91248530Y-79400000D02*
X89700000Y-79400000D01*
X92850000Y-81001470D02*
X91248530Y-79400000D01*
%TO.N,/Connectors/PC1*%
X87637631Y-79151088D02*
X87388719Y-79400000D01*
X87388719Y-79400000D02*
X86400000Y-79400000D01*
%TO.N,/Connectors/NRST*%
X87678250Y-76721750D02*
X88646750Y-75753250D01*
X93800000Y-77000000D02*
X93800000Y-77367500D01*
X86400000Y-78400000D02*
X87521750Y-78400000D01*
X88646750Y-75753250D02*
X92553250Y-75753250D01*
X87678250Y-78243500D02*
X87678250Y-76721750D01*
X87521750Y-78400000D02*
X87678250Y-78243500D01*
X92553250Y-75753250D02*
X93800000Y-77000000D01*
%TO.N,/Connectors/PC0*%
X92800000Y-78400000D02*
X89700000Y-78400000D01*
X94800000Y-80400000D02*
X92800000Y-78400000D01*
%TO.N,/Connectors/PB9*%
X99400000Y-83400000D02*
X100800000Y-84800000D01*
X99400000Y-82959571D02*
X99400000Y-83400000D01*
X100800000Y-84800000D02*
X105800000Y-84800000D01*
X107800000Y-80200000D02*
X108600000Y-79400000D01*
X98023659Y-81583230D02*
X99400000Y-82959571D01*
X107800000Y-82800000D02*
X107800000Y-80200000D01*
X105800000Y-84800000D02*
X107800000Y-82800000D01*
X108600000Y-79400000D02*
X109900000Y-79400000D01*
%TO.N,/Connectors/PB8*%
X105800011Y-79171524D02*
X106628476Y-79171524D01*
X106628476Y-79171524D02*
X108400000Y-77400000D01*
X108400000Y-77400000D02*
X109900000Y-77400000D01*
%TO.N,/Connectors/PB7*%
X109800000Y-75900000D02*
X110300000Y-76400000D01*
X113200000Y-76800000D02*
X113200000Y-77400000D01*
X109800000Y-75050003D02*
X109800000Y-75900000D01*
X112800000Y-76400000D02*
X113200000Y-76800000D01*
X110300000Y-76400000D02*
X112800000Y-76400000D01*
%TO.N,/Connectors/PB6*%
X108718143Y-81194828D02*
X108923315Y-81400000D01*
X108923315Y-81400000D02*
X109900000Y-81400000D01*
%TO.N,/Connectors/SWO*%
X109200000Y-82400000D02*
X109900000Y-82400000D01*
X107300000Y-84300000D02*
X109200000Y-82400000D01*
%TO.N,/Connectors/PA15*%
X107000000Y-85600000D02*
X109200000Y-83400000D01*
X97600000Y-84800000D02*
X99400000Y-84800000D01*
X100200000Y-85600000D02*
X107000000Y-85600000D01*
X99400000Y-84800000D02*
X100200000Y-85600000D01*
X96898350Y-85501650D02*
X97600000Y-84800000D01*
X96898350Y-86017737D02*
X96898350Y-85501650D01*
X109200000Y-83400000D02*
X109900000Y-83400000D01*
%TO.N,/Connectors/SWCLK*%
X113200000Y-83400000D02*
X112000000Y-83400000D01*
%TO.N,/Connectors/SWDIO*%
X109900000Y-84400000D02*
X109200000Y-84400000D01*
%TO.N,/Connectors/PA10*%
X112190867Y-84400000D02*
X113200000Y-84400000D01*
X111990867Y-84600000D02*
X112190867Y-84400000D01*
%TO.N,/Connectors/PA9*%
X113200000Y-86400000D02*
X112000000Y-86400000D01*
%TO.N,/Connectors/BOOT0*%
X100800000Y-82602500D02*
X100800000Y-83000000D01*
X107000000Y-80000000D02*
X108600000Y-78400000D01*
X108600000Y-78400000D02*
X109900000Y-78400000D01*
X100800000Y-83000000D02*
X101800000Y-84000000D01*
X101800000Y-84000000D02*
X105800000Y-84000000D01*
X107000000Y-82800000D02*
X107000000Y-80000000D01*
X105800000Y-84000000D02*
X107000000Y-82800000D01*
%TO.N,/Connectors/PA8*%
X111700000Y-87700000D02*
X112000000Y-87400000D01*
X111700000Y-89300000D02*
X111700000Y-87700000D01*
X112000000Y-87400000D02*
X113200000Y-87400000D01*
%TO.N,/Connectors/PC7*%
X100500000Y-87800000D02*
X101100000Y-88400000D01*
X95400000Y-87000000D02*
X97400000Y-87000000D01*
X107000000Y-88400000D02*
X108400000Y-87000000D01*
X108400000Y-87000000D02*
X108400000Y-85600000D01*
X108400000Y-85600000D02*
X108600000Y-85400000D01*
X101100000Y-88400000D02*
X107000000Y-88400000D01*
X94000000Y-85600000D02*
X95400000Y-87000000D01*
X98200000Y-87800000D02*
X100500000Y-87800000D01*
X97400000Y-87000000D02*
X98200000Y-87800000D01*
X108600000Y-85400000D02*
X109900000Y-85400000D01*
%TO.N,/Connectors/PC6*%
X93920320Y-89600000D02*
X96703250Y-89600000D01*
X91640453Y-87320133D02*
X93920320Y-89600000D01*
X106000000Y-89400000D02*
X107000000Y-89400000D01*
X104500000Y-90900000D02*
X106000000Y-89400000D01*
X109000000Y-87400000D02*
X109900000Y-87400000D01*
X96703250Y-89600000D02*
X98003250Y-90900000D01*
X98003250Y-90900000D02*
X104500000Y-90900000D01*
X107000000Y-89400000D02*
X109000000Y-87400000D01*
%TO.N,/Connectors/PB15*%
X104748735Y-91600000D02*
X106148735Y-90200000D01*
X106148735Y-90200000D02*
X107400000Y-90200000D01*
X97400000Y-91600000D02*
X104748735Y-91600000D01*
X91346750Y-88550000D02*
X93196750Y-90400000D01*
X109200000Y-88400000D02*
X109900000Y-88400000D01*
X93196750Y-90400000D02*
X96200000Y-90400000D01*
X96200000Y-90400000D02*
X97400000Y-91600000D01*
X107400000Y-90200000D02*
X109200000Y-88400000D01*
%TO.N,/Connectors/PB14*%
X111782124Y-80400000D02*
X111611215Y-80570909D01*
X113200000Y-80400000D02*
X111782124Y-80400000D01*
%TO.N,/Connectors/PB12*%
X112600000Y-90400000D02*
X110000000Y-90400000D01*
X96721750Y-92121750D02*
X96000000Y-91400000D01*
X113200000Y-88400000D02*
X113200000Y-89800000D01*
X110000000Y-90400000D02*
X108278250Y-92121750D01*
X90525000Y-91400000D02*
X89400000Y-90275000D01*
X108278250Y-92121750D02*
X96721750Y-92121750D01*
X113200000Y-89800000D02*
X112600000Y-90400000D01*
X96000000Y-91400000D02*
X90525000Y-91400000D01*
%TO.N,/IMU_BARO/MAG_CS*%
X102300125Y-80903125D02*
X102850000Y-80903125D01*
X102296875Y-80906375D02*
X102300125Y-80903125D01*
X102096125Y-80906375D02*
X102296875Y-80906375D01*
X101800000Y-81202500D02*
X102096125Y-80906375D01*
%TO.N,unconnected-(U3-INT1{slash}INT-Pad4)*%
X113872500Y-74002886D02*
X113800000Y-74075386D01*
X113800000Y-74075386D02*
X113800000Y-74600000D01*
%TD*%
%TA.AperFunction,Conductor*%
%TO.N,GND*%
G36*
X113543039Y-78419685D02*
G01*
X113588794Y-78472489D01*
X113600000Y-78524000D01*
X113600000Y-79276000D01*
X113580315Y-79343039D01*
X113527511Y-79388794D01*
X113476000Y-79400000D01*
X113124000Y-79400000D01*
X113056961Y-79380315D01*
X113011206Y-79327511D01*
X113000000Y-79276000D01*
X113000000Y-78524000D01*
X113019685Y-78456961D01*
X113072489Y-78411206D01*
X113124000Y-78400000D01*
X113476000Y-78400000D01*
X113543039Y-78419685D01*
G37*
%TD.AperFunction*%
%TD*%
%TA.AperFunction,Conductor*%
%TO.N,GND*%
G36*
X105543039Y-81819685D02*
G01*
X105588794Y-81872489D01*
X105600000Y-81924000D01*
X105600000Y-83476000D01*
X105580315Y-83543039D01*
X105527511Y-83588794D01*
X105476000Y-83600000D01*
X104929500Y-83600000D01*
X104862461Y-83580315D01*
X104816706Y-83527511D01*
X104805500Y-83476000D01*
X104805500Y-82813017D01*
X104804866Y-82802114D01*
X104804118Y-82789237D01*
X104800794Y-82760717D01*
X104775249Y-82682812D01*
X104740673Y-82622098D01*
X104726923Y-82601059D01*
X104726918Y-82601054D01*
X104657349Y-82541700D01*
X104596526Y-82509885D01*
X104546246Y-82461370D01*
X104530000Y-82400009D01*
X104530000Y-81935629D01*
X104539551Y-81903101D01*
X104542950Y-81875022D01*
X104587513Y-81821209D01*
X104654096Y-81800031D01*
X104656867Y-81800000D01*
X105476000Y-81800000D01*
X105543039Y-81819685D01*
G37*
%TD.AperFunction*%
%TD*%
%TA.AperFunction,Conductor*%
%TO.N,+3V3*%
G36*
X104268488Y-81819685D02*
G01*
X104314243Y-81872489D01*
X104324430Y-81933632D01*
X104324500Y-81933632D01*
X104324500Y-81934051D01*
X104324851Y-81936158D01*
X104324500Y-81939720D01*
X104324500Y-82466522D01*
X104339760Y-82543243D01*
X104339761Y-82543245D01*
X104361519Y-82575807D01*
X104397888Y-82630237D01*
X104484883Y-82688365D01*
X104500189Y-82691409D01*
X104562100Y-82723793D01*
X104596676Y-82784507D01*
X104600000Y-82813027D01*
X104600000Y-83476000D01*
X104580315Y-83543039D01*
X104527511Y-83588794D01*
X104476000Y-83600000D01*
X103724000Y-83600000D01*
X103656961Y-83580315D01*
X103611206Y-83527511D01*
X103600000Y-83476000D01*
X103600000Y-83181971D01*
X103609298Y-83143251D01*
X103606703Y-83142408D01*
X103609718Y-83133127D01*
X103609719Y-83133126D01*
X103630804Y-83000000D01*
X103630803Y-82999994D01*
X103631386Y-82996315D01*
X103661315Y-82933180D01*
X103666142Y-82928068D01*
X103873055Y-82721157D01*
X103909753Y-82657593D01*
X103917083Y-82630237D01*
X103921809Y-82612597D01*
X103938478Y-82575810D01*
X103960240Y-82543242D01*
X103975500Y-82466526D01*
X103975499Y-81939725D01*
X103975498Y-81939720D01*
X103975147Y-81936157D01*
X103975499Y-81934300D01*
X103975499Y-81933633D01*
X103975626Y-81933633D01*
X103988165Y-81867511D01*
X104036228Y-81816799D01*
X104098550Y-81800000D01*
X104201449Y-81800000D01*
X104268488Y-81819685D01*
G37*
%TD.AperFunction*%
%TD*%
%TA.AperFunction,Conductor*%
%TO.N,+5V*%
G36*
X88143039Y-74619685D02*
G01*
X88188794Y-74672489D01*
X88200000Y-74724000D01*
X88200000Y-75348638D01*
X88180315Y-75415677D01*
X88163681Y-75436319D01*
X87400000Y-76199999D01*
X87400000Y-76476000D01*
X87380315Y-76543039D01*
X87327511Y-76588794D01*
X87276000Y-76600000D01*
X85524500Y-76600000D01*
X85457461Y-76580315D01*
X85411706Y-76527511D01*
X85400500Y-76476000D01*
X85400500Y-74724000D01*
X85420185Y-74656961D01*
X85472989Y-74611206D01*
X85524500Y-74600000D01*
X88076000Y-74600000D01*
X88143039Y-74619685D01*
G37*
%TD.AperFunction*%
%TD*%
%TA.AperFunction,Conductor*%
%TO.N,GND*%
G36*
X106543039Y-77819685D02*
G01*
X106588794Y-77872489D01*
X106600000Y-77924000D01*
X106600000Y-78676000D01*
X106580315Y-78743039D01*
X106527511Y-78788794D01*
X106476000Y-78800000D01*
X106037869Y-78800000D01*
X105981575Y-78786485D01*
X105933134Y-78761803D01*
X105800013Y-78740720D01*
X105800008Y-78740720D01*
X105743397Y-78749686D01*
X105674104Y-78740731D01*
X105620652Y-78695735D01*
X105600013Y-78628983D01*
X105600000Y-78627213D01*
X105600000Y-78441904D01*
X105612600Y-78387442D01*
X105630432Y-78350967D01*
X105630431Y-78350967D01*
X105630433Y-78350965D01*
X105640500Y-78281867D01*
X105640500Y-77924000D01*
X105660185Y-77856961D01*
X105712989Y-77811206D01*
X105764500Y-77800000D01*
X106476000Y-77800000D01*
X106543039Y-77819685D01*
G37*
%TD.AperFunction*%
%TD*%
%TA.AperFunction,Conductor*%
%TO.N,+3V3*%
G36*
X105343039Y-77819685D02*
G01*
X105388794Y-77872489D01*
X105400000Y-77924000D01*
X105400000Y-78335012D01*
X105389525Y-78378645D01*
X105390981Y-78379119D01*
X105387965Y-78388399D01*
X105366881Y-78521523D01*
X105366881Y-78521528D01*
X105387964Y-78654649D01*
X105390981Y-78663931D01*
X105389523Y-78664404D01*
X105400000Y-78708039D01*
X105400000Y-78989575D01*
X105390711Y-79028273D01*
X105393307Y-79029117D01*
X105390291Y-79038397D01*
X105369207Y-79171521D01*
X105369207Y-79171527D01*
X105382681Y-79256603D01*
X105373726Y-79325896D01*
X105328729Y-79379348D01*
X105261978Y-79399987D01*
X105260208Y-79400000D01*
X105099500Y-79400000D01*
X105032461Y-79380315D01*
X104986706Y-79327511D01*
X104975500Y-79276000D01*
X104975499Y-78839727D01*
X104963611Y-78779958D01*
X104960240Y-78763008D01*
X104960239Y-78763006D01*
X104960238Y-78763004D01*
X104923511Y-78708039D01*
X104902112Y-78676013D01*
X104815117Y-78617885D01*
X104815115Y-78617884D01*
X104815112Y-78617883D01*
X104738404Y-78602625D01*
X104724000Y-78602625D01*
X104656961Y-78582940D01*
X104611206Y-78530136D01*
X104600000Y-78478625D01*
X104600000Y-77924000D01*
X104619685Y-77856961D01*
X104672489Y-77811206D01*
X104724000Y-77800000D01*
X105276000Y-77800000D01*
X105343039Y-77819685D01*
G37*
%TD.AperFunction*%
%TD*%
M02*
