%TF.GenerationSoftware,KiCad,Pcbnew,8.0.0*%
%TF.CreationDate,2024-09-22T12:37:06-04:00*%
%TF.ProjectId,MainBoard,4d61696e-426f-4617-9264-2e6b69636164,rev?*%
%TF.SameCoordinates,Original*%
%TF.FileFunction,Copper,L5,Inr*%
%TF.FilePolarity,Positive*%
%FSLAX46Y46*%
G04 Gerber Fmt 4.6, Leading zero omitted, Abs format (unit mm)*
G04 Created by KiCad (PCBNEW 8.0.0) date 2024-09-22 12:37:06*
%MOMM*%
%LPD*%
G01*
G04 APERTURE LIST*
%TA.AperFunction,ComponentPad*%
%ADD10C,1.000000*%
%TD*%
%TA.AperFunction,ViaPad*%
%ADD11C,0.450000*%
%TD*%
G04 APERTURE END LIST*
D10*
%TO.N,GND*%
%TO.C,TP1*%
X86000000Y-91600000D03*
%TD*%
D11*
%TO.N,GND*%
X93989084Y-82249380D03*
X91925000Y-77853135D03*
X108800000Y-80550000D03*
X85625000Y-77075002D03*
X89700000Y-76400000D03*
X92216759Y-77371642D03*
X103200000Y-83000000D03*
X91346750Y-87899997D03*
X101764206Y-87297024D03*
X102783353Y-78405549D03*
X86338402Y-81075002D03*
X112200000Y-75664038D03*
X89168602Y-90882419D03*
X112051286Y-85251284D03*
X97487124Y-81959873D03*
X100892577Y-81567500D03*
X112105000Y-74100000D03*
X86866966Y-81275000D03*
X92167500Y-76400000D03*
X100349946Y-81442243D03*
X92330284Y-84350700D03*
X104857886Y-76604140D03*
X95033925Y-87856326D03*
X113137500Y-74000000D03*
X107432500Y-74000000D03*
X105657286Y-86105819D03*
X97003549Y-83967311D03*
X100800000Y-83800000D03*
X95640682Y-88159423D03*
X96957918Y-82700047D03*
X95188331Y-80921250D03*
X96248758Y-85994617D03*
X95196019Y-84059353D03*
X113420000Y-90600000D03*
X111377404Y-81177404D03*
X88168791Y-78354958D03*
X99400000Y-76450000D03*
X99467500Y-77800000D03*
X86175000Y-77075002D03*
X92459621Y-82659621D03*
X86200003Y-77600000D03*
X93461391Y-81222160D03*
X90000000Y-83724998D03*
X86730913Y-87199969D03*
X112349890Y-89287899D03*
X99345000Y-90046038D03*
X87805549Y-79783353D03*
X113369947Y-78918350D03*
X95860819Y-91975000D03*
X102975000Y-74600000D03*
X111349997Y-86400000D03*
X104216647Y-89503250D03*
X102439522Y-87195738D03*
X85625000Y-77600000D03*
X87200000Y-90233032D03*
X107605549Y-86383353D03*
X97800000Y-88255852D03*
X95400000Y-74032500D03*
X91855109Y-86706991D03*
X105797685Y-78521526D03*
X112582517Y-81395589D03*
X107294148Y-77794148D03*
X103394451Y-89616647D03*
X102300000Y-79500000D03*
X105330852Y-82780852D03*
X95130032Y-88423743D03*
X94616647Y-85394451D03*
X112105000Y-75100000D03*
X105441938Y-91618500D03*
X93800000Y-76232500D03*
X111540379Y-82940379D03*
X88367500Y-90400000D03*
X91459621Y-80859621D03*
X99467500Y-78800000D03*
X90400000Y-86400000D03*
X106125003Y-76400000D03*
X102100000Y-90200000D03*
X88400000Y-74000000D03*
X106965577Y-84857372D03*
X97538678Y-85906007D03*
X109800000Y-74400000D03*
%TO.N,+5V*%
X85800000Y-75232500D03*
X87600000Y-75250000D03*
X86400000Y-75250000D03*
X87024997Y-75250000D03*
%TO.N,+3V3*%
X87825002Y-89400000D03*
X89200000Y-75250000D03*
X98332500Y-78800000D03*
X105150000Y-78600000D03*
X105475000Y-74600000D03*
X100200000Y-80600000D03*
X97800000Y-79200000D03*
X107660000Y-91618500D03*
X108700000Y-74500000D03*
X113137500Y-75135000D03*
X100800000Y-74600000D03*
X111000000Y-75800000D03*
X97800000Y-78400000D03*
X92800000Y-74400000D03*
X97885504Y-86600000D03*
X89200000Y-74600000D03*
X104150000Y-82800000D03*
X113192630Y-75800000D03*
X86400000Y-82167500D03*
X98000000Y-90032500D03*
X89800000Y-74600000D03*
X98332500Y-77800000D03*
X88000000Y-88800000D03*
X92800000Y-75200000D03*
X93550000Y-74800000D03*
X111000000Y-74600000D03*
X89800000Y-75250000D03*
X100800000Y-80432500D03*
X112195000Y-91600000D03*
%TO.N,Net-(D1-K)*%
X86000000Y-74000000D03*
%TO.N,/IMU_BARO/BARO_CS*%
X101200000Y-75325000D03*
X101725000Y-78200000D03*
X96600000Y-80600000D03*
%TO.N,/Connectors/USB_D-*%
X85625000Y-88400000D03*
%TO.N,/Connectors/USB_D+*%
X85625000Y-89400000D03*
%TO.N,/IMU_BARO/MOSI*%
X104225000Y-76800000D03*
%TO.N,/IMU_BARO/IMU_CS*%
X95451172Y-81515740D03*
X111362501Y-78550002D03*
%TO.N,/IMU_BARO/SCK*%
X105475000Y-76400000D03*
X94600000Y-83800000D03*
%TO.N,/IMU_BARO/MISO*%
X103400000Y-78200000D03*
%TO.N,/MCU/SDIO_D3*%
X105193500Y-86606500D03*
X101000000Y-87000000D03*
%TO.N,/MCU/SDIO_D2*%
X102200000Y-87800000D03*
X107400000Y-87000000D03*
X110960000Y-91625000D03*
%TO.N,/MCU/SDIO_CMD*%
X98186315Y-85850602D03*
%TO.N,/MCU/SDIO_D0*%
X97200000Y-88000000D03*
X103988080Y-90132738D03*
%TO.N,/Connectors/PB11*%
X89124740Y-88447253D03*
%TO.N,/Connectors/PB10*%
X90000000Y-87400000D03*
%TO.N,/Connectors/PB2{slash}BOOT1*%
X112000000Y-82400000D03*
X91200000Y-85200000D03*
%TO.N,/Connectors/PB1*%
X85625000Y-86400000D03*
%TO.N,/Connectors/PB0*%
X89000000Y-85400000D03*
%TO.N,/Connectors/PC4*%
X90000000Y-84400000D03*
%TO.N,/Connectors/PA7*%
X86349749Y-84346750D03*
%TO.N,/Connectors/PA6*%
X86200000Y-83400000D03*
%TO.N,/Connectors/PA4*%
X90000000Y-82400000D03*
%TO.N,/Connectors/PA1*%
X89400000Y-81400000D03*
%TO.N,/Connectors/PA3*%
X87799700Y-80433330D03*
%TO.N,/Connectors/PA2*%
X88383243Y-77741351D03*
%TO.N,/Connectors/PA0*%
X91000000Y-80400000D03*
%TO.N,/Connectors/PC3*%
X92000000Y-82200000D03*
X86200000Y-85400000D03*
%TO.N,/Connectors/PC2*%
X92850000Y-81001470D03*
%TO.N,/Connectors/PC1*%
X87637631Y-79151088D03*
X94017509Y-81600000D03*
%TO.N,/Connectors/NRST*%
X93800000Y-77367500D03*
%TO.N,/Connectors/PC0*%
X94800000Y-80400000D03*
%TO.N,/Connectors/PB9*%
X98023659Y-81583230D03*
%TO.N,/Connectors/PB8*%
X97600000Y-82600000D03*
X105800011Y-79171524D03*
%TO.N,/Connectors/PB7*%
X109800000Y-75050003D03*
X96800000Y-83350001D03*
%TO.N,/Connectors/PB6*%
X97692272Y-84054232D03*
X108718143Y-81194828D03*
%TO.N,/Connectors/SWO*%
X107300000Y-84300000D03*
%TO.N,/Connectors/PA15*%
X96898350Y-86017737D03*
%TO.N,/Connectors/SWCLK*%
X112000000Y-83400000D03*
X103600000Y-89000000D03*
%TO.N,/Connectors/SWDIO*%
X99904133Y-89714567D03*
X109200000Y-84400000D03*
%TO.N,/Connectors/PA10*%
X111990867Y-84600000D03*
X95800000Y-88800000D03*
%TO.N,/Connectors/PA9*%
X94600000Y-88800000D03*
X112000000Y-86400000D03*
%TO.N,/Connectors/BOOT0*%
X100800000Y-82602500D03*
%TO.N,/Connectors/PA8*%
X94400000Y-88000000D03*
X111700000Y-89300000D03*
%TO.N,/Connectors/PC7*%
X94000000Y-85600000D03*
%TO.N,/Connectors/PC6*%
X91640453Y-87320133D03*
%TO.N,/Connectors/PB15*%
X91346750Y-88550000D03*
%TO.N,/Connectors/PB14*%
X92800000Y-84800000D03*
X111611215Y-80570909D03*
%TO.N,/Connectors/PB13*%
X90346750Y-89294692D03*
%TO.N,/Connectors/PB12*%
X89400000Y-90275000D03*
%TO.N,/IMU_BARO/MAG_CS*%
X97124122Y-80102877D03*
X102296875Y-80906375D03*
%TO.N,unconnected-(U3-INT1{slash}INT-Pad4)*%
X113872500Y-74002886D03*
%TD*%
%TA.AperFunction,Conductor*%
%TO.N,GND*%
G36*
X113464666Y-73620185D02*
G01*
X113510421Y-73672989D01*
X113520365Y-73742147D01*
X113508113Y-73780789D01*
X113462781Y-73869760D01*
X113462779Y-73869764D01*
X113441696Y-74002883D01*
X113441696Y-74002888D01*
X113462779Y-74136007D01*
X113462780Y-74136010D01*
X113462781Y-74136012D01*
X113523972Y-74256106D01*
X113523973Y-74256107D01*
X113523976Y-74256111D01*
X113619274Y-74351409D01*
X113619278Y-74351412D01*
X113619280Y-74351414D01*
X113739374Y-74412605D01*
X113739376Y-74412605D01*
X113739378Y-74412606D01*
X113872498Y-74433690D01*
X113872500Y-74433690D01*
X113872502Y-74433690D01*
X114005622Y-74412606D01*
X114005623Y-74412605D01*
X114005626Y-74412605D01*
X114019206Y-74405685D01*
X114087873Y-74392789D01*
X114152614Y-74419064D01*
X114192871Y-74476170D01*
X114199500Y-74516170D01*
X114199500Y-91791872D01*
X114198439Y-91808059D01*
X114188017Y-91887215D01*
X114179639Y-91918480D01*
X114152225Y-91984664D01*
X114136039Y-92012699D01*
X114092425Y-92069537D01*
X114069537Y-92092425D01*
X114012699Y-92136039D01*
X113984664Y-92152225D01*
X113918480Y-92179639D01*
X113887215Y-92188017D01*
X113824480Y-92196277D01*
X113808057Y-92198439D01*
X113791873Y-92199500D01*
X112472156Y-92199500D01*
X112405117Y-92179815D01*
X112359362Y-92127011D01*
X112349418Y-92057853D01*
X112378443Y-91994297D01*
X112415858Y-91965017D01*
X112448220Y-91948528D01*
X112543528Y-91853220D01*
X112604719Y-91733126D01*
X112621844Y-91625002D01*
X112625804Y-91600002D01*
X112625804Y-91599997D01*
X112604720Y-91466878D01*
X112604719Y-91466876D01*
X112604719Y-91466874D01*
X112543528Y-91346780D01*
X112543526Y-91346778D01*
X112543523Y-91346774D01*
X112448225Y-91251476D01*
X112448221Y-91251473D01*
X112448220Y-91251472D01*
X112328126Y-91190281D01*
X112328124Y-91190280D01*
X112328121Y-91190279D01*
X112195002Y-91169196D01*
X112194998Y-91169196D01*
X112061878Y-91190279D01*
X111941778Y-91251473D01*
X111941774Y-91251476D01*
X111846476Y-91346774D01*
X111846473Y-91346778D01*
X111785279Y-91466878D01*
X111764196Y-91599997D01*
X111764196Y-91600002D01*
X111785279Y-91733121D01*
X111785280Y-91733124D01*
X111785281Y-91733126D01*
X111846472Y-91853220D01*
X111846473Y-91853221D01*
X111846476Y-91853225D01*
X111941774Y-91948523D01*
X111941778Y-91948526D01*
X111941780Y-91948528D01*
X111974140Y-91965016D01*
X112024935Y-92012989D01*
X112041730Y-92080810D01*
X112019193Y-92146945D01*
X111964478Y-92190397D01*
X111917844Y-92199500D01*
X111283829Y-92199500D01*
X111216790Y-92179815D01*
X111171035Y-92127011D01*
X111161091Y-92057853D01*
X111190116Y-91994297D01*
X111210946Y-91975180D01*
X111213216Y-91973529D01*
X111213220Y-91973528D01*
X111308528Y-91878220D01*
X111369719Y-91758126D01*
X111369720Y-91758121D01*
X111390804Y-91625002D01*
X111390804Y-91624997D01*
X111369720Y-91491878D01*
X111369719Y-91491876D01*
X111369719Y-91491874D01*
X111308528Y-91371780D01*
X111308526Y-91371778D01*
X111308523Y-91371774D01*
X111213225Y-91276476D01*
X111213221Y-91276473D01*
X111213220Y-91276472D01*
X111093126Y-91215281D01*
X111093124Y-91215280D01*
X111093121Y-91215279D01*
X110960002Y-91194196D01*
X110959998Y-91194196D01*
X110826878Y-91215279D01*
X110706778Y-91276473D01*
X110706774Y-91276476D01*
X110611476Y-91371774D01*
X110611473Y-91371778D01*
X110550279Y-91491878D01*
X110529196Y-91624997D01*
X110529196Y-91625002D01*
X110550279Y-91758121D01*
X110550280Y-91758124D01*
X110550281Y-91758126D01*
X110608161Y-91871721D01*
X110611473Y-91878221D01*
X110611476Y-91878225D01*
X110706776Y-91973525D01*
X110709054Y-91975180D01*
X110711153Y-91977902D01*
X110713680Y-91980429D01*
X110713353Y-91980755D01*
X110751721Y-92030509D01*
X110757702Y-92100122D01*
X110725098Y-92161918D01*
X110664260Y-92196277D01*
X110636171Y-92199500D01*
X107973464Y-92199500D01*
X107906425Y-92179815D01*
X107860670Y-92127011D01*
X107850726Y-92057853D01*
X107879751Y-91994297D01*
X107906032Y-91973730D01*
X107905328Y-91972761D01*
X107913213Y-91967031D01*
X107913220Y-91967028D01*
X108008528Y-91871720D01*
X108069719Y-91751626D01*
X108072650Y-91733121D01*
X108090804Y-91618502D01*
X108090804Y-91618497D01*
X108069720Y-91485378D01*
X108069719Y-91485376D01*
X108069719Y-91485374D01*
X108008528Y-91365280D01*
X108008526Y-91365278D01*
X108008523Y-91365274D01*
X107913225Y-91269976D01*
X107913221Y-91269973D01*
X107913220Y-91269972D01*
X107793126Y-91208781D01*
X107793124Y-91208780D01*
X107793121Y-91208779D01*
X107660002Y-91187696D01*
X107659998Y-91187696D01*
X107526878Y-91208779D01*
X107406778Y-91269973D01*
X107406774Y-91269976D01*
X107311476Y-91365274D01*
X107311473Y-91365278D01*
X107250279Y-91485378D01*
X107229196Y-91618497D01*
X107229196Y-91618502D01*
X107250279Y-91751621D01*
X107250280Y-91751624D01*
X107250281Y-91751626D01*
X107311472Y-91871720D01*
X107311473Y-91871721D01*
X107311476Y-91871725D01*
X107406774Y-91967023D01*
X107406777Y-91967025D01*
X107406780Y-91967028D01*
X107406782Y-91967029D01*
X107414672Y-91972761D01*
X107413190Y-91974800D01*
X107453625Y-92012986D01*
X107470422Y-92080806D01*
X107447887Y-92146942D01*
X107393174Y-92190395D01*
X107346536Y-92199500D01*
X85808127Y-92199500D01*
X85791942Y-92198439D01*
X85772563Y-92195887D01*
X85712784Y-92188017D01*
X85681519Y-92179639D01*
X85615335Y-92152225D01*
X85587300Y-92136039D01*
X85530462Y-92092425D01*
X85507574Y-92069537D01*
X85463960Y-92012699D01*
X85447774Y-91984664D01*
X85443161Y-91973528D01*
X85420359Y-91918479D01*
X85411982Y-91887213D01*
X85409942Y-91871721D01*
X85401561Y-91808057D01*
X85400500Y-91791872D01*
X85400500Y-90275002D01*
X88969196Y-90275002D01*
X88990279Y-90408121D01*
X88990280Y-90408124D01*
X88990281Y-90408126D01*
X89027547Y-90481264D01*
X89051473Y-90528221D01*
X89051476Y-90528225D01*
X89146774Y-90623523D01*
X89146778Y-90623526D01*
X89146780Y-90623528D01*
X89266874Y-90684719D01*
X89266876Y-90684719D01*
X89266878Y-90684720D01*
X89399998Y-90705804D01*
X89400000Y-90705804D01*
X89400002Y-90705804D01*
X89533121Y-90684720D01*
X89533121Y-90684719D01*
X89533126Y-90684719D01*
X89653220Y-90623528D01*
X89748528Y-90528220D01*
X89809719Y-90408126D01*
X89814012Y-90381023D01*
X89830804Y-90275002D01*
X89830804Y-90274997D01*
X89809720Y-90141878D01*
X89809719Y-90141876D01*
X89809719Y-90141874D01*
X89753991Y-90032502D01*
X97569196Y-90032502D01*
X97590279Y-90165621D01*
X97590280Y-90165624D01*
X97590281Y-90165626D01*
X97646010Y-90275000D01*
X97651473Y-90285721D01*
X97651476Y-90285725D01*
X97746774Y-90381023D01*
X97746778Y-90381026D01*
X97746780Y-90381028D01*
X97866874Y-90442219D01*
X97866876Y-90442219D01*
X97866878Y-90442220D01*
X97999998Y-90463304D01*
X98000000Y-90463304D01*
X98000002Y-90463304D01*
X98133121Y-90442220D01*
X98133121Y-90442219D01*
X98133126Y-90442219D01*
X98253220Y-90381028D01*
X98348528Y-90285720D01*
X98409719Y-90165626D01*
X98412927Y-90145371D01*
X98430804Y-90032502D01*
X98430804Y-90032497D01*
X98409720Y-89899378D01*
X98409719Y-89899376D01*
X98409719Y-89899374D01*
X98348528Y-89779280D01*
X98348526Y-89779278D01*
X98348523Y-89779274D01*
X98283818Y-89714569D01*
X99473329Y-89714569D01*
X99494412Y-89847688D01*
X99494413Y-89847691D01*
X99494414Y-89847693D01*
X99534556Y-89926476D01*
X99555606Y-89967788D01*
X99555609Y-89967792D01*
X99650907Y-90063090D01*
X99650911Y-90063093D01*
X99650913Y-90063095D01*
X99771007Y-90124286D01*
X99771009Y-90124286D01*
X99771011Y-90124287D01*
X99904131Y-90145371D01*
X99904133Y-90145371D01*
X99904135Y-90145371D01*
X99983884Y-90132740D01*
X103557276Y-90132740D01*
X103578359Y-90265859D01*
X103578360Y-90265862D01*
X103578361Y-90265864D01*
X103639552Y-90385958D01*
X103639553Y-90385959D01*
X103639556Y-90385963D01*
X103734854Y-90481261D01*
X103734858Y-90481264D01*
X103734860Y-90481266D01*
X103854954Y-90542457D01*
X103854956Y-90542457D01*
X103854958Y-90542458D01*
X103988078Y-90563542D01*
X103988080Y-90563542D01*
X103988082Y-90563542D01*
X104121201Y-90542458D01*
X104121201Y-90542457D01*
X104121206Y-90542457D01*
X104241300Y-90481266D01*
X104336608Y-90385958D01*
X104397799Y-90265864D01*
X104416883Y-90145371D01*
X104418884Y-90132740D01*
X104418884Y-90132735D01*
X104397800Y-89999616D01*
X104397799Y-89999614D01*
X104397799Y-89999612D01*
X104336608Y-89879518D01*
X104336606Y-89879516D01*
X104336603Y-89879512D01*
X104241305Y-89784214D01*
X104241301Y-89784211D01*
X104241300Y-89784210D01*
X104121206Y-89723019D01*
X104121204Y-89723018D01*
X104121201Y-89723017D01*
X103988082Y-89701934D01*
X103988078Y-89701934D01*
X103854958Y-89723017D01*
X103734858Y-89784211D01*
X103734854Y-89784214D01*
X103639556Y-89879512D01*
X103639553Y-89879516D01*
X103578359Y-89999616D01*
X103557276Y-90132735D01*
X103557276Y-90132740D01*
X99983884Y-90132740D01*
X100037254Y-90124287D01*
X100037254Y-90124286D01*
X100037259Y-90124286D01*
X100157353Y-90063095D01*
X100252661Y-89967787D01*
X100313852Y-89847693D01*
X100316527Y-89830804D01*
X100334937Y-89714569D01*
X100334937Y-89714564D01*
X100313853Y-89581445D01*
X100313852Y-89581443D01*
X100313852Y-89581441D01*
X100252661Y-89461347D01*
X100252659Y-89461345D01*
X100252656Y-89461341D01*
X100157358Y-89366043D01*
X100157354Y-89366040D01*
X100157353Y-89366039D01*
X100037259Y-89304848D01*
X100037257Y-89304847D01*
X100037254Y-89304846D01*
X99904135Y-89283763D01*
X99904131Y-89283763D01*
X99771011Y-89304846D01*
X99650911Y-89366040D01*
X99650907Y-89366043D01*
X99555609Y-89461341D01*
X99555606Y-89461345D01*
X99494412Y-89581445D01*
X99473329Y-89714564D01*
X99473329Y-89714569D01*
X98283818Y-89714569D01*
X98253225Y-89683976D01*
X98253221Y-89683973D01*
X98253220Y-89683972D01*
X98133126Y-89622781D01*
X98133124Y-89622780D01*
X98133121Y-89622779D01*
X98000002Y-89601696D01*
X97999998Y-89601696D01*
X97866878Y-89622779D01*
X97746778Y-89683973D01*
X97746774Y-89683976D01*
X97651476Y-89779274D01*
X97651473Y-89779278D01*
X97590279Y-89899378D01*
X97569196Y-90032497D01*
X97569196Y-90032502D01*
X89753991Y-90032502D01*
X89748528Y-90021780D01*
X89748526Y-90021778D01*
X89748523Y-90021774D01*
X89653225Y-89926476D01*
X89653221Y-89926473D01*
X89653220Y-89926472D01*
X89533126Y-89865281D01*
X89533124Y-89865280D01*
X89533121Y-89865279D01*
X89400002Y-89844196D01*
X89399998Y-89844196D01*
X89266878Y-89865279D01*
X89146778Y-89926473D01*
X89146774Y-89926476D01*
X89051476Y-90021774D01*
X89051473Y-90021778D01*
X88990279Y-90141878D01*
X88969196Y-90274997D01*
X88969196Y-90275002D01*
X85400500Y-90275002D01*
X85400500Y-89940432D01*
X85420185Y-89873393D01*
X85472989Y-89827638D01*
X85542147Y-89817694D01*
X85543898Y-89817959D01*
X85624998Y-89830804D01*
X85625000Y-89830804D01*
X85625002Y-89830804D01*
X85758121Y-89809720D01*
X85758121Y-89809719D01*
X85758126Y-89809719D01*
X85878220Y-89748528D01*
X85973528Y-89653220D01*
X86034719Y-89533126D01*
X86046089Y-89461341D01*
X86055804Y-89400002D01*
X87394198Y-89400002D01*
X87415281Y-89533121D01*
X87415282Y-89533124D01*
X87415283Y-89533126D01*
X87476474Y-89653220D01*
X87476475Y-89653221D01*
X87476478Y-89653225D01*
X87571776Y-89748523D01*
X87571780Y-89748526D01*
X87571782Y-89748528D01*
X87691876Y-89809719D01*
X87691878Y-89809719D01*
X87691880Y-89809720D01*
X87825000Y-89830804D01*
X87825002Y-89830804D01*
X87825004Y-89830804D01*
X87958123Y-89809720D01*
X87958123Y-89809719D01*
X87958128Y-89809719D01*
X88078222Y-89748528D01*
X88173530Y-89653220D01*
X88234721Y-89533126D01*
X88246091Y-89461341D01*
X88255806Y-89400002D01*
X88255806Y-89399997D01*
X88239128Y-89294694D01*
X89915946Y-89294694D01*
X89937029Y-89427813D01*
X89937030Y-89427816D01*
X89937031Y-89427818D01*
X89998222Y-89547912D01*
X89998223Y-89547913D01*
X89998226Y-89547917D01*
X90093524Y-89643215D01*
X90093528Y-89643218D01*
X90093530Y-89643220D01*
X90213624Y-89704411D01*
X90213626Y-89704411D01*
X90213628Y-89704412D01*
X90346748Y-89725496D01*
X90346750Y-89725496D01*
X90346752Y-89725496D01*
X90479871Y-89704412D01*
X90479871Y-89704411D01*
X90479876Y-89704411D01*
X90599970Y-89643220D01*
X90695278Y-89547912D01*
X90756469Y-89427818D01*
X90756470Y-89427813D01*
X90777554Y-89294694D01*
X90777554Y-89294689D01*
X90756470Y-89161570D01*
X90756469Y-89161568D01*
X90756469Y-89161566D01*
X90695278Y-89041472D01*
X90695276Y-89041470D01*
X90695273Y-89041466D01*
X90599975Y-88946168D01*
X90599971Y-88946165D01*
X90599970Y-88946164D01*
X90479876Y-88884973D01*
X90479874Y-88884972D01*
X90479871Y-88884971D01*
X90346752Y-88863888D01*
X90346748Y-88863888D01*
X90213628Y-88884971D01*
X90213624Y-88884972D01*
X90213624Y-88884973D01*
X90194553Y-88894690D01*
X90093528Y-88946165D01*
X90093524Y-88946168D01*
X89998226Y-89041466D01*
X89998223Y-89041470D01*
X89937029Y-89161570D01*
X89915946Y-89294689D01*
X89915946Y-89294694D01*
X88239128Y-89294694D01*
X88234722Y-89266879D01*
X88234721Y-89266877D01*
X88234721Y-89266874D01*
X88234719Y-89266870D01*
X88233717Y-89263785D01*
X88233603Y-89259813D01*
X88233195Y-89257235D01*
X88233528Y-89257182D01*
X88231720Y-89193944D01*
X88263964Y-89137783D01*
X88348528Y-89053220D01*
X88409719Y-88933126D01*
X88416505Y-88890281D01*
X88430804Y-88800002D01*
X88430804Y-88799997D01*
X88409720Y-88666878D01*
X88409719Y-88666876D01*
X88409719Y-88666874D01*
X88348528Y-88546780D01*
X88348526Y-88546778D01*
X88348523Y-88546774D01*
X88253225Y-88451476D01*
X88253221Y-88451473D01*
X88253220Y-88451472D01*
X88244944Y-88447255D01*
X88693936Y-88447255D01*
X88715019Y-88580374D01*
X88715020Y-88580377D01*
X88715021Y-88580379D01*
X88776212Y-88700473D01*
X88776213Y-88700474D01*
X88776216Y-88700478D01*
X88871514Y-88795776D01*
X88871518Y-88795779D01*
X88871520Y-88795781D01*
X88991614Y-88856972D01*
X88991616Y-88856972D01*
X88991618Y-88856973D01*
X89124738Y-88878057D01*
X89124740Y-88878057D01*
X89124742Y-88878057D01*
X89257861Y-88856973D01*
X89257861Y-88856972D01*
X89257866Y-88856972D01*
X89377960Y-88795781D01*
X89473268Y-88700473D01*
X89534459Y-88580379D01*
X89539270Y-88550002D01*
X90915946Y-88550002D01*
X90937029Y-88683121D01*
X90937030Y-88683124D01*
X90937031Y-88683126D01*
X90998222Y-88803220D01*
X90998223Y-88803221D01*
X90998226Y-88803225D01*
X91093524Y-88898523D01*
X91093528Y-88898526D01*
X91093530Y-88898528D01*
X91213624Y-88959719D01*
X91213626Y-88959719D01*
X91213628Y-88959720D01*
X91346748Y-88980804D01*
X91346750Y-88980804D01*
X91346752Y-88980804D01*
X91479871Y-88959720D01*
X91479871Y-88959719D01*
X91479876Y-88959719D01*
X91599970Y-88898528D01*
X91695278Y-88803220D01*
X91756469Y-88683126D01*
X91756470Y-88683121D01*
X91777554Y-88550002D01*
X91777554Y-88549997D01*
X91756470Y-88416878D01*
X91756469Y-88416876D01*
X91756469Y-88416874D01*
X91695278Y-88296780D01*
X91695276Y-88296778D01*
X91695273Y-88296774D01*
X91599975Y-88201476D01*
X91599971Y-88201473D01*
X91599970Y-88201472D01*
X91479876Y-88140281D01*
X91479874Y-88140280D01*
X91479871Y-88140279D01*
X91346752Y-88119196D01*
X91346748Y-88119196D01*
X91213628Y-88140279D01*
X91093528Y-88201473D01*
X91093524Y-88201476D01*
X90998226Y-88296774D01*
X90998223Y-88296778D01*
X90937029Y-88416878D01*
X90915946Y-88549997D01*
X90915946Y-88550002D01*
X89539270Y-88550002D01*
X89539781Y-88546778D01*
X89555544Y-88447255D01*
X89555544Y-88447250D01*
X89534460Y-88314131D01*
X89534459Y-88314129D01*
X89534459Y-88314127D01*
X89473268Y-88194033D01*
X89473266Y-88194031D01*
X89473263Y-88194027D01*
X89377965Y-88098729D01*
X89377961Y-88098726D01*
X89377960Y-88098725D01*
X89257866Y-88037534D01*
X89257864Y-88037533D01*
X89257861Y-88037532D01*
X89124742Y-88016449D01*
X89124738Y-88016449D01*
X88991618Y-88037532D01*
X88871518Y-88098726D01*
X88871514Y-88098729D01*
X88776216Y-88194027D01*
X88776213Y-88194031D01*
X88715019Y-88314131D01*
X88693936Y-88447250D01*
X88693936Y-88447255D01*
X88244944Y-88447255D01*
X88133126Y-88390281D01*
X88133124Y-88390280D01*
X88133121Y-88390279D01*
X88000002Y-88369196D01*
X87999998Y-88369196D01*
X87866878Y-88390279D01*
X87866874Y-88390280D01*
X87866874Y-88390281D01*
X87801843Y-88423416D01*
X87746778Y-88451473D01*
X87746774Y-88451476D01*
X87651476Y-88546774D01*
X87651473Y-88546778D01*
X87590279Y-88666878D01*
X87569196Y-88799997D01*
X87569196Y-88800002D01*
X87590279Y-88933123D01*
X87591286Y-88936220D01*
X87591399Y-88940191D01*
X87591807Y-88942765D01*
X87591474Y-88942817D01*
X87593280Y-89006061D01*
X87561036Y-89062217D01*
X87476475Y-89146778D01*
X87415281Y-89266878D01*
X87394198Y-89399997D01*
X87394198Y-89400002D01*
X86055804Y-89400002D01*
X86055804Y-89399997D01*
X86034720Y-89266878D01*
X86034719Y-89266876D01*
X86034719Y-89266874D01*
X85973528Y-89146780D01*
X85973526Y-89146778D01*
X85973523Y-89146774D01*
X85878225Y-89051476D01*
X85878221Y-89051473D01*
X85878220Y-89051472D01*
X85797775Y-89010483D01*
X85746981Y-88962511D01*
X85730186Y-88894690D01*
X85752723Y-88828555D01*
X85797774Y-88789516D01*
X85878220Y-88748528D01*
X85973528Y-88653220D01*
X86034719Y-88533126D01*
X86048320Y-88447253D01*
X86055804Y-88400002D01*
X86055804Y-88399997D01*
X86034720Y-88266878D01*
X86034719Y-88266876D01*
X86034719Y-88266874D01*
X85973528Y-88146780D01*
X85973526Y-88146778D01*
X85973523Y-88146774D01*
X85878225Y-88051476D01*
X85878221Y-88051473D01*
X85878220Y-88051472D01*
X85777205Y-88000002D01*
X93969196Y-88000002D01*
X93990279Y-88133121D01*
X93990280Y-88133124D01*
X93990281Y-88133126D01*
X94051472Y-88253220D01*
X94051473Y-88253221D01*
X94051476Y-88253225D01*
X94146774Y-88348523D01*
X94146777Y-88348525D01*
X94146780Y-88348528D01*
X94199604Y-88375443D01*
X94250399Y-88423416D01*
X94267195Y-88491237D01*
X94253794Y-88542221D01*
X94190279Y-88666876D01*
X94169196Y-88799997D01*
X94169196Y-88800002D01*
X94190279Y-88933121D01*
X94190280Y-88933124D01*
X94190281Y-88933126D01*
X94251472Y-89053220D01*
X94251473Y-89053221D01*
X94251476Y-89053225D01*
X94346774Y-89148523D01*
X94346778Y-89148526D01*
X94346780Y-89148528D01*
X94466874Y-89209719D01*
X94466876Y-89209719D01*
X94466878Y-89209720D01*
X94599998Y-89230804D01*
X94600000Y-89230804D01*
X94600002Y-89230804D01*
X94733121Y-89209720D01*
X94733121Y-89209719D01*
X94733126Y-89209719D01*
X94853220Y-89148528D01*
X94948528Y-89053220D01*
X95009719Y-88933126D01*
X95016505Y-88890281D01*
X95030804Y-88800002D01*
X95369196Y-88800002D01*
X95390279Y-88933121D01*
X95390280Y-88933124D01*
X95390281Y-88933126D01*
X95451472Y-89053220D01*
X95451473Y-89053221D01*
X95451476Y-89053225D01*
X95546774Y-89148523D01*
X95546778Y-89148526D01*
X95546780Y-89148528D01*
X95666874Y-89209719D01*
X95666876Y-89209719D01*
X95666878Y-89209720D01*
X95799998Y-89230804D01*
X95800000Y-89230804D01*
X95800002Y-89230804D01*
X95933121Y-89209720D01*
X95933121Y-89209719D01*
X95933126Y-89209719D01*
X96053220Y-89148528D01*
X96148528Y-89053220D01*
X96175644Y-89000002D01*
X103169196Y-89000002D01*
X103190279Y-89133121D01*
X103190280Y-89133124D01*
X103190281Y-89133126D01*
X103251472Y-89253220D01*
X103251473Y-89253221D01*
X103251476Y-89253225D01*
X103346774Y-89348523D01*
X103346778Y-89348526D01*
X103346780Y-89348528D01*
X103466874Y-89409719D01*
X103466876Y-89409719D01*
X103466878Y-89409720D01*
X103599998Y-89430804D01*
X103600000Y-89430804D01*
X103600002Y-89430804D01*
X103733121Y-89409720D01*
X103733121Y-89409719D01*
X103733126Y-89409719D01*
X103853220Y-89348528D01*
X103901746Y-89300002D01*
X111269196Y-89300002D01*
X111290279Y-89433121D01*
X111290280Y-89433124D01*
X111290281Y-89433126D01*
X111348768Y-89547913D01*
X111351473Y-89553221D01*
X111351476Y-89553225D01*
X111446774Y-89648523D01*
X111446778Y-89648526D01*
X111446780Y-89648528D01*
X111566874Y-89709719D01*
X111566876Y-89709719D01*
X111566878Y-89709720D01*
X111699998Y-89730804D01*
X111700000Y-89730804D01*
X111700002Y-89730804D01*
X111833121Y-89709720D01*
X111833121Y-89709719D01*
X111833126Y-89709719D01*
X111953220Y-89648528D01*
X112048528Y-89553220D01*
X112109719Y-89433126D01*
X112110560Y-89427818D01*
X112130804Y-89300002D01*
X112130804Y-89299997D01*
X112109720Y-89166878D01*
X112109719Y-89166876D01*
X112109719Y-89166874D01*
X112048528Y-89046780D01*
X112048526Y-89046778D01*
X112048523Y-89046774D01*
X111953225Y-88951476D01*
X111953221Y-88951473D01*
X111953220Y-88951472D01*
X111833126Y-88890281D01*
X111833124Y-88890280D01*
X111833121Y-88890279D01*
X111700002Y-88869196D01*
X111699998Y-88869196D01*
X111566878Y-88890279D01*
X111446778Y-88951473D01*
X111446774Y-88951476D01*
X111351476Y-89046774D01*
X111351473Y-89046778D01*
X111351472Y-89046780D01*
X111307477Y-89133126D01*
X111290279Y-89166878D01*
X111269196Y-89299997D01*
X111269196Y-89300002D01*
X103901746Y-89300002D01*
X103948528Y-89253220D01*
X104009719Y-89133126D01*
X104024236Y-89041470D01*
X104030804Y-89000002D01*
X104030804Y-88999997D01*
X104009720Y-88866878D01*
X104009719Y-88866876D01*
X104009719Y-88866874D01*
X103948528Y-88746780D01*
X103948526Y-88746778D01*
X103948523Y-88746774D01*
X103853225Y-88651476D01*
X103853221Y-88651473D01*
X103853220Y-88651472D01*
X103733126Y-88590281D01*
X103733124Y-88590280D01*
X103733121Y-88590279D01*
X103600002Y-88569196D01*
X103599998Y-88569196D01*
X103466878Y-88590279D01*
X103346778Y-88651473D01*
X103346774Y-88651476D01*
X103251476Y-88746774D01*
X103251473Y-88746778D01*
X103190279Y-88866878D01*
X103169196Y-88999997D01*
X103169196Y-89000002D01*
X96175644Y-89000002D01*
X96209719Y-88933126D01*
X96216505Y-88890281D01*
X96230804Y-88800002D01*
X96230804Y-88799997D01*
X96209720Y-88666878D01*
X96209719Y-88666876D01*
X96209719Y-88666874D01*
X96148528Y-88546780D01*
X96148526Y-88546778D01*
X96148523Y-88546774D01*
X96053225Y-88451476D01*
X96053221Y-88451473D01*
X96053220Y-88451472D01*
X95933126Y-88390281D01*
X95933124Y-88390280D01*
X95933121Y-88390279D01*
X95800002Y-88369196D01*
X95799998Y-88369196D01*
X95666878Y-88390279D01*
X95666874Y-88390280D01*
X95666874Y-88390281D01*
X95601843Y-88423416D01*
X95546778Y-88451473D01*
X95546774Y-88451476D01*
X95451476Y-88546774D01*
X95451473Y-88546778D01*
X95390279Y-88666878D01*
X95369196Y-88799997D01*
X95369196Y-88800002D01*
X95030804Y-88800002D01*
X95030804Y-88799997D01*
X95009720Y-88666878D01*
X95009719Y-88666876D01*
X95009719Y-88666874D01*
X94948528Y-88546780D01*
X94948526Y-88546778D01*
X94948523Y-88546774D01*
X94853225Y-88451476D01*
X94853221Y-88451473D01*
X94853220Y-88451472D01*
X94800393Y-88424555D01*
X94749599Y-88376582D01*
X94732804Y-88308761D01*
X94746205Y-88257777D01*
X94748525Y-88253222D01*
X94748528Y-88253220D01*
X94809719Y-88133126D01*
X94809720Y-88133121D01*
X94830804Y-88000002D01*
X96769196Y-88000002D01*
X96790279Y-88133121D01*
X96790280Y-88133124D01*
X96790281Y-88133126D01*
X96851472Y-88253220D01*
X96851473Y-88253221D01*
X96851476Y-88253225D01*
X96946774Y-88348523D01*
X96946778Y-88348526D01*
X96946780Y-88348528D01*
X97066874Y-88409719D01*
X97066876Y-88409719D01*
X97066878Y-88409720D01*
X97199998Y-88430804D01*
X97200000Y-88430804D01*
X97200002Y-88430804D01*
X97333121Y-88409720D01*
X97333121Y-88409719D01*
X97333126Y-88409719D01*
X97453220Y-88348528D01*
X97548528Y-88253220D01*
X97609719Y-88133126D01*
X97609720Y-88133121D01*
X97630804Y-88000002D01*
X97630804Y-87999997D01*
X97609720Y-87866878D01*
X97609719Y-87866876D01*
X97609719Y-87866874D01*
X97575646Y-87800002D01*
X101769196Y-87800002D01*
X101790279Y-87933121D01*
X101790280Y-87933124D01*
X101790281Y-87933126D01*
X101851472Y-88053220D01*
X101851473Y-88053221D01*
X101851476Y-88053225D01*
X101946774Y-88148523D01*
X101946778Y-88148526D01*
X101946780Y-88148528D01*
X102066874Y-88209719D01*
X102066876Y-88209719D01*
X102066878Y-88209720D01*
X102199998Y-88230804D01*
X102200000Y-88230804D01*
X102200002Y-88230804D01*
X102333121Y-88209720D01*
X102333121Y-88209719D01*
X102333126Y-88209719D01*
X102453220Y-88148528D01*
X102548528Y-88053220D01*
X102609719Y-87933126D01*
X102620212Y-87866878D01*
X102630804Y-87800002D01*
X102630804Y-87799997D01*
X102609720Y-87666878D01*
X102609719Y-87666876D01*
X102609719Y-87666874D01*
X102548528Y-87546780D01*
X102548526Y-87546778D01*
X102548523Y-87546774D01*
X102453225Y-87451476D01*
X102453221Y-87451473D01*
X102453220Y-87451472D01*
X102333126Y-87390281D01*
X102333124Y-87390280D01*
X102333121Y-87390279D01*
X102200002Y-87369196D01*
X102199998Y-87369196D01*
X102066878Y-87390279D01*
X102066874Y-87390280D01*
X102066874Y-87390281D01*
X102028725Y-87409719D01*
X101946778Y-87451473D01*
X101946774Y-87451476D01*
X101851476Y-87546774D01*
X101851473Y-87546778D01*
X101790279Y-87666878D01*
X101769196Y-87799997D01*
X101769196Y-87800002D01*
X97575646Y-87800002D01*
X97548528Y-87746780D01*
X97548526Y-87746778D01*
X97548523Y-87746774D01*
X97453225Y-87651476D01*
X97453221Y-87651473D01*
X97453220Y-87651472D01*
X97333126Y-87590281D01*
X97333124Y-87590280D01*
X97333121Y-87590279D01*
X97200002Y-87569196D01*
X97199998Y-87569196D01*
X97066878Y-87590279D01*
X96946778Y-87651473D01*
X96946774Y-87651476D01*
X96851476Y-87746774D01*
X96851473Y-87746778D01*
X96790279Y-87866878D01*
X96769196Y-87999997D01*
X96769196Y-88000002D01*
X94830804Y-88000002D01*
X94830804Y-87999997D01*
X94809720Y-87866878D01*
X94809719Y-87866876D01*
X94809719Y-87866874D01*
X94748528Y-87746780D01*
X94748526Y-87746778D01*
X94748523Y-87746774D01*
X94653225Y-87651476D01*
X94653221Y-87651473D01*
X94653220Y-87651472D01*
X94533126Y-87590281D01*
X94533124Y-87590280D01*
X94533121Y-87590279D01*
X94400002Y-87569196D01*
X94399998Y-87569196D01*
X94266878Y-87590279D01*
X94146778Y-87651473D01*
X94146774Y-87651476D01*
X94051476Y-87746774D01*
X94051473Y-87746778D01*
X93990279Y-87866878D01*
X93969196Y-87999997D01*
X93969196Y-88000002D01*
X85777205Y-88000002D01*
X85758126Y-87990281D01*
X85758124Y-87990280D01*
X85758121Y-87990279D01*
X85625002Y-87969196D01*
X85625000Y-87969196D01*
X85600446Y-87973085D01*
X85543897Y-87982041D01*
X85474603Y-87973085D01*
X85421152Y-87928088D01*
X85400513Y-87861336D01*
X85400500Y-87859567D01*
X85400500Y-87400002D01*
X89569196Y-87400002D01*
X89590279Y-87533121D01*
X89590280Y-87533124D01*
X89590281Y-87533126D01*
X89651472Y-87653220D01*
X89651473Y-87653221D01*
X89651476Y-87653225D01*
X89746774Y-87748523D01*
X89746778Y-87748526D01*
X89746780Y-87748528D01*
X89866874Y-87809719D01*
X89866876Y-87809719D01*
X89866878Y-87809720D01*
X89999998Y-87830804D01*
X90000000Y-87830804D01*
X90000002Y-87830804D01*
X90133121Y-87809720D01*
X90133121Y-87809719D01*
X90133126Y-87809719D01*
X90253220Y-87748528D01*
X90348528Y-87653220D01*
X90409719Y-87533126D01*
X90422369Y-87453259D01*
X90430804Y-87400002D01*
X90430804Y-87399997D01*
X90418155Y-87320135D01*
X91209649Y-87320135D01*
X91230732Y-87453254D01*
X91230733Y-87453257D01*
X91230734Y-87453259D01*
X91289807Y-87569196D01*
X91291926Y-87573354D01*
X91291929Y-87573358D01*
X91387227Y-87668656D01*
X91387231Y-87668659D01*
X91387233Y-87668661D01*
X91507327Y-87729852D01*
X91507329Y-87729852D01*
X91507331Y-87729853D01*
X91640451Y-87750937D01*
X91640453Y-87750937D01*
X91640455Y-87750937D01*
X91773574Y-87729853D01*
X91773574Y-87729852D01*
X91773579Y-87729852D01*
X91893673Y-87668661D01*
X91988981Y-87573353D01*
X92050172Y-87453259D01*
X92050173Y-87453254D01*
X92071257Y-87320135D01*
X92071257Y-87320130D01*
X92050173Y-87187011D01*
X92050172Y-87187009D01*
X92050172Y-87187007D01*
X91988981Y-87066913D01*
X91988979Y-87066911D01*
X91988976Y-87066907D01*
X91893678Y-86971609D01*
X91893674Y-86971606D01*
X91893673Y-86971605D01*
X91773579Y-86910414D01*
X91773577Y-86910413D01*
X91773574Y-86910412D01*
X91640455Y-86889329D01*
X91640451Y-86889329D01*
X91507331Y-86910412D01*
X91387231Y-86971606D01*
X91387227Y-86971609D01*
X91291929Y-87066907D01*
X91291926Y-87066911D01*
X91230732Y-87187011D01*
X91209649Y-87320130D01*
X91209649Y-87320135D01*
X90418155Y-87320135D01*
X90409720Y-87266878D01*
X90409719Y-87266876D01*
X90409719Y-87266874D01*
X90348528Y-87146780D01*
X90348526Y-87146778D01*
X90348523Y-87146774D01*
X90253225Y-87051476D01*
X90253221Y-87051473D01*
X90253220Y-87051472D01*
X90133126Y-86990281D01*
X90133124Y-86990280D01*
X90133121Y-86990279D01*
X90000002Y-86969196D01*
X89999998Y-86969196D01*
X89866878Y-86990279D01*
X89866874Y-86990280D01*
X89866874Y-86990281D01*
X89828725Y-87009719D01*
X89746778Y-87051473D01*
X89746774Y-87051476D01*
X89651476Y-87146774D01*
X89651473Y-87146778D01*
X89590279Y-87266878D01*
X89569196Y-87399997D01*
X89569196Y-87400002D01*
X85400500Y-87400002D01*
X85400500Y-86940432D01*
X85420185Y-86873393D01*
X85472989Y-86827638D01*
X85542147Y-86817694D01*
X85543898Y-86817959D01*
X85624998Y-86830804D01*
X85625000Y-86830804D01*
X85625002Y-86830804D01*
X85758121Y-86809720D01*
X85758121Y-86809719D01*
X85758126Y-86809719D01*
X85878220Y-86748528D01*
X85973528Y-86653220D01*
X86000644Y-86600002D01*
X97454700Y-86600002D01*
X97475783Y-86733121D01*
X97475784Y-86733124D01*
X97475785Y-86733126D01*
X97536976Y-86853220D01*
X97536977Y-86853221D01*
X97536980Y-86853225D01*
X97632278Y-86948523D01*
X97632282Y-86948526D01*
X97632284Y-86948528D01*
X97752378Y-87009719D01*
X97752380Y-87009719D01*
X97752382Y-87009720D01*
X97885502Y-87030804D01*
X97885504Y-87030804D01*
X97885506Y-87030804D01*
X98018625Y-87009720D01*
X98018625Y-87009719D01*
X98018630Y-87009719D01*
X98037701Y-87000002D01*
X100569196Y-87000002D01*
X100590279Y-87133121D01*
X100590280Y-87133124D01*
X100590281Y-87133126D01*
X100617735Y-87187007D01*
X100651473Y-87253221D01*
X100651476Y-87253225D01*
X100746774Y-87348523D01*
X100746778Y-87348526D01*
X100746780Y-87348528D01*
X100866874Y-87409719D01*
X100866876Y-87409719D01*
X100866878Y-87409720D01*
X100999998Y-87430804D01*
X101000000Y-87430804D01*
X101000002Y-87430804D01*
X101133121Y-87409720D01*
X101133121Y-87409719D01*
X101133126Y-87409719D01*
X101253220Y-87348528D01*
X101348528Y-87253220D01*
X101409719Y-87133126D01*
X101420206Y-87066913D01*
X101430804Y-87000002D01*
X101430804Y-86999997D01*
X101409720Y-86866878D01*
X101409719Y-86866876D01*
X101409719Y-86866874D01*
X101348528Y-86746780D01*
X101348526Y-86746778D01*
X101348523Y-86746774D01*
X101253225Y-86651476D01*
X101253221Y-86651473D01*
X101253220Y-86651472D01*
X101164961Y-86606502D01*
X104762696Y-86606502D01*
X104783779Y-86739621D01*
X104783780Y-86739624D01*
X104783781Y-86739626D01*
X104841661Y-86853221D01*
X104844973Y-86859721D01*
X104844976Y-86859725D01*
X104940274Y-86955023D01*
X104940278Y-86955026D01*
X104940280Y-86955028D01*
X105060374Y-87016219D01*
X105060376Y-87016219D01*
X105060378Y-87016220D01*
X105193498Y-87037304D01*
X105193500Y-87037304D01*
X105193502Y-87037304D01*
X105326621Y-87016220D01*
X105326621Y-87016219D01*
X105326626Y-87016219D01*
X105358454Y-87000002D01*
X106969196Y-87000002D01*
X106990279Y-87133121D01*
X106990280Y-87133124D01*
X106990281Y-87133126D01*
X107017735Y-87187007D01*
X107051473Y-87253221D01*
X107051476Y-87253225D01*
X107146774Y-87348523D01*
X107146778Y-87348526D01*
X107146780Y-87348528D01*
X107266874Y-87409719D01*
X107266876Y-87409719D01*
X107266878Y-87409720D01*
X107399998Y-87430804D01*
X107400000Y-87430804D01*
X107400002Y-87430804D01*
X107533121Y-87409720D01*
X107533121Y-87409719D01*
X107533126Y-87409719D01*
X107653220Y-87348528D01*
X107748528Y-87253220D01*
X107809719Y-87133126D01*
X107820206Y-87066913D01*
X107830804Y-87000002D01*
X107830804Y-86999997D01*
X107809720Y-86866878D01*
X107809719Y-86866876D01*
X107809719Y-86866874D01*
X107748528Y-86746780D01*
X107748526Y-86746778D01*
X107748523Y-86746774D01*
X107653225Y-86651476D01*
X107653221Y-86651473D01*
X107653220Y-86651472D01*
X107533126Y-86590281D01*
X107533124Y-86590280D01*
X107533121Y-86590279D01*
X107400002Y-86569196D01*
X107399998Y-86569196D01*
X107266878Y-86590279D01*
X107266874Y-86590280D01*
X107266874Y-86590281D01*
X107235048Y-86606497D01*
X107146778Y-86651473D01*
X107146774Y-86651476D01*
X107051476Y-86746774D01*
X107051473Y-86746778D01*
X106990279Y-86866878D01*
X106969196Y-86999997D01*
X106969196Y-87000002D01*
X105358454Y-87000002D01*
X105446720Y-86955028D01*
X105542028Y-86859720D01*
X105603219Y-86739626D01*
X105603220Y-86739621D01*
X105624304Y-86606502D01*
X105624304Y-86606497D01*
X105603220Y-86473378D01*
X105603219Y-86473376D01*
X105603219Y-86473374D01*
X105565834Y-86400002D01*
X111569196Y-86400002D01*
X111590279Y-86533121D01*
X111590280Y-86533124D01*
X111590281Y-86533126D01*
X111651472Y-86653220D01*
X111651473Y-86653221D01*
X111651476Y-86653225D01*
X111746774Y-86748523D01*
X111746778Y-86748526D01*
X111746780Y-86748528D01*
X111866874Y-86809719D01*
X111866876Y-86809719D01*
X111866878Y-86809720D01*
X111999998Y-86830804D01*
X112000000Y-86830804D01*
X112000002Y-86830804D01*
X112133121Y-86809720D01*
X112133121Y-86809719D01*
X112133126Y-86809719D01*
X112253220Y-86748528D01*
X112348528Y-86653220D01*
X112409719Y-86533126D01*
X112420212Y-86466878D01*
X112430804Y-86400002D01*
X112430804Y-86399997D01*
X112409720Y-86266878D01*
X112409719Y-86266876D01*
X112409719Y-86266874D01*
X112348528Y-86146780D01*
X112348526Y-86146778D01*
X112348523Y-86146774D01*
X112253225Y-86051476D01*
X112253221Y-86051473D01*
X112253220Y-86051472D01*
X112133126Y-85990281D01*
X112133124Y-85990280D01*
X112133121Y-85990279D01*
X112000002Y-85969196D01*
X111999998Y-85969196D01*
X111866878Y-85990279D01*
X111866874Y-85990280D01*
X111866874Y-85990281D01*
X111812989Y-86017737D01*
X111746778Y-86051473D01*
X111746774Y-86051476D01*
X111651476Y-86146774D01*
X111651473Y-86146778D01*
X111590279Y-86266878D01*
X111569196Y-86399997D01*
X111569196Y-86400002D01*
X105565834Y-86400002D01*
X105542028Y-86353280D01*
X105542026Y-86353278D01*
X105542023Y-86353274D01*
X105446725Y-86257976D01*
X105446721Y-86257973D01*
X105446720Y-86257972D01*
X105326626Y-86196781D01*
X105326624Y-86196780D01*
X105326621Y-86196779D01*
X105193502Y-86175696D01*
X105193498Y-86175696D01*
X105060378Y-86196779D01*
X104940278Y-86257973D01*
X104940274Y-86257976D01*
X104844976Y-86353274D01*
X104844973Y-86353278D01*
X104783779Y-86473378D01*
X104762696Y-86606497D01*
X104762696Y-86606502D01*
X101164961Y-86606502D01*
X101133126Y-86590281D01*
X101133124Y-86590280D01*
X101133121Y-86590279D01*
X101000002Y-86569196D01*
X100999998Y-86569196D01*
X100866878Y-86590279D01*
X100866874Y-86590280D01*
X100866874Y-86590281D01*
X100835048Y-86606497D01*
X100746778Y-86651473D01*
X100746774Y-86651476D01*
X100651476Y-86746774D01*
X100651473Y-86746778D01*
X100590279Y-86866878D01*
X100569196Y-86999997D01*
X100569196Y-87000002D01*
X98037701Y-87000002D01*
X98138724Y-86948528D01*
X98234032Y-86853220D01*
X98295223Y-86733126D01*
X98308156Y-86651472D01*
X98316308Y-86600002D01*
X98316308Y-86599997D01*
X98295224Y-86466878D01*
X98295223Y-86466876D01*
X98295223Y-86466874D01*
X98272955Y-86423171D01*
X98260060Y-86354504D01*
X98286336Y-86289764D01*
X98327142Y-86256396D01*
X98439535Y-86199130D01*
X98534843Y-86103822D01*
X98596034Y-85983728D01*
X98601609Y-85948528D01*
X98617119Y-85850604D01*
X98617119Y-85850599D01*
X98596035Y-85717480D01*
X98596034Y-85717478D01*
X98596034Y-85717476D01*
X98534843Y-85597382D01*
X98534841Y-85597380D01*
X98534838Y-85597376D01*
X98439540Y-85502078D01*
X98439536Y-85502075D01*
X98439535Y-85502074D01*
X98319441Y-85440883D01*
X98319439Y-85440882D01*
X98319436Y-85440881D01*
X98186317Y-85419798D01*
X98186313Y-85419798D01*
X98053193Y-85440881D01*
X98053189Y-85440882D01*
X98053189Y-85440883D01*
X98002179Y-85466874D01*
X97933093Y-85502075D01*
X97933089Y-85502078D01*
X97837791Y-85597376D01*
X97837788Y-85597380D01*
X97776594Y-85717480D01*
X97755511Y-85850599D01*
X97755511Y-85850604D01*
X97776594Y-85983725D01*
X97798862Y-86027428D01*
X97811758Y-86096097D01*
X97785481Y-86160838D01*
X97744673Y-86194206D01*
X97632285Y-86251471D01*
X97632278Y-86251476D01*
X97536980Y-86346774D01*
X97536977Y-86346778D01*
X97536976Y-86346780D01*
X97495870Y-86427456D01*
X97475783Y-86466878D01*
X97454700Y-86599997D01*
X97454700Y-86600002D01*
X86000644Y-86600002D01*
X86034719Y-86533126D01*
X86045212Y-86466878D01*
X86055804Y-86400002D01*
X86055804Y-86399997D01*
X86034720Y-86266878D01*
X86034719Y-86266876D01*
X86034719Y-86266874D01*
X85973528Y-86146780D01*
X85973526Y-86146778D01*
X85973523Y-86146774D01*
X85878225Y-86051476D01*
X85878221Y-86051473D01*
X85878220Y-86051472D01*
X85758126Y-85990281D01*
X85758124Y-85990280D01*
X85758121Y-85990279D01*
X85625002Y-85969196D01*
X85625000Y-85969196D01*
X85600446Y-85973085D01*
X85543897Y-85982041D01*
X85474603Y-85973085D01*
X85421152Y-85928088D01*
X85400513Y-85861336D01*
X85400500Y-85859567D01*
X85400500Y-85400002D01*
X85769196Y-85400002D01*
X85790279Y-85533121D01*
X85790280Y-85533124D01*
X85790281Y-85533126D01*
X85851472Y-85653220D01*
X85851473Y-85653221D01*
X85851476Y-85653225D01*
X85946774Y-85748523D01*
X85946778Y-85748526D01*
X85946780Y-85748528D01*
X86066874Y-85809719D01*
X86066876Y-85809719D01*
X86066878Y-85809720D01*
X86199998Y-85830804D01*
X86200000Y-85830804D01*
X86200002Y-85830804D01*
X86333121Y-85809720D01*
X86333121Y-85809719D01*
X86333126Y-85809719D01*
X86453220Y-85748528D01*
X86548528Y-85653220D01*
X86609719Y-85533126D01*
X86609720Y-85533121D01*
X86630804Y-85400002D01*
X88569196Y-85400002D01*
X88590279Y-85533121D01*
X88590280Y-85533124D01*
X88590281Y-85533126D01*
X88651472Y-85653220D01*
X88651473Y-85653221D01*
X88651476Y-85653225D01*
X88746774Y-85748523D01*
X88746778Y-85748526D01*
X88746780Y-85748528D01*
X88866874Y-85809719D01*
X88866876Y-85809719D01*
X88866878Y-85809720D01*
X88999998Y-85830804D01*
X89000000Y-85830804D01*
X89000002Y-85830804D01*
X89133121Y-85809720D01*
X89133121Y-85809719D01*
X89133126Y-85809719D01*
X89253220Y-85748528D01*
X89348528Y-85653220D01*
X89409719Y-85533126D01*
X89409720Y-85533121D01*
X89430804Y-85400002D01*
X89430804Y-85399997D01*
X89409720Y-85266878D01*
X89409719Y-85266876D01*
X89409719Y-85266874D01*
X89375646Y-85200002D01*
X90769196Y-85200002D01*
X90790279Y-85333121D01*
X90790280Y-85333124D01*
X90790281Y-85333126D01*
X90834443Y-85419798D01*
X90851473Y-85453221D01*
X90851476Y-85453225D01*
X90946774Y-85548523D01*
X90946778Y-85548526D01*
X90946780Y-85548528D01*
X91066874Y-85609719D01*
X91066876Y-85609719D01*
X91066878Y-85609720D01*
X91199998Y-85630804D01*
X91200000Y-85630804D01*
X91200002Y-85630804D01*
X91333121Y-85609720D01*
X91333121Y-85609719D01*
X91333126Y-85609719D01*
X91352197Y-85600002D01*
X93569196Y-85600002D01*
X93590279Y-85733121D01*
X93590280Y-85733124D01*
X93590281Y-85733126D01*
X93651472Y-85853220D01*
X93651473Y-85853221D01*
X93651476Y-85853225D01*
X93746774Y-85948523D01*
X93746778Y-85948526D01*
X93746780Y-85948528D01*
X93866874Y-86009719D01*
X93866876Y-86009719D01*
X93866878Y-86009720D01*
X93999998Y-86030804D01*
X94000000Y-86030804D01*
X94000002Y-86030804D01*
X94082491Y-86017739D01*
X96467546Y-86017739D01*
X96488629Y-86150858D01*
X96488630Y-86150861D01*
X96488631Y-86150863D01*
X96543208Y-86257976D01*
X96549823Y-86270958D01*
X96549826Y-86270962D01*
X96645124Y-86366260D01*
X96645128Y-86366263D01*
X96645130Y-86366265D01*
X96765224Y-86427456D01*
X96765226Y-86427456D01*
X96765228Y-86427457D01*
X96898348Y-86448541D01*
X96898350Y-86448541D01*
X96898352Y-86448541D01*
X97031471Y-86427457D01*
X97031471Y-86427456D01*
X97031476Y-86427456D01*
X97151570Y-86366265D01*
X97246878Y-86270957D01*
X97308069Y-86150863D01*
X97315519Y-86103827D01*
X97329154Y-86017739D01*
X97329154Y-86017734D01*
X97308070Y-85884615D01*
X97308069Y-85884613D01*
X97308069Y-85884611D01*
X97246878Y-85764517D01*
X97246876Y-85764515D01*
X97246873Y-85764511D01*
X97151575Y-85669213D01*
X97151571Y-85669210D01*
X97151570Y-85669209D01*
X97031476Y-85608018D01*
X97031474Y-85608017D01*
X97031471Y-85608016D01*
X96898352Y-85586933D01*
X96898348Y-85586933D01*
X96765228Y-85608016D01*
X96645128Y-85669210D01*
X96645124Y-85669213D01*
X96549826Y-85764511D01*
X96549823Y-85764515D01*
X96488629Y-85884615D01*
X96467546Y-86017734D01*
X96467546Y-86017739D01*
X94082491Y-86017739D01*
X94133121Y-86009720D01*
X94133121Y-86009719D01*
X94133126Y-86009719D01*
X94253220Y-85948528D01*
X94348528Y-85853220D01*
X94409719Y-85733126D01*
X94419842Y-85669213D01*
X94430804Y-85600002D01*
X94430804Y-85599997D01*
X94409720Y-85466878D01*
X94409719Y-85466876D01*
X94409719Y-85466874D01*
X94348528Y-85346780D01*
X94348526Y-85346778D01*
X94348523Y-85346774D01*
X94253225Y-85251476D01*
X94253221Y-85251473D01*
X94253220Y-85251472D01*
X94133126Y-85190281D01*
X94133124Y-85190280D01*
X94133121Y-85190279D01*
X94000002Y-85169196D01*
X93999998Y-85169196D01*
X93866878Y-85190279D01*
X93866874Y-85190280D01*
X93866874Y-85190281D01*
X93828725Y-85209719D01*
X93746778Y-85251473D01*
X93746774Y-85251476D01*
X93651476Y-85346774D01*
X93651473Y-85346778D01*
X93590279Y-85466878D01*
X93569196Y-85599997D01*
X93569196Y-85600002D01*
X91352197Y-85600002D01*
X91453220Y-85548528D01*
X91548528Y-85453220D01*
X91609719Y-85333126D01*
X91620212Y-85266878D01*
X91630804Y-85200002D01*
X91630804Y-85199997D01*
X91609720Y-85066878D01*
X91609719Y-85066876D01*
X91609719Y-85066874D01*
X91548528Y-84946780D01*
X91548526Y-84946778D01*
X91548523Y-84946774D01*
X91453225Y-84851476D01*
X91453221Y-84851473D01*
X91453220Y-84851472D01*
X91352205Y-84800002D01*
X92369196Y-84800002D01*
X92390279Y-84933121D01*
X92390280Y-84933124D01*
X92390281Y-84933126D01*
X92451472Y-85053220D01*
X92451473Y-85053221D01*
X92451476Y-85053225D01*
X92546774Y-85148523D01*
X92546778Y-85148526D01*
X92546780Y-85148528D01*
X92666874Y-85209719D01*
X92666876Y-85209719D01*
X92666878Y-85209720D01*
X92799998Y-85230804D01*
X92800000Y-85230804D01*
X92800002Y-85230804D01*
X92933121Y-85209720D01*
X92933121Y-85209719D01*
X92933126Y-85209719D01*
X93053220Y-85148528D01*
X93148528Y-85053220D01*
X93209719Y-84933126D01*
X93209720Y-84933121D01*
X93230804Y-84800002D01*
X93230804Y-84799997D01*
X93209720Y-84666878D01*
X93209719Y-84666876D01*
X93209719Y-84666874D01*
X93148528Y-84546780D01*
X93148526Y-84546778D01*
X93148523Y-84546774D01*
X93053225Y-84451476D01*
X93053221Y-84451473D01*
X93053220Y-84451472D01*
X92933126Y-84390281D01*
X92933124Y-84390280D01*
X92933121Y-84390279D01*
X92800002Y-84369196D01*
X92799998Y-84369196D01*
X92666878Y-84390279D01*
X92666874Y-84390280D01*
X92666874Y-84390281D01*
X92642392Y-84402755D01*
X92546778Y-84451473D01*
X92546774Y-84451476D01*
X92451476Y-84546774D01*
X92451473Y-84546778D01*
X92390279Y-84666878D01*
X92369196Y-84799997D01*
X92369196Y-84800002D01*
X91352205Y-84800002D01*
X91333126Y-84790281D01*
X91333124Y-84790280D01*
X91333121Y-84790279D01*
X91200002Y-84769196D01*
X91199998Y-84769196D01*
X91066878Y-84790279D01*
X91066874Y-84790280D01*
X91066874Y-84790281D01*
X91028725Y-84809719D01*
X90946778Y-84851473D01*
X90946774Y-84851476D01*
X90851476Y-84946774D01*
X90851473Y-84946778D01*
X90790279Y-85066878D01*
X90769196Y-85199997D01*
X90769196Y-85200002D01*
X89375646Y-85200002D01*
X89348528Y-85146780D01*
X89348526Y-85146778D01*
X89348523Y-85146774D01*
X89253225Y-85051476D01*
X89253221Y-85051473D01*
X89253220Y-85051472D01*
X89133126Y-84990281D01*
X89133124Y-84990280D01*
X89133121Y-84990279D01*
X89000002Y-84969196D01*
X88999998Y-84969196D01*
X88866878Y-84990279D01*
X88866874Y-84990280D01*
X88866874Y-84990281D01*
X88828725Y-85009719D01*
X88746778Y-85051473D01*
X88746774Y-85051476D01*
X88651476Y-85146774D01*
X88651473Y-85146778D01*
X88590279Y-85266878D01*
X88569196Y-85399997D01*
X88569196Y-85400002D01*
X86630804Y-85400002D01*
X86630804Y-85399997D01*
X86609720Y-85266878D01*
X86609719Y-85266876D01*
X86609719Y-85266874D01*
X86548528Y-85146780D01*
X86548526Y-85146778D01*
X86548523Y-85146774D01*
X86453225Y-85051476D01*
X86453221Y-85051473D01*
X86453220Y-85051472D01*
X86358605Y-85003263D01*
X86307811Y-84955291D01*
X86291016Y-84887470D01*
X86313553Y-84821335D01*
X86368268Y-84777883D01*
X86395496Y-84770308D01*
X86482875Y-84756469D01*
X86602969Y-84695278D01*
X86698277Y-84599970D01*
X86759468Y-84479876D01*
X86761527Y-84466878D01*
X86772119Y-84400002D01*
X89569196Y-84400002D01*
X89590279Y-84533121D01*
X89590280Y-84533124D01*
X89590281Y-84533126D01*
X89651472Y-84653220D01*
X89651473Y-84653221D01*
X89651476Y-84653225D01*
X89746774Y-84748523D01*
X89746778Y-84748526D01*
X89746780Y-84748528D01*
X89866874Y-84809719D01*
X89866876Y-84809719D01*
X89866878Y-84809720D01*
X89999998Y-84830804D01*
X90000000Y-84830804D01*
X90000002Y-84830804D01*
X90133121Y-84809720D01*
X90133121Y-84809719D01*
X90133126Y-84809719D01*
X90253220Y-84748528D01*
X90348528Y-84653220D01*
X90409719Y-84533126D01*
X90420212Y-84466878D01*
X90430804Y-84400002D01*
X90430804Y-84399997D01*
X90409720Y-84266878D01*
X90409719Y-84266876D01*
X90409719Y-84266874D01*
X90348528Y-84146780D01*
X90348526Y-84146778D01*
X90348523Y-84146774D01*
X90253225Y-84051476D01*
X90253221Y-84051473D01*
X90253220Y-84051472D01*
X90133126Y-83990281D01*
X90133124Y-83990280D01*
X90133121Y-83990279D01*
X90000002Y-83969196D01*
X89999998Y-83969196D01*
X89866878Y-83990279D01*
X89746778Y-84051473D01*
X89746774Y-84051476D01*
X89651476Y-84146774D01*
X89651473Y-84146778D01*
X89590279Y-84266878D01*
X89569196Y-84399997D01*
X89569196Y-84400002D01*
X86772119Y-84400002D01*
X86780553Y-84346752D01*
X86780553Y-84346747D01*
X86759469Y-84213628D01*
X86759468Y-84213626D01*
X86759468Y-84213624D01*
X86698277Y-84093530D01*
X86698275Y-84093528D01*
X86698272Y-84093524D01*
X86602974Y-83998226D01*
X86602971Y-83998224D01*
X86602969Y-83998222D01*
X86490422Y-83940876D01*
X86439627Y-83892902D01*
X86422832Y-83825081D01*
X86431379Y-83800002D01*
X94169196Y-83800002D01*
X94190279Y-83933121D01*
X94190280Y-83933124D01*
X94190281Y-83933126D01*
X94251472Y-84053220D01*
X94251473Y-84053221D01*
X94251476Y-84053225D01*
X94346774Y-84148523D01*
X94346778Y-84148526D01*
X94346780Y-84148528D01*
X94466874Y-84209719D01*
X94466876Y-84209719D01*
X94466878Y-84209720D01*
X94599998Y-84230804D01*
X94600000Y-84230804D01*
X94600002Y-84230804D01*
X94733121Y-84209720D01*
X94733121Y-84209719D01*
X94733126Y-84209719D01*
X94853220Y-84148528D01*
X94947514Y-84054234D01*
X97261468Y-84054234D01*
X97282551Y-84187353D01*
X97282552Y-84187356D01*
X97282553Y-84187358D01*
X97343744Y-84307452D01*
X97343745Y-84307453D01*
X97343748Y-84307457D01*
X97439046Y-84402755D01*
X97439050Y-84402758D01*
X97439052Y-84402760D01*
X97559146Y-84463951D01*
X97559148Y-84463951D01*
X97559150Y-84463952D01*
X97692270Y-84485036D01*
X97692272Y-84485036D01*
X97692274Y-84485036D01*
X97825393Y-84463952D01*
X97825393Y-84463951D01*
X97825398Y-84463951D01*
X97945492Y-84402760D01*
X98040800Y-84307452D01*
X98044596Y-84300002D01*
X106869196Y-84300002D01*
X106890279Y-84433121D01*
X106890280Y-84433124D01*
X106890281Y-84433126D01*
X106941234Y-84533126D01*
X106951473Y-84553221D01*
X106951476Y-84553225D01*
X107046774Y-84648523D01*
X107046778Y-84648526D01*
X107046780Y-84648528D01*
X107166874Y-84709719D01*
X107166876Y-84709719D01*
X107166878Y-84709720D01*
X107299998Y-84730804D01*
X107300000Y-84730804D01*
X107300002Y-84730804D01*
X107433121Y-84709720D01*
X107433121Y-84709719D01*
X107433126Y-84709719D01*
X107553220Y-84648528D01*
X107648528Y-84553220D01*
X107709719Y-84433126D01*
X107709720Y-84433121D01*
X107714966Y-84400002D01*
X108769196Y-84400002D01*
X108790279Y-84533121D01*
X108790280Y-84533124D01*
X108790281Y-84533126D01*
X108851472Y-84653220D01*
X108851473Y-84653221D01*
X108851476Y-84653225D01*
X108946774Y-84748523D01*
X108946778Y-84748526D01*
X108946780Y-84748528D01*
X109066874Y-84809719D01*
X109066876Y-84809719D01*
X109066878Y-84809720D01*
X109199998Y-84830804D01*
X109200000Y-84830804D01*
X109200002Y-84830804D01*
X109333121Y-84809720D01*
X109333121Y-84809719D01*
X109333126Y-84809719D01*
X109453220Y-84748528D01*
X109548528Y-84653220D01*
X109575644Y-84600002D01*
X111560063Y-84600002D01*
X111581146Y-84733121D01*
X111581147Y-84733124D01*
X111581148Y-84733126D01*
X111642339Y-84853220D01*
X111642340Y-84853221D01*
X111642343Y-84853225D01*
X111737641Y-84948523D01*
X111737645Y-84948526D01*
X111737647Y-84948528D01*
X111857741Y-85009719D01*
X111857743Y-85009719D01*
X111857745Y-85009720D01*
X111990865Y-85030804D01*
X111990867Y-85030804D01*
X111990869Y-85030804D01*
X112123988Y-85009720D01*
X112123988Y-85009719D01*
X112123993Y-85009719D01*
X112244087Y-84948528D01*
X112339395Y-84853220D01*
X112400586Y-84733126D01*
X112404293Y-84709720D01*
X112421671Y-84600002D01*
X112421671Y-84599997D01*
X112400587Y-84466878D01*
X112400586Y-84466876D01*
X112400586Y-84466874D01*
X112339395Y-84346780D01*
X112339393Y-84346778D01*
X112339390Y-84346774D01*
X112244092Y-84251476D01*
X112244088Y-84251473D01*
X112244087Y-84251472D01*
X112123993Y-84190281D01*
X112123991Y-84190280D01*
X112123988Y-84190279D01*
X111990869Y-84169196D01*
X111990865Y-84169196D01*
X111857745Y-84190279D01*
X111737645Y-84251473D01*
X111737641Y-84251476D01*
X111642343Y-84346774D01*
X111642340Y-84346778D01*
X111642339Y-84346780D01*
X111598344Y-84433126D01*
X111581146Y-84466878D01*
X111560063Y-84599997D01*
X111560063Y-84600002D01*
X109575644Y-84600002D01*
X109609719Y-84533126D01*
X109620212Y-84466878D01*
X109630804Y-84400002D01*
X109630804Y-84399997D01*
X109609720Y-84266878D01*
X109609719Y-84266876D01*
X109609719Y-84266874D01*
X109548528Y-84146780D01*
X109548526Y-84146778D01*
X109548523Y-84146774D01*
X109453225Y-84051476D01*
X109453221Y-84051473D01*
X109453220Y-84051472D01*
X109333126Y-83990281D01*
X109333124Y-83990280D01*
X109333121Y-83990279D01*
X109200002Y-83969196D01*
X109199998Y-83969196D01*
X109066878Y-83990279D01*
X108946778Y-84051473D01*
X108946774Y-84051476D01*
X108851476Y-84146774D01*
X108851473Y-84146778D01*
X108790279Y-84266878D01*
X108769196Y-84399997D01*
X108769196Y-84400002D01*
X107714966Y-84400002D01*
X107730804Y-84300002D01*
X107730804Y-84299997D01*
X107709720Y-84166878D01*
X107709719Y-84166876D01*
X107709719Y-84166874D01*
X107648528Y-84046780D01*
X107648526Y-84046778D01*
X107648523Y-84046774D01*
X107553225Y-83951476D01*
X107553221Y-83951473D01*
X107553220Y-83951472D01*
X107433126Y-83890281D01*
X107433124Y-83890280D01*
X107433121Y-83890279D01*
X107300002Y-83869196D01*
X107299998Y-83869196D01*
X107166878Y-83890279D01*
X107046778Y-83951473D01*
X107046774Y-83951476D01*
X106951476Y-84046774D01*
X106951473Y-84046778D01*
X106890279Y-84166878D01*
X106869196Y-84299997D01*
X106869196Y-84300002D01*
X98044596Y-84300002D01*
X98101991Y-84187358D01*
X98105235Y-84166878D01*
X98123076Y-84054234D01*
X98123076Y-84054229D01*
X98101992Y-83921110D01*
X98101991Y-83921108D01*
X98101991Y-83921106D01*
X98040800Y-83801012D01*
X98040798Y-83801010D01*
X98040795Y-83801006D01*
X97945497Y-83705708D01*
X97945493Y-83705705D01*
X97945492Y-83705704D01*
X97825398Y-83644513D01*
X97825396Y-83644512D01*
X97825393Y-83644511D01*
X97692274Y-83623428D01*
X97692270Y-83623428D01*
X97559150Y-83644511D01*
X97439050Y-83705705D01*
X97439046Y-83705708D01*
X97343748Y-83801006D01*
X97343745Y-83801010D01*
X97343744Y-83801012D01*
X97309003Y-83869196D01*
X97282551Y-83921110D01*
X97261468Y-84054229D01*
X97261468Y-84054234D01*
X94947514Y-84054234D01*
X94948528Y-84053220D01*
X95009719Y-83933126D01*
X95016505Y-83890281D01*
X95030804Y-83800002D01*
X95030804Y-83799997D01*
X95009720Y-83666878D01*
X95009719Y-83666876D01*
X95009719Y-83666874D01*
X94948528Y-83546780D01*
X94948526Y-83546778D01*
X94948523Y-83546774D01*
X94853225Y-83451476D01*
X94853221Y-83451473D01*
X94853220Y-83451472D01*
X94733126Y-83390281D01*
X94733124Y-83390280D01*
X94733121Y-83390279D01*
X94600002Y-83369196D01*
X94599998Y-83369196D01*
X94466878Y-83390279D01*
X94466874Y-83390280D01*
X94466874Y-83390281D01*
X94386811Y-83431075D01*
X94346778Y-83451473D01*
X94346774Y-83451476D01*
X94251476Y-83546774D01*
X94251473Y-83546778D01*
X94190279Y-83666878D01*
X94169196Y-83799997D01*
X94169196Y-83800002D01*
X86431379Y-83800002D01*
X86445370Y-83758946D01*
X86459031Y-83742716D01*
X86548528Y-83653220D01*
X86609719Y-83533126D01*
X86630804Y-83400000D01*
X86629264Y-83390279D01*
X86622885Y-83350003D01*
X96369196Y-83350003D01*
X96390279Y-83483122D01*
X96390280Y-83483125D01*
X96390281Y-83483127D01*
X96415757Y-83533126D01*
X96451473Y-83603222D01*
X96451476Y-83603226D01*
X96546774Y-83698524D01*
X96546778Y-83698527D01*
X96546780Y-83698529D01*
X96666874Y-83759720D01*
X96666876Y-83759720D01*
X96666878Y-83759721D01*
X96799998Y-83780805D01*
X96800000Y-83780805D01*
X96800002Y-83780805D01*
X96933121Y-83759721D01*
X96933121Y-83759720D01*
X96933126Y-83759720D01*
X97053220Y-83698529D01*
X97148528Y-83603221D01*
X97209719Y-83483127D01*
X97214732Y-83451476D01*
X97222885Y-83400002D01*
X111569196Y-83400002D01*
X111590279Y-83533121D01*
X111590280Y-83533124D01*
X111590281Y-83533126D01*
X111647035Y-83644511D01*
X111651473Y-83653221D01*
X111651476Y-83653225D01*
X111746774Y-83748523D01*
X111746778Y-83748526D01*
X111746780Y-83748528D01*
X111866874Y-83809719D01*
X111866876Y-83809719D01*
X111866878Y-83809720D01*
X111999998Y-83830804D01*
X112000000Y-83830804D01*
X112000002Y-83830804D01*
X112133121Y-83809720D01*
X112133121Y-83809719D01*
X112133126Y-83809719D01*
X112253220Y-83748528D01*
X112348528Y-83653220D01*
X112409719Y-83533126D01*
X112430804Y-83400000D01*
X112429264Y-83390279D01*
X112409720Y-83266878D01*
X112409719Y-83266876D01*
X112409719Y-83266874D01*
X112348528Y-83146780D01*
X112348526Y-83146778D01*
X112348523Y-83146774D01*
X112253225Y-83051476D01*
X112253221Y-83051473D01*
X112253220Y-83051472D01*
X112172775Y-83010483D01*
X112121981Y-82962511D01*
X112105186Y-82894690D01*
X112127723Y-82828555D01*
X112172774Y-82789516D01*
X112253220Y-82748528D01*
X112348528Y-82653220D01*
X112409719Y-82533126D01*
X112412427Y-82516028D01*
X112430804Y-82400002D01*
X112430804Y-82399997D01*
X112409720Y-82266878D01*
X112409719Y-82266876D01*
X112409719Y-82266874D01*
X112348528Y-82146780D01*
X112348526Y-82146778D01*
X112348523Y-82146774D01*
X112253225Y-82051476D01*
X112253221Y-82051473D01*
X112253220Y-82051472D01*
X112133126Y-81990281D01*
X112133124Y-81990280D01*
X112133121Y-81990279D01*
X112000002Y-81969196D01*
X111999998Y-81969196D01*
X111866878Y-81990279D01*
X111746778Y-82051473D01*
X111746774Y-82051476D01*
X111651476Y-82146774D01*
X111651473Y-82146778D01*
X111590279Y-82266878D01*
X111569196Y-82399997D01*
X111569196Y-82400002D01*
X111590279Y-82533121D01*
X111590280Y-82533124D01*
X111590281Y-82533126D01*
X111651472Y-82653220D01*
X111651473Y-82653221D01*
X111651476Y-82653225D01*
X111746774Y-82748523D01*
X111746776Y-82748524D01*
X111746780Y-82748528D01*
X111827222Y-82789515D01*
X111878018Y-82837490D01*
X111894813Y-82905311D01*
X111872275Y-82971446D01*
X111827222Y-83010484D01*
X111746780Y-83051472D01*
X111746779Y-83051473D01*
X111746774Y-83051476D01*
X111651476Y-83146774D01*
X111651473Y-83146778D01*
X111590279Y-83266878D01*
X111569196Y-83399997D01*
X111569196Y-83400002D01*
X97222885Y-83400002D01*
X97230804Y-83350003D01*
X97230804Y-83349998D01*
X97209720Y-83216879D01*
X97209719Y-83216877D01*
X97209719Y-83216875D01*
X97148528Y-83096781D01*
X97148526Y-83096779D01*
X97144097Y-83088086D01*
X97147583Y-83086309D01*
X97131272Y-83040641D01*
X97069939Y-83016750D01*
X97057997Y-83006249D01*
X97053225Y-83001477D01*
X97053221Y-83001474D01*
X97053220Y-83001473D01*
X96933126Y-82940282D01*
X96933124Y-82940281D01*
X96933121Y-82940280D01*
X96800002Y-82919197D01*
X96799998Y-82919197D01*
X96666878Y-82940280D01*
X96546778Y-83001474D01*
X96546774Y-83001477D01*
X96451476Y-83096775D01*
X96451473Y-83096779D01*
X96390279Y-83216879D01*
X96369196Y-83349998D01*
X96369196Y-83350003D01*
X86622885Y-83350003D01*
X86609720Y-83266878D01*
X86609719Y-83266876D01*
X86609719Y-83266874D01*
X86548528Y-83146780D01*
X86548526Y-83146778D01*
X86548523Y-83146774D01*
X86453225Y-83051476D01*
X86453221Y-83051473D01*
X86453220Y-83051472D01*
X86333126Y-82990281D01*
X86333124Y-82990280D01*
X86333121Y-82990279D01*
X86200002Y-82969196D01*
X86199998Y-82969196D01*
X86066878Y-82990279D01*
X86066874Y-82990280D01*
X86066874Y-82990281D01*
X86044907Y-83001474D01*
X85946778Y-83051473D01*
X85946774Y-83051476D01*
X85851476Y-83146774D01*
X85851473Y-83146778D01*
X85790279Y-83266878D01*
X85769196Y-83399997D01*
X85769196Y-83400002D01*
X85790279Y-83533121D01*
X85790280Y-83533124D01*
X85790281Y-83533126D01*
X85847035Y-83644511D01*
X85851473Y-83653221D01*
X85851476Y-83653225D01*
X85946774Y-83748523D01*
X85946776Y-83748524D01*
X85946780Y-83748528D01*
X86059326Y-83805873D01*
X86110121Y-83853847D01*
X86126916Y-83921668D01*
X86104379Y-83987803D01*
X86090712Y-84004038D01*
X86001222Y-84093528D01*
X85940028Y-84213628D01*
X85918945Y-84346747D01*
X85918945Y-84346752D01*
X85940028Y-84479871D01*
X85940029Y-84479874D01*
X85940030Y-84479876D01*
X86001221Y-84599970D01*
X86001222Y-84599971D01*
X86001225Y-84599975D01*
X86096523Y-84695273D01*
X86096526Y-84695275D01*
X86096529Y-84695278D01*
X86191141Y-84743485D01*
X86241937Y-84791458D01*
X86258732Y-84859279D01*
X86236195Y-84925414D01*
X86181480Y-84968866D01*
X86154244Y-84976442D01*
X86066878Y-84990279D01*
X86066874Y-84990280D01*
X86066874Y-84990281D01*
X86028725Y-85009719D01*
X85946778Y-85051473D01*
X85946774Y-85051476D01*
X85851476Y-85146774D01*
X85851473Y-85146778D01*
X85790279Y-85266878D01*
X85769196Y-85399997D01*
X85769196Y-85400002D01*
X85400500Y-85400002D01*
X85400500Y-82167502D01*
X85969196Y-82167502D01*
X85990279Y-82300621D01*
X85990280Y-82300624D01*
X85990281Y-82300626D01*
X86040915Y-82400000D01*
X86051473Y-82420721D01*
X86051476Y-82420725D01*
X86146774Y-82516023D01*
X86146778Y-82516026D01*
X86146780Y-82516028D01*
X86266874Y-82577219D01*
X86266876Y-82577219D01*
X86266878Y-82577220D01*
X86399998Y-82598304D01*
X86400000Y-82598304D01*
X86400002Y-82598304D01*
X86533121Y-82577220D01*
X86533121Y-82577219D01*
X86533126Y-82577219D01*
X86653220Y-82516028D01*
X86748528Y-82420720D01*
X86759084Y-82400002D01*
X89569196Y-82400002D01*
X89590279Y-82533121D01*
X89590280Y-82533124D01*
X89590281Y-82533126D01*
X89651472Y-82653220D01*
X89651473Y-82653221D01*
X89651476Y-82653225D01*
X89746774Y-82748523D01*
X89746778Y-82748526D01*
X89746780Y-82748528D01*
X89866874Y-82809719D01*
X89866876Y-82809719D01*
X89866878Y-82809720D01*
X89999998Y-82830804D01*
X90000000Y-82830804D01*
X90000002Y-82830804D01*
X90133121Y-82809720D01*
X90133121Y-82809719D01*
X90133126Y-82809719D01*
X90253220Y-82748528D01*
X90348528Y-82653220D01*
X90409719Y-82533126D01*
X90412427Y-82516028D01*
X90430804Y-82400002D01*
X90430804Y-82399997D01*
X90409720Y-82266878D01*
X90409719Y-82266876D01*
X90409719Y-82266874D01*
X90375646Y-82200002D01*
X91569196Y-82200002D01*
X91590279Y-82333121D01*
X91590280Y-82333124D01*
X91590281Y-82333126D01*
X91651472Y-82453220D01*
X91651473Y-82453221D01*
X91651476Y-82453225D01*
X91746774Y-82548523D01*
X91746778Y-82548526D01*
X91746780Y-82548528D01*
X91866874Y-82609719D01*
X91866876Y-82609719D01*
X91866878Y-82609720D01*
X91999998Y-82630804D01*
X92000000Y-82630804D01*
X92000002Y-82630804D01*
X92133121Y-82609720D01*
X92133121Y-82609719D01*
X92133126Y-82609719D01*
X92152197Y-82600002D01*
X97169196Y-82600002D01*
X97190279Y-82733121D01*
X97190280Y-82733124D01*
X97190281Y-82733126D01*
X97251472Y-82853220D01*
X97251473Y-82853221D01*
X97255903Y-82861915D01*
X97252423Y-82863687D01*
X97268713Y-82909369D01*
X97330011Y-82933212D01*
X97342002Y-82943751D01*
X97346774Y-82948523D01*
X97346778Y-82948526D01*
X97346780Y-82948528D01*
X97466874Y-83009719D01*
X97466876Y-83009719D01*
X97466878Y-83009720D01*
X97599998Y-83030804D01*
X97600000Y-83030804D01*
X97600002Y-83030804D01*
X97733121Y-83009720D01*
X97733121Y-83009719D01*
X97733126Y-83009719D01*
X97853220Y-82948528D01*
X97948528Y-82853220D01*
X98009719Y-82733126D01*
X98020212Y-82666878D01*
X98030408Y-82602502D01*
X100369196Y-82602502D01*
X100390279Y-82735621D01*
X100390280Y-82735624D01*
X100390281Y-82735626D01*
X100450199Y-82853221D01*
X100451473Y-82855721D01*
X100451476Y-82855725D01*
X100546774Y-82951023D01*
X100546778Y-82951026D01*
X100546780Y-82951028D01*
X100666874Y-83012219D01*
X100666876Y-83012219D01*
X100666878Y-83012220D01*
X100799998Y-83033304D01*
X100800000Y-83033304D01*
X100800002Y-83033304D01*
X100933121Y-83012220D01*
X100933121Y-83012219D01*
X100933126Y-83012219D01*
X101053220Y-82951028D01*
X101148528Y-82855720D01*
X101176918Y-82800002D01*
X103719196Y-82800002D01*
X103740279Y-82933121D01*
X103740280Y-82933124D01*
X103740281Y-82933126D01*
X103801472Y-83053220D01*
X103801473Y-83053221D01*
X103801476Y-83053225D01*
X103896774Y-83148523D01*
X103896778Y-83148526D01*
X103896780Y-83148528D01*
X104016874Y-83209719D01*
X104016876Y-83209719D01*
X104016878Y-83209720D01*
X104149998Y-83230804D01*
X104150000Y-83230804D01*
X104150002Y-83230804D01*
X104283121Y-83209720D01*
X104283121Y-83209719D01*
X104283126Y-83209719D01*
X104403220Y-83148528D01*
X104498528Y-83053220D01*
X104559719Y-82933126D01*
X104563482Y-82909369D01*
X104580804Y-82800002D01*
X104580804Y-82799997D01*
X104559720Y-82666878D01*
X104559719Y-82666876D01*
X104559719Y-82666874D01*
X104498528Y-82546780D01*
X104498526Y-82546778D01*
X104498523Y-82546774D01*
X104403225Y-82451476D01*
X104403221Y-82451473D01*
X104403220Y-82451472D01*
X104283126Y-82390281D01*
X104283124Y-82390280D01*
X104283121Y-82390279D01*
X104150002Y-82369196D01*
X104149998Y-82369196D01*
X104016878Y-82390279D01*
X104016874Y-82390280D01*
X104016874Y-82390281D01*
X103957134Y-82420720D01*
X103896778Y-82451473D01*
X103896774Y-82451476D01*
X103801476Y-82546774D01*
X103801473Y-82546778D01*
X103740279Y-82666878D01*
X103719196Y-82799997D01*
X103719196Y-82800002D01*
X101176918Y-82800002D01*
X101209719Y-82735626D01*
X101226321Y-82630804D01*
X101230804Y-82602502D01*
X101230804Y-82602497D01*
X101209720Y-82469378D01*
X101209719Y-82469376D01*
X101209719Y-82469374D01*
X101148528Y-82349280D01*
X101148526Y-82349278D01*
X101148523Y-82349274D01*
X101053225Y-82253976D01*
X101053221Y-82253973D01*
X101053220Y-82253972D01*
X100933126Y-82192781D01*
X100933124Y-82192780D01*
X100933121Y-82192779D01*
X100800002Y-82171696D01*
X100799998Y-82171696D01*
X100666878Y-82192779D01*
X100546778Y-82253973D01*
X100546774Y-82253976D01*
X100451476Y-82349274D01*
X100451473Y-82349278D01*
X100451472Y-82349280D01*
X100399401Y-82451476D01*
X100390279Y-82469378D01*
X100369196Y-82602497D01*
X100369196Y-82602502D01*
X98030408Y-82602502D01*
X98030804Y-82600002D01*
X98030804Y-82599997D01*
X98009720Y-82466878D01*
X98009719Y-82466876D01*
X98009719Y-82466874D01*
X97948528Y-82346780D01*
X97948526Y-82346778D01*
X97948523Y-82346774D01*
X97853225Y-82251476D01*
X97853221Y-82251473D01*
X97853220Y-82251472D01*
X97790975Y-82219757D01*
X97764470Y-82194724D01*
X97753499Y-82195825D01*
X97738067Y-82191886D01*
X97733124Y-82190280D01*
X97600002Y-82169196D01*
X97599998Y-82169196D01*
X97466878Y-82190279D01*
X97466874Y-82190280D01*
X97466874Y-82190281D01*
X97409020Y-82219759D01*
X97346778Y-82251473D01*
X97346774Y-82251476D01*
X97251476Y-82346774D01*
X97251473Y-82346778D01*
X97190279Y-82466878D01*
X97169196Y-82599997D01*
X97169196Y-82600002D01*
X92152197Y-82600002D01*
X92253220Y-82548528D01*
X92348528Y-82453220D01*
X92409719Y-82333126D01*
X92409720Y-82333121D01*
X92430804Y-82200002D01*
X92430804Y-82199997D01*
X92409720Y-82066878D01*
X92409719Y-82066876D01*
X92409719Y-82066874D01*
X92348528Y-81946780D01*
X92348526Y-81946778D01*
X92348523Y-81946774D01*
X92253225Y-81851476D01*
X92253221Y-81851473D01*
X92253220Y-81851472D01*
X92133126Y-81790281D01*
X92133124Y-81790280D01*
X92133121Y-81790279D01*
X92000002Y-81769196D01*
X91999998Y-81769196D01*
X91866878Y-81790279D01*
X91746778Y-81851473D01*
X91746774Y-81851476D01*
X91651476Y-81946774D01*
X91651473Y-81946778D01*
X91590279Y-82066878D01*
X91569196Y-82199997D01*
X91569196Y-82200002D01*
X90375646Y-82200002D01*
X90348528Y-82146780D01*
X90348526Y-82146778D01*
X90348523Y-82146774D01*
X90253225Y-82051476D01*
X90253221Y-82051473D01*
X90253220Y-82051472D01*
X90133126Y-81990281D01*
X90133124Y-81990280D01*
X90133121Y-81990279D01*
X90000002Y-81969196D01*
X89999998Y-81969196D01*
X89866878Y-81990279D01*
X89746778Y-82051473D01*
X89746774Y-82051476D01*
X89651476Y-82146774D01*
X89651473Y-82146778D01*
X89590279Y-82266878D01*
X89569196Y-82399997D01*
X89569196Y-82400002D01*
X86759084Y-82400002D01*
X86809719Y-82300626D01*
X86822527Y-82219759D01*
X86830804Y-82167502D01*
X86830804Y-82167497D01*
X86809720Y-82034378D01*
X86809719Y-82034376D01*
X86809719Y-82034374D01*
X86748528Y-81914280D01*
X86748526Y-81914278D01*
X86748523Y-81914274D01*
X86653225Y-81818976D01*
X86653221Y-81818973D01*
X86653220Y-81818972D01*
X86533126Y-81757781D01*
X86533124Y-81757780D01*
X86533121Y-81757779D01*
X86400002Y-81736696D01*
X86399998Y-81736696D01*
X86266878Y-81757779D01*
X86146778Y-81818973D01*
X86146774Y-81818976D01*
X86051476Y-81914274D01*
X86051473Y-81914278D01*
X85990279Y-82034378D01*
X85969196Y-82167497D01*
X85969196Y-82167502D01*
X85400500Y-82167502D01*
X85400500Y-81400002D01*
X88969196Y-81400002D01*
X88990279Y-81533121D01*
X88990280Y-81533124D01*
X88990281Y-81533126D01*
X89049251Y-81648861D01*
X89051473Y-81653221D01*
X89051476Y-81653225D01*
X89146774Y-81748523D01*
X89146778Y-81748526D01*
X89146780Y-81748528D01*
X89266874Y-81809719D01*
X89266876Y-81809719D01*
X89266878Y-81809720D01*
X89399998Y-81830804D01*
X89400000Y-81830804D01*
X89400002Y-81830804D01*
X89533121Y-81809720D01*
X89533121Y-81809719D01*
X89533126Y-81809719D01*
X89653220Y-81748528D01*
X89748528Y-81653220D01*
X89775644Y-81600002D01*
X93586705Y-81600002D01*
X93607788Y-81733121D01*
X93607789Y-81733124D01*
X93607790Y-81733126D01*
X93668981Y-81853220D01*
X93668982Y-81853221D01*
X93668985Y-81853225D01*
X93764283Y-81948523D01*
X93764287Y-81948526D01*
X93764289Y-81948528D01*
X93884383Y-82009719D01*
X93884385Y-82009719D01*
X93884387Y-82009720D01*
X94017507Y-82030804D01*
X94017509Y-82030804D01*
X94017511Y-82030804D01*
X94150630Y-82009720D01*
X94150630Y-82009719D01*
X94150635Y-82009719D01*
X94270729Y-81948528D01*
X94366037Y-81853220D01*
X94427228Y-81733126D01*
X94439884Y-81653220D01*
X94448313Y-81600002D01*
X94448313Y-81599997D01*
X94434968Y-81515742D01*
X95020368Y-81515742D01*
X95041451Y-81648861D01*
X95041452Y-81648864D01*
X95041453Y-81648866D01*
X95102644Y-81768960D01*
X95102645Y-81768961D01*
X95102648Y-81768965D01*
X95197946Y-81864263D01*
X95197950Y-81864266D01*
X95197952Y-81864268D01*
X95318046Y-81925459D01*
X95318048Y-81925459D01*
X95318050Y-81925460D01*
X95451170Y-81946544D01*
X95451172Y-81946544D01*
X95451174Y-81946544D01*
X95584293Y-81925460D01*
X95584293Y-81925459D01*
X95584298Y-81925459D01*
X95704392Y-81864268D01*
X95799700Y-81768960D01*
X95860891Y-81648866D01*
X95867910Y-81604548D01*
X95871286Y-81583232D01*
X97592855Y-81583232D01*
X97613938Y-81716351D01*
X97613939Y-81716354D01*
X97613940Y-81716356D01*
X97675131Y-81836450D01*
X97675132Y-81836451D01*
X97675135Y-81836455D01*
X97770433Y-81931753D01*
X97770437Y-81931756D01*
X97770439Y-81931758D01*
X97832681Y-81963471D01*
X97859186Y-81988504D01*
X97870160Y-81987404D01*
X97885596Y-81991345D01*
X97890531Y-81992948D01*
X97890533Y-81992949D01*
X97934908Y-81999977D01*
X98023657Y-82014034D01*
X98023659Y-82014034D01*
X98023661Y-82014034D01*
X98156780Y-81992950D01*
X98156780Y-81992949D01*
X98156785Y-81992949D01*
X98276879Y-81931758D01*
X98372187Y-81836450D01*
X98433378Y-81716356D01*
X98443378Y-81653220D01*
X98454463Y-81583232D01*
X98454463Y-81583227D01*
X98433379Y-81450108D01*
X98433378Y-81450106D01*
X98433378Y-81450104D01*
X98372187Y-81330010D01*
X98372185Y-81330008D01*
X98372182Y-81330004D01*
X98276884Y-81234706D01*
X98276880Y-81234703D01*
X98276879Y-81234702D01*
X98156785Y-81173511D01*
X98156783Y-81173510D01*
X98156780Y-81173509D01*
X98023661Y-81152426D01*
X98023657Y-81152426D01*
X97890537Y-81173509D01*
X97770437Y-81234703D01*
X97770433Y-81234706D01*
X97675135Y-81330004D01*
X97675132Y-81330008D01*
X97613938Y-81450108D01*
X97592855Y-81583227D01*
X97592855Y-81583232D01*
X95871286Y-81583232D01*
X95881976Y-81515742D01*
X95881976Y-81515737D01*
X95860892Y-81382618D01*
X95860891Y-81382616D01*
X95860891Y-81382614D01*
X95799700Y-81262520D01*
X95799698Y-81262518D01*
X95799695Y-81262514D01*
X95704397Y-81167216D01*
X95704393Y-81167213D01*
X95704392Y-81167212D01*
X95584298Y-81106021D01*
X95584296Y-81106020D01*
X95584293Y-81106019D01*
X95451174Y-81084936D01*
X95451170Y-81084936D01*
X95318050Y-81106019D01*
X95197950Y-81167213D01*
X95197946Y-81167216D01*
X95102648Y-81262514D01*
X95102645Y-81262518D01*
X95041451Y-81382618D01*
X95020368Y-81515737D01*
X95020368Y-81515742D01*
X94434968Y-81515742D01*
X94427229Y-81466878D01*
X94427228Y-81466876D01*
X94427228Y-81466874D01*
X94366037Y-81346780D01*
X94366035Y-81346778D01*
X94366032Y-81346774D01*
X94270734Y-81251476D01*
X94270730Y-81251473D01*
X94270729Y-81251472D01*
X94150635Y-81190281D01*
X94150633Y-81190280D01*
X94150630Y-81190279D01*
X94017511Y-81169196D01*
X94017507Y-81169196D01*
X93884387Y-81190279D01*
X93764287Y-81251473D01*
X93764283Y-81251476D01*
X93668985Y-81346774D01*
X93668982Y-81346778D01*
X93607788Y-81466878D01*
X93586705Y-81599997D01*
X93586705Y-81600002D01*
X89775644Y-81600002D01*
X89809719Y-81533126D01*
X89809720Y-81533121D01*
X89830804Y-81400002D01*
X89830804Y-81399997D01*
X89809720Y-81266878D01*
X89809719Y-81266876D01*
X89809719Y-81266874D01*
X89748528Y-81146780D01*
X89748526Y-81146778D01*
X89748523Y-81146774D01*
X89653225Y-81051476D01*
X89653221Y-81051473D01*
X89653220Y-81051472D01*
X89555090Y-81001472D01*
X92419196Y-81001472D01*
X92440279Y-81134591D01*
X92440280Y-81134594D01*
X92440281Y-81134596D01*
X92501472Y-81254690D01*
X92501473Y-81254691D01*
X92501476Y-81254695D01*
X92596774Y-81349993D01*
X92596778Y-81349996D01*
X92596780Y-81349998D01*
X92716874Y-81411189D01*
X92716876Y-81411189D01*
X92716878Y-81411190D01*
X92849998Y-81432274D01*
X92850000Y-81432274D01*
X92850002Y-81432274D01*
X92983121Y-81411190D01*
X92983121Y-81411189D01*
X92983126Y-81411189D01*
X93103220Y-81349998D01*
X93198528Y-81254690D01*
X93259719Y-81134596D01*
X93264245Y-81106019D01*
X93280804Y-81001472D01*
X93280804Y-81001467D01*
X93259720Y-80868348D01*
X93259719Y-80868346D01*
X93259719Y-80868344D01*
X93198528Y-80748250D01*
X93198526Y-80748248D01*
X93198523Y-80748244D01*
X93103225Y-80652946D01*
X93103221Y-80652943D01*
X93103220Y-80652942D01*
X92983126Y-80591751D01*
X92983124Y-80591750D01*
X92983121Y-80591749D01*
X92850002Y-80570666D01*
X92849998Y-80570666D01*
X92716878Y-80591749D01*
X92596778Y-80652943D01*
X92596774Y-80652946D01*
X92501476Y-80748244D01*
X92501473Y-80748248D01*
X92501472Y-80748250D01*
X92451513Y-80846301D01*
X92440279Y-80868348D01*
X92419196Y-81001467D01*
X92419196Y-81001472D01*
X89555090Y-81001472D01*
X89533126Y-80990281D01*
X89533124Y-80990280D01*
X89533121Y-80990279D01*
X89400002Y-80969196D01*
X89399998Y-80969196D01*
X89266878Y-80990279D01*
X89266874Y-80990280D01*
X89266874Y-80990281D01*
X89228725Y-81009719D01*
X89146778Y-81051473D01*
X89146774Y-81051476D01*
X89051476Y-81146774D01*
X89051473Y-81146778D01*
X89051472Y-81146780D01*
X88992500Y-81262520D01*
X88990279Y-81266878D01*
X88969196Y-81399997D01*
X88969196Y-81400002D01*
X85400500Y-81400002D01*
X85400500Y-80433332D01*
X87368896Y-80433332D01*
X87389979Y-80566451D01*
X87389980Y-80566454D01*
X87389981Y-80566456D01*
X87450750Y-80685721D01*
X87451173Y-80686551D01*
X87451176Y-80686555D01*
X87546474Y-80781853D01*
X87546478Y-80781856D01*
X87546480Y-80781858D01*
X87666574Y-80843049D01*
X87666576Y-80843049D01*
X87666578Y-80843050D01*
X87799698Y-80864134D01*
X87799700Y-80864134D01*
X87799702Y-80864134D01*
X87932821Y-80843050D01*
X87932821Y-80843049D01*
X87932826Y-80843049D01*
X88052920Y-80781858D01*
X88148228Y-80686550D01*
X88209419Y-80566456D01*
X88209420Y-80566451D01*
X88230504Y-80433332D01*
X88230504Y-80433327D01*
X88225226Y-80400002D01*
X90569196Y-80400002D01*
X90590279Y-80533121D01*
X90590280Y-80533124D01*
X90590281Y-80533126D01*
X90651436Y-80653149D01*
X90651473Y-80653221D01*
X90651476Y-80653225D01*
X90746774Y-80748523D01*
X90746778Y-80748526D01*
X90746780Y-80748528D01*
X90866874Y-80809719D01*
X90866876Y-80809719D01*
X90866878Y-80809720D01*
X90999998Y-80830804D01*
X91000000Y-80830804D01*
X91000002Y-80830804D01*
X91133121Y-80809720D01*
X91133121Y-80809719D01*
X91133126Y-80809719D01*
X91253220Y-80748528D01*
X91348528Y-80653220D01*
X91409719Y-80533126D01*
X91420212Y-80466878D01*
X91430804Y-80400002D01*
X94369196Y-80400002D01*
X94390279Y-80533121D01*
X94390280Y-80533124D01*
X94390281Y-80533126D01*
X94451436Y-80653149D01*
X94451473Y-80653221D01*
X94451476Y-80653225D01*
X94546774Y-80748523D01*
X94546778Y-80748526D01*
X94546780Y-80748528D01*
X94666874Y-80809719D01*
X94666876Y-80809719D01*
X94666878Y-80809720D01*
X94799998Y-80830804D01*
X94800000Y-80830804D01*
X94800002Y-80830804D01*
X94933121Y-80809720D01*
X94933121Y-80809719D01*
X94933126Y-80809719D01*
X95053220Y-80748528D01*
X95148528Y-80653220D01*
X95175644Y-80600002D01*
X96169196Y-80600002D01*
X96190279Y-80733121D01*
X96190280Y-80733124D01*
X96190281Y-80733126D01*
X96251472Y-80853220D01*
X96251473Y-80853221D01*
X96251476Y-80853225D01*
X96346774Y-80948523D01*
X96346778Y-80948526D01*
X96346780Y-80948528D01*
X96466874Y-81009719D01*
X96466876Y-81009719D01*
X96466878Y-81009720D01*
X96599998Y-81030804D01*
X96600000Y-81030804D01*
X96600002Y-81030804D01*
X96733121Y-81009720D01*
X96733121Y-81009719D01*
X96733126Y-81009719D01*
X96853220Y-80948528D01*
X96948528Y-80853220D01*
X97009719Y-80733126D01*
X97014327Y-80704035D01*
X97025084Y-80636117D01*
X97042204Y-80600002D01*
X99769196Y-80600002D01*
X99790279Y-80733121D01*
X99790280Y-80733124D01*
X99790281Y-80733126D01*
X99851472Y-80853220D01*
X99851473Y-80853221D01*
X99851476Y-80853225D01*
X99946774Y-80948523D01*
X99946778Y-80948526D01*
X99946780Y-80948528D01*
X100066874Y-81009719D01*
X100066876Y-81009719D01*
X100066878Y-81009720D01*
X100199998Y-81030804D01*
X100200000Y-81030804D01*
X100200002Y-81030804D01*
X100333121Y-81009720D01*
X100333121Y-81009719D01*
X100333126Y-81009719D01*
X100453220Y-80948528D01*
X100495370Y-80906377D01*
X101866071Y-80906377D01*
X101887154Y-81039496D01*
X101887155Y-81039499D01*
X101887156Y-81039501D01*
X101948347Y-81159595D01*
X101948348Y-81159596D01*
X101948351Y-81159600D01*
X102043649Y-81254898D01*
X102043653Y-81254901D01*
X102043655Y-81254903D01*
X102163749Y-81316094D01*
X102163751Y-81316094D01*
X102163753Y-81316095D01*
X102296873Y-81337179D01*
X102296875Y-81337179D01*
X102296877Y-81337179D01*
X102429996Y-81316095D01*
X102429996Y-81316094D01*
X102430001Y-81316094D01*
X102550095Y-81254903D01*
X102610168Y-81194830D01*
X108287339Y-81194830D01*
X108308422Y-81327949D01*
X108308423Y-81327952D01*
X108308424Y-81327954D01*
X108350835Y-81411190D01*
X108369616Y-81448049D01*
X108369619Y-81448053D01*
X108464917Y-81543351D01*
X108464921Y-81543354D01*
X108464923Y-81543356D01*
X108585017Y-81604547D01*
X108585019Y-81604547D01*
X108585021Y-81604548D01*
X108718141Y-81625632D01*
X108718143Y-81625632D01*
X108718145Y-81625632D01*
X108851264Y-81604548D01*
X108851264Y-81604547D01*
X108851269Y-81604547D01*
X108971363Y-81543356D01*
X109066671Y-81448048D01*
X109127862Y-81327954D01*
X109129740Y-81316095D01*
X109148947Y-81194830D01*
X109148947Y-81194825D01*
X109127863Y-81061706D01*
X109127862Y-81061704D01*
X109127862Y-81061702D01*
X109066671Y-80941608D01*
X109066669Y-80941606D01*
X109066666Y-80941602D01*
X108971368Y-80846304D01*
X108971364Y-80846301D01*
X108971363Y-80846300D01*
X108851269Y-80785109D01*
X108851267Y-80785108D01*
X108851264Y-80785107D01*
X108718145Y-80764024D01*
X108718141Y-80764024D01*
X108585021Y-80785107D01*
X108464921Y-80846301D01*
X108464917Y-80846304D01*
X108369619Y-80941602D01*
X108369616Y-80941606D01*
X108308422Y-81061706D01*
X108287339Y-81194825D01*
X108287339Y-81194830D01*
X102610168Y-81194830D01*
X102645403Y-81159595D01*
X102706594Y-81039501D01*
X102706595Y-81039496D01*
X102727679Y-80906377D01*
X102727679Y-80906372D01*
X102706595Y-80773253D01*
X102706594Y-80773251D01*
X102706594Y-80773249D01*
X102645403Y-80653155D01*
X102645401Y-80653153D01*
X102645398Y-80653149D01*
X102563160Y-80570911D01*
X111180411Y-80570911D01*
X111201494Y-80704030D01*
X111201495Y-80704033D01*
X111201496Y-80704035D01*
X111262687Y-80824129D01*
X111262688Y-80824130D01*
X111262691Y-80824134D01*
X111357989Y-80919432D01*
X111357993Y-80919435D01*
X111357995Y-80919437D01*
X111478089Y-80980628D01*
X111478091Y-80980628D01*
X111478093Y-80980629D01*
X111611213Y-81001713D01*
X111611215Y-81001713D01*
X111611217Y-81001713D01*
X111744336Y-80980629D01*
X111744336Y-80980628D01*
X111744341Y-80980628D01*
X111864435Y-80919437D01*
X111959743Y-80824129D01*
X112020934Y-80704035D01*
X112023703Y-80686551D01*
X112042019Y-80570911D01*
X112042019Y-80570906D01*
X112020935Y-80437787D01*
X112020934Y-80437785D01*
X112020934Y-80437783D01*
X111959743Y-80317689D01*
X111959741Y-80317687D01*
X111959738Y-80317683D01*
X111864440Y-80222385D01*
X111864436Y-80222382D01*
X111864435Y-80222381D01*
X111744341Y-80161190D01*
X111744339Y-80161189D01*
X111744336Y-80161188D01*
X111611217Y-80140105D01*
X111611213Y-80140105D01*
X111478093Y-80161188D01*
X111357993Y-80222382D01*
X111357989Y-80222385D01*
X111262691Y-80317683D01*
X111262688Y-80317687D01*
X111201494Y-80437787D01*
X111180411Y-80570906D01*
X111180411Y-80570911D01*
X102563160Y-80570911D01*
X102550100Y-80557851D01*
X102550096Y-80557848D01*
X102550095Y-80557847D01*
X102430001Y-80496656D01*
X102429999Y-80496655D01*
X102429996Y-80496654D01*
X102296877Y-80475571D01*
X102296873Y-80475571D01*
X102163753Y-80496654D01*
X102043653Y-80557848D01*
X102043649Y-80557851D01*
X101948351Y-80653149D01*
X101948348Y-80653153D01*
X101887154Y-80773253D01*
X101866071Y-80906372D01*
X101866071Y-80906377D01*
X100495370Y-80906377D01*
X100532124Y-80869623D01*
X100593445Y-80836140D01*
X100658126Y-80839376D01*
X100666870Y-80842217D01*
X100666874Y-80842219D01*
X100666877Y-80842219D01*
X100666879Y-80842220D01*
X100799998Y-80863304D01*
X100800000Y-80863304D01*
X100800002Y-80863304D01*
X100933121Y-80842220D01*
X100933121Y-80842219D01*
X100933126Y-80842219D01*
X101053220Y-80781028D01*
X101148528Y-80685720D01*
X101209719Y-80565626D01*
X101209720Y-80565621D01*
X101230804Y-80432502D01*
X101230804Y-80432497D01*
X101209720Y-80299378D01*
X101209719Y-80299376D01*
X101209719Y-80299374D01*
X101148528Y-80179280D01*
X101148526Y-80179278D01*
X101148523Y-80179274D01*
X101053225Y-80083976D01*
X101053221Y-80083973D01*
X101053220Y-80083972D01*
X100933126Y-80022781D01*
X100933124Y-80022780D01*
X100933121Y-80022779D01*
X100800002Y-80001696D01*
X100799998Y-80001696D01*
X100666878Y-80022779D01*
X100546778Y-80083973D01*
X100546774Y-80083976D01*
X100467876Y-80162875D01*
X100406553Y-80196360D01*
X100341871Y-80193123D01*
X100333121Y-80190279D01*
X100200002Y-80169196D01*
X100199998Y-80169196D01*
X100066878Y-80190279D01*
X99946778Y-80251473D01*
X99946774Y-80251476D01*
X99851476Y-80346774D01*
X99851473Y-80346778D01*
X99790279Y-80466878D01*
X99769196Y-80599997D01*
X99769196Y-80600002D01*
X97042204Y-80600002D01*
X97055013Y-80572982D01*
X97114324Y-80536050D01*
X97128135Y-80533045D01*
X97257248Y-80512596D01*
X97377342Y-80451405D01*
X97472650Y-80356097D01*
X97533841Y-80236003D01*
X97535998Y-80222385D01*
X97554926Y-80102879D01*
X97554926Y-80102874D01*
X97533842Y-79969755D01*
X97533841Y-79969753D01*
X97533841Y-79969751D01*
X97472650Y-79849657D01*
X97472648Y-79849655D01*
X97472645Y-79849651D01*
X97377347Y-79754353D01*
X97377343Y-79754350D01*
X97377342Y-79754349D01*
X97257248Y-79693158D01*
X97257246Y-79693157D01*
X97257243Y-79693156D01*
X97124124Y-79672073D01*
X97124120Y-79672073D01*
X96991000Y-79693156D01*
X96870900Y-79754350D01*
X96870896Y-79754353D01*
X96775598Y-79849651D01*
X96775595Y-79849655D01*
X96714401Y-79969754D01*
X96699037Y-80066761D01*
X96669107Y-80129895D01*
X96609796Y-80166826D01*
X96595962Y-80169835D01*
X96466878Y-80190279D01*
X96346778Y-80251473D01*
X96346774Y-80251476D01*
X96251476Y-80346774D01*
X96251473Y-80346778D01*
X96190279Y-80466878D01*
X96169196Y-80599997D01*
X96169196Y-80600002D01*
X95175644Y-80600002D01*
X95209719Y-80533126D01*
X95220212Y-80466878D01*
X95230804Y-80400002D01*
X95230804Y-80399997D01*
X95209720Y-80266878D01*
X95209719Y-80266876D01*
X95209719Y-80266874D01*
X95148528Y-80146780D01*
X95148526Y-80146778D01*
X95148523Y-80146774D01*
X95053225Y-80051476D01*
X95053221Y-80051473D01*
X95053220Y-80051472D01*
X94933126Y-79990281D01*
X94933124Y-79990280D01*
X94933121Y-79990279D01*
X94800002Y-79969196D01*
X94799998Y-79969196D01*
X94666878Y-79990279D01*
X94546778Y-80051473D01*
X94546774Y-80051476D01*
X94451476Y-80146774D01*
X94451473Y-80146778D01*
X94390279Y-80266878D01*
X94369196Y-80399997D01*
X94369196Y-80400002D01*
X91430804Y-80400002D01*
X91430804Y-80399997D01*
X91409720Y-80266878D01*
X91409719Y-80266876D01*
X91409719Y-80266874D01*
X91348528Y-80146780D01*
X91348526Y-80146778D01*
X91348523Y-80146774D01*
X91253225Y-80051476D01*
X91253221Y-80051473D01*
X91253220Y-80051472D01*
X91133126Y-79990281D01*
X91133124Y-79990280D01*
X91133121Y-79990279D01*
X91000002Y-79969196D01*
X90999998Y-79969196D01*
X90866878Y-79990279D01*
X90746778Y-80051473D01*
X90746774Y-80051476D01*
X90651476Y-80146774D01*
X90651473Y-80146778D01*
X90590279Y-80266878D01*
X90569196Y-80399997D01*
X90569196Y-80400002D01*
X88225226Y-80400002D01*
X88209420Y-80300208D01*
X88209419Y-80300206D01*
X88209419Y-80300204D01*
X88148228Y-80180110D01*
X88148226Y-80180108D01*
X88148223Y-80180104D01*
X88052925Y-80084806D01*
X88052921Y-80084803D01*
X88052920Y-80084802D01*
X87932826Y-80023611D01*
X87932824Y-80023610D01*
X87932821Y-80023609D01*
X87799702Y-80002526D01*
X87799698Y-80002526D01*
X87666578Y-80023609D01*
X87546478Y-80084803D01*
X87546474Y-80084806D01*
X87451176Y-80180104D01*
X87451173Y-80180108D01*
X87451172Y-80180110D01*
X87406964Y-80266874D01*
X87389979Y-80300208D01*
X87368896Y-80433327D01*
X87368896Y-80433332D01*
X85400500Y-80433332D01*
X85400500Y-79151090D01*
X87206827Y-79151090D01*
X87227910Y-79284209D01*
X87227911Y-79284212D01*
X87227912Y-79284214D01*
X87252834Y-79333126D01*
X87289104Y-79404309D01*
X87289107Y-79404313D01*
X87384405Y-79499611D01*
X87384409Y-79499614D01*
X87384411Y-79499616D01*
X87504505Y-79560807D01*
X87504507Y-79560807D01*
X87504509Y-79560808D01*
X87637629Y-79581892D01*
X87637631Y-79581892D01*
X87637633Y-79581892D01*
X87770752Y-79560808D01*
X87770752Y-79560807D01*
X87770757Y-79560807D01*
X87890851Y-79499616D01*
X87986159Y-79404308D01*
X88047350Y-79284214D01*
X88047351Y-79284209D01*
X88060688Y-79200002D01*
X97369196Y-79200002D01*
X97390279Y-79333121D01*
X97390280Y-79333124D01*
X97390281Y-79333126D01*
X97451472Y-79453220D01*
X97451473Y-79453221D01*
X97451476Y-79453225D01*
X97546774Y-79548523D01*
X97546778Y-79548526D01*
X97546780Y-79548528D01*
X97666874Y-79609719D01*
X97666876Y-79609719D01*
X97666878Y-79609720D01*
X97799998Y-79630804D01*
X97800000Y-79630804D01*
X97800002Y-79630804D01*
X97933121Y-79609720D01*
X97933121Y-79609719D01*
X97933126Y-79609719D01*
X98053220Y-79548528D01*
X98148528Y-79453220D01*
X98209719Y-79333126D01*
X98209719Y-79333121D01*
X98209721Y-79333119D01*
X98212737Y-79323840D01*
X98214561Y-79324432D01*
X98239281Y-79272278D01*
X98298590Y-79235343D01*
X98331831Y-79230804D01*
X98332502Y-79230804D01*
X98465621Y-79209720D01*
X98465621Y-79209719D01*
X98465626Y-79209719D01*
X98585720Y-79148528D01*
X98681028Y-79053220D01*
X98742219Y-78933126D01*
X98744568Y-78918298D01*
X98763304Y-78800002D01*
X98763304Y-78799997D01*
X98742220Y-78666878D01*
X98742219Y-78666876D01*
X98742219Y-78666874D01*
X98681028Y-78546780D01*
X98681026Y-78546778D01*
X98681023Y-78546774D01*
X98585725Y-78451476D01*
X98585721Y-78451473D01*
X98585720Y-78451472D01*
X98505275Y-78410483D01*
X98454481Y-78362511D01*
X98437686Y-78294690D01*
X98460223Y-78228555D01*
X98493173Y-78200002D01*
X101294196Y-78200002D01*
X101315279Y-78333121D01*
X101315280Y-78333124D01*
X101315281Y-78333126D01*
X101376472Y-78453220D01*
X101376473Y-78453221D01*
X101376476Y-78453225D01*
X101471774Y-78548523D01*
X101471778Y-78548526D01*
X101471780Y-78548528D01*
X101591874Y-78609719D01*
X101591876Y-78609719D01*
X101591878Y-78609720D01*
X101724998Y-78630804D01*
X101725000Y-78630804D01*
X101725002Y-78630804D01*
X101858121Y-78609720D01*
X101858121Y-78609719D01*
X101858126Y-78609719D01*
X101978220Y-78548528D01*
X102073528Y-78453220D01*
X102134719Y-78333126D01*
X102134720Y-78333121D01*
X102155804Y-78200002D01*
X102969196Y-78200002D01*
X102990279Y-78333121D01*
X102990280Y-78333124D01*
X102990281Y-78333126D01*
X103051472Y-78453220D01*
X103051473Y-78453221D01*
X103051476Y-78453225D01*
X103146774Y-78548523D01*
X103146778Y-78548526D01*
X103146780Y-78548528D01*
X103266874Y-78609719D01*
X103266876Y-78609719D01*
X103266878Y-78609720D01*
X103399998Y-78630804D01*
X103400000Y-78630804D01*
X103400002Y-78630804D01*
X103533121Y-78609720D01*
X103533121Y-78609719D01*
X103533126Y-78609719D01*
X103552197Y-78600002D01*
X104719196Y-78600002D01*
X104740279Y-78733121D01*
X104740280Y-78733124D01*
X104740281Y-78733126D01*
X104801472Y-78853220D01*
X104801473Y-78853221D01*
X104801476Y-78853225D01*
X104896774Y-78948523D01*
X104896778Y-78948526D01*
X104896780Y-78948528D01*
X105016874Y-79009719D01*
X105016876Y-79009719D01*
X105016878Y-79009720D01*
X105149998Y-79030804D01*
X105150000Y-79030804D01*
X105150002Y-79030804D01*
X105229138Y-79018270D01*
X105298431Y-79027225D01*
X105351883Y-79072221D01*
X105372523Y-79138972D01*
X105371010Y-79160138D01*
X105369207Y-79171523D01*
X105369207Y-79171526D01*
X105390290Y-79304645D01*
X105390291Y-79304648D01*
X105390292Y-79304650D01*
X105441071Y-79404309D01*
X105451484Y-79424745D01*
X105451487Y-79424749D01*
X105546785Y-79520047D01*
X105546789Y-79520050D01*
X105546791Y-79520052D01*
X105666885Y-79581243D01*
X105666887Y-79581243D01*
X105666889Y-79581244D01*
X105800009Y-79602328D01*
X105800011Y-79602328D01*
X105800013Y-79602328D01*
X105933132Y-79581244D01*
X105933132Y-79581243D01*
X105933137Y-79581243D01*
X106053231Y-79520052D01*
X106148539Y-79424744D01*
X106209730Y-79304650D01*
X106224034Y-79214337D01*
X106230815Y-79171526D01*
X106230815Y-79171521D01*
X106209731Y-79038402D01*
X106209730Y-79038400D01*
X106209730Y-79038398D01*
X106148539Y-78918304D01*
X106148537Y-78918302D01*
X106148534Y-78918298D01*
X106053236Y-78823000D01*
X106053232Y-78822997D01*
X106053231Y-78822996D01*
X105933137Y-78761805D01*
X105933135Y-78761804D01*
X105933132Y-78761803D01*
X105800013Y-78740720D01*
X105800012Y-78740720D01*
X105800011Y-78740720D01*
X105784530Y-78743171D01*
X105720870Y-78753254D01*
X105651577Y-78744298D01*
X105598126Y-78699301D01*
X105577487Y-78632549D01*
X105579000Y-78611387D01*
X105580804Y-78600000D01*
X105572885Y-78550004D01*
X110931697Y-78550004D01*
X110952780Y-78683123D01*
X110952781Y-78683126D01*
X110952782Y-78683128D01*
X111013638Y-78802564D01*
X111013974Y-78803223D01*
X111013977Y-78803227D01*
X111109275Y-78898525D01*
X111109279Y-78898528D01*
X111109281Y-78898530D01*
X111229375Y-78959721D01*
X111229377Y-78959721D01*
X111229379Y-78959722D01*
X111362499Y-78980806D01*
X111362501Y-78980806D01*
X111362503Y-78980806D01*
X111495622Y-78959722D01*
X111495622Y-78959721D01*
X111495627Y-78959721D01*
X111615721Y-78898530D01*
X111711029Y-78803222D01*
X111772220Y-78683128D01*
X111774794Y-78666878D01*
X111793305Y-78550004D01*
X111793305Y-78549999D01*
X111772221Y-78416880D01*
X111772220Y-78416878D01*
X111772220Y-78416876D01*
X111711029Y-78296782D01*
X111711027Y-78296780D01*
X111711024Y-78296776D01*
X111615726Y-78201478D01*
X111615722Y-78201475D01*
X111615721Y-78201474D01*
X111495627Y-78140283D01*
X111495625Y-78140282D01*
X111495622Y-78140281D01*
X111362503Y-78119198D01*
X111362499Y-78119198D01*
X111229379Y-78140281D01*
X111109279Y-78201475D01*
X111109275Y-78201478D01*
X111013977Y-78296776D01*
X111013974Y-78296780D01*
X110952780Y-78416880D01*
X110931697Y-78549999D01*
X110931697Y-78550004D01*
X105572885Y-78550004D01*
X105559720Y-78466878D01*
X105559719Y-78466876D01*
X105559719Y-78466874D01*
X105498528Y-78346780D01*
X105498526Y-78346778D01*
X105498523Y-78346774D01*
X105403225Y-78251476D01*
X105403221Y-78251473D01*
X105403220Y-78251472D01*
X105283126Y-78190281D01*
X105283124Y-78190280D01*
X105283121Y-78190279D01*
X105150002Y-78169196D01*
X105149998Y-78169196D01*
X105016878Y-78190279D01*
X105016874Y-78190280D01*
X105016874Y-78190281D01*
X104994907Y-78201474D01*
X104896778Y-78251473D01*
X104896774Y-78251476D01*
X104801476Y-78346774D01*
X104801473Y-78346778D01*
X104740279Y-78466878D01*
X104719196Y-78599997D01*
X104719196Y-78600002D01*
X103552197Y-78600002D01*
X103653220Y-78548528D01*
X103748528Y-78453220D01*
X103809719Y-78333126D01*
X103809720Y-78333121D01*
X103830804Y-78200002D01*
X103830804Y-78199997D01*
X103809720Y-78066878D01*
X103809719Y-78066876D01*
X103809719Y-78066874D01*
X103748528Y-77946780D01*
X103748526Y-77946778D01*
X103748523Y-77946774D01*
X103653225Y-77851476D01*
X103653221Y-77851473D01*
X103653220Y-77851472D01*
X103533126Y-77790281D01*
X103533124Y-77790280D01*
X103533121Y-77790279D01*
X103400002Y-77769196D01*
X103399998Y-77769196D01*
X103266878Y-77790279D01*
X103266874Y-77790280D01*
X103266874Y-77790281D01*
X103195064Y-77826870D01*
X103146778Y-77851473D01*
X103146774Y-77851476D01*
X103051476Y-77946774D01*
X103051473Y-77946778D01*
X102990279Y-78066878D01*
X102969196Y-78199997D01*
X102969196Y-78200002D01*
X102155804Y-78200002D01*
X102155804Y-78199997D01*
X102134720Y-78066878D01*
X102134719Y-78066876D01*
X102134719Y-78066874D01*
X102073528Y-77946780D01*
X102073526Y-77946778D01*
X102073523Y-77946774D01*
X101978225Y-77851476D01*
X101978221Y-77851473D01*
X101978220Y-77851472D01*
X101858126Y-77790281D01*
X101858124Y-77790280D01*
X101858121Y-77790279D01*
X101725002Y-77769196D01*
X101724998Y-77769196D01*
X101591878Y-77790279D01*
X101591874Y-77790280D01*
X101591874Y-77790281D01*
X101520064Y-77826870D01*
X101471778Y-77851473D01*
X101471774Y-77851476D01*
X101376476Y-77946774D01*
X101376473Y-77946778D01*
X101315279Y-78066878D01*
X101294196Y-78199997D01*
X101294196Y-78200002D01*
X98493173Y-78200002D01*
X98505274Y-78189516D01*
X98585720Y-78148528D01*
X98681028Y-78053220D01*
X98742219Y-77933126D01*
X98742220Y-77933121D01*
X98763304Y-77800002D01*
X98763304Y-77799997D01*
X98742220Y-77666878D01*
X98742219Y-77666876D01*
X98742219Y-77666874D01*
X98681028Y-77546780D01*
X98681026Y-77546778D01*
X98681023Y-77546774D01*
X98585725Y-77451476D01*
X98585721Y-77451473D01*
X98585720Y-77451472D01*
X98465626Y-77390281D01*
X98465624Y-77390280D01*
X98465621Y-77390279D01*
X98332502Y-77369196D01*
X98332498Y-77369196D01*
X98199378Y-77390279D01*
X98079278Y-77451473D01*
X98079274Y-77451476D01*
X97983976Y-77546774D01*
X97983973Y-77546778D01*
X97922779Y-77666878D01*
X97901696Y-77799997D01*
X97901696Y-77800000D01*
X97905952Y-77826870D01*
X97896996Y-77896163D01*
X97851999Y-77949615D01*
X97802876Y-77968740D01*
X97666878Y-77990279D01*
X97666874Y-77990280D01*
X97666874Y-77990281D01*
X97658445Y-77994576D01*
X97546778Y-78051473D01*
X97546774Y-78051476D01*
X97451476Y-78146774D01*
X97451473Y-78146778D01*
X97390279Y-78266878D01*
X97369196Y-78399997D01*
X97369196Y-78400002D01*
X97390279Y-78533121D01*
X97390280Y-78533124D01*
X97390281Y-78533126D01*
X97440940Y-78632549D01*
X97451473Y-78653221D01*
X97451476Y-78653225D01*
X97510570Y-78712319D01*
X97544055Y-78773642D01*
X97539071Y-78843334D01*
X97510570Y-78887681D01*
X97451476Y-78946774D01*
X97451473Y-78946778D01*
X97390279Y-79066878D01*
X97369196Y-79199997D01*
X97369196Y-79200002D01*
X88060688Y-79200002D01*
X88068435Y-79151090D01*
X88068435Y-79151085D01*
X88047351Y-79017966D01*
X88047350Y-79017964D01*
X88047350Y-79017962D01*
X87986159Y-78897868D01*
X87986157Y-78897866D01*
X87986154Y-78897862D01*
X87890856Y-78802564D01*
X87890852Y-78802561D01*
X87890851Y-78802560D01*
X87770757Y-78741369D01*
X87770755Y-78741368D01*
X87770752Y-78741367D01*
X87637633Y-78720284D01*
X87637629Y-78720284D01*
X87504509Y-78741367D01*
X87384409Y-78802561D01*
X87384405Y-78802564D01*
X87289107Y-78897862D01*
X87289104Y-78897866D01*
X87227910Y-79017966D01*
X87206827Y-79151085D01*
X87206827Y-79151090D01*
X85400500Y-79151090D01*
X85400500Y-77741353D01*
X87952439Y-77741353D01*
X87973522Y-77874472D01*
X87973523Y-77874475D01*
X87973524Y-77874477D01*
X88034715Y-77994571D01*
X88034716Y-77994572D01*
X88034719Y-77994576D01*
X88130017Y-78089874D01*
X88130021Y-78089877D01*
X88130023Y-78089879D01*
X88250117Y-78151070D01*
X88250119Y-78151070D01*
X88250121Y-78151071D01*
X88383241Y-78172155D01*
X88383243Y-78172155D01*
X88383245Y-78172155D01*
X88516364Y-78151071D01*
X88516364Y-78151070D01*
X88516369Y-78151070D01*
X88636463Y-78089879D01*
X88731771Y-77994571D01*
X88792962Y-77874477D01*
X88796605Y-77851476D01*
X88814047Y-77741353D01*
X88814047Y-77741348D01*
X88792963Y-77608229D01*
X88792962Y-77608227D01*
X88792962Y-77608225D01*
X88731771Y-77488131D01*
X88731769Y-77488129D01*
X88731766Y-77488125D01*
X88636468Y-77392827D01*
X88636464Y-77392824D01*
X88636463Y-77392823D01*
X88586768Y-77367502D01*
X93369196Y-77367502D01*
X93390279Y-77500621D01*
X93390280Y-77500624D01*
X93390281Y-77500626D01*
X93445108Y-77608229D01*
X93451473Y-77620721D01*
X93451476Y-77620725D01*
X93546774Y-77716023D01*
X93546778Y-77716026D01*
X93546780Y-77716028D01*
X93666874Y-77777219D01*
X93666876Y-77777219D01*
X93666878Y-77777220D01*
X93799998Y-77798304D01*
X93800000Y-77798304D01*
X93800002Y-77798304D01*
X93933121Y-77777220D01*
X93933121Y-77777219D01*
X93933126Y-77777219D01*
X94053220Y-77716028D01*
X94148528Y-77620720D01*
X94209719Y-77500626D01*
X94211698Y-77488131D01*
X94230804Y-77367502D01*
X94230804Y-77367497D01*
X94209720Y-77234378D01*
X94209719Y-77234376D01*
X94209719Y-77234374D01*
X94148528Y-77114280D01*
X94148526Y-77114278D01*
X94148523Y-77114274D01*
X94053225Y-77018976D01*
X94053221Y-77018973D01*
X94053220Y-77018972D01*
X93933126Y-76957781D01*
X93933124Y-76957780D01*
X93933121Y-76957779D01*
X93800002Y-76936696D01*
X93799998Y-76936696D01*
X93666878Y-76957779D01*
X93546778Y-77018973D01*
X93546774Y-77018976D01*
X93451476Y-77114274D01*
X93451473Y-77114278D01*
X93390279Y-77234378D01*
X93369196Y-77367497D01*
X93369196Y-77367502D01*
X88586768Y-77367502D01*
X88516369Y-77331632D01*
X88516367Y-77331631D01*
X88516364Y-77331630D01*
X88383245Y-77310547D01*
X88383241Y-77310547D01*
X88250121Y-77331630D01*
X88130021Y-77392824D01*
X88130017Y-77392827D01*
X88034719Y-77488125D01*
X88034716Y-77488129D01*
X87973522Y-77608229D01*
X87952439Y-77741348D01*
X87952439Y-77741353D01*
X85400500Y-77741353D01*
X85400500Y-76800002D01*
X103794196Y-76800002D01*
X103815279Y-76933121D01*
X103815280Y-76933124D01*
X103815281Y-76933126D01*
X103859024Y-77018976D01*
X103876473Y-77053221D01*
X103876476Y-77053225D01*
X103971774Y-77148523D01*
X103971778Y-77148526D01*
X103971780Y-77148528D01*
X104091874Y-77209719D01*
X104091876Y-77209719D01*
X104091878Y-77209720D01*
X104224998Y-77230804D01*
X104225000Y-77230804D01*
X104225002Y-77230804D01*
X104358121Y-77209720D01*
X104358121Y-77209719D01*
X104358126Y-77209719D01*
X104478220Y-77148528D01*
X104573528Y-77053220D01*
X104634719Y-76933126D01*
X104655804Y-76800000D01*
X104647651Y-76748526D01*
X104634720Y-76666878D01*
X104634719Y-76666876D01*
X104634719Y-76666874D01*
X104573528Y-76546780D01*
X104573526Y-76546778D01*
X104573523Y-76546774D01*
X104478225Y-76451476D01*
X104478221Y-76451473D01*
X104478220Y-76451472D01*
X104377205Y-76400002D01*
X105044196Y-76400002D01*
X105065279Y-76533121D01*
X105065280Y-76533124D01*
X105065281Y-76533126D01*
X105126472Y-76653220D01*
X105126473Y-76653221D01*
X105126476Y-76653225D01*
X105221774Y-76748523D01*
X105221778Y-76748526D01*
X105221780Y-76748528D01*
X105341874Y-76809719D01*
X105341876Y-76809719D01*
X105341878Y-76809720D01*
X105474998Y-76830804D01*
X105475000Y-76830804D01*
X105475002Y-76830804D01*
X105608121Y-76809720D01*
X105608121Y-76809719D01*
X105608126Y-76809719D01*
X105728220Y-76748528D01*
X105823528Y-76653220D01*
X105884719Y-76533126D01*
X105905804Y-76400000D01*
X105904264Y-76390279D01*
X105884720Y-76266878D01*
X105884719Y-76266876D01*
X105884719Y-76266874D01*
X105823528Y-76146780D01*
X105823526Y-76146778D01*
X105823523Y-76146774D01*
X105728225Y-76051476D01*
X105728221Y-76051473D01*
X105728220Y-76051472D01*
X105608126Y-75990281D01*
X105608124Y-75990280D01*
X105608121Y-75990279D01*
X105475002Y-75969196D01*
X105474998Y-75969196D01*
X105341878Y-75990279D01*
X105221778Y-76051473D01*
X105221774Y-76051476D01*
X105126476Y-76146774D01*
X105126473Y-76146778D01*
X105065279Y-76266878D01*
X105044196Y-76399997D01*
X105044196Y-76400002D01*
X104377205Y-76400002D01*
X104358126Y-76390281D01*
X104358124Y-76390280D01*
X104358121Y-76390279D01*
X104225002Y-76369196D01*
X104224998Y-76369196D01*
X104091878Y-76390279D01*
X104091874Y-76390280D01*
X104091874Y-76390281D01*
X104011811Y-76431075D01*
X103971778Y-76451473D01*
X103971774Y-76451476D01*
X103876476Y-76546774D01*
X103876473Y-76546778D01*
X103815279Y-76666878D01*
X103794196Y-76799997D01*
X103794196Y-76800002D01*
X85400500Y-76800002D01*
X85400500Y-75800002D01*
X110569196Y-75800002D01*
X110590279Y-75933121D01*
X110590280Y-75933124D01*
X110590281Y-75933126D01*
X110651472Y-76053220D01*
X110651473Y-76053221D01*
X110651476Y-76053225D01*
X110746774Y-76148523D01*
X110746778Y-76148526D01*
X110746780Y-76148528D01*
X110866874Y-76209719D01*
X110866876Y-76209719D01*
X110866878Y-76209720D01*
X110999998Y-76230804D01*
X111000000Y-76230804D01*
X111000002Y-76230804D01*
X111133121Y-76209720D01*
X111133121Y-76209719D01*
X111133126Y-76209719D01*
X111253220Y-76148528D01*
X111348528Y-76053220D01*
X111409719Y-75933126D01*
X111430804Y-75800000D01*
X111423804Y-75755804D01*
X111409720Y-75666878D01*
X111409719Y-75666876D01*
X111409719Y-75666874D01*
X111348528Y-75546780D01*
X111348526Y-75546778D01*
X111348523Y-75546774D01*
X111253225Y-75451476D01*
X111253221Y-75451473D01*
X111253220Y-75451472D01*
X111133126Y-75390281D01*
X111133124Y-75390280D01*
X111133121Y-75390279D01*
X111000002Y-75369196D01*
X110999998Y-75369196D01*
X110866878Y-75390279D01*
X110866874Y-75390280D01*
X110866874Y-75390281D01*
X110819228Y-75414558D01*
X110746778Y-75451473D01*
X110746774Y-75451476D01*
X110651476Y-75546774D01*
X110651473Y-75546778D01*
X110590279Y-75666878D01*
X110569196Y-75799997D01*
X110569196Y-75800002D01*
X85400500Y-75800002D01*
X85400500Y-75708843D01*
X85420185Y-75641804D01*
X85472989Y-75596049D01*
X85542147Y-75586105D01*
X85580792Y-75598358D01*
X85666874Y-75642219D01*
X85711249Y-75649247D01*
X85799998Y-75663304D01*
X85800000Y-75663304D01*
X85800002Y-75663304D01*
X85933121Y-75642220D01*
X85933121Y-75642219D01*
X85933126Y-75642219D01*
X86026535Y-75594624D01*
X86095201Y-75581729D01*
X86139122Y-75594625D01*
X86146777Y-75598525D01*
X86146780Y-75598528D01*
X86266874Y-75659719D01*
X86266876Y-75659719D01*
X86266878Y-75659720D01*
X86399998Y-75680804D01*
X86400000Y-75680804D01*
X86400002Y-75680804D01*
X86533121Y-75659720D01*
X86533121Y-75659719D01*
X86533126Y-75659719D01*
X86653220Y-75598528D01*
X86653222Y-75598525D01*
X86656203Y-75597007D01*
X86724872Y-75584111D01*
X86768793Y-75597007D01*
X86771775Y-75598526D01*
X86771777Y-75598528D01*
X86891871Y-75659719D01*
X86891873Y-75659719D01*
X86891875Y-75659720D01*
X87024995Y-75680804D01*
X87024997Y-75680804D01*
X87024999Y-75680804D01*
X87158119Y-75659720D01*
X87158120Y-75659719D01*
X87158123Y-75659719D01*
X87256205Y-75609743D01*
X87324872Y-75596847D01*
X87368787Y-75609741D01*
X87466874Y-75659719D01*
X87466876Y-75659719D01*
X87466878Y-75659720D01*
X87599998Y-75680804D01*
X87600000Y-75680804D01*
X87600002Y-75680804D01*
X87733121Y-75659720D01*
X87733121Y-75659719D01*
X87733126Y-75659719D01*
X87853220Y-75598528D01*
X87948528Y-75503220D01*
X88009719Y-75383126D01*
X88010774Y-75376465D01*
X88030804Y-75250002D01*
X88769196Y-75250002D01*
X88790279Y-75383121D01*
X88790280Y-75383124D01*
X88790281Y-75383126D01*
X88845407Y-75491316D01*
X88851473Y-75503221D01*
X88851476Y-75503225D01*
X88946774Y-75598523D01*
X88946778Y-75598526D01*
X88946780Y-75598528D01*
X89066874Y-75659719D01*
X89066876Y-75659719D01*
X89066878Y-75659720D01*
X89199998Y-75680804D01*
X89200000Y-75680804D01*
X89200002Y-75680804D01*
X89333121Y-75659720D01*
X89333121Y-75659719D01*
X89333126Y-75659719D01*
X89443708Y-75603374D01*
X89512374Y-75590479D01*
X89556289Y-75603373D01*
X89666874Y-75659719D01*
X89666876Y-75659719D01*
X89666878Y-75659720D01*
X89799998Y-75680804D01*
X89800000Y-75680804D01*
X89800002Y-75680804D01*
X89933121Y-75659720D01*
X89933121Y-75659719D01*
X89933126Y-75659719D01*
X90053220Y-75598528D01*
X90148528Y-75503220D01*
X90209719Y-75383126D01*
X90210774Y-75376465D01*
X90230804Y-75250002D01*
X90230804Y-75249997D01*
X90222886Y-75200002D01*
X92369196Y-75200002D01*
X92390279Y-75333121D01*
X92390280Y-75333124D01*
X92390281Y-75333126D01*
X92451472Y-75453220D01*
X92451473Y-75453221D01*
X92451476Y-75453225D01*
X92546774Y-75548523D01*
X92546778Y-75548526D01*
X92546780Y-75548528D01*
X92666874Y-75609719D01*
X92666876Y-75609719D01*
X92666878Y-75609720D01*
X92799998Y-75630804D01*
X92800000Y-75630804D01*
X92800002Y-75630804D01*
X92933121Y-75609720D01*
X92933121Y-75609719D01*
X92933126Y-75609719D01*
X93053220Y-75548528D01*
X93148528Y-75453220D01*
X93209719Y-75333126D01*
X93211007Y-75324997D01*
X93216576Y-75289836D01*
X93246505Y-75226701D01*
X93305816Y-75189769D01*
X93375679Y-75190767D01*
X93395335Y-75198744D01*
X93416874Y-75209719D01*
X93416876Y-75209719D01*
X93416878Y-75209720D01*
X93549998Y-75230804D01*
X93550000Y-75230804D01*
X93550002Y-75230804D01*
X93683121Y-75209720D01*
X93683121Y-75209719D01*
X93683126Y-75209719D01*
X93803220Y-75148528D01*
X93898528Y-75053220D01*
X93959719Y-74933126D01*
X93959720Y-74933121D01*
X93980804Y-74800002D01*
X93980804Y-74799997D01*
X93959720Y-74666878D01*
X93959719Y-74666876D01*
X93959719Y-74666874D01*
X93925646Y-74600002D01*
X100369196Y-74600002D01*
X100390279Y-74733121D01*
X100390280Y-74733124D01*
X100390281Y-74733126D01*
X100451472Y-74853220D01*
X100451473Y-74853221D01*
X100451476Y-74853225D01*
X100546774Y-74948523D01*
X100546778Y-74948526D01*
X100546780Y-74948528D01*
X100666874Y-75009719D01*
X100666876Y-75009719D01*
X100666878Y-75009720D01*
X100698376Y-75014709D01*
X100761511Y-75044638D01*
X100798443Y-75103949D01*
X100797445Y-75173811D01*
X100790942Y-75189837D01*
X100790280Y-75191875D01*
X100769196Y-75324997D01*
X100769196Y-75325002D01*
X100790279Y-75458121D01*
X100790280Y-75458124D01*
X100790281Y-75458126D01*
X100837984Y-75551748D01*
X100851473Y-75578221D01*
X100851476Y-75578225D01*
X100946774Y-75673523D01*
X100946778Y-75673526D01*
X100946780Y-75673528D01*
X101066874Y-75734719D01*
X101066876Y-75734719D01*
X101066878Y-75734720D01*
X101199998Y-75755804D01*
X101200000Y-75755804D01*
X101200002Y-75755804D01*
X101333121Y-75734720D01*
X101333121Y-75734719D01*
X101333126Y-75734719D01*
X101453220Y-75673528D01*
X101548528Y-75578220D01*
X101609719Y-75458126D01*
X101612007Y-75443683D01*
X101630804Y-75325002D01*
X101630804Y-75324997D01*
X101609720Y-75191878D01*
X101609719Y-75191876D01*
X101609719Y-75191874D01*
X101548528Y-75071780D01*
X101548526Y-75071778D01*
X101548523Y-75071774D01*
X101526754Y-75050005D01*
X109369196Y-75050005D01*
X109390279Y-75183124D01*
X109390280Y-75183127D01*
X109390281Y-75183129D01*
X109444651Y-75289836D01*
X109451473Y-75303224D01*
X109451476Y-75303228D01*
X109546774Y-75398526D01*
X109546778Y-75398529D01*
X109546780Y-75398531D01*
X109666874Y-75459722D01*
X109666876Y-75459722D01*
X109666878Y-75459723D01*
X109799998Y-75480807D01*
X109800000Y-75480807D01*
X109800002Y-75480807D01*
X109933121Y-75459723D01*
X109933121Y-75459722D01*
X109933126Y-75459722D01*
X110053220Y-75398531D01*
X110148528Y-75303223D01*
X110209719Y-75183129D01*
X110217342Y-75135002D01*
X112706696Y-75135002D01*
X112727779Y-75268121D01*
X112727780Y-75268124D01*
X112727781Y-75268126D01*
X112788972Y-75388220D01*
X112788973Y-75388221D01*
X112788976Y-75388225D01*
X112815309Y-75414558D01*
X112848794Y-75475881D01*
X112843810Y-75545573D01*
X112838113Y-75558533D01*
X112782909Y-75666876D01*
X112761826Y-75799997D01*
X112761826Y-75800002D01*
X112782909Y-75933121D01*
X112782910Y-75933124D01*
X112782911Y-75933126D01*
X112844102Y-76053220D01*
X112844103Y-76053221D01*
X112844106Y-76053225D01*
X112939404Y-76148523D01*
X112939408Y-76148526D01*
X112939410Y-76148528D01*
X113059504Y-76209719D01*
X113059506Y-76209719D01*
X113059508Y-76209720D01*
X113192628Y-76230804D01*
X113192630Y-76230804D01*
X113192632Y-76230804D01*
X113325751Y-76209720D01*
X113325751Y-76209719D01*
X113325756Y-76209719D01*
X113445850Y-76148528D01*
X113541158Y-76053220D01*
X113602349Y-75933126D01*
X113623434Y-75800000D01*
X113616434Y-75755804D01*
X113602350Y-75666878D01*
X113602349Y-75666876D01*
X113602349Y-75666874D01*
X113541158Y-75546780D01*
X113541156Y-75546778D01*
X113541153Y-75546774D01*
X113514820Y-75520441D01*
X113481335Y-75459118D01*
X113486319Y-75389426D01*
X113492006Y-75376486D01*
X113547219Y-75268126D01*
X113550090Y-75250000D01*
X113568304Y-75135002D01*
X113568304Y-75134997D01*
X113547220Y-75001878D01*
X113547219Y-75001876D01*
X113547219Y-75001874D01*
X113486028Y-74881780D01*
X113486026Y-74881778D01*
X113486023Y-74881774D01*
X113390725Y-74786476D01*
X113390721Y-74786473D01*
X113390720Y-74786472D01*
X113270626Y-74725281D01*
X113270624Y-74725280D01*
X113270621Y-74725279D01*
X113137502Y-74704196D01*
X113137498Y-74704196D01*
X113004378Y-74725279D01*
X112884278Y-74786473D01*
X112884274Y-74786476D01*
X112788976Y-74881774D01*
X112788973Y-74881778D01*
X112788972Y-74881780D01*
X112735189Y-74987336D01*
X112727779Y-75001878D01*
X112706696Y-75134997D01*
X112706696Y-75135002D01*
X110217342Y-75135002D01*
X110217342Y-75135000D01*
X110230804Y-75050005D01*
X110230804Y-75050000D01*
X110209720Y-74916881D01*
X110209719Y-74916879D01*
X110209719Y-74916877D01*
X110148528Y-74796783D01*
X110148526Y-74796781D01*
X110148523Y-74796777D01*
X110053225Y-74701479D01*
X110053221Y-74701476D01*
X110053220Y-74701475D01*
X109933126Y-74640284D01*
X109933124Y-74640283D01*
X109933121Y-74640282D01*
X109800002Y-74619199D01*
X109799998Y-74619199D01*
X109666878Y-74640282D01*
X109546778Y-74701476D01*
X109546774Y-74701479D01*
X109451476Y-74796777D01*
X109451473Y-74796781D01*
X109390279Y-74916881D01*
X109369196Y-75050000D01*
X109369196Y-75050005D01*
X101526754Y-75050005D01*
X101453225Y-74976476D01*
X101453221Y-74976473D01*
X101453220Y-74976472D01*
X101333126Y-74915281D01*
X101333125Y-74915280D01*
X101333122Y-74915279D01*
X101301620Y-74910290D01*
X101238486Y-74880360D01*
X101201556Y-74821048D01*
X101202554Y-74751185D01*
X101209055Y-74735169D01*
X101209717Y-74733129D01*
X101209719Y-74733126D01*
X101224424Y-74640282D01*
X101230804Y-74600002D01*
X105044196Y-74600002D01*
X105065279Y-74733121D01*
X105065280Y-74733124D01*
X105065281Y-74733126D01*
X105126472Y-74853220D01*
X105126473Y-74853221D01*
X105126476Y-74853225D01*
X105221774Y-74948523D01*
X105221778Y-74948526D01*
X105221780Y-74948528D01*
X105341874Y-75009719D01*
X105341876Y-75009719D01*
X105341878Y-75009720D01*
X105474998Y-75030804D01*
X105475000Y-75030804D01*
X105475002Y-75030804D01*
X105608121Y-75009720D01*
X105608121Y-75009719D01*
X105608126Y-75009719D01*
X105728220Y-74948528D01*
X105823528Y-74853220D01*
X105884719Y-74733126D01*
X105885962Y-74725279D01*
X105905804Y-74600002D01*
X105905804Y-74599997D01*
X105889966Y-74500002D01*
X108269196Y-74500002D01*
X108290279Y-74633121D01*
X108290280Y-74633124D01*
X108290281Y-74633126D01*
X108351472Y-74753220D01*
X108351473Y-74753221D01*
X108351476Y-74753225D01*
X108446774Y-74848523D01*
X108446778Y-74848526D01*
X108446780Y-74848528D01*
X108566874Y-74909719D01*
X108566876Y-74909719D01*
X108566878Y-74909720D01*
X108699998Y-74930804D01*
X108700000Y-74930804D01*
X108700002Y-74930804D01*
X108833121Y-74909720D01*
X108833121Y-74909719D01*
X108833126Y-74909719D01*
X108953220Y-74848528D01*
X109048528Y-74753220D01*
X109109719Y-74633126D01*
X109111925Y-74619199D01*
X109114966Y-74600002D01*
X110569196Y-74600002D01*
X110590279Y-74733121D01*
X110590280Y-74733124D01*
X110590281Y-74733126D01*
X110651472Y-74853220D01*
X110651473Y-74853221D01*
X110651476Y-74853225D01*
X110746774Y-74948523D01*
X110746778Y-74948526D01*
X110746780Y-74948528D01*
X110866874Y-75009719D01*
X110866876Y-75009719D01*
X110866878Y-75009720D01*
X110999998Y-75030804D01*
X111000000Y-75030804D01*
X111000002Y-75030804D01*
X111133121Y-75009720D01*
X111133121Y-75009719D01*
X111133126Y-75009719D01*
X111253220Y-74948528D01*
X111348528Y-74853220D01*
X111409719Y-74733126D01*
X111410962Y-74725279D01*
X111430804Y-74600002D01*
X111430804Y-74599997D01*
X111409720Y-74466878D01*
X111409719Y-74466876D01*
X111409719Y-74466874D01*
X111348528Y-74346780D01*
X111348526Y-74346778D01*
X111348523Y-74346774D01*
X111253225Y-74251476D01*
X111253221Y-74251473D01*
X111253220Y-74251472D01*
X111133126Y-74190281D01*
X111133124Y-74190280D01*
X111133121Y-74190279D01*
X111000002Y-74169196D01*
X110999998Y-74169196D01*
X110866878Y-74190279D01*
X110746778Y-74251473D01*
X110746774Y-74251476D01*
X110651476Y-74346774D01*
X110651473Y-74346778D01*
X110590279Y-74466878D01*
X110569196Y-74599997D01*
X110569196Y-74600002D01*
X109114966Y-74600002D01*
X109130804Y-74500002D01*
X109130804Y-74499997D01*
X109109720Y-74366878D01*
X109109719Y-74366876D01*
X109109719Y-74366874D01*
X109048528Y-74246780D01*
X109048526Y-74246778D01*
X109048523Y-74246774D01*
X108953225Y-74151476D01*
X108953221Y-74151473D01*
X108953220Y-74151472D01*
X108833126Y-74090281D01*
X108833124Y-74090280D01*
X108833121Y-74090279D01*
X108700002Y-74069196D01*
X108699998Y-74069196D01*
X108566878Y-74090279D01*
X108446778Y-74151473D01*
X108446774Y-74151476D01*
X108351476Y-74246774D01*
X108351473Y-74246778D01*
X108290279Y-74366878D01*
X108269196Y-74499997D01*
X108269196Y-74500002D01*
X105889966Y-74500002D01*
X105884720Y-74466878D01*
X105884719Y-74466876D01*
X105884719Y-74466874D01*
X105823528Y-74346780D01*
X105823526Y-74346778D01*
X105823523Y-74346774D01*
X105728225Y-74251476D01*
X105728221Y-74251473D01*
X105728220Y-74251472D01*
X105608126Y-74190281D01*
X105608124Y-74190280D01*
X105608121Y-74190279D01*
X105475002Y-74169196D01*
X105474998Y-74169196D01*
X105341878Y-74190279D01*
X105221778Y-74251473D01*
X105221774Y-74251476D01*
X105126476Y-74346774D01*
X105126473Y-74346778D01*
X105065279Y-74466878D01*
X105044196Y-74599997D01*
X105044196Y-74600002D01*
X101230804Y-74600002D01*
X101230804Y-74599997D01*
X101209720Y-74466878D01*
X101209719Y-74466876D01*
X101209719Y-74466874D01*
X101148528Y-74346780D01*
X101148526Y-74346778D01*
X101148523Y-74346774D01*
X101053225Y-74251476D01*
X101053221Y-74251473D01*
X101053220Y-74251472D01*
X100933126Y-74190281D01*
X100933124Y-74190280D01*
X100933121Y-74190279D01*
X100800002Y-74169196D01*
X100799998Y-74169196D01*
X100666878Y-74190279D01*
X100546778Y-74251473D01*
X100546774Y-74251476D01*
X100451476Y-74346774D01*
X100451473Y-74346778D01*
X100390279Y-74466878D01*
X100369196Y-74599997D01*
X100369196Y-74600002D01*
X93925646Y-74600002D01*
X93898528Y-74546780D01*
X93898526Y-74546778D01*
X93898523Y-74546774D01*
X93803225Y-74451476D01*
X93803221Y-74451473D01*
X93803220Y-74451472D01*
X93683126Y-74390281D01*
X93683124Y-74390280D01*
X93683121Y-74390279D01*
X93550002Y-74369196D01*
X93549998Y-74369196D01*
X93416875Y-74390280D01*
X93395341Y-74401252D01*
X93326672Y-74414147D01*
X93261932Y-74387869D01*
X93221676Y-74330761D01*
X93216576Y-74310164D01*
X93209720Y-74266878D01*
X93209719Y-74266876D01*
X93209719Y-74266874D01*
X93148528Y-74146780D01*
X93148526Y-74146778D01*
X93148523Y-74146774D01*
X93053225Y-74051476D01*
X93053221Y-74051473D01*
X93053220Y-74051472D01*
X92933126Y-73990281D01*
X92933124Y-73990280D01*
X92933121Y-73990279D01*
X92800002Y-73969196D01*
X92799998Y-73969196D01*
X92666878Y-73990279D01*
X92666874Y-73990280D01*
X92666874Y-73990281D01*
X92642141Y-74002883D01*
X92546778Y-74051473D01*
X92546774Y-74051476D01*
X92451476Y-74146774D01*
X92451473Y-74146778D01*
X92390279Y-74266878D01*
X92369196Y-74399997D01*
X92369196Y-74400002D01*
X92390279Y-74533121D01*
X92390280Y-74533124D01*
X92390281Y-74533126D01*
X92441234Y-74633126D01*
X92451473Y-74653221D01*
X92451476Y-74653225D01*
X92510570Y-74712319D01*
X92544055Y-74773642D01*
X92539071Y-74843334D01*
X92510570Y-74887681D01*
X92451476Y-74946774D01*
X92451473Y-74946778D01*
X92390279Y-75066878D01*
X92369196Y-75199997D01*
X92369196Y-75200002D01*
X90222886Y-75200002D01*
X90209720Y-75116878D01*
X90209719Y-75116876D01*
X90209719Y-75116874D01*
X90148528Y-74996780D01*
X90148526Y-74996778D01*
X90144097Y-74988085D01*
X90145566Y-74987336D01*
X90125851Y-74932076D01*
X90141678Y-74864023D01*
X90148171Y-74853917D01*
X90148524Y-74853223D01*
X90148528Y-74853220D01*
X90209719Y-74733126D01*
X90210962Y-74725279D01*
X90230804Y-74600002D01*
X90230804Y-74599997D01*
X90209720Y-74466878D01*
X90209719Y-74466876D01*
X90209719Y-74466874D01*
X90148528Y-74346780D01*
X90148526Y-74346778D01*
X90148523Y-74346774D01*
X90053225Y-74251476D01*
X90053221Y-74251473D01*
X90053220Y-74251472D01*
X89933126Y-74190281D01*
X89933124Y-74190280D01*
X89933121Y-74190279D01*
X89800002Y-74169196D01*
X89799998Y-74169196D01*
X89666876Y-74190279D01*
X89556294Y-74246624D01*
X89487625Y-74259520D01*
X89443706Y-74246624D01*
X89333123Y-74190279D01*
X89200002Y-74169196D01*
X89199998Y-74169196D01*
X89066878Y-74190279D01*
X88946778Y-74251473D01*
X88946774Y-74251476D01*
X88851476Y-74346774D01*
X88851473Y-74346778D01*
X88790279Y-74466878D01*
X88769196Y-74599997D01*
X88769196Y-74600002D01*
X88790279Y-74733121D01*
X88790280Y-74733124D01*
X88790281Y-74733126D01*
X88851472Y-74853220D01*
X88851473Y-74853221D01*
X88855903Y-74861915D01*
X88854435Y-74862662D01*
X88874149Y-74917936D01*
X88858315Y-74985988D01*
X88851827Y-74996083D01*
X88790279Y-75116878D01*
X88769196Y-75249997D01*
X88769196Y-75250002D01*
X88030804Y-75250002D01*
X88030804Y-75249997D01*
X88009720Y-75116878D01*
X88009719Y-75116876D01*
X88009719Y-75116874D01*
X87948528Y-74996780D01*
X87948526Y-74996778D01*
X87948523Y-74996774D01*
X87853225Y-74901476D01*
X87853221Y-74901473D01*
X87853220Y-74901472D01*
X87733126Y-74840281D01*
X87733124Y-74840280D01*
X87733121Y-74840279D01*
X87600002Y-74819196D01*
X87599998Y-74819196D01*
X87466876Y-74840279D01*
X87368792Y-74890256D01*
X87300123Y-74903152D01*
X87256206Y-74890256D01*
X87158123Y-74840281D01*
X87158121Y-74840280D01*
X87158118Y-74840279D01*
X87024999Y-74819196D01*
X87024995Y-74819196D01*
X86891873Y-74840279D01*
X86768792Y-74902992D01*
X86700123Y-74915888D01*
X86656204Y-74902992D01*
X86533123Y-74840279D01*
X86400002Y-74819196D01*
X86399998Y-74819196D01*
X86266876Y-74840279D01*
X86173466Y-74887874D01*
X86104797Y-74900770D01*
X86060877Y-74887874D01*
X86053221Y-74883973D01*
X86053220Y-74883972D01*
X85933126Y-74822781D01*
X85933124Y-74822780D01*
X85933121Y-74822779D01*
X85800002Y-74801696D01*
X85799998Y-74801696D01*
X85666878Y-74822779D01*
X85666874Y-74822780D01*
X85666874Y-74822781D01*
X85580793Y-74866641D01*
X85512125Y-74879537D01*
X85447385Y-74853260D01*
X85407128Y-74796154D01*
X85400500Y-74756156D01*
X85400500Y-74277156D01*
X85420185Y-74210117D01*
X85472989Y-74164362D01*
X85542147Y-74154418D01*
X85605703Y-74183443D01*
X85634982Y-74220858D01*
X85651472Y-74253220D01*
X85651473Y-74253221D01*
X85651476Y-74253225D01*
X85746774Y-74348523D01*
X85746778Y-74348526D01*
X85746780Y-74348528D01*
X85866874Y-74409719D01*
X85866876Y-74409719D01*
X85866878Y-74409720D01*
X85999998Y-74430804D01*
X86000000Y-74430804D01*
X86000002Y-74430804D01*
X86133121Y-74409720D01*
X86133121Y-74409719D01*
X86133126Y-74409719D01*
X86253220Y-74348528D01*
X86348528Y-74253220D01*
X86409719Y-74133126D01*
X86416505Y-74090281D01*
X86430804Y-74000002D01*
X86430804Y-73999997D01*
X86409720Y-73866878D01*
X86409719Y-73866876D01*
X86409719Y-73866874D01*
X86365858Y-73780793D01*
X86352963Y-73712125D01*
X86379240Y-73647385D01*
X86436346Y-73607128D01*
X86476344Y-73600500D01*
X113397627Y-73600500D01*
X113464666Y-73620185D01*
G37*
%TD.AperFunction*%
%TD*%
M02*
