%TF.GenerationSoftware,KiCad,Pcbnew,8.0.0*%
%TF.CreationDate,2024-09-22T12:37:06-04:00*%
%TF.ProjectId,MainBoard,4d61696e-426f-4617-9264-2e6b69636164,rev?*%
%TF.SameCoordinates,Original*%
%TF.FileFunction,Paste,Top*%
%TF.FilePolarity,Positive*%
%FSLAX46Y46*%
G04 Gerber Fmt 4.6, Leading zero omitted, Abs format (unit mm)*
G04 Created by KiCad (PCBNEW 8.0.0) date 2024-09-22 12:37:06*
%MOMM*%
%LPD*%
G01*
G04 APERTURE LIST*
G04 Aperture macros list*
%AMRoundRect*
0 Rectangle with rounded corners*
0 $1 Rounding radius*
0 $2 $3 $4 $5 $6 $7 $8 $9 X,Y pos of 4 corners*
0 Add a 4 corners polygon primitive as box body*
4,1,4,$2,$3,$4,$5,$6,$7,$8,$9,$2,$3,0*
0 Add four circle primitives for the rounded corners*
1,1,$1+$1,$2,$3*
1,1,$1+$1,$4,$5*
1,1,$1+$1,$6,$7*
1,1,$1+$1,$8,$9*
0 Add four rect primitives between the rounded corners*
20,1,$1+$1,$2,$3,$4,$5,0*
20,1,$1+$1,$4,$5,$6,$7,0*
20,1,$1+$1,$6,$7,$8,$9,0*
20,1,$1+$1,$8,$9,$2,$3,0*%
G04 Aperture macros list end*
%ADD10RoundRect,0.155000X0.212500X0.155000X-0.212500X0.155000X-0.212500X-0.155000X0.212500X-0.155000X0*%
%ADD11RoundRect,0.160000X0.160000X-0.197500X0.160000X0.197500X-0.160000X0.197500X-0.160000X-0.197500X0*%
%ADD12RoundRect,0.160000X-0.222500X-0.160000X0.222500X-0.160000X0.222500X0.160000X-0.222500X0.160000X0*%
%ADD13RoundRect,0.155000X-0.155000X0.212500X-0.155000X-0.212500X0.155000X-0.212500X0.155000X0.212500X0*%
%ADD14RoundRect,0.160000X-0.160000X0.222500X-0.160000X-0.222500X0.160000X-0.222500X0.160000X0.222500X0*%
%ADD15R,1.000000X1.150000*%
%ADD16RoundRect,0.155000X0.155000X-0.212500X0.155000X0.212500X-0.155000X0.212500X-0.155000X-0.212500X0*%
%ADD17R,0.550000X0.950000*%
%ADD18RoundRect,0.155000X-0.212500X-0.155000X0.212500X-0.155000X0.212500X0.155000X-0.212500X0.155000X0*%
%ADD19R,0.675000X0.250000*%
%ADD20R,0.250000X0.675000*%
%ADD21RoundRect,0.212500X0.212500X0.337500X-0.212500X0.337500X-0.212500X-0.337500X0.212500X-0.337500X0*%
%ADD22RoundRect,0.187500X0.187500X0.362500X-0.187500X0.362500X-0.187500X-0.362500X0.187500X-0.362500X0*%
%ADD23RoundRect,0.250000X0.350000X0.250000X-0.350000X0.250000X-0.350000X-0.250000X0.350000X-0.250000X0*%
%ADD24RoundRect,0.400000X0.375000X0.275000X-0.375000X0.275000X-0.375000X-0.275000X0.375000X-0.275000X0*%
%ADD25RoundRect,0.250000X0.700000X0.425000X-0.700000X0.425000X-0.700000X-0.425000X0.700000X-0.425000X0*%
%ADD26RoundRect,0.250000X0.335000X0.650000X-0.335000X0.650000X-0.335000X-0.650000X0.335000X-0.650000X0*%
%ADD27RoundRect,0.250000X-0.275000X-0.350000X0.275000X-0.350000X0.275000X0.350000X-0.275000X0.350000X0*%
%ADD28RoundRect,0.160000X-0.197500X-0.160000X0.197500X-0.160000X0.197500X0.160000X-0.197500X0.160000X0*%
%ADD29RoundRect,0.150000X-0.512500X-0.150000X0.512500X-0.150000X0.512500X0.150000X-0.512500X0.150000X0*%
%ADD30RoundRect,0.160000X-0.160000X0.197500X-0.160000X-0.197500X0.160000X-0.197500X0.160000X0.197500X0*%
%ADD31R,1.400000X1.200000*%
%ADD32RoundRect,0.075000X-0.075000X0.700000X-0.075000X-0.700000X0.075000X-0.700000X0.075000X0.700000X0*%
%ADD33RoundRect,0.075000X-0.700000X0.075000X-0.700000X-0.075000X0.700000X-0.075000X0.700000X0.075000X0*%
G04 APERTURE END LIST*
D10*
%TO.C,C15*%
X97567500Y-91800000D03*
X96432500Y-91800000D03*
%TD*%
D11*
%TO.C,R9*%
X100800000Y-90597500D03*
X100800000Y-89402500D03*
%TD*%
D12*
%TO.C,D1*%
X86000000Y-74000000D03*
X87145002Y-74000000D03*
%TD*%
D13*
%TO.C,C16*%
X87800000Y-89332500D03*
X87800000Y-90467500D03*
%TD*%
D14*
%TO.C,D2*%
X85800000Y-78627499D03*
X85800000Y-79772501D03*
%TD*%
D15*
%TO.C,U6*%
X107300000Y-75325000D03*
X107300000Y-77075000D03*
X108700000Y-77075000D03*
X108700000Y-75325000D03*
%TD*%
D16*
%TO.C,C12*%
X94800000Y-75167500D03*
X94800000Y-74032500D03*
%TD*%
D17*
%TO.C,U4*%
X105475000Y-75325000D03*
X104225000Y-75325000D03*
X102975000Y-75325000D03*
X101725000Y-75325000D03*
X101725000Y-77475000D03*
X102975000Y-77475000D03*
X104225000Y-77475000D03*
X105475000Y-77475000D03*
%TD*%
D18*
%TO.C,C5*%
X110970000Y-74100000D03*
X112105000Y-74100000D03*
%TD*%
D19*
%TO.C,U3*%
X113600000Y-78000000D03*
X113600000Y-77500000D03*
X113600000Y-77000000D03*
X113600000Y-76500000D03*
D20*
X112837500Y-76237500D03*
X112337500Y-76237499D03*
X111837500Y-76237500D03*
D19*
X111075000Y-76500000D03*
X111075000Y-77000000D03*
X111075000Y-77500000D03*
X111075000Y-78000000D03*
D20*
X111837500Y-78262500D03*
X112337500Y-78262501D03*
X112837500Y-78262500D03*
%TD*%
D21*
%TO.C,J1*%
X110960000Y-91625000D03*
X109860000Y-91625000D03*
X108760000Y-91625000D03*
X107660000Y-91625000D03*
X106560000Y-91625000D03*
X105460000Y-91625000D03*
X104360000Y-91625000D03*
D22*
X103310000Y-91625000D03*
D23*
X113595000Y-85475000D03*
X113595000Y-81775000D03*
D24*
X113420000Y-91500000D03*
D25*
X110095000Y-80800000D03*
X104125000Y-80800000D03*
D26*
X102100000Y-91275000D03*
%TD*%
D27*
%TO.C,FB1*%
X91250000Y-74800000D03*
X93550000Y-74800000D03*
%TD*%
D10*
%TO.C,C6*%
X89567500Y-74000000D03*
X88432500Y-74000000D03*
%TD*%
D11*
%TO.C,R3*%
X94800000Y-77397500D03*
X94800000Y-76202500D03*
%TD*%
D16*
%TO.C,C24*%
X113137500Y-75135000D03*
X113137500Y-74000000D03*
%TD*%
D13*
%TO.C,C17*%
X100800000Y-80432500D03*
X100800000Y-81567500D03*
%TD*%
D10*
%TO.C,C23*%
X104767500Y-74000000D03*
X103632500Y-74000000D03*
%TD*%
D28*
%TO.C,R12*%
X100802500Y-74000000D03*
X101997500Y-74000000D03*
%TD*%
D18*
%TO.C,C8*%
X98332500Y-77800000D03*
X99467500Y-77800000D03*
%TD*%
D13*
%TO.C,C10*%
X100000000Y-75032500D03*
X100000000Y-76167500D03*
%TD*%
%TO.C,C3*%
X85800000Y-75232500D03*
X85800000Y-76367500D03*
%TD*%
D18*
%TO.C,C18*%
X91032500Y-77432501D03*
X92167500Y-77432501D03*
%TD*%
D29*
%TO.C,U1*%
X87262500Y-75250000D03*
X87262500Y-76200000D03*
X87262500Y-77150000D03*
X89537500Y-77150000D03*
X89537500Y-75250000D03*
%TD*%
D30*
%TO.C,R1*%
X100800000Y-82602500D03*
X100800000Y-83797500D03*
%TD*%
D31*
%TO.C,Y1*%
X98500000Y-74750000D03*
X96300000Y-74750000D03*
X96300000Y-76450000D03*
X98500000Y-76450000D03*
%TD*%
D16*
%TO.C,C13*%
X86400000Y-87967500D03*
X86400000Y-86832500D03*
%TD*%
D10*
%TO.C,C20*%
X108567500Y-74000000D03*
X107432500Y-74000000D03*
%TD*%
D18*
%TO.C,C11*%
X98432500Y-90567500D03*
X99567500Y-90567500D03*
%TD*%
%TO.C,C19*%
X91032500Y-76400000D03*
X92167500Y-76400000D03*
%TD*%
D16*
%TO.C,C1*%
X93800000Y-77367500D03*
X93800000Y-76232500D03*
%TD*%
D30*
%TO.C,R4*%
X86800000Y-78602500D03*
X86800000Y-79797500D03*
%TD*%
D16*
%TO.C,C14*%
X86400000Y-82167500D03*
X86400000Y-81032500D03*
%TD*%
D18*
%TO.C,C9*%
X98332500Y-78800000D03*
X99467500Y-78800000D03*
%TD*%
D32*
%TO.C,U2*%
X97350000Y-78925000D03*
X96850000Y-78925000D03*
X96350000Y-78925000D03*
X95850000Y-78925000D03*
X95350000Y-78925000D03*
X94850000Y-78925000D03*
X94350000Y-78925000D03*
X93850000Y-78925000D03*
X93350000Y-78925000D03*
X92850000Y-78925000D03*
X92350000Y-78925000D03*
X91850000Y-78925000D03*
X91350000Y-78925000D03*
X90850000Y-78925000D03*
X90350000Y-78925000D03*
X89850000Y-78925000D03*
D33*
X87925000Y-80850000D03*
X87925000Y-81350000D03*
X87925000Y-81850000D03*
X87925000Y-82350000D03*
X87925000Y-82850000D03*
X87925000Y-83350000D03*
X87925000Y-83850000D03*
X87925000Y-84350000D03*
X87925000Y-84850000D03*
X87925000Y-85350000D03*
X87925000Y-85850000D03*
X87925000Y-86350000D03*
X87925000Y-86850000D03*
X87925000Y-87350000D03*
X87925000Y-87850000D03*
X87925000Y-88350000D03*
D32*
X89850000Y-90275000D03*
X90350000Y-90275000D03*
X90850000Y-90275000D03*
X91350000Y-90275000D03*
X91850000Y-90275000D03*
X92350000Y-90275000D03*
X92850000Y-90275000D03*
X93350000Y-90275000D03*
X93850000Y-90275000D03*
X94350000Y-90275000D03*
X94850000Y-90275000D03*
X95350000Y-90275000D03*
X95850000Y-90275000D03*
X96350000Y-90275000D03*
X96850000Y-90275000D03*
X97350000Y-90275000D03*
D33*
X99275000Y-88350000D03*
X99275000Y-87850000D03*
X99275000Y-87350000D03*
X99275000Y-86850000D03*
X99275000Y-86350000D03*
X99275000Y-85850000D03*
X99275000Y-85350000D03*
X99275000Y-84850000D03*
X99275000Y-84350000D03*
X99275000Y-83850000D03*
X99275000Y-83350000D03*
X99275000Y-82850000D03*
X99275000Y-82350000D03*
X99275000Y-81850000D03*
X99275000Y-81350000D03*
X99275000Y-80850000D03*
%TD*%
D30*
%TO.C,R14*%
X110000000Y-76402500D03*
X110000000Y-77597500D03*
%TD*%
D18*
%TO.C,C22*%
X110970000Y-75100000D03*
X112105000Y-75100000D03*
%TD*%
D10*
%TO.C,C21*%
X108567500Y-78400000D03*
X107432500Y-78400000D03*
%TD*%
M02*
