%TF.GenerationSoftware,KiCad,Pcbnew,8.0.0*%
%TF.CreationDate,2024-09-22T12:37:06-04:00*%
%TF.ProjectId,MainBoard,4d61696e-426f-4617-9264-2e6b69636164,rev?*%
%TF.SameCoordinates,Original*%
%TF.FileFunction,Soldermask,Bot*%
%TF.FilePolarity,Negative*%
%FSLAX46Y46*%
G04 Gerber Fmt 4.6, Leading zero omitted, Abs format (unit mm)*
G04 Created by KiCad (PCBNEW 8.0.0) date 2024-09-22 12:37:06*
%MOMM*%
%LPD*%
G01*
G04 APERTURE LIST*
G04 Aperture macros list*
%AMRoundRect*
0 Rectangle with rounded corners*
0 $1 Rounding radius*
0 $2 $3 $4 $5 $6 $7 $8 $9 X,Y pos of 4 corners*
0 Add a 4 corners polygon primitive as box body*
4,1,4,$2,$3,$4,$5,$6,$7,$8,$9,$2,$3,0*
0 Add four circle primitives for the rounded corners*
1,1,$1+$1,$2,$3*
1,1,$1+$1,$4,$5*
1,1,$1+$1,$6,$7*
1,1,$1+$1,$8,$9*
0 Add four rect primitives between the rounded corners*
20,1,$1+$1,$2,$3,$4,$5,0*
20,1,$1+$1,$4,$5,$6,$7,0*
20,1,$1+$1,$6,$7,$8,$9,0*
20,1,$1+$1,$8,$9,$2,$3,0*%
G04 Aperture macros list end*
%ADD10C,0.350000*%
%ADD11C,1.000000*%
%ADD12RoundRect,0.160000X-0.197500X-0.160000X0.197500X-0.160000X0.197500X0.160000X-0.197500X0.160000X0*%
%ADD13RoundRect,0.160000X0.160000X-0.197500X0.160000X0.197500X-0.160000X0.197500X-0.160000X-0.197500X0*%
%ADD14R,2.000000X0.500000*%
%ADD15RoundRect,0.155000X0.212500X0.155000X-0.212500X0.155000X-0.212500X-0.155000X0.212500X-0.155000X0*%
%ADD16RoundRect,0.160000X-0.160000X0.197500X-0.160000X-0.197500X0.160000X-0.197500X0.160000X0.197500X0*%
%ADD17RoundRect,0.160000X0.197500X0.160000X-0.197500X0.160000X-0.197500X-0.160000X0.197500X-0.160000X0*%
%ADD18RoundRect,0.155000X-0.212500X-0.155000X0.212500X-0.155000X0.212500X0.155000X-0.212500X0.155000X0*%
%ADD19RoundRect,0.062500X-0.237500X-0.062500X0.237500X-0.062500X0.237500X0.062500X-0.237500X0.062500X0*%
%ADD20RoundRect,0.062500X-0.062500X-0.237500X0.062500X-0.237500X0.062500X0.237500X-0.062500X0.237500X0*%
%ADD21RoundRect,0.068750X-0.068750X-0.231250X0.068750X-0.231250X0.068750X0.231250X-0.068750X0.231250X0*%
G04 APERTURE END LIST*
D10*
X113975000Y-74600000D02*
G75*
G02*
X113625000Y-74600000I-175000J0D01*
G01*
X113625000Y-74600000D02*
G75*
G02*
X113975000Y-74600000I175000J0D01*
G01*
D11*
%TO.C,TP1*%
X86000000Y-91600000D03*
%TD*%
D12*
%TO.C,R2*%
X86602500Y-74000000D03*
X87797500Y-74000000D03*
%TD*%
D13*
%TO.C,R7*%
X98800000Y-86997500D03*
X98800000Y-85802500D03*
%TD*%
D12*
%TO.C,R6*%
X99802500Y-87000000D03*
X100997500Y-87000000D03*
%TD*%
D14*
%TO.C,J2*%
X113200000Y-77400000D03*
X109900000Y-77400000D03*
X113200000Y-78400000D03*
X109900000Y-78400000D03*
X113200000Y-79400000D03*
X109900000Y-79400000D03*
X113200000Y-80400000D03*
X109900000Y-80400000D03*
X113200000Y-81400000D03*
X109900000Y-81400000D03*
X113200000Y-82400000D03*
X109900000Y-82400000D03*
X113200000Y-83400000D03*
X109900000Y-83400000D03*
X113200000Y-84400000D03*
X109900000Y-84400000D03*
X113200000Y-85400000D03*
X109900000Y-85400000D03*
X113200000Y-86400000D03*
X109900000Y-86400000D03*
X113200000Y-87400000D03*
X109900000Y-87400000D03*
X113200000Y-88400000D03*
X109900000Y-88400000D03*
%TD*%
D15*
%TO.C,C7*%
X107167500Y-91500000D03*
X106032500Y-91500000D03*
%TD*%
D16*
%TO.C,R10*%
X92400000Y-85602500D03*
X92400000Y-86797500D03*
%TD*%
D13*
%TO.C,R8*%
X98600000Y-89997500D03*
X98600000Y-88802500D03*
%TD*%
D17*
%TO.C,R5*%
X112195000Y-91600000D03*
X111000000Y-91600000D03*
%TD*%
D18*
%TO.C,C4*%
X105072500Y-78093125D03*
X106207500Y-78093125D03*
%TD*%
D13*
%TO.C,R13*%
X101800000Y-82397500D03*
X101800000Y-81202500D03*
%TD*%
D12*
%TO.C,R11*%
X106002500Y-75200000D03*
X107197500Y-75200000D03*
%TD*%
D18*
%TO.C,C2*%
X104072501Y-83293125D03*
X105207501Y-83293125D03*
%TD*%
D14*
%TO.C,J3*%
X89700000Y-76400000D03*
X86400000Y-76400000D03*
X89700000Y-77400000D03*
X86400000Y-77400000D03*
X89700000Y-78400000D03*
X86400000Y-78400000D03*
X89700000Y-79400000D03*
X86400000Y-79400000D03*
X89700000Y-80400000D03*
X86400000Y-80400000D03*
X89700000Y-81400000D03*
X86400000Y-81400000D03*
X89700000Y-82400000D03*
X86400000Y-82400000D03*
X89700000Y-83400000D03*
X86400000Y-83400000D03*
X89700000Y-84400000D03*
X86400000Y-84400000D03*
X89700000Y-85400000D03*
X86400000Y-85400000D03*
X89700000Y-86400000D03*
X86400000Y-86400000D03*
X89700000Y-87400000D03*
X86400000Y-87400000D03*
X89700000Y-88400000D03*
X86400000Y-88400000D03*
X89700000Y-89400000D03*
X86400000Y-89400000D03*
%TD*%
D11*
%TO.C,TP3*%
X90800000Y-74200000D03*
%TD*%
D19*
%TO.C,U5*%
X102850000Y-81403125D03*
X102850000Y-80903125D03*
X102850000Y-80403125D03*
X102850000Y-79903125D03*
D20*
X103650000Y-79103125D03*
D21*
X104162500Y-79103125D03*
D20*
X104650000Y-79103125D03*
X105150000Y-79103125D03*
D19*
X105950000Y-79903125D03*
X105950000Y-80403125D03*
X105950000Y-80903125D03*
X105950000Y-81403125D03*
D20*
X105150000Y-82203125D03*
X104650000Y-82203125D03*
X104150000Y-82203125D03*
X103650000Y-82203125D03*
%TD*%
M02*
