%TF.GenerationSoftware,KiCad,Pcbnew,8.0.0*%
%TF.CreationDate,2024-09-22T12:37:04-04:00*%
%TF.ProjectId,MainBoard,4d61696e-426f-4617-9264-2e6b69636164,rev?*%
%TF.SameCoordinates,Original*%
%TF.FileFunction,Drillmap*%
%TF.FilePolarity,Positive*%
%FSLAX45Y45*%
G04 Gerber Fmt 4.5, Leading zero omitted, Abs format (unit mm)*
G04 Created by KiCad (PCBNEW 8.0.0) date 2024-09-22 12:37:04*
%MOMM*%
%LPD*%
G01*
G04 APERTURE LIST*
%ADD10C,0.050000*%
%ADD11C,0.200000*%
%ADD12C,0.100000*%
G04 APERTURE END LIST*
D10*
X8580000Y-9240000D02*
X11380000Y-9240000D01*
X8520000Y-7400000D02*
X8520000Y-9180000D01*
X11380000Y-7340000D02*
G75*
G02*
X11440000Y-7400000I0J-60000D01*
G01*
X11440000Y-9180000D02*
G75*
G02*
X11380000Y-9240000I-60000J0D01*
G01*
X11380000Y-7340000D02*
X8580000Y-7340000D01*
X11440000Y-9180000D02*
X11440000Y-7400000D01*
X8520000Y-7400000D02*
G75*
G02*
X8580000Y-7340000I60000J0D01*
G01*
X8580000Y-9240000D02*
G75*
G02*
X8520000Y-9180000I0J60000D01*
G01*
D11*
D12*
X8547500Y-7692500D02*
X8577500Y-7722500D01*
X8577500Y-7692500D02*
X8547500Y-7722500D01*
X8547500Y-7745000D02*
X8577500Y-7775000D01*
X8577500Y-7745000D02*
X8547500Y-7775000D01*
X8547500Y-8625000D02*
X8577500Y-8655000D01*
X8577500Y-8625000D02*
X8547500Y-8655000D01*
X8547500Y-8825000D02*
X8577500Y-8855000D01*
X8577500Y-8825000D02*
X8547500Y-8855000D01*
X8547500Y-8925000D02*
X8577500Y-8955000D01*
X8577500Y-8925000D02*
X8547500Y-8955000D01*
X8565000Y-7508250D02*
X8595000Y-7538250D01*
X8595000Y-7508250D02*
X8565000Y-7538250D01*
X8585000Y-7385000D02*
X8615000Y-7415000D01*
X8615000Y-7385000D02*
X8585000Y-7415000D01*
X8602500Y-7692500D02*
X8632500Y-7722500D01*
X8632500Y-7692500D02*
X8602500Y-7722500D01*
X8605000Y-8325000D02*
X8635000Y-8355000D01*
X8635000Y-8325000D02*
X8605000Y-8355000D01*
X8605000Y-8525000D02*
X8635000Y-8555000D01*
X8635000Y-8525000D02*
X8605000Y-8555000D01*
X8605000Y-7745000D02*
X8635000Y-7775000D01*
X8635000Y-7745000D02*
X8605000Y-7775000D01*
X8618840Y-8092500D02*
X8648840Y-8122500D01*
X8648840Y-8092500D02*
X8618840Y-8122500D01*
X8619975Y-8419675D02*
X8649975Y-8449675D01*
X8649975Y-8419675D02*
X8619975Y-8449675D01*
X8625000Y-7510000D02*
X8655000Y-7540000D01*
X8655000Y-7510000D02*
X8625000Y-7540000D01*
X8625000Y-8201750D02*
X8655000Y-8231750D01*
X8655000Y-8201750D02*
X8625000Y-8231750D01*
X8658091Y-8704997D02*
X8688091Y-8734997D01*
X8688091Y-8704997D02*
X8658091Y-8734997D01*
X8671697Y-8112500D02*
X8701697Y-8142500D01*
X8701697Y-8112500D02*
X8671697Y-8142500D01*
X8687500Y-7510000D02*
X8717500Y-7540000D01*
X8717500Y-7510000D02*
X8687500Y-7540000D01*
X8705000Y-9008303D02*
X8735000Y-9038303D01*
X8735000Y-9008303D02*
X8705000Y-9038303D01*
X8745000Y-7510000D02*
X8775000Y-7540000D01*
X8775000Y-7510000D02*
X8745000Y-7540000D01*
X8748763Y-7900109D02*
X8778763Y-7930109D01*
X8778763Y-7900109D02*
X8748763Y-7930109D01*
X8764970Y-8028333D02*
X8794970Y-8058333D01*
X8794970Y-8028333D02*
X8764970Y-8058333D01*
X8765555Y-7963335D02*
X8795555Y-7993335D01*
X8795555Y-7963335D02*
X8765555Y-7993335D01*
X8767500Y-8925000D02*
X8797500Y-8955000D01*
X8797500Y-8925000D02*
X8767500Y-8955000D01*
X8785000Y-8865000D02*
X8815000Y-8895000D01*
X8815000Y-8865000D02*
X8785000Y-8895000D01*
X8801879Y-7820496D02*
X8831879Y-7850496D01*
X8831879Y-7820496D02*
X8801879Y-7850496D01*
X8821750Y-9025000D02*
X8851750Y-9055000D01*
X8851750Y-9025000D02*
X8821750Y-9055000D01*
X8823324Y-7759135D02*
X8853324Y-7789135D01*
X8853324Y-7759135D02*
X8823324Y-7789135D01*
X8825000Y-7385000D02*
X8855000Y-7415000D01*
X8855000Y-7385000D02*
X8825000Y-7415000D01*
X8885000Y-8525000D02*
X8915000Y-8555000D01*
X8915000Y-8525000D02*
X8885000Y-8555000D01*
X8897474Y-8829725D02*
X8927474Y-8859725D01*
X8927474Y-8829725D02*
X8897474Y-8859725D01*
X8901860Y-9073242D02*
X8931860Y-9103242D01*
X8931860Y-9073242D02*
X8901860Y-9103242D01*
X8905000Y-7445000D02*
X8935000Y-7475000D01*
X8935000Y-7445000D02*
X8905000Y-7475000D01*
X8905000Y-7510000D02*
X8935000Y-7540000D01*
X8935000Y-7510000D02*
X8905000Y-7540000D01*
X8925000Y-8125000D02*
X8955000Y-8155000D01*
X8955000Y-8125000D02*
X8925000Y-8155000D01*
X8925000Y-9012500D02*
X8955000Y-9042500D01*
X8955000Y-9012500D02*
X8925000Y-9042500D01*
X8955000Y-7625000D02*
X8985000Y-7655000D01*
X8985000Y-7625000D02*
X8955000Y-7655000D01*
X8965000Y-7445000D02*
X8995000Y-7475000D01*
X8995000Y-7445000D02*
X8965000Y-7475000D01*
X8965000Y-7510000D02*
X8995000Y-7540000D01*
X8995000Y-7510000D02*
X8965000Y-7540000D01*
X8985000Y-8225000D02*
X9015000Y-8255000D01*
X9015000Y-8225000D02*
X8985000Y-8255000D01*
X8985000Y-8357500D02*
X9015000Y-8387500D01*
X9015000Y-8357500D02*
X8985000Y-8387500D01*
X8985000Y-8425000D02*
X9015000Y-8455000D01*
X9015000Y-8425000D02*
X8985000Y-8455000D01*
X8985000Y-8725000D02*
X9015000Y-8755000D01*
X9015000Y-8725000D02*
X8985000Y-8755000D01*
X9019675Y-8914469D02*
X9049675Y-8944469D01*
X9049675Y-8914469D02*
X9019675Y-8944469D01*
X9025000Y-8625000D02*
X9055000Y-8655000D01*
X9055000Y-8625000D02*
X9025000Y-8655000D01*
X9085000Y-8025000D02*
X9115000Y-8055000D01*
X9115000Y-8025000D02*
X9085000Y-8055000D01*
X9105000Y-8505000D02*
X9135000Y-8535000D01*
X9135000Y-8505000D02*
X9105000Y-8535000D01*
X9119675Y-8775000D02*
X9149675Y-8805000D01*
X9149675Y-8775000D02*
X9119675Y-8805000D01*
X9119675Y-8840000D02*
X9149675Y-8870000D01*
X9149675Y-8840000D02*
X9119675Y-8870000D01*
X9130962Y-8070962D02*
X9160962Y-8100962D01*
X9160962Y-8070962D02*
X9130962Y-8100962D01*
X9149045Y-8717013D02*
X9179045Y-8747013D01*
X9179045Y-8717013D02*
X9149045Y-8747013D01*
X9170511Y-8655699D02*
X9200511Y-8685699D01*
X9200511Y-8655699D02*
X9170511Y-8685699D01*
X9177500Y-7770313D02*
X9207500Y-7800313D01*
X9207500Y-7770313D02*
X9177500Y-7800313D01*
X9185000Y-8205000D02*
X9215000Y-8235000D01*
X9215000Y-8205000D02*
X9185000Y-8235000D01*
X9201750Y-7625000D02*
X9231750Y-7655000D01*
X9231750Y-7625000D02*
X9201750Y-7655000D01*
X9206676Y-7722164D02*
X9236676Y-7752164D01*
X9236676Y-7722164D02*
X9206676Y-7752164D01*
X9218028Y-8420070D02*
X9248028Y-8450070D01*
X9248028Y-8420070D02*
X9218028Y-8450070D01*
X9230962Y-8250962D02*
X9260962Y-8280962D01*
X9260962Y-8250962D02*
X9230962Y-8280962D01*
X9265000Y-7425000D02*
X9295000Y-7455000D01*
X9295000Y-7425000D02*
X9265000Y-7455000D01*
X9265000Y-7505000D02*
X9295000Y-7535000D01*
X9295000Y-7505000D02*
X9265000Y-7535000D01*
X9265000Y-8465000D02*
X9295000Y-8495000D01*
X9295000Y-8465000D02*
X9265000Y-8495000D01*
X9270000Y-8085147D02*
X9300000Y-8115147D01*
X9300000Y-8085147D02*
X9270000Y-8115147D01*
X9331139Y-8107216D02*
X9361139Y-8137216D01*
X9361139Y-8107216D02*
X9331139Y-8137216D01*
X9340000Y-7465000D02*
X9370000Y-7495000D01*
X9370000Y-7465000D02*
X9340000Y-7495000D01*
X9365000Y-7608250D02*
X9395000Y-7638250D01*
X9395000Y-7608250D02*
X9365000Y-7638250D01*
X9365000Y-7721750D02*
X9395000Y-7751750D01*
X9395000Y-7721750D02*
X9365000Y-7751750D01*
X9383908Y-8209938D02*
X9413908Y-8239938D01*
X9413908Y-8209938D02*
X9383908Y-8239938D01*
X9385000Y-8545000D02*
X9415000Y-8575000D01*
X9415000Y-8545000D02*
X9385000Y-8575000D01*
X9386751Y-8145000D02*
X9416751Y-8175000D01*
X9416751Y-8145000D02*
X9386751Y-8175000D01*
X9425000Y-8785000D02*
X9455000Y-8815000D01*
X9455000Y-8785000D02*
X9425000Y-8815000D01*
X9445000Y-8365000D02*
X9475000Y-8395000D01*
X9475000Y-8365000D02*
X9445000Y-8395000D01*
X9445000Y-8865000D02*
X9475000Y-8895000D01*
X9475000Y-8865000D02*
X9445000Y-8895000D01*
X9446665Y-8524445D02*
X9476665Y-8554445D01*
X9476665Y-8524445D02*
X9446665Y-8554445D01*
X9465000Y-8025000D02*
X9495000Y-8055000D01*
X9495000Y-8025000D02*
X9465000Y-8055000D01*
X9488393Y-8770633D02*
X9518393Y-8800633D01*
X9518393Y-8770633D02*
X9488393Y-8800633D01*
X9498003Y-8827374D02*
X9528003Y-8857374D01*
X9528003Y-8827374D02*
X9498003Y-8857374D01*
X9503833Y-8077125D02*
X9533833Y-8107125D01*
X9533833Y-8077125D02*
X9503833Y-8107125D01*
X9504602Y-8390935D02*
X9534602Y-8420935D01*
X9534602Y-8390935D02*
X9504602Y-8420935D01*
X9525000Y-7388250D02*
X9555000Y-7418250D01*
X9555000Y-7388250D02*
X9525000Y-7418250D01*
X9530117Y-8136574D02*
X9560117Y-8166574D01*
X9560117Y-8136574D02*
X9530117Y-8166574D01*
X9549068Y-8800942D02*
X9579068Y-8830942D01*
X9579068Y-8800942D02*
X9549068Y-8830942D01*
X9565000Y-8865000D02*
X9595000Y-8895000D01*
X9595000Y-8865000D02*
X9565000Y-8895000D01*
X9571082Y-9182500D02*
X9601082Y-9212500D01*
X9601082Y-9182500D02*
X9571082Y-9212500D01*
X9609876Y-8584462D02*
X9639876Y-8614462D01*
X9639876Y-8584462D02*
X9609876Y-8614462D01*
X9645000Y-8045000D02*
X9675000Y-8075000D01*
X9675000Y-8045000D02*
X9645000Y-8075000D01*
X9665000Y-8320000D02*
X9695000Y-8350000D01*
X9695000Y-8320000D02*
X9665000Y-8350000D01*
X9674835Y-8586774D02*
X9704835Y-8616774D01*
X9704835Y-8586774D02*
X9674835Y-8616774D01*
X9680792Y-8255005D02*
X9710792Y-8285005D01*
X9710792Y-8255005D02*
X9680792Y-8285005D01*
X9685355Y-8381731D02*
X9715355Y-8411731D01*
X9715355Y-8381731D02*
X9685355Y-8411731D01*
X9697412Y-7995288D02*
X9727412Y-8025288D01*
X9727412Y-7995288D02*
X9697412Y-8025288D01*
X9705000Y-8785000D02*
X9735000Y-8815000D01*
X9735000Y-8785000D02*
X9705000Y-8815000D01*
X9733712Y-8180987D02*
X9763712Y-8210987D01*
X9763712Y-8180987D02*
X9733712Y-8210987D01*
X9738868Y-8575601D02*
X9768868Y-8605601D01*
X9768868Y-8575601D02*
X9738868Y-8605601D01*
X9745000Y-8245000D02*
X9775000Y-8275000D01*
X9775000Y-8245000D02*
X9745000Y-8275000D01*
X9754227Y-8390423D02*
X9784227Y-8420423D01*
X9784227Y-8390423D02*
X9754227Y-8420423D01*
X9765000Y-7825000D02*
X9795000Y-7855000D01*
X9795000Y-7825000D02*
X9765000Y-7855000D01*
X9765000Y-7905000D02*
X9795000Y-7935000D01*
X9795000Y-7905000D02*
X9765000Y-7935000D01*
X9765000Y-8810585D02*
X9795000Y-8840585D01*
X9795000Y-8810585D02*
X9765000Y-8840585D01*
X9773550Y-8645000D02*
X9803550Y-8675000D01*
X9803550Y-8645000D02*
X9773550Y-8675000D01*
X9785000Y-8988250D02*
X9815000Y-9018250D01*
X9815000Y-8988250D02*
X9785000Y-9018250D01*
X9787366Y-8143323D02*
X9817366Y-8173323D01*
X9817366Y-8143323D02*
X9787366Y-8173323D01*
X9803632Y-8570060D02*
X9833632Y-8600060D01*
X9833632Y-8570060D02*
X9803632Y-8600060D01*
X9818250Y-7765000D02*
X9848250Y-7795000D01*
X9848250Y-7765000D02*
X9818250Y-7795000D01*
X9818250Y-7865000D02*
X9848250Y-7895000D01*
X9848250Y-7865000D02*
X9818250Y-7895000D01*
X9919500Y-8989604D02*
X9949500Y-9019604D01*
X9949500Y-8989604D02*
X9919500Y-9019604D01*
X9925000Y-7630000D02*
X9955000Y-7660000D01*
X9955000Y-7630000D02*
X9925000Y-7660000D01*
X9931750Y-7765000D02*
X9961750Y-7795000D01*
X9961750Y-7765000D02*
X9931750Y-7795000D01*
X9931750Y-7865000D02*
X9961750Y-7895000D01*
X9961750Y-7865000D02*
X9931750Y-7895000D01*
X9975413Y-8956457D02*
X10005413Y-8986457D01*
X10005413Y-8956457D02*
X9975413Y-8986457D01*
X10005000Y-8045000D02*
X10035000Y-8075000D01*
X10035000Y-8045000D02*
X10005000Y-8075000D01*
X10019995Y-8129224D02*
X10049995Y-8159224D01*
X10049995Y-8129224D02*
X10019995Y-8159224D01*
X10065000Y-7445000D02*
X10095000Y-7475000D01*
X10095000Y-7445000D02*
X10065000Y-7475000D01*
X10065000Y-8028250D02*
X10095000Y-8058250D01*
X10095000Y-8028250D02*
X10065000Y-8058250D01*
X10065000Y-8245250D02*
X10095000Y-8275250D01*
X10095000Y-8245250D02*
X10065000Y-8275250D01*
X10065000Y-8365000D02*
X10095000Y-8395000D01*
X10095000Y-8365000D02*
X10065000Y-8395000D01*
X10074258Y-8141750D02*
X10104258Y-8171750D01*
X10104258Y-8141750D02*
X10074258Y-8171750D01*
X10085000Y-8685000D02*
X10115000Y-8715000D01*
X10115000Y-8685000D02*
X10085000Y-8715000D01*
X10105000Y-7517500D02*
X10135000Y-7547500D01*
X10135000Y-7517500D02*
X10105000Y-7547500D01*
X10157500Y-7805000D02*
X10187500Y-7835000D01*
X10187500Y-7805000D02*
X10157500Y-7835000D01*
X10161421Y-8714702D02*
X10191421Y-8744702D01*
X10191421Y-8714702D02*
X10161421Y-8744702D01*
X10195000Y-9005000D02*
X10225000Y-9035000D01*
X10225000Y-9005000D02*
X10195000Y-9035000D01*
X10205000Y-8765000D02*
X10235000Y-8795000D01*
X10235000Y-8765000D02*
X10205000Y-8795000D01*
X10214688Y-8075637D02*
X10244688Y-8105637D01*
X10244688Y-8075637D02*
X10214688Y-8105637D01*
X10215000Y-7935000D02*
X10245000Y-7965000D01*
X10245000Y-7935000D02*
X10215000Y-7965000D01*
X10228952Y-8704574D02*
X10258952Y-8734574D01*
X10258952Y-8704574D02*
X10228952Y-8734574D01*
X10263335Y-7825555D02*
X10293335Y-7855555D01*
X10293335Y-7825555D02*
X10263335Y-7855555D01*
X10282500Y-7445000D02*
X10312500Y-7475000D01*
X10312500Y-7445000D02*
X10282500Y-7475000D01*
X10305000Y-8285000D02*
X10335000Y-8315000D01*
X10335000Y-8285000D02*
X10305000Y-8315000D01*
X10324445Y-8946665D02*
X10354445Y-8976665D01*
X10354445Y-8946665D02*
X10324445Y-8976665D01*
X10325000Y-7805000D02*
X10355000Y-7835000D01*
X10355000Y-7805000D02*
X10325000Y-7835000D01*
X10345000Y-8885000D02*
X10375000Y-8915000D01*
X10375000Y-8885000D02*
X10345000Y-8915000D01*
X10383808Y-8998274D02*
X10413808Y-9028274D01*
X10413808Y-8998274D02*
X10383808Y-9028274D01*
X10400000Y-8265000D02*
X10430000Y-8295000D01*
X10430000Y-8265000D02*
X10400000Y-8295000D01*
X10406665Y-8935325D02*
X10436665Y-8965325D01*
X10436665Y-8935325D02*
X10406665Y-8965325D01*
X10407500Y-7665000D02*
X10437500Y-7695000D01*
X10437500Y-7665000D02*
X10407500Y-7695000D01*
X10470789Y-7645414D02*
X10500789Y-7675414D01*
X10500789Y-7645414D02*
X10470789Y-7675414D01*
X10500000Y-7845000D02*
X10530000Y-7875000D01*
X10530000Y-7845000D02*
X10500000Y-7875000D01*
X10504350Y-8645650D02*
X10534350Y-8675650D01*
X10534350Y-8645650D02*
X10504350Y-8675650D01*
X10518085Y-8263085D02*
X10548085Y-8293085D01*
X10548085Y-8263085D02*
X10518085Y-8293085D01*
X10529194Y-9146850D02*
X10559194Y-9176850D01*
X10559194Y-9146850D02*
X10529194Y-9176850D01*
X10532500Y-7445000D02*
X10562500Y-7475000D01*
X10562500Y-7445000D02*
X10532500Y-7475000D01*
X10532500Y-7625000D02*
X10562500Y-7655000D01*
X10562500Y-7625000D02*
X10532500Y-7655000D01*
X10550729Y-8595582D02*
X10580729Y-8625582D01*
X10580729Y-8595582D02*
X10550729Y-8625582D01*
X10564769Y-7837153D02*
X10594769Y-7867153D01*
X10594769Y-7837153D02*
X10564769Y-7867153D01*
X10565001Y-7902152D02*
X10595001Y-7932152D01*
X10595001Y-7902152D02*
X10565001Y-7932152D01*
X10597500Y-7625000D02*
X10627500Y-7655000D01*
X10627500Y-7625000D02*
X10597500Y-7655000D01*
X10681558Y-8470737D02*
X10711558Y-8500737D01*
X10711558Y-8470737D02*
X10681558Y-8500737D01*
X10714415Y-7764415D02*
X10744415Y-7794415D01*
X10744415Y-7764415D02*
X10714415Y-7794415D01*
X10715000Y-8415000D02*
X10745000Y-8445000D01*
X10745000Y-8415000D02*
X10715000Y-8445000D01*
X10725000Y-8685000D02*
X10755000Y-8715000D01*
X10755000Y-8685000D02*
X10725000Y-8715000D01*
X10728250Y-7385000D02*
X10758250Y-7415000D01*
X10758250Y-7385000D02*
X10728250Y-7415000D01*
X10745555Y-8623335D02*
X10775555Y-8653335D01*
X10775555Y-8623335D02*
X10745555Y-8653335D01*
X10751000Y-9146850D02*
X10781000Y-9176850D01*
X10781000Y-9146850D02*
X10751000Y-9176850D01*
X10855000Y-7435000D02*
X10885000Y-7465000D01*
X10885000Y-7435000D02*
X10855000Y-7465000D01*
X10856814Y-8104483D02*
X10886814Y-8134483D01*
X10886814Y-8104483D02*
X10856814Y-8134483D01*
X10865000Y-8040000D02*
X10895000Y-8070000D01*
X10895000Y-8040000D02*
X10865000Y-8070000D01*
X10905000Y-8425000D02*
X10935000Y-8455000D01*
X10935000Y-8425000D02*
X10905000Y-8455000D01*
X10965000Y-7425000D02*
X10995000Y-7455000D01*
X10995000Y-7425000D02*
X10965000Y-7455000D01*
X10965000Y-7490000D02*
X10995000Y-7520000D01*
X10995000Y-7490000D02*
X10965000Y-7520000D01*
X11081000Y-9147500D02*
X11111000Y-9177500D01*
X11111000Y-9147500D02*
X11081000Y-9177500D01*
X11085000Y-7445000D02*
X11115000Y-7475000D01*
X11115000Y-7445000D02*
X11085000Y-7475000D01*
X11085000Y-7565000D02*
X11115000Y-7595000D01*
X11115000Y-7565000D02*
X11085000Y-7595000D01*
X11120000Y-8625000D02*
X11150000Y-8655000D01*
X11150000Y-8625000D02*
X11120000Y-8655000D01*
X11121250Y-7840000D02*
X11151250Y-7870000D01*
X11151250Y-7840000D02*
X11121250Y-7870000D01*
X11122740Y-8102740D02*
X11152740Y-8132740D01*
X11152740Y-8102740D02*
X11122740Y-8132740D01*
X11139038Y-8279038D02*
X11169038Y-8309038D01*
X11169038Y-8279038D02*
X11139038Y-8309038D01*
X11146122Y-8042091D02*
X11176122Y-8072091D01*
X11176122Y-8042091D02*
X11146122Y-8072091D01*
X11155000Y-8915000D02*
X11185000Y-8945000D01*
X11185000Y-8915000D02*
X11155000Y-8945000D01*
X11184087Y-8445000D02*
X11214087Y-8475000D01*
X11214087Y-8445000D02*
X11184087Y-8475000D01*
X11185000Y-8225000D02*
X11215000Y-8255000D01*
X11215000Y-8225000D02*
X11185000Y-8255000D01*
X11185000Y-8325000D02*
X11215000Y-8355000D01*
X11215000Y-8325000D02*
X11185000Y-8355000D01*
X11185000Y-8625000D02*
X11215000Y-8655000D01*
X11215000Y-8625000D02*
X11185000Y-8655000D01*
X11190129Y-8510128D02*
X11220129Y-8540128D01*
X11220129Y-8510128D02*
X11190129Y-8540128D01*
X11195500Y-7395000D02*
X11225500Y-7425000D01*
X11225500Y-7395000D02*
X11195500Y-7425000D01*
X11195500Y-7495000D02*
X11225500Y-7525000D01*
X11225500Y-7495000D02*
X11195500Y-7525000D01*
X11204500Y-9145000D02*
X11234500Y-9175000D01*
X11234500Y-9145000D02*
X11204500Y-9175000D01*
X11205000Y-7551404D02*
X11235000Y-7581404D01*
X11235000Y-7551404D02*
X11205000Y-7581404D01*
X11219989Y-8913790D02*
X11249989Y-8943790D01*
X11249989Y-8913790D02*
X11219989Y-8943790D01*
X11243252Y-8124559D02*
X11273252Y-8154559D01*
X11273252Y-8124559D02*
X11243252Y-8154559D01*
X11298750Y-7385000D02*
X11328750Y-7415000D01*
X11328750Y-7385000D02*
X11298750Y-7415000D01*
X11298750Y-7498500D02*
X11328750Y-7528500D01*
X11328750Y-7498500D02*
X11298750Y-7528500D01*
X11304263Y-7565000D02*
X11334263Y-7595000D01*
X11334263Y-7565000D02*
X11304263Y-7595000D01*
X11321995Y-7876835D02*
X11351995Y-7906835D01*
X11351995Y-7876835D02*
X11321995Y-7906835D01*
X11327000Y-9045000D02*
X11357000Y-9075000D01*
X11357000Y-9045000D02*
X11327000Y-9075000D01*
X11372250Y-7385289D02*
X11402250Y-7415289D01*
X11402250Y-7385289D02*
X11372250Y-7415289D01*
X8625000Y-9160000D02*
G75*
G02*
X8575000Y-9160000I-25000J0D01*
G01*
X8575000Y-9160000D02*
G75*
G02*
X8625000Y-9160000I25000J0D01*
G01*
D11*
X8778277Y-9553984D02*
X8778277Y-9353984D01*
X8778277Y-9353984D02*
X8825896Y-9353984D01*
X8825896Y-9353984D02*
X8854467Y-9363508D01*
X8854467Y-9363508D02*
X8873515Y-9382555D01*
X8873515Y-9382555D02*
X8883039Y-9401603D01*
X8883039Y-9401603D02*
X8892563Y-9439698D01*
X8892563Y-9439698D02*
X8892563Y-9468270D01*
X8892563Y-9468270D02*
X8883039Y-9506365D01*
X8883039Y-9506365D02*
X8873515Y-9525412D01*
X8873515Y-9525412D02*
X8854467Y-9544460D01*
X8854467Y-9544460D02*
X8825896Y-9553984D01*
X8825896Y-9553984D02*
X8778277Y-9553984D01*
X8978277Y-9553984D02*
X8978277Y-9420650D01*
X8978277Y-9458746D02*
X8987801Y-9439698D01*
X8987801Y-9439698D02*
X8997324Y-9430174D01*
X8997324Y-9430174D02*
X9016372Y-9420650D01*
X9016372Y-9420650D02*
X9035420Y-9420650D01*
X9102086Y-9553984D02*
X9102086Y-9420650D01*
X9102086Y-9353984D02*
X9092563Y-9363508D01*
X9092563Y-9363508D02*
X9102086Y-9373031D01*
X9102086Y-9373031D02*
X9111610Y-9363508D01*
X9111610Y-9363508D02*
X9102086Y-9353984D01*
X9102086Y-9353984D02*
X9102086Y-9373031D01*
X9225896Y-9553984D02*
X9206848Y-9544460D01*
X9206848Y-9544460D02*
X9197324Y-9525412D01*
X9197324Y-9525412D02*
X9197324Y-9353984D01*
X9330658Y-9553984D02*
X9311610Y-9544460D01*
X9311610Y-9544460D02*
X9302086Y-9525412D01*
X9302086Y-9525412D02*
X9302086Y-9353984D01*
X9559229Y-9553984D02*
X9559229Y-9353984D01*
X9559229Y-9353984D02*
X9625896Y-9496841D01*
X9625896Y-9496841D02*
X9692563Y-9353984D01*
X9692563Y-9353984D02*
X9692563Y-9553984D01*
X9873515Y-9553984D02*
X9873515Y-9449222D01*
X9873515Y-9449222D02*
X9863991Y-9430174D01*
X9863991Y-9430174D02*
X9844944Y-9420650D01*
X9844944Y-9420650D02*
X9806848Y-9420650D01*
X9806848Y-9420650D02*
X9787801Y-9430174D01*
X9873515Y-9544460D02*
X9854467Y-9553984D01*
X9854467Y-9553984D02*
X9806848Y-9553984D01*
X9806848Y-9553984D02*
X9787801Y-9544460D01*
X9787801Y-9544460D02*
X9778277Y-9525412D01*
X9778277Y-9525412D02*
X9778277Y-9506365D01*
X9778277Y-9506365D02*
X9787801Y-9487317D01*
X9787801Y-9487317D02*
X9806848Y-9477793D01*
X9806848Y-9477793D02*
X9854467Y-9477793D01*
X9854467Y-9477793D02*
X9873515Y-9468270D01*
X9968753Y-9420650D02*
X9968753Y-9620650D01*
X9968753Y-9430174D02*
X9987801Y-9420650D01*
X9987801Y-9420650D02*
X10025896Y-9420650D01*
X10025896Y-9420650D02*
X10044944Y-9430174D01*
X10044944Y-9430174D02*
X10054467Y-9439698D01*
X10054467Y-9439698D02*
X10063991Y-9458746D01*
X10063991Y-9458746D02*
X10063991Y-9515889D01*
X10063991Y-9515889D02*
X10054467Y-9534936D01*
X10054467Y-9534936D02*
X10044944Y-9544460D01*
X10044944Y-9544460D02*
X10025896Y-9553984D01*
X10025896Y-9553984D02*
X9987801Y-9553984D01*
X9987801Y-9553984D02*
X9968753Y-9544460D01*
X10149705Y-9534936D02*
X10159229Y-9544460D01*
X10159229Y-9544460D02*
X10149705Y-9553984D01*
X10149705Y-9553984D02*
X10140182Y-9544460D01*
X10140182Y-9544460D02*
X10149705Y-9534936D01*
X10149705Y-9534936D02*
X10149705Y-9553984D01*
X10149705Y-9430174D02*
X10159229Y-9439698D01*
X10159229Y-9439698D02*
X10149705Y-9449222D01*
X10149705Y-9449222D02*
X10140182Y-9439698D01*
X10140182Y-9439698D02*
X10149705Y-9430174D01*
X10149705Y-9430174D02*
X10149705Y-9449222D01*
D12*
X8487500Y-9867500D02*
X8517500Y-9897500D01*
X8517500Y-9867500D02*
X8487500Y-9897500D01*
D11*
X8816372Y-9773984D02*
X8835420Y-9773984D01*
X8835420Y-9773984D02*
X8854467Y-9783508D01*
X8854467Y-9783508D02*
X8863991Y-9793031D01*
X8863991Y-9793031D02*
X8873515Y-9812079D01*
X8873515Y-9812079D02*
X8883039Y-9850174D01*
X8883039Y-9850174D02*
X8883039Y-9897793D01*
X8883039Y-9897793D02*
X8873515Y-9935889D01*
X8873515Y-9935889D02*
X8863991Y-9954936D01*
X8863991Y-9954936D02*
X8854467Y-9964460D01*
X8854467Y-9964460D02*
X8835420Y-9973984D01*
X8835420Y-9973984D02*
X8816372Y-9973984D01*
X8816372Y-9973984D02*
X8797324Y-9964460D01*
X8797324Y-9964460D02*
X8787801Y-9954936D01*
X8787801Y-9954936D02*
X8778277Y-9935889D01*
X8778277Y-9935889D02*
X8768753Y-9897793D01*
X8768753Y-9897793D02*
X8768753Y-9850174D01*
X8768753Y-9850174D02*
X8778277Y-9812079D01*
X8778277Y-9812079D02*
X8787801Y-9793031D01*
X8787801Y-9793031D02*
X8797324Y-9783508D01*
X8797324Y-9783508D02*
X8816372Y-9773984D01*
X8968753Y-9954936D02*
X8978277Y-9964460D01*
X8978277Y-9964460D02*
X8968753Y-9973984D01*
X8968753Y-9973984D02*
X8959229Y-9964460D01*
X8959229Y-9964460D02*
X8968753Y-9954936D01*
X8968753Y-9954936D02*
X8968753Y-9973984D01*
X9044944Y-9773984D02*
X9168753Y-9773984D01*
X9168753Y-9773984D02*
X9102086Y-9850174D01*
X9102086Y-9850174D02*
X9130658Y-9850174D01*
X9130658Y-9850174D02*
X9149705Y-9859698D01*
X9149705Y-9859698D02*
X9159229Y-9869222D01*
X9159229Y-9869222D02*
X9168753Y-9888270D01*
X9168753Y-9888270D02*
X9168753Y-9935889D01*
X9168753Y-9935889D02*
X9159229Y-9954936D01*
X9159229Y-9954936D02*
X9149705Y-9964460D01*
X9149705Y-9964460D02*
X9130658Y-9973984D01*
X9130658Y-9973984D02*
X9073515Y-9973984D01*
X9073515Y-9973984D02*
X9054467Y-9964460D01*
X9054467Y-9964460D02*
X9044944Y-9954936D01*
X9292563Y-9773984D02*
X9311610Y-9773984D01*
X9311610Y-9773984D02*
X9330658Y-9783508D01*
X9330658Y-9783508D02*
X9340182Y-9793031D01*
X9340182Y-9793031D02*
X9349705Y-9812079D01*
X9349705Y-9812079D02*
X9359229Y-9850174D01*
X9359229Y-9850174D02*
X9359229Y-9897793D01*
X9359229Y-9897793D02*
X9349705Y-9935889D01*
X9349705Y-9935889D02*
X9340182Y-9954936D01*
X9340182Y-9954936D02*
X9330658Y-9964460D01*
X9330658Y-9964460D02*
X9311610Y-9973984D01*
X9311610Y-9973984D02*
X9292563Y-9973984D01*
X9292563Y-9973984D02*
X9273515Y-9964460D01*
X9273515Y-9964460D02*
X9263991Y-9954936D01*
X9263991Y-9954936D02*
X9254467Y-9935889D01*
X9254467Y-9935889D02*
X9244944Y-9897793D01*
X9244944Y-9897793D02*
X9244944Y-9850174D01*
X9244944Y-9850174D02*
X9254467Y-9812079D01*
X9254467Y-9812079D02*
X9263991Y-9793031D01*
X9263991Y-9793031D02*
X9273515Y-9783508D01*
X9273515Y-9783508D02*
X9292563Y-9773984D01*
X9483039Y-9773984D02*
X9502086Y-9773984D01*
X9502086Y-9773984D02*
X9521134Y-9783508D01*
X9521134Y-9783508D02*
X9530658Y-9793031D01*
X9530658Y-9793031D02*
X9540182Y-9812079D01*
X9540182Y-9812079D02*
X9549705Y-9850174D01*
X9549705Y-9850174D02*
X9549705Y-9897793D01*
X9549705Y-9897793D02*
X9540182Y-9935889D01*
X9540182Y-9935889D02*
X9530658Y-9954936D01*
X9530658Y-9954936D02*
X9521134Y-9964460D01*
X9521134Y-9964460D02*
X9502086Y-9973984D01*
X9502086Y-9973984D02*
X9483039Y-9973984D01*
X9483039Y-9973984D02*
X9463991Y-9964460D01*
X9463991Y-9964460D02*
X9454467Y-9954936D01*
X9454467Y-9954936D02*
X9444944Y-9935889D01*
X9444944Y-9935889D02*
X9435420Y-9897793D01*
X9435420Y-9897793D02*
X9435420Y-9850174D01*
X9435420Y-9850174D02*
X9444944Y-9812079D01*
X9444944Y-9812079D02*
X9454467Y-9793031D01*
X9454467Y-9793031D02*
X9463991Y-9783508D01*
X9463991Y-9783508D02*
X9483039Y-9773984D01*
X9635420Y-9973984D02*
X9635420Y-9840650D01*
X9635420Y-9859698D02*
X9644944Y-9850174D01*
X9644944Y-9850174D02*
X9663991Y-9840650D01*
X9663991Y-9840650D02*
X9692563Y-9840650D01*
X9692563Y-9840650D02*
X9711610Y-9850174D01*
X9711610Y-9850174D02*
X9721134Y-9869222D01*
X9721134Y-9869222D02*
X9721134Y-9973984D01*
X9721134Y-9869222D02*
X9730658Y-9850174D01*
X9730658Y-9850174D02*
X9749705Y-9840650D01*
X9749705Y-9840650D02*
X9778277Y-9840650D01*
X9778277Y-9840650D02*
X9797325Y-9850174D01*
X9797325Y-9850174D02*
X9806848Y-9869222D01*
X9806848Y-9869222D02*
X9806848Y-9973984D01*
X9902086Y-9973984D02*
X9902086Y-9840650D01*
X9902086Y-9859698D02*
X9911610Y-9850174D01*
X9911610Y-9850174D02*
X9930658Y-9840650D01*
X9930658Y-9840650D02*
X9959229Y-9840650D01*
X9959229Y-9840650D02*
X9978277Y-9850174D01*
X9978277Y-9850174D02*
X9987801Y-9869222D01*
X9987801Y-9869222D02*
X9987801Y-9973984D01*
X9987801Y-9869222D02*
X9997325Y-9850174D01*
X9997325Y-9850174D02*
X10016372Y-9840650D01*
X10016372Y-9840650D02*
X10044944Y-9840650D01*
X10044944Y-9840650D02*
X10063991Y-9850174D01*
X10063991Y-9850174D02*
X10073515Y-9869222D01*
X10073515Y-9869222D02*
X10073515Y-9973984D01*
X10463991Y-9764460D02*
X10292563Y-10021603D01*
X10721134Y-9773984D02*
X10740182Y-9773984D01*
X10740182Y-9773984D02*
X10759229Y-9783508D01*
X10759229Y-9783508D02*
X10768753Y-9793031D01*
X10768753Y-9793031D02*
X10778277Y-9812079D01*
X10778277Y-9812079D02*
X10787801Y-9850174D01*
X10787801Y-9850174D02*
X10787801Y-9897793D01*
X10787801Y-9897793D02*
X10778277Y-9935889D01*
X10778277Y-9935889D02*
X10768753Y-9954936D01*
X10768753Y-9954936D02*
X10759229Y-9964460D01*
X10759229Y-9964460D02*
X10740182Y-9973984D01*
X10740182Y-9973984D02*
X10721134Y-9973984D01*
X10721134Y-9973984D02*
X10702087Y-9964460D01*
X10702087Y-9964460D02*
X10692563Y-9954936D01*
X10692563Y-9954936D02*
X10683039Y-9935889D01*
X10683039Y-9935889D02*
X10673515Y-9897793D01*
X10673515Y-9897793D02*
X10673515Y-9850174D01*
X10673515Y-9850174D02*
X10683039Y-9812079D01*
X10683039Y-9812079D02*
X10692563Y-9793031D01*
X10692563Y-9793031D02*
X10702087Y-9783508D01*
X10702087Y-9783508D02*
X10721134Y-9773984D01*
X10873515Y-9954936D02*
X10883039Y-9964460D01*
X10883039Y-9964460D02*
X10873515Y-9973984D01*
X10873515Y-9973984D02*
X10863991Y-9964460D01*
X10863991Y-9964460D02*
X10873515Y-9954936D01*
X10873515Y-9954936D02*
X10873515Y-9973984D01*
X11006848Y-9773984D02*
X11025896Y-9773984D01*
X11025896Y-9773984D02*
X11044944Y-9783508D01*
X11044944Y-9783508D02*
X11054468Y-9793031D01*
X11054468Y-9793031D02*
X11063991Y-9812079D01*
X11063991Y-9812079D02*
X11073515Y-9850174D01*
X11073515Y-9850174D02*
X11073515Y-9897793D01*
X11073515Y-9897793D02*
X11063991Y-9935889D01*
X11063991Y-9935889D02*
X11054468Y-9954936D01*
X11054468Y-9954936D02*
X11044944Y-9964460D01*
X11044944Y-9964460D02*
X11025896Y-9973984D01*
X11025896Y-9973984D02*
X11006848Y-9973984D01*
X11006848Y-9973984D02*
X10987801Y-9964460D01*
X10987801Y-9964460D02*
X10978277Y-9954936D01*
X10978277Y-9954936D02*
X10968753Y-9935889D01*
X10968753Y-9935889D02*
X10959229Y-9897793D01*
X10959229Y-9897793D02*
X10959229Y-9850174D01*
X10959229Y-9850174D02*
X10968753Y-9812079D01*
X10968753Y-9812079D02*
X10978277Y-9793031D01*
X10978277Y-9793031D02*
X10987801Y-9783508D01*
X10987801Y-9783508D02*
X11006848Y-9773984D01*
X11263991Y-9973984D02*
X11149706Y-9973984D01*
X11206848Y-9973984D02*
X11206848Y-9773984D01*
X11206848Y-9773984D02*
X11187801Y-9802555D01*
X11187801Y-9802555D02*
X11168753Y-9821603D01*
X11168753Y-9821603D02*
X11149706Y-9831127D01*
X11454467Y-9973984D02*
X11340182Y-9973984D01*
X11397325Y-9973984D02*
X11397325Y-9773984D01*
X11397325Y-9773984D02*
X11378277Y-9802555D01*
X11378277Y-9802555D02*
X11359229Y-9821603D01*
X11359229Y-9821603D02*
X11340182Y-9831127D01*
X11568753Y-9859698D02*
X11549706Y-9850174D01*
X11549706Y-9850174D02*
X11540182Y-9840650D01*
X11540182Y-9840650D02*
X11530658Y-9821603D01*
X11530658Y-9821603D02*
X11530658Y-9812079D01*
X11530658Y-9812079D02*
X11540182Y-9793031D01*
X11540182Y-9793031D02*
X11549706Y-9783508D01*
X11549706Y-9783508D02*
X11568753Y-9773984D01*
X11568753Y-9773984D02*
X11606848Y-9773984D01*
X11606848Y-9773984D02*
X11625896Y-9783508D01*
X11625896Y-9783508D02*
X11635420Y-9793031D01*
X11635420Y-9793031D02*
X11644944Y-9812079D01*
X11644944Y-9812079D02*
X11644944Y-9821603D01*
X11644944Y-9821603D02*
X11635420Y-9840650D01*
X11635420Y-9840650D02*
X11625896Y-9850174D01*
X11625896Y-9850174D02*
X11606848Y-9859698D01*
X11606848Y-9859698D02*
X11568753Y-9859698D01*
X11568753Y-9859698D02*
X11549706Y-9869222D01*
X11549706Y-9869222D02*
X11540182Y-9878746D01*
X11540182Y-9878746D02*
X11530658Y-9897793D01*
X11530658Y-9897793D02*
X11530658Y-9935889D01*
X11530658Y-9935889D02*
X11540182Y-9954936D01*
X11540182Y-9954936D02*
X11549706Y-9964460D01*
X11549706Y-9964460D02*
X11568753Y-9973984D01*
X11568753Y-9973984D02*
X11606848Y-9973984D01*
X11606848Y-9973984D02*
X11625896Y-9964460D01*
X11625896Y-9964460D02*
X11635420Y-9954936D01*
X11635420Y-9954936D02*
X11644944Y-9935889D01*
X11644944Y-9935889D02*
X11644944Y-9897793D01*
X11644944Y-9897793D02*
X11635420Y-9878746D01*
X11635420Y-9878746D02*
X11625896Y-9869222D01*
X11625896Y-9869222D02*
X11606848Y-9859698D01*
X11721134Y-9773984D02*
X11721134Y-9812079D01*
X11797325Y-9773984D02*
X11797325Y-9812079D01*
X12092563Y-10050174D02*
X12083039Y-10040650D01*
X12083039Y-10040650D02*
X12063991Y-10012079D01*
X12063991Y-10012079D02*
X12054468Y-9993031D01*
X12054468Y-9993031D02*
X12044944Y-9964460D01*
X12044944Y-9964460D02*
X12035420Y-9916841D01*
X12035420Y-9916841D02*
X12035420Y-9878746D01*
X12035420Y-9878746D02*
X12044944Y-9831127D01*
X12044944Y-9831127D02*
X12054468Y-9802555D01*
X12054468Y-9802555D02*
X12063991Y-9783508D01*
X12063991Y-9783508D02*
X12083039Y-9754936D01*
X12083039Y-9754936D02*
X12092563Y-9745412D01*
X12273515Y-9973984D02*
X12159229Y-9973984D01*
X12216372Y-9973984D02*
X12216372Y-9773984D01*
X12216372Y-9773984D02*
X12197325Y-9802555D01*
X12197325Y-9802555D02*
X12178277Y-9821603D01*
X12178277Y-9821603D02*
X12159229Y-9831127D01*
X12387801Y-9859698D02*
X12368753Y-9850174D01*
X12368753Y-9850174D02*
X12359229Y-9840650D01*
X12359229Y-9840650D02*
X12349706Y-9821603D01*
X12349706Y-9821603D02*
X12349706Y-9812079D01*
X12349706Y-9812079D02*
X12359229Y-9793031D01*
X12359229Y-9793031D02*
X12368753Y-9783508D01*
X12368753Y-9783508D02*
X12387801Y-9773984D01*
X12387801Y-9773984D02*
X12425896Y-9773984D01*
X12425896Y-9773984D02*
X12444944Y-9783508D01*
X12444944Y-9783508D02*
X12454468Y-9793031D01*
X12454468Y-9793031D02*
X12463991Y-9812079D01*
X12463991Y-9812079D02*
X12463991Y-9821603D01*
X12463991Y-9821603D02*
X12454468Y-9840650D01*
X12454468Y-9840650D02*
X12444944Y-9850174D01*
X12444944Y-9850174D02*
X12425896Y-9859698D01*
X12425896Y-9859698D02*
X12387801Y-9859698D01*
X12387801Y-9859698D02*
X12368753Y-9869222D01*
X12368753Y-9869222D02*
X12359229Y-9878746D01*
X12359229Y-9878746D02*
X12349706Y-9897793D01*
X12349706Y-9897793D02*
X12349706Y-9935889D01*
X12349706Y-9935889D02*
X12359229Y-9954936D01*
X12359229Y-9954936D02*
X12368753Y-9964460D01*
X12368753Y-9964460D02*
X12387801Y-9973984D01*
X12387801Y-9973984D02*
X12425896Y-9973984D01*
X12425896Y-9973984D02*
X12444944Y-9964460D01*
X12444944Y-9964460D02*
X12454468Y-9954936D01*
X12454468Y-9954936D02*
X12463991Y-9935889D01*
X12463991Y-9935889D02*
X12463991Y-9897793D01*
X12463991Y-9897793D02*
X12454468Y-9878746D01*
X12454468Y-9878746D02*
X12444944Y-9869222D01*
X12444944Y-9869222D02*
X12425896Y-9859698D01*
X12644944Y-9773984D02*
X12549706Y-9773984D01*
X12549706Y-9773984D02*
X12540182Y-9869222D01*
X12540182Y-9869222D02*
X12549706Y-9859698D01*
X12549706Y-9859698D02*
X12568753Y-9850174D01*
X12568753Y-9850174D02*
X12616372Y-9850174D01*
X12616372Y-9850174D02*
X12635420Y-9859698D01*
X12635420Y-9859698D02*
X12644944Y-9869222D01*
X12644944Y-9869222D02*
X12654468Y-9888270D01*
X12654468Y-9888270D02*
X12654468Y-9935889D01*
X12654468Y-9935889D02*
X12644944Y-9954936D01*
X12644944Y-9954936D02*
X12635420Y-9964460D01*
X12635420Y-9964460D02*
X12616372Y-9973984D01*
X12616372Y-9973984D02*
X12568753Y-9973984D01*
X12568753Y-9973984D02*
X12549706Y-9964460D01*
X12549706Y-9964460D02*
X12540182Y-9954936D01*
X12892563Y-9973984D02*
X12892563Y-9773984D01*
X12978277Y-9973984D02*
X12978277Y-9869222D01*
X12978277Y-9869222D02*
X12968753Y-9850174D01*
X12968753Y-9850174D02*
X12949706Y-9840650D01*
X12949706Y-9840650D02*
X12921134Y-9840650D01*
X12921134Y-9840650D02*
X12902087Y-9850174D01*
X12902087Y-9850174D02*
X12892563Y-9859698D01*
X13102087Y-9973984D02*
X13083039Y-9964460D01*
X13083039Y-9964460D02*
X13073515Y-9954936D01*
X13073515Y-9954936D02*
X13063991Y-9935889D01*
X13063991Y-9935889D02*
X13063991Y-9878746D01*
X13063991Y-9878746D02*
X13073515Y-9859698D01*
X13073515Y-9859698D02*
X13083039Y-9850174D01*
X13083039Y-9850174D02*
X13102087Y-9840650D01*
X13102087Y-9840650D02*
X13130658Y-9840650D01*
X13130658Y-9840650D02*
X13149706Y-9850174D01*
X13149706Y-9850174D02*
X13159230Y-9859698D01*
X13159230Y-9859698D02*
X13168753Y-9878746D01*
X13168753Y-9878746D02*
X13168753Y-9935889D01*
X13168753Y-9935889D02*
X13159230Y-9954936D01*
X13159230Y-9954936D02*
X13149706Y-9964460D01*
X13149706Y-9964460D02*
X13130658Y-9973984D01*
X13130658Y-9973984D02*
X13102087Y-9973984D01*
X13283039Y-9973984D02*
X13263991Y-9964460D01*
X13263991Y-9964460D02*
X13254468Y-9945412D01*
X13254468Y-9945412D02*
X13254468Y-9773984D01*
X13435420Y-9964460D02*
X13416372Y-9973984D01*
X13416372Y-9973984D02*
X13378277Y-9973984D01*
X13378277Y-9973984D02*
X13359230Y-9964460D01*
X13359230Y-9964460D02*
X13349706Y-9945412D01*
X13349706Y-9945412D02*
X13349706Y-9869222D01*
X13349706Y-9869222D02*
X13359230Y-9850174D01*
X13359230Y-9850174D02*
X13378277Y-9840650D01*
X13378277Y-9840650D02*
X13416372Y-9840650D01*
X13416372Y-9840650D02*
X13435420Y-9850174D01*
X13435420Y-9850174D02*
X13444944Y-9869222D01*
X13444944Y-9869222D02*
X13444944Y-9888270D01*
X13444944Y-9888270D02*
X13349706Y-9907317D01*
X13521134Y-9964460D02*
X13540182Y-9973984D01*
X13540182Y-9973984D02*
X13578277Y-9973984D01*
X13578277Y-9973984D02*
X13597325Y-9964460D01*
X13597325Y-9964460D02*
X13606849Y-9945412D01*
X13606849Y-9945412D02*
X13606849Y-9935889D01*
X13606849Y-9935889D02*
X13597325Y-9916841D01*
X13597325Y-9916841D02*
X13578277Y-9907317D01*
X13578277Y-9907317D02*
X13549706Y-9907317D01*
X13549706Y-9907317D02*
X13530658Y-9897793D01*
X13530658Y-9897793D02*
X13521134Y-9878746D01*
X13521134Y-9878746D02*
X13521134Y-9869222D01*
X13521134Y-9869222D02*
X13530658Y-9850174D01*
X13530658Y-9850174D02*
X13549706Y-9840650D01*
X13549706Y-9840650D02*
X13578277Y-9840650D01*
X13578277Y-9840650D02*
X13597325Y-9850174D01*
X13673515Y-10050174D02*
X13683039Y-10040650D01*
X13683039Y-10040650D02*
X13702087Y-10012079D01*
X13702087Y-10012079D02*
X13711611Y-9993031D01*
X13711611Y-9993031D02*
X13721134Y-9964460D01*
X13721134Y-9964460D02*
X13730658Y-9916841D01*
X13730658Y-9916841D02*
X13730658Y-9878746D01*
X13730658Y-9878746D02*
X13721134Y-9831127D01*
X13721134Y-9831127D02*
X13711611Y-9802555D01*
X13711611Y-9802555D02*
X13702087Y-9783508D01*
X13702087Y-9783508D02*
X13683039Y-9754936D01*
X13683039Y-9754936D02*
X13673515Y-9745412D01*
D12*
X8517500Y-10146500D02*
G75*
G02*
X8467500Y-10146500I-25000J0D01*
G01*
X8467500Y-10146500D02*
G75*
G02*
X8517500Y-10146500I25000J0D01*
G01*
D11*
X8816372Y-10037984D02*
X8835420Y-10037984D01*
X8835420Y-10037984D02*
X8854467Y-10047508D01*
X8854467Y-10047508D02*
X8863991Y-10057031D01*
X8863991Y-10057031D02*
X8873515Y-10076079D01*
X8873515Y-10076079D02*
X8883039Y-10114174D01*
X8883039Y-10114174D02*
X8883039Y-10161793D01*
X8883039Y-10161793D02*
X8873515Y-10199889D01*
X8873515Y-10199889D02*
X8863991Y-10218936D01*
X8863991Y-10218936D02*
X8854467Y-10228460D01*
X8854467Y-10228460D02*
X8835420Y-10237984D01*
X8835420Y-10237984D02*
X8816372Y-10237984D01*
X8816372Y-10237984D02*
X8797324Y-10228460D01*
X8797324Y-10228460D02*
X8787801Y-10218936D01*
X8787801Y-10218936D02*
X8778277Y-10199889D01*
X8778277Y-10199889D02*
X8768753Y-10161793D01*
X8768753Y-10161793D02*
X8768753Y-10114174D01*
X8768753Y-10114174D02*
X8778277Y-10076079D01*
X8778277Y-10076079D02*
X8787801Y-10057031D01*
X8787801Y-10057031D02*
X8797324Y-10047508D01*
X8797324Y-10047508D02*
X8816372Y-10037984D01*
X8968753Y-10218936D02*
X8978277Y-10228460D01*
X8978277Y-10228460D02*
X8968753Y-10237984D01*
X8968753Y-10237984D02*
X8959229Y-10228460D01*
X8959229Y-10228460D02*
X8968753Y-10218936D01*
X8968753Y-10218936D02*
X8968753Y-10237984D01*
X9159229Y-10037984D02*
X9063991Y-10037984D01*
X9063991Y-10037984D02*
X9054467Y-10133222D01*
X9054467Y-10133222D02*
X9063991Y-10123698D01*
X9063991Y-10123698D02*
X9083039Y-10114174D01*
X9083039Y-10114174D02*
X9130658Y-10114174D01*
X9130658Y-10114174D02*
X9149705Y-10123698D01*
X9149705Y-10123698D02*
X9159229Y-10133222D01*
X9159229Y-10133222D02*
X9168753Y-10152270D01*
X9168753Y-10152270D02*
X9168753Y-10199889D01*
X9168753Y-10199889D02*
X9159229Y-10218936D01*
X9159229Y-10218936D02*
X9149705Y-10228460D01*
X9149705Y-10228460D02*
X9130658Y-10237984D01*
X9130658Y-10237984D02*
X9083039Y-10237984D01*
X9083039Y-10237984D02*
X9063991Y-10228460D01*
X9063991Y-10228460D02*
X9054467Y-10218936D01*
X9292563Y-10037984D02*
X9311610Y-10037984D01*
X9311610Y-10037984D02*
X9330658Y-10047508D01*
X9330658Y-10047508D02*
X9340182Y-10057031D01*
X9340182Y-10057031D02*
X9349705Y-10076079D01*
X9349705Y-10076079D02*
X9359229Y-10114174D01*
X9359229Y-10114174D02*
X9359229Y-10161793D01*
X9359229Y-10161793D02*
X9349705Y-10199889D01*
X9349705Y-10199889D02*
X9340182Y-10218936D01*
X9340182Y-10218936D02*
X9330658Y-10228460D01*
X9330658Y-10228460D02*
X9311610Y-10237984D01*
X9311610Y-10237984D02*
X9292563Y-10237984D01*
X9292563Y-10237984D02*
X9273515Y-10228460D01*
X9273515Y-10228460D02*
X9263991Y-10218936D01*
X9263991Y-10218936D02*
X9254467Y-10199889D01*
X9254467Y-10199889D02*
X9244944Y-10161793D01*
X9244944Y-10161793D02*
X9244944Y-10114174D01*
X9244944Y-10114174D02*
X9254467Y-10076079D01*
X9254467Y-10076079D02*
X9263991Y-10057031D01*
X9263991Y-10057031D02*
X9273515Y-10047508D01*
X9273515Y-10047508D02*
X9292563Y-10037984D01*
X9483039Y-10037984D02*
X9502086Y-10037984D01*
X9502086Y-10037984D02*
X9521134Y-10047508D01*
X9521134Y-10047508D02*
X9530658Y-10057031D01*
X9530658Y-10057031D02*
X9540182Y-10076079D01*
X9540182Y-10076079D02*
X9549705Y-10114174D01*
X9549705Y-10114174D02*
X9549705Y-10161793D01*
X9549705Y-10161793D02*
X9540182Y-10199889D01*
X9540182Y-10199889D02*
X9530658Y-10218936D01*
X9530658Y-10218936D02*
X9521134Y-10228460D01*
X9521134Y-10228460D02*
X9502086Y-10237984D01*
X9502086Y-10237984D02*
X9483039Y-10237984D01*
X9483039Y-10237984D02*
X9463991Y-10228460D01*
X9463991Y-10228460D02*
X9454467Y-10218936D01*
X9454467Y-10218936D02*
X9444944Y-10199889D01*
X9444944Y-10199889D02*
X9435420Y-10161793D01*
X9435420Y-10161793D02*
X9435420Y-10114174D01*
X9435420Y-10114174D02*
X9444944Y-10076079D01*
X9444944Y-10076079D02*
X9454467Y-10057031D01*
X9454467Y-10057031D02*
X9463991Y-10047508D01*
X9463991Y-10047508D02*
X9483039Y-10037984D01*
X9635420Y-10237984D02*
X9635420Y-10104650D01*
X9635420Y-10123698D02*
X9644944Y-10114174D01*
X9644944Y-10114174D02*
X9663991Y-10104650D01*
X9663991Y-10104650D02*
X9692563Y-10104650D01*
X9692563Y-10104650D02*
X9711610Y-10114174D01*
X9711610Y-10114174D02*
X9721134Y-10133222D01*
X9721134Y-10133222D02*
X9721134Y-10237984D01*
X9721134Y-10133222D02*
X9730658Y-10114174D01*
X9730658Y-10114174D02*
X9749705Y-10104650D01*
X9749705Y-10104650D02*
X9778277Y-10104650D01*
X9778277Y-10104650D02*
X9797325Y-10114174D01*
X9797325Y-10114174D02*
X9806848Y-10133222D01*
X9806848Y-10133222D02*
X9806848Y-10237984D01*
X9902086Y-10237984D02*
X9902086Y-10104650D01*
X9902086Y-10123698D02*
X9911610Y-10114174D01*
X9911610Y-10114174D02*
X9930658Y-10104650D01*
X9930658Y-10104650D02*
X9959229Y-10104650D01*
X9959229Y-10104650D02*
X9978277Y-10114174D01*
X9978277Y-10114174D02*
X9987801Y-10133222D01*
X9987801Y-10133222D02*
X9987801Y-10237984D01*
X9987801Y-10133222D02*
X9997325Y-10114174D01*
X9997325Y-10114174D02*
X10016372Y-10104650D01*
X10016372Y-10104650D02*
X10044944Y-10104650D01*
X10044944Y-10104650D02*
X10063991Y-10114174D01*
X10063991Y-10114174D02*
X10073515Y-10133222D01*
X10073515Y-10133222D02*
X10073515Y-10237984D01*
X10463991Y-10028460D02*
X10292563Y-10285603D01*
X10721134Y-10037984D02*
X10740182Y-10037984D01*
X10740182Y-10037984D02*
X10759229Y-10047508D01*
X10759229Y-10047508D02*
X10768753Y-10057031D01*
X10768753Y-10057031D02*
X10778277Y-10076079D01*
X10778277Y-10076079D02*
X10787801Y-10114174D01*
X10787801Y-10114174D02*
X10787801Y-10161793D01*
X10787801Y-10161793D02*
X10778277Y-10199889D01*
X10778277Y-10199889D02*
X10768753Y-10218936D01*
X10768753Y-10218936D02*
X10759229Y-10228460D01*
X10759229Y-10228460D02*
X10740182Y-10237984D01*
X10740182Y-10237984D02*
X10721134Y-10237984D01*
X10721134Y-10237984D02*
X10702087Y-10228460D01*
X10702087Y-10228460D02*
X10692563Y-10218936D01*
X10692563Y-10218936D02*
X10683039Y-10199889D01*
X10683039Y-10199889D02*
X10673515Y-10161793D01*
X10673515Y-10161793D02*
X10673515Y-10114174D01*
X10673515Y-10114174D02*
X10683039Y-10076079D01*
X10683039Y-10076079D02*
X10692563Y-10057031D01*
X10692563Y-10057031D02*
X10702087Y-10047508D01*
X10702087Y-10047508D02*
X10721134Y-10037984D01*
X10873515Y-10218936D02*
X10883039Y-10228460D01*
X10883039Y-10228460D02*
X10873515Y-10237984D01*
X10873515Y-10237984D02*
X10863991Y-10228460D01*
X10863991Y-10228460D02*
X10873515Y-10218936D01*
X10873515Y-10218936D02*
X10873515Y-10237984D01*
X11006848Y-10037984D02*
X11025896Y-10037984D01*
X11025896Y-10037984D02*
X11044944Y-10047508D01*
X11044944Y-10047508D02*
X11054468Y-10057031D01*
X11054468Y-10057031D02*
X11063991Y-10076079D01*
X11063991Y-10076079D02*
X11073515Y-10114174D01*
X11073515Y-10114174D02*
X11073515Y-10161793D01*
X11073515Y-10161793D02*
X11063991Y-10199889D01*
X11063991Y-10199889D02*
X11054468Y-10218936D01*
X11054468Y-10218936D02*
X11044944Y-10228460D01*
X11044944Y-10228460D02*
X11025896Y-10237984D01*
X11025896Y-10237984D02*
X11006848Y-10237984D01*
X11006848Y-10237984D02*
X10987801Y-10228460D01*
X10987801Y-10228460D02*
X10978277Y-10218936D01*
X10978277Y-10218936D02*
X10968753Y-10199889D01*
X10968753Y-10199889D02*
X10959229Y-10161793D01*
X10959229Y-10161793D02*
X10959229Y-10114174D01*
X10959229Y-10114174D02*
X10968753Y-10076079D01*
X10968753Y-10076079D02*
X10978277Y-10057031D01*
X10978277Y-10057031D02*
X10987801Y-10047508D01*
X10987801Y-10047508D02*
X11006848Y-10037984D01*
X11263991Y-10237984D02*
X11149706Y-10237984D01*
X11206848Y-10237984D02*
X11206848Y-10037984D01*
X11206848Y-10037984D02*
X11187801Y-10066555D01*
X11187801Y-10066555D02*
X11168753Y-10085603D01*
X11168753Y-10085603D02*
X11149706Y-10095127D01*
X11359229Y-10237984D02*
X11397325Y-10237984D01*
X11397325Y-10237984D02*
X11416372Y-10228460D01*
X11416372Y-10228460D02*
X11425896Y-10218936D01*
X11425896Y-10218936D02*
X11444944Y-10190365D01*
X11444944Y-10190365D02*
X11454467Y-10152270D01*
X11454467Y-10152270D02*
X11454467Y-10076079D01*
X11454467Y-10076079D02*
X11444944Y-10057031D01*
X11444944Y-10057031D02*
X11435420Y-10047508D01*
X11435420Y-10047508D02*
X11416372Y-10037984D01*
X11416372Y-10037984D02*
X11378277Y-10037984D01*
X11378277Y-10037984D02*
X11359229Y-10047508D01*
X11359229Y-10047508D02*
X11349706Y-10057031D01*
X11349706Y-10057031D02*
X11340182Y-10076079D01*
X11340182Y-10076079D02*
X11340182Y-10123698D01*
X11340182Y-10123698D02*
X11349706Y-10142746D01*
X11349706Y-10142746D02*
X11359229Y-10152270D01*
X11359229Y-10152270D02*
X11378277Y-10161793D01*
X11378277Y-10161793D02*
X11416372Y-10161793D01*
X11416372Y-10161793D02*
X11435420Y-10152270D01*
X11435420Y-10152270D02*
X11444944Y-10142746D01*
X11444944Y-10142746D02*
X11454467Y-10123698D01*
X11521134Y-10037984D02*
X11654467Y-10037984D01*
X11654467Y-10037984D02*
X11568753Y-10237984D01*
X11721134Y-10037984D02*
X11721134Y-10076079D01*
X11797325Y-10037984D02*
X11797325Y-10076079D01*
X12092563Y-10314174D02*
X12083039Y-10304650D01*
X12083039Y-10304650D02*
X12063991Y-10276079D01*
X12063991Y-10276079D02*
X12054468Y-10257031D01*
X12054468Y-10257031D02*
X12044944Y-10228460D01*
X12044944Y-10228460D02*
X12035420Y-10180841D01*
X12035420Y-10180841D02*
X12035420Y-10142746D01*
X12035420Y-10142746D02*
X12044944Y-10095127D01*
X12044944Y-10095127D02*
X12054468Y-10066555D01*
X12054468Y-10066555D02*
X12063991Y-10047508D01*
X12063991Y-10047508D02*
X12083039Y-10018936D01*
X12083039Y-10018936D02*
X12092563Y-10009412D01*
X12273515Y-10237984D02*
X12159229Y-10237984D01*
X12216372Y-10237984D02*
X12216372Y-10037984D01*
X12216372Y-10037984D02*
X12197325Y-10066555D01*
X12197325Y-10066555D02*
X12178277Y-10085603D01*
X12178277Y-10085603D02*
X12159229Y-10095127D01*
X12511610Y-10237984D02*
X12511610Y-10037984D01*
X12597325Y-10237984D02*
X12597325Y-10133222D01*
X12597325Y-10133222D02*
X12587801Y-10114174D01*
X12587801Y-10114174D02*
X12568753Y-10104650D01*
X12568753Y-10104650D02*
X12540182Y-10104650D01*
X12540182Y-10104650D02*
X12521134Y-10114174D01*
X12521134Y-10114174D02*
X12511610Y-10123698D01*
X12721134Y-10237984D02*
X12702087Y-10228460D01*
X12702087Y-10228460D02*
X12692563Y-10218936D01*
X12692563Y-10218936D02*
X12683039Y-10199889D01*
X12683039Y-10199889D02*
X12683039Y-10142746D01*
X12683039Y-10142746D02*
X12692563Y-10123698D01*
X12692563Y-10123698D02*
X12702087Y-10114174D01*
X12702087Y-10114174D02*
X12721134Y-10104650D01*
X12721134Y-10104650D02*
X12749706Y-10104650D01*
X12749706Y-10104650D02*
X12768753Y-10114174D01*
X12768753Y-10114174D02*
X12778277Y-10123698D01*
X12778277Y-10123698D02*
X12787801Y-10142746D01*
X12787801Y-10142746D02*
X12787801Y-10199889D01*
X12787801Y-10199889D02*
X12778277Y-10218936D01*
X12778277Y-10218936D02*
X12768753Y-10228460D01*
X12768753Y-10228460D02*
X12749706Y-10237984D01*
X12749706Y-10237984D02*
X12721134Y-10237984D01*
X12902087Y-10237984D02*
X12883039Y-10228460D01*
X12883039Y-10228460D02*
X12873515Y-10209412D01*
X12873515Y-10209412D02*
X12873515Y-10037984D01*
X13054468Y-10228460D02*
X13035420Y-10237984D01*
X13035420Y-10237984D02*
X12997325Y-10237984D01*
X12997325Y-10237984D02*
X12978277Y-10228460D01*
X12978277Y-10228460D02*
X12968753Y-10209412D01*
X12968753Y-10209412D02*
X12968753Y-10133222D01*
X12968753Y-10133222D02*
X12978277Y-10114174D01*
X12978277Y-10114174D02*
X12997325Y-10104650D01*
X12997325Y-10104650D02*
X13035420Y-10104650D01*
X13035420Y-10104650D02*
X13054468Y-10114174D01*
X13054468Y-10114174D02*
X13063991Y-10133222D01*
X13063991Y-10133222D02*
X13063991Y-10152270D01*
X13063991Y-10152270D02*
X12968753Y-10171317D01*
X13130658Y-10314174D02*
X13140182Y-10304650D01*
X13140182Y-10304650D02*
X13159230Y-10276079D01*
X13159230Y-10276079D02*
X13168753Y-10257031D01*
X13168753Y-10257031D02*
X13178277Y-10228460D01*
X13178277Y-10228460D02*
X13187801Y-10180841D01*
X13187801Y-10180841D02*
X13187801Y-10142746D01*
X13187801Y-10142746D02*
X13178277Y-10095127D01*
X13178277Y-10095127D02*
X13168753Y-10066555D01*
X13168753Y-10066555D02*
X13159230Y-10047508D01*
X13159230Y-10047508D02*
X13140182Y-10018936D01*
X13140182Y-10018936D02*
X13130658Y-10009412D01*
M02*
