%TF.GenerationSoftware,KiCad,Pcbnew,8.0.0*%
%TF.CreationDate,2024-09-22T12:37:04-04:00*%
%TF.ProjectId,MainBoard,4d61696e-426f-4617-9264-2e6b69636164,rev?*%
%TF.SameCoordinates,Original*%
%TF.FileFunction,Drillmap*%
%TF.FilePolarity,Positive*%
%FSLAX45Y45*%
G04 Gerber Fmt 4.5, Leading zero omitted, Abs format (unit mm)*
G04 Created by KiCad (PCBNEW 8.0.0) date 2024-09-22 12:37:04*
%MOMM*%
%LPD*%
G01*
G04 APERTURE LIST*
%ADD10C,0.050000*%
%ADD11C,0.200000*%
G04 APERTURE END LIST*
D10*
X8580000Y-9240000D02*
X11380000Y-9240000D01*
X8520000Y-7400000D02*
X8520000Y-9180000D01*
X11380000Y-7340000D02*
G75*
G02*
X11440000Y-7400000I0J-60000D01*
G01*
X11440000Y-9180000D02*
G75*
G02*
X11380000Y-9240000I-60000J0D01*
G01*
X11380000Y-7340000D02*
X8580000Y-7340000D01*
X11440000Y-9180000D02*
X11440000Y-7400000D01*
X8520000Y-7400000D02*
G75*
G02*
X8580000Y-7340000I60000J0D01*
G01*
X8580000Y-9240000D02*
G75*
G02*
X8520000Y-9180000I0J60000D01*
G01*
D11*
X8778277Y-9553984D02*
X8778277Y-9353984D01*
X8778277Y-9353984D02*
X8825896Y-9353984D01*
X8825896Y-9353984D02*
X8854467Y-9363508D01*
X8854467Y-9363508D02*
X8873515Y-9382555D01*
X8873515Y-9382555D02*
X8883039Y-9401603D01*
X8883039Y-9401603D02*
X8892563Y-9439698D01*
X8892563Y-9439698D02*
X8892563Y-9468270D01*
X8892563Y-9468270D02*
X8883039Y-9506365D01*
X8883039Y-9506365D02*
X8873515Y-9525412D01*
X8873515Y-9525412D02*
X8854467Y-9544460D01*
X8854467Y-9544460D02*
X8825896Y-9553984D01*
X8825896Y-9553984D02*
X8778277Y-9553984D01*
X8978277Y-9553984D02*
X8978277Y-9420650D01*
X8978277Y-9458746D02*
X8987801Y-9439698D01*
X8987801Y-9439698D02*
X8997324Y-9430174D01*
X8997324Y-9430174D02*
X9016372Y-9420650D01*
X9016372Y-9420650D02*
X9035420Y-9420650D01*
X9102086Y-9553984D02*
X9102086Y-9420650D01*
X9102086Y-9353984D02*
X9092563Y-9363508D01*
X9092563Y-9363508D02*
X9102086Y-9373031D01*
X9102086Y-9373031D02*
X9111610Y-9363508D01*
X9111610Y-9363508D02*
X9102086Y-9353984D01*
X9102086Y-9353984D02*
X9102086Y-9373031D01*
X9225896Y-9553984D02*
X9206848Y-9544460D01*
X9206848Y-9544460D02*
X9197324Y-9525412D01*
X9197324Y-9525412D02*
X9197324Y-9353984D01*
X9330658Y-9553984D02*
X9311610Y-9544460D01*
X9311610Y-9544460D02*
X9302086Y-9525412D01*
X9302086Y-9525412D02*
X9302086Y-9353984D01*
X9559229Y-9553984D02*
X9559229Y-9353984D01*
X9559229Y-9353984D02*
X9625896Y-9496841D01*
X9625896Y-9496841D02*
X9692563Y-9353984D01*
X9692563Y-9353984D02*
X9692563Y-9553984D01*
X9873515Y-9553984D02*
X9873515Y-9449222D01*
X9873515Y-9449222D02*
X9863991Y-9430174D01*
X9863991Y-9430174D02*
X9844944Y-9420650D01*
X9844944Y-9420650D02*
X9806848Y-9420650D01*
X9806848Y-9420650D02*
X9787801Y-9430174D01*
X9873515Y-9544460D02*
X9854467Y-9553984D01*
X9854467Y-9553984D02*
X9806848Y-9553984D01*
X9806848Y-9553984D02*
X9787801Y-9544460D01*
X9787801Y-9544460D02*
X9778277Y-9525412D01*
X9778277Y-9525412D02*
X9778277Y-9506365D01*
X9778277Y-9506365D02*
X9787801Y-9487317D01*
X9787801Y-9487317D02*
X9806848Y-9477793D01*
X9806848Y-9477793D02*
X9854467Y-9477793D01*
X9854467Y-9477793D02*
X9873515Y-9468270D01*
X9968753Y-9420650D02*
X9968753Y-9620650D01*
X9968753Y-9430174D02*
X9987801Y-9420650D01*
X9987801Y-9420650D02*
X10025896Y-9420650D01*
X10025896Y-9420650D02*
X10044944Y-9430174D01*
X10044944Y-9430174D02*
X10054467Y-9439698D01*
X10054467Y-9439698D02*
X10063991Y-9458746D01*
X10063991Y-9458746D02*
X10063991Y-9515889D01*
X10063991Y-9515889D02*
X10054467Y-9534936D01*
X10054467Y-9534936D02*
X10044944Y-9544460D01*
X10044944Y-9544460D02*
X10025896Y-9553984D01*
X10025896Y-9553984D02*
X9987801Y-9553984D01*
X9987801Y-9553984D02*
X9968753Y-9544460D01*
X10149705Y-9534936D02*
X10159229Y-9544460D01*
X10159229Y-9544460D02*
X10149705Y-9553984D01*
X10149705Y-9553984D02*
X10140182Y-9544460D01*
X10140182Y-9544460D02*
X10149705Y-9534936D01*
X10149705Y-9534936D02*
X10149705Y-9553984D01*
X10149705Y-9430174D02*
X10159229Y-9439698D01*
X10159229Y-9439698D02*
X10149705Y-9449222D01*
X10149705Y-9449222D02*
X10140182Y-9439698D01*
X10140182Y-9439698D02*
X10149705Y-9430174D01*
X10149705Y-9430174D02*
X10149705Y-9449222D01*
M02*
