%TF.GenerationSoftware,KiCad,Pcbnew,8.0.0*%
%TF.CreationDate,2024-09-22T12:37:06-04:00*%
%TF.ProjectId,MainBoard,4d61696e-426f-4617-9264-2e6b69636164,rev?*%
%TF.SameCoordinates,Original*%
%TF.FileFunction,Copper,L1,Top*%
%TF.FilePolarity,Positive*%
%FSLAX46Y46*%
G04 Gerber Fmt 4.6, Leading zero omitted, Abs format (unit mm)*
G04 Created by KiCad (PCBNEW 8.0.0) date 2024-09-22 12:37:06*
%MOMM*%
%LPD*%
G01*
G04 APERTURE LIST*
G04 Aperture macros list*
%AMRoundRect*
0 Rectangle with rounded corners*
0 $1 Rounding radius*
0 $2 $3 $4 $5 $6 $7 $8 $9 X,Y pos of 4 corners*
0 Add a 4 corners polygon primitive as box body*
4,1,4,$2,$3,$4,$5,$6,$7,$8,$9,$2,$3,0*
0 Add four circle primitives for the rounded corners*
1,1,$1+$1,$2,$3*
1,1,$1+$1,$4,$5*
1,1,$1+$1,$6,$7*
1,1,$1+$1,$8,$9*
0 Add four rect primitives between the rounded corners*
20,1,$1+$1,$2,$3,$4,$5,0*
20,1,$1+$1,$4,$5,$6,$7,0*
20,1,$1+$1,$6,$7,$8,$9,0*
20,1,$1+$1,$8,$9,$2,$3,0*%
G04 Aperture macros list end*
%TA.AperFunction,Conductor*%
%ADD10C,0.350000*%
%TD*%
%TA.AperFunction,SMDPad,CuDef*%
%ADD11RoundRect,0.155000X0.212500X0.155000X-0.212500X0.155000X-0.212500X-0.155000X0.212500X-0.155000X0*%
%TD*%
%TA.AperFunction,SMDPad,CuDef*%
%ADD12RoundRect,0.160000X0.160000X-0.197500X0.160000X0.197500X-0.160000X0.197500X-0.160000X-0.197500X0*%
%TD*%
%TA.AperFunction,SMDPad,CuDef*%
%ADD13RoundRect,0.160000X-0.222500X-0.160000X0.222500X-0.160000X0.222500X0.160000X-0.222500X0.160000X0*%
%TD*%
%TA.AperFunction,SMDPad,CuDef*%
%ADD14RoundRect,0.155000X-0.155000X0.212500X-0.155000X-0.212500X0.155000X-0.212500X0.155000X0.212500X0*%
%TD*%
%TA.AperFunction,SMDPad,CuDef*%
%ADD15RoundRect,0.160000X-0.160000X0.222500X-0.160000X-0.222500X0.160000X-0.222500X0.160000X0.222500X0*%
%TD*%
%TA.AperFunction,SMDPad,CuDef*%
%ADD16R,1.000000X1.150000*%
%TD*%
%TA.AperFunction,SMDPad,CuDef*%
%ADD17RoundRect,0.155000X0.155000X-0.212500X0.155000X0.212500X-0.155000X0.212500X-0.155000X-0.212500X0*%
%TD*%
%TA.AperFunction,SMDPad,CuDef*%
%ADD18R,0.550000X0.950000*%
%TD*%
%TA.AperFunction,SMDPad,CuDef*%
%ADD19RoundRect,0.155000X-0.212500X-0.155000X0.212500X-0.155000X0.212500X0.155000X-0.212500X0.155000X0*%
%TD*%
%TA.AperFunction,ComponentPad*%
%ADD20C,1.000000*%
%TD*%
%TA.AperFunction,SMDPad,CuDef*%
%ADD21R,0.675000X0.250000*%
%TD*%
%TA.AperFunction,SMDPad,CuDef*%
%ADD22R,0.250000X0.675000*%
%TD*%
%TA.AperFunction,SMDPad,CuDef*%
%ADD23RoundRect,0.212500X0.212500X0.337500X-0.212500X0.337500X-0.212500X-0.337500X0.212500X-0.337500X0*%
%TD*%
%TA.AperFunction,SMDPad,CuDef*%
%ADD24RoundRect,0.187500X0.187500X0.362500X-0.187500X0.362500X-0.187500X-0.362500X0.187500X-0.362500X0*%
%TD*%
%TA.AperFunction,SMDPad,CuDef*%
%ADD25RoundRect,0.250000X0.350000X0.250000X-0.350000X0.250000X-0.350000X-0.250000X0.350000X-0.250000X0*%
%TD*%
%TA.AperFunction,SMDPad,CuDef*%
%ADD26RoundRect,0.400000X0.375000X0.275000X-0.375000X0.275000X-0.375000X-0.275000X0.375000X-0.275000X0*%
%TD*%
%TA.AperFunction,SMDPad,CuDef*%
%ADD27RoundRect,0.250000X0.700000X0.425000X-0.700000X0.425000X-0.700000X-0.425000X0.700000X-0.425000X0*%
%TD*%
%TA.AperFunction,SMDPad,CuDef*%
%ADD28RoundRect,0.250000X0.335000X0.650000X-0.335000X0.650000X-0.335000X-0.650000X0.335000X-0.650000X0*%
%TD*%
%TA.AperFunction,SMDPad,CuDef*%
%ADD29RoundRect,0.250000X-0.275000X-0.350000X0.275000X-0.350000X0.275000X0.350000X-0.275000X0.350000X0*%
%TD*%
%TA.AperFunction,SMDPad,CuDef*%
%ADD30RoundRect,0.160000X-0.197500X-0.160000X0.197500X-0.160000X0.197500X0.160000X-0.197500X0.160000X0*%
%TD*%
%TA.AperFunction,SMDPad,CuDef*%
%ADD31RoundRect,0.150000X-0.512500X-0.150000X0.512500X-0.150000X0.512500X0.150000X-0.512500X0.150000X0*%
%TD*%
%TA.AperFunction,SMDPad,CuDef*%
%ADD32RoundRect,0.160000X-0.160000X0.197500X-0.160000X-0.197500X0.160000X-0.197500X0.160000X0.197500X0*%
%TD*%
%TA.AperFunction,SMDPad,CuDef*%
%ADD33R,1.400000X1.200000*%
%TD*%
%TA.AperFunction,SMDPad,CuDef*%
%ADD34RoundRect,0.075000X-0.075000X0.700000X-0.075000X-0.700000X0.075000X-0.700000X0.075000X0.700000X0*%
%TD*%
%TA.AperFunction,SMDPad,CuDef*%
%ADD35RoundRect,0.075000X-0.700000X0.075000X-0.700000X-0.075000X0.700000X-0.075000X0.700000X0.075000X0*%
%TD*%
%TA.AperFunction,ViaPad*%
%ADD36C,0.450000*%
%TD*%
%TA.AperFunction,Conductor*%
%ADD37C,0.500000*%
%TD*%
%TA.AperFunction,Conductor*%
%ADD38C,0.156500*%
%TD*%
%TA.AperFunction,Conductor*%
%ADD39C,0.300000*%
%TD*%
%TA.AperFunction,Conductor*%
%ADD40C,0.200000*%
%TD*%
G04 APERTURE END LIST*
%TO.N,/IMU_BARO/SCK*%
D10*
X110175000Y-79000000D02*
G75*
G02*
X109825000Y-79000000I-175000J0D01*
G01*
X109825000Y-79000000D02*
G75*
G02*
X110175000Y-79000000I175000J0D01*
G01*
%TO.N,/IMU_BARO/MOSI*%
X104775000Y-79400000D02*
G75*
G02*
X104425000Y-79400000I-175000J0D01*
G01*
X104425000Y-79400000D02*
G75*
G02*
X104775000Y-79400000I175000J0D01*
G01*
%TO.N,/IMU_BARO/MISO*%
X101575000Y-79400000D02*
G75*
G02*
X101225000Y-79400000I-175000J0D01*
G01*
X101225000Y-79400000D02*
G75*
G02*
X101575000Y-79400000I175000J0D01*
G01*
%TD*%
D11*
%TO.P,C15,1*%
%TO.N,Net-(U2-VCAP_2)*%
X97567500Y-91800000D03*
%TO.P,C15,2*%
%TO.N,GND*%
X96432500Y-91800000D03*
%TD*%
D12*
%TO.P,R9,1*%
%TO.N,+3V3*%
X100800000Y-90597500D03*
%TO.P,R9,2*%
%TO.N,/MCU/SDIO_D1*%
X100800000Y-89402500D03*
%TD*%
D13*
%TO.P,D1,1,K*%
%TO.N,Net-(D1-K)*%
X86000000Y-74000000D03*
%TO.P,D1,2,A*%
%TO.N,+3V3*%
X87145002Y-74000000D03*
%TD*%
D14*
%TO.P,C16,1*%
%TO.N,+3V3*%
X87800000Y-89332500D03*
%TO.P,C16,2*%
%TO.N,GND*%
X87800000Y-90467500D03*
%TD*%
D15*
%TO.P,D2,1,K*%
%TO.N,Net-(D2-K)*%
X85800000Y-78627499D03*
%TO.P,D2,2,A*%
%TO.N,Net-(D2-A)*%
X85800000Y-79772501D03*
%TD*%
D16*
%TO.P,U6,1,Tri-State*%
%TO.N,unconnected-(U6-Tri-State-Pad1)*%
X107300000Y-75325000D03*
%TO.P,U6,2,GND*%
%TO.N,GND*%
X107300000Y-77075000D03*
%TO.P,U6,3,OUT*%
%TO.N,Net-(U6-OUT)*%
X108700000Y-77075000D03*
%TO.P,U6,4,VDD*%
%TO.N,+3V3*%
X108700000Y-75325000D03*
%TD*%
D17*
%TO.P,C12,1*%
%TO.N,Net-(C12-Pad1)*%
X94800000Y-75167500D03*
%TO.P,C12,2*%
%TO.N,GND*%
X94800000Y-74032500D03*
%TD*%
D18*
%TO.P,U4,1,VDD*%
%TO.N,+3V3*%
X105475000Y-75325000D03*
%TO.P,U4,2,PS*%
%TO.N,GND*%
X104225000Y-75325000D03*
%TO.P,U4,3,GND*%
X102975000Y-75325000D03*
%TO.P,U4,4,CSB*%
%TO.N,/IMU_BARO/BARO_CS*%
X101725000Y-75325000D03*
%TO.P,U4,5,CSB*%
X101725000Y-77475000D03*
%TO.P,U4,6,SDO*%
%TO.N,/IMU_BARO/MISO*%
X102975000Y-77475000D03*
%TO.P,U4,7,SDI/SDA*%
%TO.N,/IMU_BARO/MOSI*%
X104225000Y-77475000D03*
%TO.P,U4,8,SCLK*%
%TO.N,/IMU_BARO/SCK*%
X105475000Y-77475000D03*
%TD*%
D19*
%TO.P,C5,1*%
%TO.N,+3V3*%
X110970000Y-74100000D03*
%TO.P,C5,2*%
%TO.N,GND*%
X112105000Y-74100000D03*
%TD*%
D20*
%TO.P,TP1,1,1*%
%TO.N,GND*%
X86000000Y-91600000D03*
%TD*%
D21*
%TO.P,U3,1,SDO/AD0*%
%TO.N,/IMU_BARO/MISO*%
X113600000Y-78000000D03*
%TO.P,U3,2,RESV*%
%TO.N,GND*%
X113600000Y-77500000D03*
%TO.P,U3,3,RESV*%
X113600000Y-77000000D03*
%TO.P,U3,4,INT1/INT*%
%TO.N,unconnected-(U3-INT1{slash}INT-Pad4)*%
X113600000Y-76500000D03*
D22*
%TO.P,U3,5,VDDIO*%
%TO.N,+3V3*%
X112837500Y-76237500D03*
%TO.P,U3,6,GND*%
%TO.N,GND*%
X112337500Y-76237499D03*
%TO.P,U3,7,RESV*%
X111837500Y-76237500D03*
D21*
%TO.P,U3,8,VDD*%
%TO.N,+3V3*%
X111075000Y-76500000D03*
%TO.P,U3,9,INT2/FSYNC/CLKIN*%
%TO.N,Net-(U3-INT2{slash}FSYNC{slash}CLKIN)*%
X111075000Y-77000000D03*
%TO.P,U3,10,RESV*%
%TO.N,GND*%
X111075000Y-77500000D03*
%TO.P,U3,11,RESV*%
X111075000Y-78000000D03*
D22*
%TO.P,U3,12,CS*%
%TO.N,/IMU_BARO/IMU_CS*%
X111837500Y-78262500D03*
%TO.P,U3,13,SCL/SCLK*%
%TO.N,/IMU_BARO/SCK*%
X112337500Y-78262501D03*
%TO.P,U3,14,SDA/SDIO/SDI*%
%TO.N,/IMU_BARO/MOSI*%
X112837500Y-78262500D03*
%TD*%
D23*
%TO.P,J1,1,DAT2*%
%TO.N,/MCU/SDIO_D2*%
X110960000Y-91625000D03*
%TO.P,J1,2,DAT3/CD*%
%TO.N,/MCU/SDIO_D3*%
X109860000Y-91625000D03*
%TO.P,J1,3,CMD*%
%TO.N,/MCU/SDIO_CMD*%
X108760000Y-91625000D03*
%TO.P,J1,4,VDD*%
%TO.N,+3V3*%
X107660000Y-91625000D03*
%TO.P,J1,5,CLK*%
%TO.N,/MCU/SDIO_CK*%
X106560000Y-91625000D03*
%TO.P,J1,6,VSS*%
%TO.N,GND*%
X105460000Y-91625000D03*
%TO.P,J1,7,DAT0*%
%TO.N,/MCU/SDIO_D0*%
X104360000Y-91625000D03*
D24*
%TO.P,J1,8,DAT1*%
%TO.N,/MCU/SDIO_D1*%
X103310000Y-91625000D03*
D25*
%TO.P,J1,9,DET_B*%
%TO.N,unconnected-(J1-DET_B-Pad9)*%
X113595000Y-85475000D03*
%TO.P,J1,10,DET_A*%
%TO.N,unconnected-(J1-DET_A-Pad10)*%
X113595000Y-81775000D03*
D26*
%TO.P,J1,11,SHIELD*%
%TO.N,GND*%
X113420000Y-91500000D03*
D27*
X110095000Y-80800000D03*
X104125000Y-80800000D03*
D28*
X102100000Y-91275000D03*
%TD*%
D29*
%TO.P,FB1,1*%
%TO.N,Net-(U2-VDDA)*%
X91250000Y-74800000D03*
%TO.P,FB1,2*%
%TO.N,+3V3*%
X93550000Y-74800000D03*
%TD*%
D11*
%TO.P,C6,1*%
%TO.N,+3V3*%
X89567500Y-74000000D03*
%TO.P,C6,2*%
%TO.N,GND*%
X88432500Y-74000000D03*
%TD*%
D12*
%TO.P,R3,1*%
%TO.N,/MCU/HSE_OUT*%
X94800000Y-77397500D03*
%TO.P,R3,2*%
%TO.N,Net-(C12-Pad1)*%
X94800000Y-76202500D03*
%TD*%
D17*
%TO.P,C24,1*%
%TO.N,+3V3*%
X113137500Y-75135000D03*
%TO.P,C24,2*%
%TO.N,GND*%
X113137500Y-74000000D03*
%TD*%
D14*
%TO.P,C17,1*%
%TO.N,+3V3*%
X100800000Y-80432500D03*
%TO.P,C17,2*%
%TO.N,GND*%
X100800000Y-81567500D03*
%TD*%
D11*
%TO.P,C23,1*%
%TO.N,+3V3*%
X104767500Y-74000000D03*
%TO.P,C23,2*%
%TO.N,GND*%
X103632500Y-74000000D03*
%TD*%
D30*
%TO.P,R12,1*%
%TO.N,+3V3*%
X100802500Y-74000000D03*
%TO.P,R12,2*%
%TO.N,/IMU_BARO/BARO_CS*%
X101997500Y-74000000D03*
%TD*%
D19*
%TO.P,C8,1*%
%TO.N,+3V3*%
X98332500Y-77800000D03*
%TO.P,C8,2*%
%TO.N,GND*%
X99467500Y-77800000D03*
%TD*%
D14*
%TO.P,C10,1*%
%TO.N,/MCU/HSE_IN*%
X100000000Y-75032500D03*
%TO.P,C10,2*%
%TO.N,GND*%
X100000000Y-76167500D03*
%TD*%
%TO.P,C3,1*%
%TO.N,+5V*%
X85800000Y-75232500D03*
%TO.P,C3,2*%
%TO.N,GND*%
X85800000Y-76367500D03*
%TD*%
D19*
%TO.P,C18,1*%
%TO.N,Net-(U2-VDDA)*%
X91032500Y-77432501D03*
%TO.P,C18,2*%
%TO.N,GND*%
X92167500Y-77432501D03*
%TD*%
D31*
%TO.P,U1,1,IN*%
%TO.N,+5V*%
X87262500Y-75250000D03*
%TO.P,U1,2,GND*%
%TO.N,GND*%
X87262500Y-76200000D03*
%TO.P,U1,3,EN*%
%TO.N,+5V*%
X87262500Y-77150000D03*
%TO.P,U1,4,NC*%
%TO.N,unconnected-(U1-NC-Pad4)*%
X89537500Y-77150000D03*
%TO.P,U1,5,OUT*%
%TO.N,+3V3*%
X89537500Y-75250000D03*
%TD*%
D32*
%TO.P,R1,1*%
%TO.N,/Connectors/BOOT0*%
X100800000Y-82602500D03*
%TO.P,R1,2*%
%TO.N,GND*%
X100800000Y-83797500D03*
%TD*%
D33*
%TO.P,Y1,1,1*%
%TO.N,/MCU/HSE_IN*%
X98500000Y-74750000D03*
%TO.P,Y1,2,2*%
%TO.N,GND*%
X96300000Y-74750000D03*
%TO.P,Y1,3,3*%
%TO.N,Net-(C12-Pad1)*%
X96300000Y-76450000D03*
%TO.P,Y1,4,4*%
%TO.N,GND*%
X98500000Y-76450000D03*
%TD*%
D17*
%TO.P,C13,1*%
%TO.N,Net-(U2-VCAP_1)*%
X86400000Y-87967500D03*
%TO.P,C13,2*%
%TO.N,GND*%
X86400000Y-86832500D03*
%TD*%
D11*
%TO.P,C20,1*%
%TO.N,+3V3*%
X108567500Y-74000000D03*
%TO.P,C20,2*%
%TO.N,GND*%
X107432500Y-74000000D03*
%TD*%
D19*
%TO.P,C11,1*%
%TO.N,+3V3*%
X98432500Y-90567500D03*
%TO.P,C11,2*%
%TO.N,GND*%
X99567500Y-90567500D03*
%TD*%
%TO.P,C19,1*%
%TO.N,Net-(U2-VDDA)*%
X91032500Y-76400000D03*
%TO.P,C19,2*%
%TO.N,GND*%
X92167500Y-76400000D03*
%TD*%
D17*
%TO.P,C1,1*%
%TO.N,/Connectors/NRST*%
X93800000Y-77367500D03*
%TO.P,C1,2*%
%TO.N,GND*%
X93800000Y-76232500D03*
%TD*%
D32*
%TO.P,R4,1*%
%TO.N,Net-(D2-K)*%
X86800000Y-78602500D03*
%TO.P,R4,2*%
%TO.N,GND*%
X86800000Y-79797500D03*
%TD*%
D17*
%TO.P,C14,1*%
%TO.N,+3V3*%
X86400000Y-82167500D03*
%TO.P,C14,2*%
%TO.N,GND*%
X86400000Y-81032500D03*
%TD*%
D19*
%TO.P,C9,1*%
%TO.N,+3V3*%
X98332500Y-78800000D03*
%TO.P,C9,2*%
%TO.N,GND*%
X99467500Y-78800000D03*
%TD*%
D34*
%TO.P,U2,1,VBAT*%
%TO.N,+3V3*%
X97350000Y-78925000D03*
%TO.P,U2,2,PC13*%
%TO.N,/IMU_BARO/MAG_CS*%
X96850000Y-78925000D03*
%TO.P,U2,3,PC14*%
%TO.N,/IMU_BARO/BARO_CS*%
X96350000Y-78925000D03*
%TO.P,U2,4,PC15*%
%TO.N,/IMU_BARO/IMU_CS*%
X95850000Y-78925000D03*
%TO.P,U2,5,PH0*%
%TO.N,/MCU/HSE_IN*%
X95350000Y-78925000D03*
%TO.P,U2,6,PH1*%
%TO.N,/MCU/HSE_OUT*%
X94850000Y-78925000D03*
%TO.P,U2,7,NRST*%
%TO.N,/Connectors/NRST*%
X94350000Y-78925000D03*
%TO.P,U2,8,PC0*%
%TO.N,/Connectors/PC0*%
X93850000Y-78925000D03*
%TO.P,U2,9,PC1*%
%TO.N,/Connectors/PC1*%
X93350000Y-78925000D03*
%TO.P,U2,10,PC2*%
%TO.N,/Connectors/PC2*%
X92850000Y-78925000D03*
%TO.P,U2,11,PC3*%
%TO.N,/Connectors/PC3*%
X92350000Y-78925000D03*
%TO.P,U2,12,VSSA*%
%TO.N,GND*%
X91850000Y-78925000D03*
%TO.P,U2,13,VDDA*%
%TO.N,Net-(U2-VDDA)*%
X91350000Y-78925000D03*
%TO.P,U2,14,PA0*%
%TO.N,/Connectors/PA0*%
X90850000Y-78925000D03*
%TO.P,U2,15,PA1*%
%TO.N,/Connectors/PA1*%
X90350000Y-78925000D03*
%TO.P,U2,16,PA2*%
%TO.N,/Connectors/PA2*%
X89850000Y-78925000D03*
D35*
%TO.P,U2,17,PA3*%
%TO.N,/Connectors/PA3*%
X87925000Y-80850000D03*
%TO.P,U2,18,VSS*%
%TO.N,GND*%
X87925000Y-81350000D03*
%TO.P,U2,19,VDD*%
%TO.N,+3V3*%
X87925000Y-81850000D03*
%TO.P,U2,20,PA4*%
%TO.N,/Connectors/PA4*%
X87925000Y-82350000D03*
%TO.P,U2,21,PA5*%
%TO.N,/IMU_BARO/SCK*%
X87925000Y-82850000D03*
%TO.P,U2,22,PA6*%
%TO.N,/Connectors/PA6*%
X87925000Y-83350000D03*
%TO.P,U2,23,PA7*%
%TO.N,/Connectors/PA7*%
X87925000Y-83850000D03*
%TO.P,U2,24,PC4*%
%TO.N,/Connectors/PC4*%
X87925000Y-84350000D03*
%TO.P,U2,25,PC5*%
%TO.N,Net-(D2-A)*%
X87925000Y-84850000D03*
%TO.P,U2,26,PB0*%
%TO.N,/Connectors/PB0*%
X87925000Y-85350000D03*
%TO.P,U2,27,PB1*%
%TO.N,/Connectors/PB1*%
X87925000Y-85850000D03*
%TO.P,U2,28,PB2*%
%TO.N,/Connectors/PB2{slash}BOOT1*%
X87925000Y-86350000D03*
%TO.P,U2,29,PB10*%
%TO.N,/Connectors/PB10*%
X87925000Y-86850000D03*
%TO.P,U2,30,PB11*%
%TO.N,/Connectors/PB11*%
X87925000Y-87350000D03*
%TO.P,U2,31,VCAP_1*%
%TO.N,Net-(U2-VCAP_1)*%
X87925000Y-87850000D03*
%TO.P,U2,32,VDD*%
%TO.N,+3V3*%
X87925000Y-88350000D03*
D34*
%TO.P,U2,33,PB12*%
%TO.N,/Connectors/PB12*%
X89850000Y-90275000D03*
%TO.P,U2,34,PB13*%
%TO.N,/Connectors/PB13*%
X90350000Y-90275000D03*
%TO.P,U2,35,PB14*%
%TO.N,/Connectors/PB14*%
X90850000Y-90275000D03*
%TO.P,U2,36,PB15*%
%TO.N,/Connectors/PB15*%
X91350000Y-90275000D03*
%TO.P,U2,37,PC6*%
%TO.N,/Connectors/PC6*%
X91850000Y-90275000D03*
%TO.P,U2,38,PC7*%
%TO.N,/Connectors/PC7*%
X92350000Y-90275000D03*
%TO.P,U2,39,PC8*%
%TO.N,/MCU/SDIO_D0*%
X92850000Y-90275000D03*
%TO.P,U2,40,PC9*%
%TO.N,/MCU/SDIO_D1*%
X93350000Y-90275000D03*
%TO.P,U2,41,PA8*%
%TO.N,/Connectors/PA8*%
X93850000Y-90275000D03*
%TO.P,U2,42,PA9*%
%TO.N,/Connectors/PA9*%
X94350000Y-90275000D03*
%TO.P,U2,43,PA10*%
%TO.N,/Connectors/PA10*%
X94850000Y-90275000D03*
%TO.P,U2,44,PA11*%
%TO.N,/Connectors/USB_D-*%
X95350000Y-90275000D03*
%TO.P,U2,45,PA12*%
%TO.N,/Connectors/USB_D+*%
X95850000Y-90275000D03*
%TO.P,U2,46,PA13*%
%TO.N,/Connectors/SWDIO*%
X96350000Y-90275000D03*
%TO.P,U2,47,VCAP_2*%
%TO.N,Net-(U2-VCAP_2)*%
X96850000Y-90275000D03*
%TO.P,U2,48,VDD*%
%TO.N,+3V3*%
X97350000Y-90275000D03*
D35*
%TO.P,U2,49,PA14*%
%TO.N,/Connectors/SWCLK*%
X99275000Y-88350000D03*
%TO.P,U2,50,PA15*%
%TO.N,/Connectors/PA15*%
X99275000Y-87850000D03*
%TO.P,U2,51,PC10*%
%TO.N,/MCU/SDIO_D2*%
X99275000Y-87350000D03*
%TO.P,U2,52,PC11*%
%TO.N,/MCU/SDIO_D3*%
X99275000Y-86850000D03*
%TO.P,U2,53,PC12*%
%TO.N,/MCU/SDIO_CK*%
X99275000Y-86350000D03*
%TO.P,U2,54,PD2*%
%TO.N,/MCU/SDIO_CMD*%
X99275000Y-85850000D03*
%TO.P,U2,55,PB3*%
%TO.N,/Connectors/SWO*%
X99275000Y-85350000D03*
%TO.P,U2,56,PB4*%
%TO.N,/IMU_BARO/MISO*%
X99275000Y-84850000D03*
%TO.P,U2,57,PB5*%
%TO.N,/IMU_BARO/MOSI*%
X99275000Y-84350000D03*
%TO.P,U2,58,PB6*%
%TO.N,/Connectors/PB6*%
X99275000Y-83850000D03*
%TO.P,U2,59,PB7*%
%TO.N,/Connectors/PB7*%
X99275000Y-83350000D03*
%TO.P,U2,60,BOOT0*%
%TO.N,/Connectors/BOOT0*%
X99275000Y-82850000D03*
%TO.P,U2,61,PB8*%
%TO.N,/Connectors/PB8*%
X99275000Y-82350000D03*
%TO.P,U2,62,PB9*%
%TO.N,/Connectors/PB9*%
X99275000Y-81850000D03*
%TO.P,U2,63,VSS*%
%TO.N,GND*%
X99275000Y-81350000D03*
%TO.P,U2,64,VDD*%
%TO.N,+3V3*%
X99275000Y-80850000D03*
%TD*%
D32*
%TO.P,R14,1*%
%TO.N,Net-(U3-INT2{slash}FSYNC{slash}CLKIN)*%
X110000000Y-76402500D03*
%TO.P,R14,2*%
%TO.N,Net-(U6-OUT)*%
X110000000Y-77597500D03*
%TD*%
D19*
%TO.P,C22,1*%
%TO.N,+3V3*%
X110970000Y-75100000D03*
%TO.P,C22,2*%
%TO.N,GND*%
X112105000Y-75100000D03*
%TD*%
D11*
%TO.P,C21,1*%
%TO.N,Net-(U6-OUT)*%
X108567500Y-78400000D03*
%TO.P,C21,2*%
%TO.N,GND*%
X107432500Y-78400000D03*
%TD*%
D36*
%TO.N,GND*%
X93989084Y-82249380D03*
X91925000Y-77853135D03*
X108800000Y-80550000D03*
X85625000Y-77075002D03*
X89700000Y-76400000D03*
X92216759Y-77371642D03*
X103200000Y-83000000D03*
X91346750Y-87899997D03*
X101764206Y-87297024D03*
X102783353Y-78405549D03*
X86338402Y-81075002D03*
X112200000Y-75664038D03*
X89168602Y-90882419D03*
X112051286Y-85251284D03*
X97487124Y-81959873D03*
X100892577Y-81567500D03*
X112105000Y-74100000D03*
X86866966Y-81275000D03*
X92167500Y-76400000D03*
X100349946Y-81442243D03*
X92330284Y-84350700D03*
X104857886Y-76604140D03*
X95033925Y-87856326D03*
X113137500Y-74000000D03*
X107432500Y-74000000D03*
X105657286Y-86105819D03*
X97003549Y-83967311D03*
X100800000Y-83800000D03*
X95640682Y-88159423D03*
X96957918Y-82700047D03*
X95188331Y-80921250D03*
X96248758Y-85994617D03*
X95196019Y-84059353D03*
X113420000Y-90600000D03*
X111377404Y-81177404D03*
X88168791Y-78354958D03*
X99400000Y-76450000D03*
X99467500Y-77800000D03*
X86175000Y-77075002D03*
X92459621Y-82659621D03*
X86200003Y-77600000D03*
X93461391Y-81222160D03*
X90000000Y-83724998D03*
X86730913Y-87199969D03*
X112349890Y-89287899D03*
X99345000Y-90046038D03*
X87805549Y-79783353D03*
X113369947Y-78918350D03*
X95860819Y-91975000D03*
X102975000Y-74600000D03*
X111349997Y-86400000D03*
X104216647Y-89503250D03*
X102439522Y-87195738D03*
X85625000Y-77600000D03*
X87200000Y-90233032D03*
X107605549Y-86383353D03*
X97800000Y-88255852D03*
X95400000Y-74032500D03*
X91855109Y-86706991D03*
X105797685Y-78521526D03*
X112582517Y-81395589D03*
X107294148Y-77794148D03*
X103394451Y-89616647D03*
X102300000Y-79500000D03*
X105330852Y-82780852D03*
X95130032Y-88423743D03*
X94616647Y-85394451D03*
X112105000Y-75100000D03*
X105441938Y-91618500D03*
X93800000Y-76232500D03*
X111540379Y-82940379D03*
X88367500Y-90400000D03*
X91459621Y-80859621D03*
X99467500Y-78800000D03*
X90400000Y-86400000D03*
X106125003Y-76400000D03*
X102100000Y-90200000D03*
X88400000Y-74000000D03*
X106965577Y-84857372D03*
X97538678Y-85906007D03*
X109800000Y-74400000D03*
%TO.N,+5V*%
X85800000Y-75232500D03*
X87600000Y-75250000D03*
X86400000Y-75250000D03*
X87024997Y-75250000D03*
%TO.N,+3V3*%
X87825002Y-89400000D03*
X89200000Y-75250000D03*
X98332500Y-78800000D03*
X105150000Y-78600000D03*
X105475000Y-74600000D03*
X100200000Y-80600000D03*
X97800000Y-79200000D03*
X107660000Y-91618500D03*
X108700000Y-74500000D03*
X113137500Y-75135000D03*
X100800000Y-74600000D03*
X111000000Y-75800000D03*
X97800000Y-78400000D03*
X92800000Y-74400000D03*
X97885504Y-86600000D03*
X89200000Y-74600000D03*
X104150000Y-82800000D03*
X113192630Y-75800000D03*
X86400000Y-82167500D03*
X98000000Y-90032500D03*
X89800000Y-74600000D03*
X98332500Y-77800000D03*
X88000000Y-88800000D03*
X92800000Y-75200000D03*
X93550000Y-74800000D03*
X111000000Y-74600000D03*
X89800000Y-75250000D03*
X100800000Y-80432500D03*
X112195000Y-91600000D03*
%TO.N,Net-(D1-K)*%
X86000000Y-74000000D03*
%TO.N,/IMU_BARO/BARO_CS*%
X101200000Y-75325000D03*
X101725000Y-78200000D03*
X96600000Y-80600000D03*
%TO.N,/Connectors/USB_D-*%
X85625000Y-88400000D03*
%TO.N,/Connectors/USB_D+*%
X85625000Y-89400000D03*
%TO.N,/IMU_BARO/MOSI*%
X104225000Y-76800000D03*
%TO.N,/IMU_BARO/IMU_CS*%
X95451172Y-81515740D03*
X111362501Y-78550002D03*
%TO.N,/IMU_BARO/SCK*%
X105475000Y-76400000D03*
X94600000Y-83800000D03*
%TO.N,/IMU_BARO/MISO*%
X103400000Y-78200000D03*
%TO.N,/MCU/SDIO_D3*%
X105193500Y-86606500D03*
X101000000Y-87000000D03*
%TO.N,/MCU/SDIO_D2*%
X102200000Y-87800000D03*
X107400000Y-87000000D03*
X110960000Y-91625000D03*
%TO.N,/MCU/SDIO_CMD*%
X98186315Y-85850602D03*
%TO.N,/MCU/SDIO_D0*%
X97200000Y-88000000D03*
X103988080Y-90132738D03*
%TO.N,/Connectors/PB11*%
X89124740Y-88447253D03*
%TO.N,/Connectors/PB10*%
X90000000Y-87400000D03*
%TO.N,/Connectors/PB2{slash}BOOT1*%
X112000000Y-82400000D03*
X91200000Y-85200000D03*
%TO.N,/Connectors/PB1*%
X85625000Y-86400000D03*
%TO.N,/Connectors/PB0*%
X89000000Y-85400000D03*
%TO.N,/Connectors/PC4*%
X90000000Y-84400000D03*
%TO.N,/Connectors/PA7*%
X86349749Y-84346750D03*
%TO.N,/Connectors/PA6*%
X86200000Y-83400000D03*
%TO.N,/Connectors/PA4*%
X90000000Y-82400000D03*
%TO.N,/Connectors/PA1*%
X89400000Y-81400000D03*
%TO.N,/Connectors/PA3*%
X87799700Y-80433330D03*
%TO.N,/Connectors/PA2*%
X88383243Y-77741351D03*
%TO.N,/Connectors/PA0*%
X91000000Y-80400000D03*
%TO.N,/Connectors/PC3*%
X92000000Y-82200000D03*
X86200000Y-85400000D03*
%TO.N,/Connectors/PC2*%
X92850000Y-81001470D03*
%TO.N,/Connectors/PC1*%
X87637631Y-79151088D03*
X94017509Y-81600000D03*
%TO.N,/Connectors/NRST*%
X93800000Y-77367500D03*
%TO.N,/Connectors/PC0*%
X94800000Y-80400000D03*
%TO.N,/Connectors/PB9*%
X98023659Y-81583230D03*
%TO.N,/Connectors/PB8*%
X97600000Y-82600000D03*
X105800011Y-79171524D03*
%TO.N,/Connectors/PB7*%
X109800000Y-75050003D03*
X96800000Y-83350001D03*
%TO.N,/Connectors/PB6*%
X97692272Y-84054232D03*
X108718143Y-81194828D03*
%TO.N,/Connectors/SWO*%
X107300000Y-84300000D03*
%TO.N,/Connectors/PA15*%
X96898350Y-86017737D03*
%TO.N,/Connectors/SWCLK*%
X112000000Y-83400000D03*
X103600000Y-89000000D03*
%TO.N,/Connectors/SWDIO*%
X99904133Y-89714567D03*
X109200000Y-84400000D03*
%TO.N,/Connectors/PA10*%
X111990867Y-84600000D03*
X95800000Y-88800000D03*
%TO.N,/Connectors/PA9*%
X94600000Y-88800000D03*
X112000000Y-86400000D03*
%TO.N,/Connectors/BOOT0*%
X100800000Y-82602500D03*
%TO.N,/Connectors/PA8*%
X94400000Y-88000000D03*
X111700000Y-89300000D03*
%TO.N,/Connectors/PC7*%
X94000000Y-85600000D03*
%TO.N,/Connectors/PC6*%
X91640453Y-87320133D03*
%TO.N,/Connectors/PB15*%
X91346750Y-88550000D03*
%TO.N,/Connectors/PB14*%
X92800000Y-84800000D03*
X111611215Y-80570909D03*
%TO.N,/Connectors/PB13*%
X90346750Y-89294692D03*
%TO.N,/Connectors/PB12*%
X89400000Y-90275000D03*
%TO.N,/IMU_BARO/MAG_CS*%
X97124122Y-80102877D03*
X102296875Y-80906375D03*
%TO.N,unconnected-(U3-INT1{slash}INT-Pad4)*%
X113872500Y-74002886D03*
%TD*%
D37*
%TO.N,GND*%
X103575000Y-74000000D02*
X103632500Y-74000000D01*
D38*
X112337500Y-76237499D02*
X112337500Y-76756500D01*
X102975000Y-75325000D02*
X104225000Y-75325000D01*
D37*
X102975000Y-74600000D02*
X103575000Y-74000000D01*
X113420000Y-90600000D02*
X113420000Y-91500000D01*
X87434468Y-90467500D02*
X87800000Y-90467500D01*
X107300000Y-78267500D02*
X107432500Y-78400000D01*
D38*
X87805549Y-79783353D02*
X87791402Y-79797500D01*
D39*
X110472404Y-81177404D02*
X110095000Y-80800000D01*
D38*
X111837500Y-76237500D02*
X111837500Y-77256500D01*
D37*
X94800000Y-74032500D02*
X95400000Y-74032500D01*
D40*
X92167500Y-77432501D02*
X92167500Y-77420901D01*
D39*
X91850000Y-77928135D02*
X91850000Y-78925000D01*
X109920000Y-80550000D02*
X110170000Y-80800000D01*
D37*
X87200000Y-90233032D02*
X87434468Y-90467500D01*
D38*
X87791402Y-79797500D02*
X86800000Y-79797500D01*
D39*
X86866966Y-81275000D02*
X86941966Y-81350000D01*
D37*
X102975000Y-75325000D02*
X102975000Y-74600000D01*
X87800000Y-90467500D02*
X88300000Y-90467500D01*
D40*
X86400000Y-81032500D02*
X86380904Y-81032500D01*
D37*
X107300000Y-77075000D02*
X107300000Y-78267500D01*
X95400000Y-74032500D02*
X95582500Y-74032500D01*
D38*
X111075000Y-78000000D02*
X111075000Y-77500000D01*
D40*
X92167500Y-77420901D02*
X92216759Y-77371642D01*
D39*
X108800000Y-80550000D02*
X109920000Y-80550000D01*
D38*
X111594000Y-77500000D02*
X111075000Y-77500000D01*
X99367500Y-78800000D02*
X99467500Y-78800000D01*
D40*
X100800000Y-81567500D02*
X100892577Y-81567500D01*
D38*
X111837500Y-77256500D02*
X111594000Y-77500000D01*
X113600000Y-77000000D02*
X113600000Y-77500000D01*
D37*
X99717500Y-76450000D02*
X100000000Y-76167500D01*
D39*
X104450000Y-80550000D02*
X104200000Y-80800000D01*
X111377404Y-81177404D02*
X110472404Y-81177404D01*
X108800000Y-80550000D02*
X104450000Y-80550000D01*
X102100000Y-90200000D02*
X102100000Y-91275000D01*
D37*
X95582500Y-74032500D02*
X96300000Y-74750000D01*
D39*
X91925000Y-77853135D02*
X91850000Y-77928135D01*
D38*
X112581000Y-77000000D02*
X113600000Y-77000000D01*
D40*
X86380904Y-81032500D02*
X86338402Y-81075002D01*
D37*
X98500000Y-76450000D02*
X99717500Y-76450000D01*
X88300000Y-90467500D02*
X88367500Y-90400000D01*
D39*
X86941966Y-81350000D02*
X87925000Y-81350000D01*
D38*
X112337500Y-76756500D02*
X112581000Y-77000000D01*
D40*
%TO.N,+5V*%
X88225000Y-75425000D02*
X88225000Y-76975000D01*
X88050000Y-77150000D02*
X87253126Y-77150000D01*
X88050000Y-75250000D02*
X88225000Y-75425000D01*
X88225000Y-76975000D02*
X88050000Y-77150000D01*
X87600000Y-75250000D02*
X88050000Y-75250000D01*
D38*
X87024997Y-75250000D02*
X87262500Y-75250000D01*
X87262500Y-75250000D02*
X87600000Y-75250000D01*
D40*
X87253126Y-77150000D02*
X87200000Y-77203126D01*
D37*
X85752500Y-75270626D02*
X85752500Y-75270628D01*
D38*
%TO.N,+3V3*%
X87800000Y-89332500D02*
X87800000Y-89374998D01*
X100800000Y-90597500D02*
X100800000Y-91300000D01*
D37*
X89514999Y-74020001D02*
X89535000Y-73999999D01*
X105475000Y-74600000D02*
X104875000Y-74000000D01*
D39*
X113137500Y-75017500D02*
X113137500Y-75017500D01*
D37*
X108700000Y-74500000D02*
X108700000Y-75325000D01*
D38*
X100800000Y-91300000D02*
X100500000Y-91600000D01*
D37*
X105475000Y-74600000D02*
X105475000Y-75325000D01*
X104875000Y-74000000D02*
X104767500Y-74000000D01*
D38*
X89200000Y-74600000D02*
X87745002Y-74600000D01*
D37*
X108700000Y-74132500D02*
X108567500Y-74000000D01*
D39*
X86717500Y-81850000D02*
X86400000Y-82167500D01*
D37*
X108700000Y-74500000D02*
X108700000Y-74132500D01*
D38*
X87800000Y-89374998D02*
X87825002Y-89400000D01*
X98750000Y-91600000D02*
X98432500Y-91282500D01*
X100800000Y-74002500D02*
X100802500Y-74000000D01*
X100500000Y-91600000D02*
X98750000Y-91600000D01*
X100800000Y-74600000D02*
X100800000Y-74002500D01*
X87745002Y-74600000D02*
X87145002Y-74000000D01*
X98432500Y-91282500D02*
X98432500Y-90567500D01*
D39*
X87925000Y-81850000D02*
X86717500Y-81850000D01*
D38*
%TO.N,/MCU/HSE_IN*%
X95350000Y-78050000D02*
X95800000Y-77600000D01*
X95350000Y-78925000D02*
X95350000Y-78050000D01*
X95800000Y-77600000D02*
X97050000Y-77600000D01*
X97650000Y-74750000D02*
X98500000Y-74750000D01*
X97050000Y-77600000D02*
X97400000Y-77250000D01*
X97400000Y-75000000D02*
X97650000Y-74750000D01*
X97400000Y-77250000D02*
X97400000Y-75000000D01*
D37*
X98500000Y-74750000D02*
X99717500Y-74750000D01*
X99717500Y-74750000D02*
X100000000Y-75032500D01*
%TO.N,Net-(C12-Pad1)*%
X96300000Y-76450000D02*
X95047500Y-76450000D01*
X94800000Y-75167500D02*
X94800000Y-76202500D01*
X95047500Y-76450000D02*
X94800000Y-76202500D01*
D39*
%TO.N,Net-(U2-VCAP_1)*%
X87925000Y-87850000D02*
X86517500Y-87850000D01*
X86517500Y-87850000D02*
X86400000Y-87967500D01*
D40*
X86400000Y-87967500D02*
X86400000Y-87767500D01*
%TO.N,Net-(U2-VCAP_2)*%
X96850000Y-90275000D02*
X96850000Y-91082500D01*
X96850000Y-91082500D02*
X97567500Y-91800000D01*
%TO.N,Net-(U2-VDDA)*%
X91232500Y-77432501D02*
X91032500Y-77432501D01*
D39*
X91350000Y-77750001D02*
X91350000Y-78925000D01*
X91032500Y-77432501D02*
X91350000Y-77750001D01*
D38*
%TO.N,Net-(D2-A)*%
X85600000Y-84600000D02*
X85600000Y-80600000D01*
X85600000Y-80600000D02*
X85800000Y-80400000D01*
X85800000Y-80400000D02*
X85800000Y-79772501D01*
X87925000Y-84850000D02*
X85850000Y-84850000D01*
X85850000Y-84850000D02*
X85600000Y-84600000D01*
%TO.N,/MCU/HSE_OUT*%
X94850000Y-78925000D02*
X94850000Y-77447500D01*
X94850000Y-77447500D02*
X94800000Y-77397500D01*
%TO.N,/IMU_BARO/BARO_CS*%
X101725000Y-75325000D02*
X101725000Y-74675000D01*
X101725000Y-74675000D02*
X102000000Y-74400000D01*
X101725000Y-75325000D02*
X101200000Y-75325000D01*
X96600000Y-80600000D02*
X96350000Y-80350000D01*
X101725000Y-77475000D02*
X101725000Y-78200000D01*
X102000000Y-74002500D02*
X101997500Y-74000000D01*
X102000000Y-74400000D02*
X102000000Y-74002500D01*
X96350000Y-80350000D02*
X96350000Y-78925000D01*
%TO.N,/Connectors/USB_D-*%
X95071750Y-91328250D02*
X94800000Y-91600000D01*
X95350000Y-90275000D02*
X95350000Y-91051650D01*
X86400000Y-90200000D02*
X86400000Y-89175000D01*
X95350000Y-91051650D02*
X95073400Y-91328250D01*
X94800000Y-91600000D02*
X87800000Y-91600000D01*
X95073400Y-91328250D02*
X95071750Y-91328250D01*
X86400000Y-89175000D02*
X85625000Y-88400000D01*
X87800000Y-91600000D02*
X86400000Y-90200000D01*
%TO.N,/Connectors/USB_D+*%
X95850000Y-91254168D02*
X95850000Y-90275000D01*
X87700000Y-92100000D02*
X95004168Y-92100000D01*
X85625000Y-89400000D02*
X85625000Y-90025000D01*
X95004168Y-92100000D02*
X95850000Y-91254168D01*
X85625000Y-90025000D02*
X87700000Y-92100000D01*
%TO.N,/IMU_BARO/MOSI*%
X95800000Y-82638153D02*
X95800000Y-83800000D01*
X104225000Y-76800000D02*
X104225000Y-79025000D01*
X103503250Y-76078250D02*
X101121750Y-76078250D01*
X98000000Y-84800000D02*
X98450000Y-84350000D01*
X96800000Y-84800000D02*
X98000000Y-84800000D01*
X104225000Y-76800000D02*
X103503250Y-76078250D01*
X98450000Y-84350000D02*
X99275000Y-84350000D01*
X101121750Y-76078250D02*
X100400000Y-76800000D01*
X100400000Y-76800000D02*
X100400000Y-79200000D01*
X105046750Y-79846750D02*
X112153250Y-79846750D01*
X95800000Y-83800000D02*
X96800000Y-84800000D01*
X98438153Y-80000000D02*
X95800000Y-82638153D01*
X112837500Y-79162500D02*
X112837500Y-78262500D01*
X99600000Y-80000000D02*
X98438153Y-80000000D01*
X112153250Y-79846750D02*
X112837500Y-79162500D01*
X100400000Y-79200000D02*
X99600000Y-80000000D01*
X104225000Y-79025000D02*
X105046750Y-79846750D01*
%TO.N,/IMU_BARO/IMU_CS*%
X111549998Y-78550002D02*
X111837500Y-78262500D01*
X95451172Y-81515740D02*
X95850000Y-81116912D01*
X95850000Y-81116912D02*
X95850000Y-78925000D01*
X111362501Y-78550002D02*
X111549998Y-78550002D01*
%TO.N,/IMU_BARO/SCK*%
X89300000Y-83200000D02*
X88950000Y-82850000D01*
X94600000Y-83800000D02*
X91200000Y-83800000D01*
X105475000Y-76400000D02*
X105475000Y-77475000D01*
X107000000Y-79200000D02*
X106400000Y-78600000D01*
X90600000Y-83200000D02*
X89300000Y-83200000D01*
X112337500Y-78662500D02*
X111800000Y-79200000D01*
X106035875Y-77475000D02*
X105475000Y-77475000D01*
X106400000Y-77839125D02*
X106035875Y-77475000D01*
X112337500Y-78262501D02*
X112337500Y-78662500D01*
X111800000Y-79200000D02*
X107000000Y-79200000D01*
X106400000Y-78600000D02*
X106400000Y-77839125D01*
X88950000Y-82850000D02*
X87925000Y-82850000D01*
X91200000Y-83800000D02*
X90600000Y-83200000D01*
%TO.N,/IMU_BARO/MISO*%
X111466513Y-81800000D02*
X113873197Y-79393316D01*
X99275000Y-84850000D02*
X100950000Y-84850000D01*
X101000000Y-79000000D02*
X101000000Y-77000000D01*
X103246014Y-81800000D02*
X111466513Y-81800000D01*
X100950000Y-84850000D02*
X101546750Y-84253250D01*
X101000000Y-77000000D02*
X101400000Y-76600000D01*
X102896750Y-79503250D02*
X102896750Y-81450736D01*
X102800000Y-76600000D02*
X102975000Y-76775000D01*
X103400000Y-78200000D02*
X103400000Y-79000000D01*
X102975000Y-77775000D02*
X102975000Y-77475000D01*
X102896750Y-81450736D02*
X103246014Y-81800000D01*
X102975000Y-76775000D02*
X102975000Y-77475000D01*
X101400000Y-76600000D02*
X102800000Y-76600000D01*
X113873197Y-78673197D02*
X113600000Y-78400000D01*
X101546750Y-84253250D02*
X101546750Y-79546750D01*
X101546750Y-79546750D02*
X101000000Y-79000000D01*
X103400000Y-79000000D02*
X102896750Y-79503250D01*
X103400000Y-78200000D02*
X102975000Y-77775000D01*
X113600000Y-78400000D02*
X113600000Y-78000000D01*
X113873197Y-79393316D02*
X113873197Y-78673197D01*
%TO.N,/MCU/SDIO_D3*%
X101000000Y-87000000D02*
X100600000Y-87000000D01*
X100450000Y-86850000D02*
X99275000Y-86850000D01*
X100600000Y-87000000D02*
X100450000Y-86850000D01*
X105193500Y-86606500D02*
X105606500Y-86606500D01*
X105606500Y-86606500D02*
X109860000Y-90860000D01*
X109860000Y-90860000D02*
X109860000Y-91625000D01*
%TO.N,/MCU/SDIO_D2*%
X100250000Y-87350000D02*
X99275000Y-87350000D01*
X100700000Y-87800000D02*
X100250000Y-87350000D01*
X102200000Y-87800000D02*
X100700000Y-87800000D01*
X107400000Y-87005000D02*
X107400000Y-87000000D01*
X110960000Y-91625000D02*
X110960000Y-90565000D01*
X110960000Y-90565000D02*
X107400000Y-87005000D01*
%TO.N,/MCU/SDIO_CK*%
X99275000Y-86350000D02*
X102350000Y-86350000D01*
X106560000Y-90560000D02*
X106560000Y-91625000D01*
X102350000Y-86350000D02*
X106560000Y-90560000D01*
D40*
%TO.N,/MCU/SDIO_CMD*%
X98186315Y-85850602D02*
X98186917Y-85850000D01*
D38*
X104800000Y-87800000D02*
X102849999Y-85849999D01*
X102849999Y-85849999D02*
X99275000Y-85849999D01*
X108760000Y-90960000D02*
X105600000Y-87800000D01*
X105600000Y-87800000D02*
X104800000Y-87800000D01*
D40*
X98186917Y-85850000D02*
X99275000Y-85850000D01*
D38*
X108760000Y-91625000D02*
X108760000Y-90960000D01*
%TO.N,/MCU/SDIO_D0*%
X93800000Y-86400000D02*
X92850000Y-87350000D01*
X95600000Y-86400000D02*
X93800000Y-86400000D01*
X97200000Y-88000000D02*
X95600000Y-86400000D01*
X104360000Y-90504658D02*
X104360000Y-91625000D01*
X92850000Y-87350000D02*
X92850000Y-90275000D01*
X103988080Y-90132738D02*
X104360000Y-90504658D01*
%TO.N,/MCU/SDIO_D1*%
X103310000Y-91625000D02*
X103310000Y-90539250D01*
X95400000Y-87200000D02*
X94000000Y-87200000D01*
X100800000Y-89402500D02*
X100197500Y-88800000D01*
X94000000Y-87200000D02*
X93350000Y-87850000D01*
X102173250Y-89402500D02*
X100800000Y-89402500D01*
X100197500Y-88800000D02*
X97000000Y-88800000D01*
X103310000Y-90539250D02*
X102173250Y-89402500D01*
X97000000Y-88800000D02*
X95400000Y-87200000D01*
X93350000Y-87850000D02*
X93350000Y-90275000D01*
%TO.N,/Connectors/PB11*%
X88950000Y-87350000D02*
X87925000Y-87350000D01*
X89124740Y-88447253D02*
X89124740Y-87524740D01*
X89124740Y-87524740D02*
X88950000Y-87350000D01*
%TO.N,/Connectors/PB10*%
X89450000Y-86850000D02*
X87925000Y-86850000D01*
X90000000Y-87400000D02*
X89450000Y-86850000D01*
%TO.N,/Connectors/PB2{slash}BOOT1*%
X90800000Y-85200000D02*
X89650000Y-86350000D01*
X91200000Y-85200000D02*
X90800000Y-85200000D01*
X89650000Y-86350000D02*
X87925000Y-86350000D01*
%TO.N,/Connectors/PB1*%
X86613250Y-86186750D02*
X86950001Y-85849999D01*
X86950001Y-85849999D02*
X87925000Y-85849999D01*
X85647996Y-86400000D02*
X85861246Y-86186750D01*
X85861246Y-86186750D02*
X86613250Y-86186750D01*
%TO.N,/Connectors/PB0*%
X87925000Y-85350000D02*
X88950000Y-85350000D01*
X88950000Y-85350000D02*
X89000000Y-85400000D01*
%TO.N,/Connectors/PC4*%
X90000000Y-84400000D02*
X89950000Y-84350000D01*
X89950000Y-84350000D02*
X87925000Y-84350000D01*
%TO.N,/Connectors/PA7*%
X86846499Y-83850000D02*
X87925000Y-83850000D01*
X86349749Y-84346750D02*
X86846499Y-83850000D01*
%TO.N,/Connectors/PA6*%
X86250000Y-83350000D02*
X87925000Y-83350000D01*
X86200000Y-83400000D02*
X86250000Y-83350000D01*
%TO.N,/Connectors/PA4*%
X89950000Y-82350000D02*
X87925000Y-82350000D01*
X90000000Y-82400000D02*
X89950000Y-82350000D01*
%TO.N,/Connectors/PA1*%
X90350000Y-79925000D02*
X90350000Y-78925000D01*
X89400000Y-80875000D02*
X90350000Y-79925000D01*
X89400000Y-81400000D02*
X89400000Y-80875000D01*
%TO.N,/Connectors/PA3*%
X87799700Y-80433330D02*
X87925000Y-80558630D01*
X87925000Y-80558630D02*
X87925000Y-80850001D01*
%TO.N,/Connectors/PA2*%
X88672290Y-78672290D02*
X88672290Y-78030398D01*
X88672290Y-78030398D02*
X88383243Y-77741351D01*
X88925000Y-78925000D02*
X88672290Y-78672290D01*
X89850000Y-78925000D02*
X88925000Y-78925000D01*
%TO.N,/Connectors/PA0*%
X91000000Y-80000000D02*
X90850000Y-79850000D01*
X91000000Y-80400000D02*
X91000000Y-80000000D01*
X90850000Y-79850000D02*
X90850000Y-78925000D01*
%TO.N,/Connectors/PC3*%
X92000000Y-80200000D02*
X92350001Y-79849999D01*
X92000000Y-82200000D02*
X92000000Y-80200000D01*
X92350001Y-79849999D02*
X92350001Y-78925000D01*
%TO.N,/Connectors/PC2*%
X92850000Y-81001470D02*
X92850000Y-78925000D01*
%TO.N,/Connectors/PC1*%
X94017509Y-81600000D02*
X94017509Y-80817509D01*
X94017509Y-80817509D02*
X93350000Y-80150000D01*
X93350000Y-80150000D02*
X93350000Y-78925000D01*
%TO.N,/Connectors/NRST*%
X93800000Y-77379214D02*
X94350000Y-77929214D01*
X94350000Y-77929214D02*
X94350000Y-78925000D01*
X93800000Y-77367500D02*
X93800000Y-77379214D01*
%TO.N,/Connectors/PC0*%
X94800000Y-80400000D02*
X94400000Y-80400000D01*
X93850000Y-79850000D02*
X93850000Y-78925000D01*
X94400000Y-80400000D02*
X93850000Y-79850000D01*
%TO.N,/Connectors/PB9*%
X98023659Y-81583230D02*
X98290429Y-81850000D01*
X98290429Y-81850000D02*
X99275000Y-81850000D01*
%TO.N,/Connectors/PB8*%
X97600000Y-82600000D02*
X98000000Y-82600000D01*
X98250000Y-82350000D02*
X99275000Y-82350000D01*
X98000000Y-82600000D02*
X98250000Y-82350000D01*
%TO.N,/Connectors/PB7*%
X96800000Y-83350001D02*
X99275000Y-83350001D01*
%TO.N,/Connectors/PB6*%
X97896504Y-83850000D02*
X99275000Y-83850000D01*
X97692272Y-84054232D02*
X97896504Y-83850000D01*
%TO.N,/Connectors/SWO*%
X101650000Y-85350000D02*
X99275000Y-85350000D01*
X107300000Y-84300000D02*
X102700000Y-84300000D01*
X102700000Y-84300000D02*
X101650000Y-85350000D01*
%TO.N,/Connectors/PA15*%
X96898350Y-86498350D02*
X98250000Y-87850000D01*
X98250000Y-87850000D02*
X99275000Y-87850000D01*
X96898350Y-86017737D02*
X96898350Y-86498350D01*
%TO.N,/Connectors/SWCLK*%
X103600000Y-89000000D02*
X103200000Y-88600000D01*
X101200000Y-88600000D02*
X100949999Y-88349999D01*
X100949999Y-88349999D02*
X99275000Y-88349999D01*
X103200000Y-88600000D02*
X101200000Y-88600000D01*
%TO.N,/Connectors/SWDIO*%
X97573400Y-89221750D02*
X96502425Y-89221750D01*
X97751650Y-89400000D02*
X97573400Y-89221750D01*
X99904133Y-89714567D02*
X99589566Y-89400000D01*
X96502425Y-89221750D02*
X96350000Y-89374175D01*
X99589566Y-89400000D02*
X97751650Y-89400000D01*
X96350000Y-89374175D02*
X96350000Y-90275000D01*
%TO.N,/Connectors/PA10*%
X95800000Y-88800000D02*
X95517590Y-88800000D01*
X94849999Y-89467591D02*
X94849999Y-90275000D01*
X95517590Y-88800000D02*
X94849999Y-89467591D01*
%TO.N,/Connectors/PA9*%
X94350000Y-90275000D02*
X94350000Y-89050000D01*
X94350000Y-89050000D02*
X94600000Y-88800000D01*
D40*
%TO.N,/Connectors/BOOT0*%
X100800000Y-82602500D02*
X100800000Y-82602500D01*
D38*
X100552500Y-82850000D02*
X99275000Y-82850000D01*
X100800000Y-82602500D02*
X100552500Y-82850000D01*
%TO.N,/Connectors/PA8*%
X94400000Y-88000000D02*
X93850000Y-88550000D01*
X93850000Y-88550000D02*
X93850000Y-90275000D01*
%TO.N,/Connectors/PC7*%
X93600000Y-85600000D02*
X92350001Y-86849999D01*
X92350001Y-86849999D02*
X92350001Y-90275000D01*
X94000000Y-85600000D02*
X93600000Y-85600000D01*
%TO.N,/Connectors/PC6*%
X91850000Y-87529680D02*
X91850000Y-90275000D01*
X91640453Y-87320133D02*
X91850000Y-87529680D01*
%TO.N,/Connectors/PB15*%
X91350000Y-88553250D02*
X91350000Y-90275000D01*
X91346750Y-88550000D02*
X91350000Y-88553250D01*
%TO.N,/Connectors/PB14*%
X90850000Y-88898529D02*
X90850000Y-90275000D01*
X92800000Y-84800000D02*
X90703250Y-86896750D01*
X90703250Y-88751779D02*
X90850000Y-88898529D01*
X90703250Y-86896750D02*
X90703250Y-88751779D01*
%TO.N,/Connectors/PB13*%
X90350000Y-89297942D02*
X90350000Y-90275000D01*
X90346750Y-89294692D02*
X90350000Y-89297942D01*
%TO.N,/Connectors/PB12*%
X89400000Y-90275000D02*
X89850001Y-90275000D01*
%TO.N,Net-(D2-K)*%
X86775001Y-78627499D02*
X86800000Y-78602500D01*
X85800000Y-78627499D02*
X86775001Y-78627499D01*
%TO.N,/IMU_BARO/MAG_CS*%
X97124122Y-80102877D02*
X96850000Y-79828755D01*
X96850000Y-79828755D02*
X96850000Y-78925000D01*
%TO.N,Net-(U3-INT2{slash}FSYNC{slash}CLKIN)*%
X110597500Y-77000000D02*
X110000000Y-76402500D01*
X111075000Y-77000000D02*
X110597500Y-77000000D01*
%TO.N,unconnected-(U3-INT1{slash}INT-Pad4)*%
X113845000Y-76500000D02*
X113600000Y-76500000D01*
X113872500Y-76472500D02*
X113845000Y-76500000D01*
X113872500Y-74002886D02*
X113872500Y-76472500D01*
%TO.N,Net-(U6-OUT)*%
X109477500Y-77075000D02*
X108600000Y-77075000D01*
X108600000Y-77075000D02*
X108877251Y-77075000D01*
X108877251Y-77075000D02*
X109002251Y-77200000D01*
X108675000Y-77000000D02*
X108600000Y-77075000D01*
X110000000Y-77597500D02*
X109477500Y-77075000D01*
D37*
X108700000Y-77075000D02*
X108700000Y-78167499D01*
X108700000Y-78167499D02*
X108467500Y-78399999D01*
%TD*%
%TA.AperFunction,Conductor*%
%TO.N,+3V3*%
G36*
X94005539Y-74019685D02*
G01*
X94051294Y-74072489D01*
X94062500Y-74124000D01*
X94062500Y-75440500D01*
X94042815Y-75507539D01*
X93990011Y-75553294D01*
X93938500Y-75564500D01*
X93590132Y-75564500D01*
X93559360Y-75567385D01*
X93559358Y-75567386D01*
X93486041Y-75593041D01*
X93445086Y-75600000D01*
X92586500Y-75600000D01*
X92519461Y-75580315D01*
X92473706Y-75527511D01*
X92462500Y-75476000D01*
X92462500Y-74124000D01*
X92482185Y-74056961D01*
X92534989Y-74011206D01*
X92586500Y-74000000D01*
X93938500Y-74000000D01*
X94005539Y-74019685D01*
G37*
%TD.AperFunction*%
%TD*%
%TA.AperFunction,Conductor*%
%TO.N,GND*%
G36*
X92543039Y-77019685D02*
G01*
X92588794Y-77072489D01*
X92600000Y-77124000D01*
X92600000Y-77827818D01*
X92580315Y-77894857D01*
X92527511Y-77940612D01*
X92458353Y-77950556D01*
X92452250Y-77949511D01*
X92452134Y-77949500D01*
X92247870Y-77949500D01*
X92167504Y-77965485D01*
X92076375Y-78026375D01*
X92015485Y-78117505D01*
X92015483Y-78117509D01*
X91999500Y-78197862D01*
X91999500Y-78276000D01*
X91979815Y-78343039D01*
X91927011Y-78388794D01*
X91875500Y-78400000D01*
X91824500Y-78400000D01*
X91757461Y-78380315D01*
X91711706Y-78327511D01*
X91700500Y-78276000D01*
X91700500Y-77699564D01*
X91700000Y-77691934D01*
X91700000Y-77124000D01*
X91719685Y-77056961D01*
X91772489Y-77011206D01*
X91824000Y-77000000D01*
X92476000Y-77000000D01*
X92543039Y-77019685D01*
G37*
%TD.AperFunction*%
%TD*%
%TA.AperFunction,Conductor*%
%TO.N,+3V3*%
G36*
X113536789Y-74719685D02*
G01*
X113582544Y-74772489D01*
X113593750Y-74824000D01*
X113593750Y-76050500D01*
X113574065Y-76117539D01*
X113521261Y-76163294D01*
X113469750Y-76174500D01*
X113242747Y-76174500D01*
X113184270Y-76186131D01*
X113184269Y-76186132D01*
X113117947Y-76230447D01*
X113073632Y-76296769D01*
X113073631Y-76296770D01*
X113062000Y-76355247D01*
X113062000Y-76476000D01*
X113042315Y-76543039D01*
X112989511Y-76588794D01*
X112938000Y-76600000D01*
X112829500Y-76600000D01*
X112762461Y-76580315D01*
X112716706Y-76527511D01*
X112705500Y-76476000D01*
X112705500Y-74824000D01*
X112725185Y-74756961D01*
X112777989Y-74711206D01*
X112829500Y-74700000D01*
X113469750Y-74700000D01*
X113536789Y-74719685D01*
G37*
%TD.AperFunction*%
%TD*%
%TA.AperFunction,Conductor*%
%TO.N,GND*%
G36*
X87867539Y-75825185D02*
G01*
X87913294Y-75877989D01*
X87924500Y-75929500D01*
X87924500Y-76525500D01*
X87904815Y-76592539D01*
X87852011Y-76638294D01*
X87800500Y-76649500D01*
X86716739Y-76649500D01*
X86648608Y-76659426D01*
X86543514Y-76710803D01*
X86460803Y-76793514D01*
X86409426Y-76898608D01*
X86399500Y-76966739D01*
X86399500Y-77333265D01*
X86399675Y-77335679D01*
X86400000Y-77344645D01*
X86400000Y-77776000D01*
X86380315Y-77843039D01*
X86327511Y-77888794D01*
X86276000Y-77900000D01*
X85524500Y-77900000D01*
X85457461Y-77880315D01*
X85411706Y-77827511D01*
X85400500Y-77776000D01*
X85400500Y-75929500D01*
X85420185Y-75862461D01*
X85472989Y-75816706D01*
X85524500Y-75805500D01*
X87800500Y-75805500D01*
X87867539Y-75825185D01*
G37*
%TD.AperFunction*%
%TD*%
%TA.AperFunction,Conductor*%
%TO.N,+3V3*%
G36*
X98743039Y-77419685D02*
G01*
X98788794Y-77472489D01*
X98800000Y-77524000D01*
X98800000Y-79476000D01*
X98780315Y-79543039D01*
X98727511Y-79588794D01*
X98676000Y-79600000D01*
X97324500Y-79600000D01*
X97257461Y-79580315D01*
X97211706Y-79527511D01*
X97200500Y-79476000D01*
X97200499Y-78196868D01*
X97200000Y-78186710D01*
X97200000Y-78151362D01*
X97219685Y-78084323D01*
X97236319Y-78063681D01*
X97863681Y-77436319D01*
X97925004Y-77402834D01*
X97951362Y-77400000D01*
X98676000Y-77400000D01*
X98743039Y-77419685D01*
G37*
%TD.AperFunction*%
%TD*%
%TA.AperFunction,Conductor*%
%TO.N,Net-(U2-VDDA)*%
G36*
X91943039Y-74019685D02*
G01*
X91988794Y-74072489D01*
X92000000Y-74124000D01*
X92000000Y-75770784D01*
X91980315Y-75837823D01*
X91927511Y-75883578D01*
X91893879Y-75893488D01*
X91852160Y-75899566D01*
X91745569Y-75951676D01*
X91745568Y-75951678D01*
X91661678Y-76035568D01*
X91661676Y-76035569D01*
X91609567Y-76142157D01*
X91609567Y-76142160D01*
X91599500Y-76211258D01*
X91599500Y-76211263D01*
X91599500Y-76588746D01*
X91599676Y-76591177D01*
X91600000Y-76600133D01*
X91600000Y-76834961D01*
X91580315Y-76902000D01*
X91572214Y-76911949D01*
X91572544Y-76912202D01*
X91567154Y-76919249D01*
X91522511Y-76999059D01*
X91522509Y-76999064D01*
X91502826Y-77066096D01*
X91502825Y-77066101D01*
X91502825Y-77066102D01*
X91494500Y-77124000D01*
X91494500Y-77691934D01*
X91494934Y-77705206D01*
X91495000Y-77709230D01*
X91495000Y-77838300D01*
X91494196Y-77848516D01*
X91494196Y-77857753D01*
X91495000Y-77867970D01*
X91495000Y-78276000D01*
X91475315Y-78343039D01*
X91422511Y-78388794D01*
X91371000Y-78400000D01*
X91324499Y-78400000D01*
X91257460Y-78380315D01*
X91211705Y-78327511D01*
X91200499Y-78276000D01*
X91200499Y-78197870D01*
X91200499Y-78197868D01*
X91184515Y-78117505D01*
X91164309Y-78087266D01*
X91123624Y-78026375D01*
X91068995Y-77989874D01*
X91032495Y-77965485D01*
X91032493Y-77965484D01*
X91032490Y-77965483D01*
X90952135Y-77949500D01*
X90747868Y-77949500D01*
X90741807Y-77950098D01*
X90741684Y-77948856D01*
X90678591Y-77943205D01*
X90623417Y-77900338D01*
X90600177Y-77834446D01*
X90600000Y-77827819D01*
X90600000Y-74124000D01*
X90619685Y-74056961D01*
X90672489Y-74011206D01*
X90724000Y-74000000D01*
X91876000Y-74000000D01*
X91943039Y-74019685D01*
G37*
%TD.AperFunction*%
%TD*%
%TA.AperFunction,Conductor*%
%TO.N,+3V3*%
G36*
X88539670Y-88320185D02*
G01*
X88585425Y-88372989D01*
X88595569Y-88440686D01*
X88594705Y-88447253D01*
X88594705Y-88447255D01*
X88598939Y-88479412D01*
X88600000Y-88495598D01*
X88600000Y-89676000D01*
X88580315Y-89743039D01*
X88527511Y-89788794D01*
X88476000Y-89800000D01*
X88020996Y-89800000D01*
X88012760Y-89799614D01*
X88012760Y-89799635D01*
X88009875Y-89799500D01*
X88009864Y-89799500D01*
X87590136Y-89799500D01*
X87590135Y-89799500D01*
X87589407Y-89799534D01*
X87589267Y-89799500D01*
X87587237Y-89799500D01*
X87587237Y-89799006D01*
X87521621Y-89783057D01*
X87412485Y-89720048D01*
X87412486Y-89720048D01*
X87341671Y-89701073D01*
X87291905Y-89687738D01*
X87232246Y-89651374D01*
X87201717Y-89588526D01*
X87200000Y-89567964D01*
X87200000Y-88503939D01*
X87213469Y-88447735D01*
X87213714Y-88447253D01*
X87222939Y-88429111D01*
X87234551Y-88389564D01*
X87272325Y-88330787D01*
X87335881Y-88301762D01*
X87353528Y-88300500D01*
X88472631Y-88300500D01*
X88539670Y-88320185D01*
G37*
%TD.AperFunction*%
%TD*%
%TA.AperFunction,Conductor*%
%TO.N,Net-(U2-VCAP_1)*%
G36*
X87020444Y-87619685D02*
G01*
X87022296Y-87620898D01*
X87026376Y-87623624D01*
X87117505Y-87684515D01*
X87117508Y-87684515D01*
X87117509Y-87684516D01*
X87144533Y-87689891D01*
X87197867Y-87700500D01*
X87276002Y-87700499D01*
X87343038Y-87720183D01*
X87388794Y-87772986D01*
X87400000Y-87824499D01*
X87400000Y-87875500D01*
X87380315Y-87942539D01*
X87327511Y-87988294D01*
X87276001Y-87999500D01*
X87197870Y-87999500D01*
X87117504Y-88015485D01*
X87026375Y-88076375D01*
X86965485Y-88167505D01*
X86965483Y-88167509D01*
X86949500Y-88247863D01*
X86949500Y-88276000D01*
X86929815Y-88343039D01*
X86877011Y-88388794D01*
X86825500Y-88400000D01*
X86161710Y-88400000D01*
X86094671Y-88380315D01*
X86048916Y-88327511D01*
X86039237Y-88295401D01*
X86034719Y-88266874D01*
X86013515Y-88225258D01*
X86000000Y-88168964D01*
X86000000Y-87729500D01*
X86019685Y-87662461D01*
X86072489Y-87616706D01*
X86124000Y-87605500D01*
X86199849Y-87605500D01*
X86199876Y-87605500D01*
X86207318Y-87605365D01*
X86215171Y-87605080D01*
X86219629Y-87605000D01*
X86563719Y-87605000D01*
X86588039Y-87608852D01*
X86588149Y-87608162D01*
X86730911Y-87630773D01*
X86730913Y-87630773D01*
X86730915Y-87630773D01*
X86864035Y-87609689D01*
X86864037Y-87609688D01*
X86864039Y-87609688D01*
X86864040Y-87609687D01*
X86873321Y-87606672D01*
X86874169Y-87609283D01*
X86912823Y-87600000D01*
X86953405Y-87600000D01*
X87020444Y-87619685D01*
G37*
%TD.AperFunction*%
%TD*%
%TA.AperFunction,Conductor*%
%TO.N,GND*%
G36*
X112443039Y-74719685D02*
G01*
X112488794Y-74772489D01*
X112500000Y-74824000D01*
X112500000Y-76476000D01*
X112480315Y-76543039D01*
X112427511Y-76588794D01*
X112376000Y-76600000D01*
X111737000Y-76600000D01*
X111669961Y-76580315D01*
X111624206Y-76527511D01*
X111613000Y-76476000D01*
X111613000Y-76355249D01*
X111612999Y-76355247D01*
X111602383Y-76301873D01*
X111600000Y-76277682D01*
X111600000Y-74824000D01*
X111619685Y-74756961D01*
X111672489Y-74711206D01*
X111724000Y-74700000D01*
X112376000Y-74700000D01*
X112443039Y-74719685D01*
G37*
%TD.AperFunction*%
%TD*%
%TA.AperFunction,Conductor*%
%TO.N,+5V*%
G36*
X87566744Y-74819097D02*
G01*
X87566806Y-74818991D01*
X87567244Y-74819244D01*
X87568746Y-74819685D01*
X87572131Y-74822065D01*
X87573843Y-74823053D01*
X87573845Y-74823055D01*
X87637409Y-74859753D01*
X87708304Y-74878750D01*
X87708306Y-74878750D01*
X87876000Y-74878750D01*
X87943039Y-74898435D01*
X87988794Y-74951239D01*
X88000000Y-75002750D01*
X88000000Y-75476000D01*
X87980315Y-75543039D01*
X87927511Y-75588794D01*
X87876000Y-75600000D01*
X85524500Y-75600000D01*
X85457461Y-75580315D01*
X85411706Y-75527511D01*
X85400500Y-75476000D01*
X85400500Y-74924000D01*
X85420185Y-74856961D01*
X85472989Y-74811206D01*
X85524500Y-74800000D01*
X87501707Y-74800000D01*
X87566744Y-74819097D01*
G37*
%TD.AperFunction*%
%TD*%
%TA.AperFunction,Conductor*%
%TO.N,+3V3*%
G36*
X98737539Y-89819685D02*
G01*
X98783294Y-89872489D01*
X98794500Y-89924000D01*
X98794500Y-90367348D01*
X98794635Y-90374826D01*
X98794919Y-90382643D01*
X98795000Y-90387132D01*
X98795000Y-90747869D01*
X98794919Y-90752358D01*
X98794635Y-90760174D01*
X98794500Y-90767653D01*
X98794500Y-90876000D01*
X98774815Y-90943039D01*
X98722011Y-90988794D01*
X98670500Y-91000000D01*
X97524000Y-91000000D01*
X97456961Y-90980315D01*
X97411206Y-90927511D01*
X97400000Y-90876000D01*
X97400000Y-89924000D01*
X97419685Y-89856961D01*
X97472489Y-89811206D01*
X97524000Y-89800000D01*
X98670500Y-89800000D01*
X98737539Y-89819685D01*
G37*
%TD.AperFunction*%
%TD*%
%TA.AperFunction,Conductor*%
%TO.N,GND*%
G36*
X96743039Y-91619685D02*
G01*
X96788794Y-91672489D01*
X96800000Y-91724000D01*
X96800000Y-92075500D01*
X96780315Y-92142539D01*
X96727511Y-92188294D01*
X96676000Y-92199500D01*
X95724000Y-92199500D01*
X95656961Y-92179815D01*
X95611206Y-92127011D01*
X95600000Y-92075500D01*
X95600000Y-91949742D01*
X95619685Y-91882703D01*
X95636319Y-91862061D01*
X95862061Y-91636319D01*
X95923384Y-91602834D01*
X95949742Y-91600000D01*
X96676000Y-91600000D01*
X96743039Y-91619685D01*
G37*
%TD.AperFunction*%
%TD*%
%TA.AperFunction,Conductor*%
%TO.N,GND*%
G36*
X99461165Y-89819685D02*
G01*
X99504610Y-89867704D01*
X99555605Y-89967787D01*
X99555607Y-89967789D01*
X99555609Y-89967792D01*
X99650907Y-90063090D01*
X99650911Y-90063093D01*
X99650913Y-90063095D01*
X99771007Y-90124286D01*
X99895401Y-90143988D01*
X99958532Y-90173915D01*
X99995464Y-90233227D01*
X100000000Y-90266460D01*
X100000000Y-90876000D01*
X99980315Y-90943039D01*
X99927511Y-90988794D01*
X99876000Y-91000000D01*
X99124000Y-91000000D01*
X99056961Y-90980315D01*
X99011206Y-90927511D01*
X99000000Y-90876000D01*
X99000000Y-90767627D01*
X99000325Y-90758661D01*
X99000500Y-90756247D01*
X99000500Y-90378755D01*
X99000325Y-90376342D01*
X99000000Y-90367375D01*
X99000000Y-89924000D01*
X99019685Y-89856961D01*
X99072489Y-89811206D01*
X99124000Y-89800000D01*
X99394126Y-89800000D01*
X99461165Y-89819685D01*
G37*
%TD.AperFunction*%
%TD*%
%TA.AperFunction,Conductor*%
%TO.N,+3V3*%
G36*
X111343039Y-73819685D02*
G01*
X111388794Y-73872489D01*
X111400000Y-73924000D01*
X111400000Y-74776878D01*
X111398738Y-74794525D01*
X111394500Y-74824000D01*
X111394500Y-76277682D01*
X111395242Y-76292791D01*
X111395490Y-76297832D01*
X111397872Y-76322011D01*
X111397873Y-76322020D01*
X111398658Y-76327312D01*
X111400000Y-76345505D01*
X111400000Y-76476000D01*
X111380315Y-76543039D01*
X111327511Y-76588794D01*
X111276000Y-76600000D01*
X110724000Y-76600000D01*
X110656961Y-76580315D01*
X110611206Y-76527511D01*
X110600000Y-76476000D01*
X110600000Y-73924000D01*
X110619685Y-73856961D01*
X110672489Y-73811206D01*
X110724000Y-73800000D01*
X111276000Y-73800000D01*
X111343039Y-73819685D01*
G37*
%TD.AperFunction*%
%TD*%
%TA.AperFunction,Conductor*%
%TO.N,+3V3*%
G36*
X86839960Y-81701526D02*
G01*
X86853641Y-81703693D01*
X86866965Y-81705804D01*
X86866966Y-81705804D01*
X86890813Y-81702026D01*
X86910211Y-81700500D01*
X87176000Y-81700500D01*
X87243039Y-81720185D01*
X87288794Y-81772989D01*
X87300000Y-81824500D01*
X87300000Y-81877421D01*
X87280315Y-81944460D01*
X87227511Y-81990215D01*
X87200190Y-81999039D01*
X87117504Y-82015485D01*
X87026375Y-82076375D01*
X86965485Y-82167505D01*
X86965483Y-82167509D01*
X86949500Y-82247863D01*
X86949500Y-82452131D01*
X86950098Y-82458193D01*
X86948856Y-82458315D01*
X86943205Y-82521409D01*
X86900338Y-82576583D01*
X86834446Y-82599823D01*
X86827819Y-82600000D01*
X86124000Y-82600000D01*
X86056961Y-82580315D01*
X86011206Y-82527511D01*
X86000000Y-82476000D01*
X86000000Y-81824000D01*
X86019685Y-81756961D01*
X86072489Y-81711206D01*
X86124000Y-81700000D01*
X86820564Y-81700000D01*
X86839960Y-81701526D01*
G37*
%TD.AperFunction*%
%TD*%
%TA.AperFunction,Conductor*%
%TO.N,Net-(U2-VCAP_2)*%
G36*
X96942540Y-90619685D02*
G01*
X96988295Y-90672489D01*
X96999500Y-90723999D01*
X96999501Y-91002132D01*
X97015139Y-91080754D01*
X97015485Y-91082495D01*
X97076375Y-91173624D01*
X97096559Y-91187110D01*
X97167505Y-91234515D01*
X97167508Y-91234515D01*
X97167509Y-91234516D01*
X97194533Y-91239891D01*
X97247867Y-91250500D01*
X97452132Y-91250499D01*
X97532495Y-91234515D01*
X97532498Y-91234513D01*
X97544644Y-91226398D01*
X97611322Y-91205520D01*
X97613535Y-91205500D01*
X97876000Y-91205500D01*
X97943039Y-91225185D01*
X97988794Y-91277989D01*
X98000000Y-91329500D01*
X98000000Y-92075500D01*
X97980315Y-92142539D01*
X97927511Y-92188294D01*
X97876000Y-92199500D01*
X97129500Y-92199500D01*
X97062461Y-92179815D01*
X97016706Y-92127011D01*
X97005500Y-92075500D01*
X97005500Y-91724008D01*
X97005499Y-91723992D01*
X97004720Y-91716751D01*
X97001210Y-91684110D01*
X97000500Y-91670855D01*
X97000500Y-91611263D01*
X97000500Y-91611258D01*
X96990433Y-91542160D01*
X96965426Y-91491009D01*
X96938323Y-91435569D01*
X96854430Y-91351676D01*
X96747839Y-91299566D01*
X96738640Y-91296724D01*
X96739389Y-91294297D01*
X96688783Y-91271070D01*
X96651119Y-91212222D01*
X96651250Y-91142352D01*
X96667059Y-91108619D01*
X96673924Y-91098345D01*
X96684515Y-91082495D01*
X96700500Y-91002133D01*
X96700500Y-90724000D01*
X96720185Y-90656961D01*
X96772989Y-90611206D01*
X96824500Y-90600000D01*
X96875501Y-90600000D01*
X96942540Y-90619685D01*
G37*
%TD.AperFunction*%
%TD*%
%TA.AperFunction,Conductor*%
%TO.N,+3V3*%
G36*
X101143039Y-80019685D02*
G01*
X101188794Y-80072489D01*
X101200000Y-80124000D01*
X101200000Y-80870500D01*
X101180315Y-80937539D01*
X101127511Y-80983294D01*
X101076000Y-80994500D01*
X100013289Y-80994500D01*
X100003208Y-80994747D01*
X100003201Y-80994747D01*
X100003174Y-80994748D01*
X100001104Y-80994850D01*
X99995035Y-80994999D01*
X99523995Y-80994999D01*
X99488734Y-80998790D01*
X99475480Y-80999500D01*
X98624000Y-80999500D01*
X98556961Y-80979815D01*
X98511206Y-80927011D01*
X98500000Y-80875500D01*
X98500000Y-80524000D01*
X98519685Y-80456961D01*
X98572489Y-80411206D01*
X98624000Y-80400000D01*
X99800000Y-80400000D01*
X100163681Y-80036319D01*
X100225004Y-80002834D01*
X100251362Y-80000000D01*
X101076000Y-80000000D01*
X101143039Y-80019685D01*
G37*
%TD.AperFunction*%
%TD*%
%TA.AperFunction,Conductor*%
%TO.N,GND*%
G36*
X101143039Y-81219685D02*
G01*
X101188794Y-81272489D01*
X101200000Y-81324000D01*
X101200000Y-81876000D01*
X101180315Y-81943039D01*
X101127511Y-81988794D01*
X101076000Y-82000000D01*
X100374500Y-82000000D01*
X100307461Y-81980315D01*
X100261706Y-81927511D01*
X100250500Y-81876001D01*
X100250499Y-81747870D01*
X100250499Y-81747868D01*
X100234515Y-81667505D01*
X100214309Y-81637266D01*
X100173624Y-81576375D01*
X100118995Y-81539874D01*
X100082495Y-81515485D01*
X100082493Y-81515484D01*
X100082490Y-81515483D01*
X100002137Y-81499500D01*
X99524000Y-81499500D01*
X99456961Y-81479815D01*
X99411206Y-81427011D01*
X99400000Y-81375500D01*
X99400000Y-81324499D01*
X99419685Y-81257460D01*
X99472489Y-81211705D01*
X99523998Y-81200499D01*
X100002132Y-81200499D01*
X100003129Y-81200499D01*
X100013289Y-81200000D01*
X101076000Y-81200000D01*
X101143039Y-81219685D01*
G37*
%TD.AperFunction*%
%TD*%
%TA.AperFunction,Conductor*%
%TO.N,GND*%
G36*
X86894857Y-80619685D02*
G01*
X86940612Y-80672489D01*
X86950556Y-80741647D01*
X86949511Y-80747749D01*
X86949500Y-80747865D01*
X86949500Y-80952129D01*
X86965485Y-81032495D01*
X87026375Y-81123624D01*
X87062876Y-81148013D01*
X87117505Y-81184515D01*
X87197867Y-81200500D01*
X87197872Y-81200499D01*
X87200190Y-81200961D01*
X87262101Y-81233346D01*
X87296676Y-81294061D01*
X87300000Y-81322579D01*
X87300000Y-81371000D01*
X87280315Y-81438039D01*
X87227511Y-81483794D01*
X87176000Y-81495000D01*
X86910199Y-81495000D01*
X86894092Y-81495632D01*
X86878215Y-81496881D01*
X86858528Y-81496511D01*
X86858502Y-81496850D01*
X86856082Y-81496659D01*
X86856078Y-81496659D01*
X86852371Y-81496367D01*
X86836666Y-81495131D01*
X86820577Y-81494500D01*
X86820564Y-81494500D01*
X86124000Y-81494500D01*
X86056961Y-81474815D01*
X86011206Y-81422011D01*
X86000000Y-81370500D01*
X86000000Y-80724000D01*
X86019685Y-80656961D01*
X86072489Y-80611206D01*
X86124000Y-80600000D01*
X86827818Y-80600000D01*
X86894857Y-80619685D01*
G37*
%TD.AperFunction*%
%TD*%
%TA.AperFunction,Conductor*%
%TO.N,+3V3*%
G36*
X90143039Y-73620185D02*
G01*
X90188794Y-73672989D01*
X90200000Y-73724500D01*
X90200000Y-75776000D01*
X90180315Y-75843039D01*
X90127511Y-75888794D01*
X90076000Y-75900000D01*
X88924000Y-75900000D01*
X88856961Y-75880315D01*
X88811206Y-75827511D01*
X88800000Y-75776000D01*
X88800000Y-74551014D01*
X88819685Y-74483975D01*
X88851948Y-74450096D01*
X88854430Y-74448323D01*
X88938322Y-74364432D01*
X88938323Y-74364430D01*
X88938324Y-74364429D01*
X88990433Y-74257840D01*
X89000500Y-74188742D01*
X89000500Y-73811258D01*
X88990464Y-73742374D01*
X89000278Y-73673200D01*
X89045935Y-73620310D01*
X89112937Y-73600500D01*
X90076000Y-73600500D01*
X90143039Y-73620185D01*
G37*
%TD.AperFunction*%
%TD*%
%TA.AperFunction,Conductor*%
%TO.N,GND*%
G36*
X86904406Y-86419685D02*
G01*
X86950161Y-86472489D01*
X86958983Y-86499804D01*
X86965485Y-86532495D01*
X86970159Y-86543778D01*
X86968713Y-86544376D01*
X86985436Y-86597791D01*
X86969481Y-86655938D01*
X86970159Y-86656219D01*
X86967923Y-86661617D01*
X86966948Y-86665171D01*
X86965550Y-86667345D01*
X86965484Y-86667505D01*
X86949500Y-86747863D01*
X86949500Y-86952129D01*
X86965485Y-87032495D01*
X86970159Y-87043778D01*
X86968713Y-87044376D01*
X86985436Y-87097791D01*
X86969481Y-87155938D01*
X86970159Y-87156219D01*
X86967923Y-87161617D01*
X86966948Y-87165171D01*
X86965550Y-87167345D01*
X86965484Y-87167505D01*
X86949500Y-87247863D01*
X86949500Y-87276000D01*
X86929815Y-87343039D01*
X86877011Y-87388794D01*
X86825500Y-87400000D01*
X86600124Y-87400000D01*
X86591156Y-87399675D01*
X86588743Y-87399500D01*
X86588742Y-87399500D01*
X86211258Y-87399500D01*
X86211257Y-87399500D01*
X86208844Y-87399675D01*
X86199876Y-87400000D01*
X86124000Y-87400000D01*
X86056961Y-87380315D01*
X86011206Y-87327511D01*
X86000000Y-87276000D01*
X86000000Y-86631035D01*
X86013514Y-86574742D01*
X86034679Y-86533203D01*
X86082652Y-86482409D01*
X86145163Y-86465500D01*
X86649946Y-86465500D01*
X86649948Y-86465500D01*
X86720843Y-86446503D01*
X86737826Y-86436698D01*
X86772617Y-86416612D01*
X86834616Y-86400000D01*
X86837367Y-86400000D01*
X86904406Y-86419685D01*
G37*
%TD.AperFunction*%
%TD*%
M02*
