%TF.GenerationSoftware,KiCad,Pcbnew,8.0.0*%
%TF.CreationDate,2024-09-22T12:37:06-04:00*%
%TF.ProjectId,MainBoard,4d61696e-426f-4617-9264-2e6b69636164,rev?*%
%TF.SameCoordinates,Original*%
%TF.FileFunction,Copper,L4,Inr*%
%TF.FilePolarity,Positive*%
%FSLAX46Y46*%
G04 Gerber Fmt 4.6, Leading zero omitted, Abs format (unit mm)*
G04 Created by KiCad (PCBNEW 8.0.0) date 2024-09-22 12:37:06*
%MOMM*%
%LPD*%
G01*
G04 APERTURE LIST*
%TA.AperFunction,ComponentPad*%
%ADD10C,1.000000*%
%TD*%
%TA.AperFunction,ViaPad*%
%ADD11C,0.450000*%
%TD*%
%TA.AperFunction,Conductor*%
%ADD12C,0.156500*%
%TD*%
G04 APERTURE END LIST*
D10*
%TO.N,GND*%
%TO.C,TP1*%
X86000000Y-91600000D03*
%TD*%
D11*
%TO.N,GND*%
X93989084Y-82249380D03*
X91925000Y-77853135D03*
X108800000Y-80550000D03*
X85625000Y-77075002D03*
X89700000Y-76400000D03*
X92216759Y-77371642D03*
X103200000Y-83000000D03*
X91346750Y-87899997D03*
X101764206Y-87297024D03*
X102783353Y-78405549D03*
X86338402Y-81075002D03*
X112200000Y-75664038D03*
X89168602Y-90882419D03*
X112051286Y-85251284D03*
X97487124Y-81959873D03*
X100892577Y-81567500D03*
X112105000Y-74100000D03*
X86866966Y-81275000D03*
X92167500Y-76400000D03*
X100349946Y-81442243D03*
X92330284Y-84350700D03*
X104857886Y-76604140D03*
X95033925Y-87856326D03*
X113137500Y-74000000D03*
X107432500Y-74000000D03*
X105657286Y-86105819D03*
X97003549Y-83967311D03*
X100800000Y-83800000D03*
X95640682Y-88159423D03*
X96957918Y-82700047D03*
X95188331Y-80921250D03*
X96248758Y-85994617D03*
X95196019Y-84059353D03*
X113420000Y-90600000D03*
X111377404Y-81177404D03*
X88168791Y-78354958D03*
X99400000Y-76450000D03*
X99467500Y-77800000D03*
X86175000Y-77075002D03*
X92459621Y-82659621D03*
X86200003Y-77600000D03*
X93461391Y-81222160D03*
X90000000Y-83724998D03*
X86730913Y-87199969D03*
X112349890Y-89287899D03*
X99345000Y-90046038D03*
X87805549Y-79783353D03*
X113369947Y-78918350D03*
X95860819Y-91975000D03*
X102975000Y-74600000D03*
X111349997Y-86400000D03*
X104216647Y-89503250D03*
X102439522Y-87195738D03*
X85625000Y-77600000D03*
X87200000Y-90233032D03*
X107605549Y-86383353D03*
X97800000Y-88255852D03*
X95400000Y-74032500D03*
X91855109Y-86706991D03*
X105797685Y-78521526D03*
X112582517Y-81395589D03*
X107294148Y-77794148D03*
X103394451Y-89616647D03*
X102300000Y-79500000D03*
X105330852Y-82780852D03*
X95130032Y-88423743D03*
X94616647Y-85394451D03*
X112105000Y-75100000D03*
X105441938Y-91618500D03*
X93800000Y-76232500D03*
X111540379Y-82940379D03*
X88367500Y-90400000D03*
X91459621Y-80859621D03*
X99467500Y-78800000D03*
X90400000Y-86400000D03*
X106125003Y-76400000D03*
X102100000Y-90200000D03*
X88400000Y-74000000D03*
X106965577Y-84857372D03*
X97538678Y-85906007D03*
X109800000Y-74400000D03*
%TO.N,+5V*%
X85800000Y-75232500D03*
X87600000Y-75250000D03*
X86400000Y-75250000D03*
X87024997Y-75250000D03*
%TO.N,+3V3*%
X87825002Y-89400000D03*
X89200000Y-75250000D03*
X98332500Y-78800000D03*
X105150000Y-78600000D03*
X105475000Y-74600000D03*
X100200000Y-80600000D03*
X97800000Y-79200000D03*
X107660000Y-91618500D03*
X108700000Y-74500000D03*
X113137500Y-75135000D03*
X100800000Y-74600000D03*
X111000000Y-75800000D03*
X97800000Y-78400000D03*
X92800000Y-74400000D03*
X97885504Y-86600000D03*
X89200000Y-74600000D03*
X104150000Y-82800000D03*
X113192630Y-75800000D03*
X86400000Y-82167500D03*
X98000000Y-90032500D03*
X89800000Y-74600000D03*
X98332500Y-77800000D03*
X88000000Y-88800000D03*
X92800000Y-75200000D03*
X93550000Y-74800000D03*
X111000000Y-74600000D03*
X89800000Y-75250000D03*
X100800000Y-80432500D03*
X112195000Y-91600000D03*
%TO.N,Net-(D1-K)*%
X86000000Y-74000000D03*
%TO.N,/IMU_BARO/BARO_CS*%
X101200000Y-75325000D03*
X101725000Y-78200000D03*
X96600000Y-80600000D03*
%TO.N,/Connectors/USB_D-*%
X85625000Y-88400000D03*
%TO.N,/Connectors/USB_D+*%
X85625000Y-89400000D03*
%TO.N,/IMU_BARO/MOSI*%
X104225000Y-76800000D03*
%TO.N,/IMU_BARO/IMU_CS*%
X95451172Y-81515740D03*
X111362501Y-78550002D03*
%TO.N,/IMU_BARO/SCK*%
X105475000Y-76400000D03*
X94600000Y-83800000D03*
%TO.N,/IMU_BARO/MISO*%
X103400000Y-78200000D03*
%TO.N,/MCU/SDIO_D3*%
X105193500Y-86606500D03*
X101000000Y-87000000D03*
%TO.N,/MCU/SDIO_D2*%
X102200000Y-87800000D03*
X107400000Y-87000000D03*
X110960000Y-91625000D03*
%TO.N,/MCU/SDIO_CMD*%
X98186315Y-85850602D03*
%TO.N,/MCU/SDIO_D0*%
X97200000Y-88000000D03*
X103988080Y-90132738D03*
%TO.N,/Connectors/PB11*%
X89124740Y-88447253D03*
%TO.N,/Connectors/PB10*%
X90000000Y-87400000D03*
%TO.N,/Connectors/PB2{slash}BOOT1*%
X112000000Y-82400000D03*
X91200000Y-85200000D03*
%TO.N,/Connectors/PB1*%
X85625000Y-86400000D03*
%TO.N,/Connectors/PB0*%
X89000000Y-85400000D03*
%TO.N,/Connectors/PC4*%
X90000000Y-84400000D03*
%TO.N,/Connectors/PA7*%
X86349749Y-84346750D03*
%TO.N,/Connectors/PA6*%
X86200000Y-83400000D03*
%TO.N,/Connectors/PA4*%
X90000000Y-82400000D03*
%TO.N,/Connectors/PA1*%
X89400000Y-81400000D03*
%TO.N,/Connectors/PA3*%
X87799700Y-80433330D03*
%TO.N,/Connectors/PA2*%
X88383243Y-77741351D03*
%TO.N,/Connectors/PA0*%
X91000000Y-80400000D03*
%TO.N,/Connectors/PC3*%
X92000000Y-82200000D03*
X86200000Y-85400000D03*
%TO.N,/Connectors/PC2*%
X92850000Y-81001470D03*
%TO.N,/Connectors/PC1*%
X87637631Y-79151088D03*
X94017509Y-81600000D03*
%TO.N,/Connectors/NRST*%
X93800000Y-77367500D03*
%TO.N,/Connectors/PC0*%
X94800000Y-80400000D03*
%TO.N,/Connectors/PB9*%
X98023659Y-81583230D03*
%TO.N,/Connectors/PB8*%
X97600000Y-82600000D03*
X105800011Y-79171524D03*
%TO.N,/Connectors/PB7*%
X109800000Y-75050003D03*
X96800000Y-83350001D03*
%TO.N,/Connectors/PB6*%
X97692272Y-84054232D03*
X108718143Y-81194828D03*
%TO.N,/Connectors/SWO*%
X107300000Y-84300000D03*
%TO.N,/Connectors/PA15*%
X96898350Y-86017737D03*
%TO.N,/Connectors/SWCLK*%
X112000000Y-83400000D03*
X103600000Y-89000000D03*
%TO.N,/Connectors/SWDIO*%
X99904133Y-89714567D03*
X109200000Y-84400000D03*
%TO.N,/Connectors/PA10*%
X111990867Y-84600000D03*
X95800000Y-88800000D03*
%TO.N,/Connectors/PA9*%
X94600000Y-88800000D03*
X112000000Y-86400000D03*
%TO.N,/Connectors/BOOT0*%
X100800000Y-82602500D03*
%TO.N,/Connectors/PA8*%
X94400000Y-88000000D03*
X111700000Y-89300000D03*
%TO.N,/Connectors/PC7*%
X94000000Y-85600000D03*
%TO.N,/Connectors/PC6*%
X91640453Y-87320133D03*
%TO.N,/Connectors/PB15*%
X91346750Y-88550000D03*
%TO.N,/Connectors/PB14*%
X92800000Y-84800000D03*
X111611215Y-80570909D03*
%TO.N,/Connectors/PB13*%
X90346750Y-89294692D03*
%TO.N,/Connectors/PB12*%
X89400000Y-90275000D03*
%TO.N,/IMU_BARO/MAG_CS*%
X97124122Y-80102877D03*
X102296875Y-80906375D03*
%TO.N,unconnected-(U3-INT1{slash}INT-Pad4)*%
X113872500Y-74002886D03*
%TD*%
D12*
%TO.N,/IMU_BARO/BARO_CS*%
X101725000Y-78200000D02*
X101725000Y-75850000D01*
X101725000Y-75850000D02*
X101200000Y-75325000D01*
%TO.N,/Connectors/PB2{slash}BOOT1*%
X109800000Y-83400000D02*
X110800000Y-82400000D01*
X91200000Y-85200000D02*
X91604227Y-85200000D01*
X104200000Y-86200000D02*
X107000000Y-83400000D01*
X91604227Y-85200000D02*
X93604227Y-87200000D01*
X100000000Y-86200000D02*
X104200000Y-86200000D01*
X110800000Y-82400000D02*
X112000000Y-82400000D01*
X99000000Y-87200000D02*
X100000000Y-86200000D01*
X107000000Y-83400000D02*
X109800000Y-83400000D01*
X93604227Y-87200000D02*
X99000000Y-87200000D01*
%TO.N,/Connectors/PC3*%
X86200000Y-85400000D02*
X87000000Y-85400000D01*
X89200000Y-83200000D02*
X91000000Y-83200000D01*
X87000000Y-85400000D02*
X89200000Y-83200000D01*
X91000000Y-83200000D02*
X92000000Y-82200000D01*
%TO.N,/Connectors/PC1*%
X87637631Y-79151088D02*
X92551088Y-79151088D01*
X92551088Y-79151088D02*
X94017509Y-80617509D01*
X94017509Y-80617509D02*
X94017509Y-81600000D01*
%TO.N,/Connectors/PB8*%
X102129250Y-82070750D02*
X99129250Y-82070750D01*
X98600000Y-82600000D02*
X97600000Y-82600000D01*
X105800011Y-79171524D02*
X105028476Y-79171524D01*
X99129250Y-82070750D02*
X98600000Y-82600000D01*
X105028476Y-79171524D02*
X102129250Y-82070750D01*
%TO.N,/Connectors/PB7*%
X102991547Y-82496750D02*
X102288297Y-83200000D01*
X99673252Y-83200000D02*
X99523251Y-83350001D01*
X99523251Y-83350001D02*
X96800000Y-83350001D01*
X109800000Y-77200000D02*
X106800000Y-80200000D01*
X106800000Y-80200000D02*
X105800000Y-80200000D01*
X103503250Y-82496750D02*
X102991547Y-82496750D01*
X102288297Y-83200000D02*
X99673252Y-83200000D01*
X109800000Y-75050003D02*
X109800000Y-77200000D01*
X105800000Y-80200000D02*
X103503250Y-82496750D01*
%TO.N,/Connectors/PB6*%
X98038040Y-84400000D02*
X97692272Y-84054232D01*
X103400000Y-84400000D02*
X98038040Y-84400000D01*
X108718143Y-81194828D02*
X106205172Y-81194828D01*
X106205172Y-81194828D02*
X104704251Y-82695749D01*
X104704251Y-83095749D02*
X103400000Y-84400000D01*
X104704251Y-82695749D02*
X104704251Y-83095749D01*
%TO.N,/Connectors/SWCLK*%
X107200000Y-89000000D02*
X103600000Y-89000000D01*
X108800000Y-86600000D02*
X108800000Y-87400000D01*
X108800000Y-87400000D02*
X107200000Y-89000000D01*
X112000000Y-83400000D02*
X108800000Y-86600000D01*
%TO.N,/Connectors/SWDIO*%
X103400000Y-88000000D02*
X105200000Y-88000000D01*
X108800000Y-84400000D02*
X109200000Y-84400000D01*
X100418700Y-89200000D02*
X102200000Y-89200000D01*
X99904133Y-89714567D02*
X100418700Y-89200000D01*
X105200000Y-88000000D02*
X108800000Y-84400000D01*
X102200000Y-89200000D02*
X103400000Y-88000000D01*
%TO.N,/Connectors/PA10*%
X110800000Y-85790867D02*
X110800000Y-87000000D01*
X107800000Y-90000000D02*
X105400000Y-90000000D01*
X105400000Y-90000000D02*
X104696750Y-90703250D01*
X97703250Y-90703250D02*
X95800000Y-88800000D01*
X104696750Y-90703250D02*
X97703250Y-90703250D01*
X110800000Y-87000000D02*
X107800000Y-90000000D01*
X111990867Y-84600000D02*
X110800000Y-85790867D01*
%TO.N,/Connectors/PA9*%
X112000000Y-87400000D02*
X108400000Y-91000000D01*
X105348735Y-91000000D02*
X104948735Y-91400000D01*
X112000000Y-86400000D02*
X112000000Y-87400000D01*
X108400000Y-91000000D02*
X105348735Y-91000000D01*
X97200000Y-91400000D02*
X94600000Y-88800000D01*
X104948735Y-91400000D02*
X97200000Y-91400000D01*
%TO.N,/Connectors/PA8*%
X108878250Y-92121750D02*
X96721750Y-92121750D01*
X111700000Y-89300000D02*
X108878250Y-92121750D01*
X96721750Y-92121750D02*
X93800000Y-89200000D01*
X93800000Y-89200000D02*
X93800000Y-88600000D01*
X93800000Y-88600000D02*
X94400000Y-88000000D01*
%TO.N,/Connectors/PB14*%
X106800000Y-82600000D02*
X104200000Y-85200000D01*
X111611215Y-80570909D02*
X111229091Y-80570909D01*
X109200000Y-82600000D02*
X106800000Y-82600000D01*
X104200000Y-85200000D02*
X97000000Y-85200000D01*
X111229091Y-80570909D02*
X109200000Y-82600000D01*
X96600000Y-84800000D02*
X92800000Y-84800000D01*
X97000000Y-85200000D02*
X96600000Y-84800000D01*
%TO.N,/IMU_BARO/MAG_CS*%
X101400000Y-79600000D02*
X102296875Y-80496875D01*
X99813500Y-79600000D02*
X101400000Y-79600000D01*
X97124122Y-80102877D02*
X99310623Y-80102877D01*
X99310623Y-80102877D02*
X99813500Y-79600000D01*
X102296875Y-80496875D02*
X102296875Y-80906375D01*
%TD*%
M02*
