M48
; DRILL file {KiCad 8.0.0} date 2024-09-22T12:37:03-0400
; FORMAT={-:-/ absolute / inch / decimal}
; #@! TF.CreationDate,2024-09-22T12:37:03-04:00
; #@! TF.GenerationSoftware,Kicad,Pcbnew,8.0.0
; #@! TF.FileFunction,Plated,1,6,PTH
FMAT,2
INCH
; #@! TA.AperFunction,Plated,PTH,ViaDrill
T1C0.0118
; #@! TA.AperFunction,Plated,PTH,ComponentDrill
T2C0.0197
%
G90
G05
T1
X3.3711Y-3.0344
X3.3711Y-3.0551
X3.3711Y-3.4016
X3.3711Y-3.4803
X3.3711Y-3.5197
X3.378Y-2.9619
X3.3858Y-2.9134
X3.3927Y-3.0344
X3.3937Y-3.2835
X3.3937Y-3.3622
X3.3937Y-3.0551
X3.3991Y-3.1919
X3.3996Y-3.3207
X3.4016Y-2.9626
X3.4016Y-3.2349
X3.4146Y-3.4331
X3.42Y-3.1998
X3.4262Y-2.9626
X3.4331Y-3.5525
X3.4488Y-2.9626
X3.4503Y-3.1162
X3.4567Y-3.1667
X3.4569Y-3.1411
X3.4577Y-3.5197
X3.4646Y-3.4961
X3.4712Y-3.0848
X3.479Y-3.5591
X3.4797Y-3.0607
X3.4803Y-2.9134
X3.5039Y-3.3622
X3.5088Y-3.4822
X3.5106Y-3.578
X3.5118Y-2.937
X3.5118Y-2.9626
X3.5197Y-3.2047
X3.5197Y-3.5541
X3.5315Y-3.0079
X3.5354Y-2.937
X3.5354Y-2.9626
X3.5433Y-3.2441
X3.5433Y-3.2963
X3.5433Y-3.3228
X3.5433Y-3.4409
X3.557Y-3.5155
X3.5591Y-3.4016
X3.5827Y-3.1654
X3.5906Y-3.3543
X3.5963Y-3.4606
X3.5963Y-3.4862
X3.6008Y-3.1834
X3.6079Y-3.4378
X3.6163Y-3.4137
X3.6191Y-3.0651
X3.622Y-3.2362
X3.6286Y-3.0079
X3.6306Y-3.0461
X3.6351Y-3.3209
X3.6401Y-3.2543
X3.6535Y-2.9291
X3.6535Y-2.9606
X3.6535Y-3.3386
X3.6555Y-3.189
X3.6796Y-3.1977
X3.6831Y-2.9449
X3.6929Y-3.0013
X3.6929Y-3.046
X3.7004Y-3.2382
X3.7008Y-3.3701
X3.7015Y-3.2126
X3.7165Y-3.4646
X3.7244Y-3.2992
X3.7244Y-3.4961
X3.7251Y-3.362
X3.7323Y-3.1654
X3.7415Y-3.4589
X3.7453Y-3.4812
X3.7476Y-3.1859
X3.7479Y-3.3094
X3.7559Y-2.9147
X3.7579Y-3.2093
X3.7654Y-3.4708
X3.7717Y-3.4961
X3.774Y-3.6211
X3.7893Y-3.3856
X3.8031Y-3.1732
X3.811Y-3.2815
X3.8149Y-3.3865
X3.8172Y-3.2559
X3.819Y-3.3058
X3.8238Y-3.1537
X3.8268Y-3.4646
X3.8381Y-3.2268
X3.8401Y-3.3821
X3.8425Y-3.252
X3.8462Y-3.3092
X3.8504Y-3.0866
X3.8504Y-3.1181
X3.8504Y-3.4746
X3.8538Y-3.4094
X3.8583Y-3.5446
X3.8592Y-3.2119
X3.8656Y-3.3799
X3.8714Y-3.063
X3.8714Y-3.1024
X3.9112Y-3.5451
X3.9134Y-3.0098
X3.916Y-3.063
X3.916Y-3.1024
X3.9332Y-3.5321
X3.9449Y-3.1732
X3.9508Y-3.2064
X3.9685Y-2.937
X3.9685Y-3.1666
X3.9685Y-3.2521
X3.9685Y-3.2992
X3.9721Y-3.2113
X3.9764Y-3.4252
X3.9843Y-2.9656
X4.0049Y-3.0787
X4.0065Y-3.4369
X4.0197Y-3.5512
X4.0236Y-3.4567
X4.0274Y-3.1853
X4.0276Y-3.1299
X4.0331Y-3.4329
X4.0466Y-3.0868
X4.0541Y-2.937
X4.063Y-3.2677
X4.0706Y-3.5282
X4.0709Y-3.0787
X4.0787Y-3.5039
X4.094Y-3.5485
X4.1004Y-3.2598
X4.103Y-3.5237
X4.1033Y-3.0236
X4.1283Y-3.0159
X4.1398Y-3.0945
X4.1415Y-3.4097
X4.1469Y-3.2591
X4.1513Y-3.607
X4.1526Y-2.937
X4.1526Y-3.0079
X4.1597Y-3.39
X4.1653Y-3.0914
X4.1654Y-3.117
X4.1781Y-3.0079
X4.2112Y-3.3408
X4.2242Y-3.0628
X4.2244Y-3.3189
X4.2283Y-3.4252
X4.2296Y-2.9134
X4.2364Y-3.4009
X4.2386Y-3.607
X4.2795Y-2.9331
X4.2802Y-3.1966
X4.2835Y-3.1713
X4.2992Y-3.3228
X4.3228Y-2.9291
X4.3228Y-2.9547
X4.3685Y-3.6073
X4.3701Y-2.937
X4.3701Y-2.9843
X4.3839Y-3.4016
X4.3844Y-3.0925
X4.3849Y-3.196
X4.3914Y-3.2654
X4.3941Y-3.1721
X4.3976Y-3.5157
X4.4091Y-3.3307
X4.4094Y-3.2441
X4.4094Y-3.2835
X4.4094Y-3.4016
X4.4115Y-3.3563
X4.4136Y-2.9173
X4.4136Y-2.9567
X4.4171Y-3.6063
X4.4173Y-2.9789
X4.4232Y-3.5153
X4.4324Y-3.2046
X4.4542Y-2.9134
X4.4542Y-2.9581
X4.4564Y-2.9843
X4.4634Y-3.107
X4.4654Y-3.5669
X4.4832Y-2.9135
T2
X3.3858Y-3.6063
M30
